<svg width="443" height="416" viewBox="0 0 443 416" fill="none" xmlns="http://www.w3.org/2000/svg">
<g clip-path="url(#clip0_86_1624)">
<path d="M195.542 27.8304V27.4704L196.162 26.6804L194.662 25.6704L195.002 24.8804L195.422 24.6704L196.952 24.7204L197.052 24.3704L196.942 23.4204L196.642 22.8304L196.922 22.4204L197.892 22.4704L198.972 23.1704L200.392 23.2404L201.392 23.9604L202.002 24.0504L206.762 23.7304L208.182 24.1804L209.932 22.9804L211.422 23.0104L212.032 24.1704L211.662 24.9704L212.252 24.3704L212.332 24.1104L212.112 22.8204L212.322 22.4304L213.772 21.9104L214.912 22.3304L215.632 22.2704L215.212 22.2204L214.442 21.6504L214.322 21.1404L214.402 17.9704L215.012 17.0104L213.372 15.7904L212.822 15.0104L212.372 14.7304L211.552 14.5804L210.002 14.8404L208.662 15.5604L208.452 15.5404L207.402 14.4904L207.192 13.7704L206.052 13.1604L205.032 13.2504L204.962 13.1304L206.152 11.7104L207.352 11.1604L208.502 12.2904L209.322 14.2304L209.742 14.2704L210.072 13.6704L209.602 12.2104L209.102 11.3104L209.482 11.2204L210.512 11.5704L211.212 11.2004L212.982 12.6804L213.092 13.1604L214.812 15.3604L215.402 15.4904L215.902 15.1004L217.012 13.4404L217.482 13.4804L218.332 14.3904L219.962 17.3404L220.362 17.6604L221.102 17.8804L221.712 17.4704H222.252L222.802 18.2704L224.342 18.9204L225.082 18.9404L225.612 18.7704L226.662 18.2004L227.062 17.6604L228.242 17.8604L228.362 18.2004L227.612 18.6304L227.442 18.8904L227.492 19.1604L227.832 19.4804L228.612 19.8104L229.212 19.5304L229.532 19.1104L229.782 19.0704L231.252 20.1904L231.122 20.4004L231.272 21.2904L231.482 21.4604L233.252 21.2004L233.812 21.4304L234.842 21.5204L235.742 21.4104L236.542 20.8004L237.612 20.7404L238.692 22.2404L240.062 22.9504L241.002 23.7304L242.182 23.8404L242.602 24.0304L242.542 23.8204L242.982 22.6804L243.652 22.0104L244.212 21.7704L244.842 22.0504L246.452 21.8604L247.282 21.1904L247.032 21.0504L246.412 21.4204L246.302 21.1504L246.532 20.3204L247.532 20.0504L248.272 20.0704L249.652 18.9704L249.612 18.2004L250.012 18.2104L250.382 18.6404L250.052 19.1704L248.202 20.7404L248.662 21.2804L247.412 22.5604L247.362 22.9104L247.572 23.4304L248.082 23.9104L248.632 23.6704L248.792 23.2204L249.682 22.4904L251.192 22.0504L250.272 23.2104L250.642 23.7704L251.442 23.4004L251.632 23.7304L250.762 24.9904L251.062 25.7304L251.382 26.0304L251.832 25.7404L252.652 25.6504L252.802 25.9104L253.552 25.8404L254.132 25.3904L254.892 23.4604L254.602 23.0804L253.572 23.2104L252.912 22.9304L252.862 22.6604L253.992 21.5404L255.832 20.3104L257.042 20.0904L256.792 20.9204L257.472 22.8304L258.242 23.9504L258.732 23.9404L259.152 23.6404L259.122 23.4004L258.412 23.1404L258.472 22.9304L259.352 22.7104L260.452 23.2704L261.562 24.7704L259.672 26.0904L259.032 26.8304L257.932 28.6004L257.682 29.9404L256.312 29.4304L256.202 30.1704L256.872 31.4104L256.862 32.4804L256.682 33.5304L255.922 34.6704L255.822 34.3204L254.942 34.6204L254.982 32.6504L254.812 32.4804L254.472 32.5604L254.042 33.7204L253.112 34.5304L252.672 34.5604L252.522 34.1304L251.992 33.9204L250.862 34.3604L250.142 34.9504L249.752 35.6204L249.782 35.9304L250.222 36.2704L249.932 36.9204L249.452 37.3204L249.252 38.5704L249.722 39.9604L250.142 40.1904L250.742 40.0404L251.212 39.5104L251.152 40.3404L250.812 41.5004L250.122 42.5604L249.822 44.5704L249.522 45.1504L248.262 46.0004L246.832 47.8504L245.952 49.3704L245.932 50.1804L244.572 51.1004L244.132 51.0904L244.802 53.0304L245.262 53.7204L245.982 54.3304L247.372 54.8304L249.342 56.0904L250.352 57.0104L253.262 58.5204L253.572 58.7904L253.832 60.1604L254.432 60.8604L257.132 62.1504L258.242 63.0704L259.252 64.1704L262.122 64.2904L263.272 64.8904L265.792 66.6804L267.082 67.2304L267.682 67.2104L268.802 67.5804L269.792 68.0704L271.112 70.1704L272.652 71.4804V181.03L199.192 181.04L184.722 181.03L175.012 181.1L174.952 79.5004V58.5104V52.6104L175.922 52.9304L176.962 53.8304L176.842 55.8704L177.022 56.0904L177.732 55.2104L177.322 52.5004L177.442 52.2504L178.562 52.5604L179.962 53.2704L182.202 55.7704L182.292 56.3104L182.892 56.0804L182.152 55.1104L181.752 54.2804L181.612 53.4504L181.852 52.9804L181.972 52.2304L183.642 52.5204L184.332 52.2904L185.202 51.4504L183.262 52.0604L182.282 51.4304L181.502 50.4104L181.322 49.8904L181.722 49.6904L182.582 49.6004L183.292 49.1004L183.332 48.8604L182.112 49.2704L180.812 49.0304L179.892 48.5004L178.842 47.5004L178.972 46.6104L179.622 45.3704L180.292 44.4804L182.902 42.8404L183.492 40.0604L183.432 39.5504L183.942 37.5404L184.712 36.7404L184.812 37.4404L185.192 37.6604L186.242 37.4704L187.572 36.5704L188.662 35.4204L188.552 35.0104L187.872 34.0804L187.502 33.7704L187.132 33.6904L187.042 33.4504L187.142 31.4904L187.322 31.0004L187.772 30.8004L187.922 31.0804L188.242 31.2304L188.652 31.1404L189.352 30.6404L189.632 30.0304L189.532 28.5604L189.642 28.1904L191.322 27.4404L192.322 28.5804L193.282 28.5104L192.362 28.2404L192.052 27.0704L192.342 26.3604L192.422 25.4804L192.092 25.2304L192.622 25.0104L194.162 25.5004L195.542 27.8304ZM196.222 20.0904L195.162 19.2104L193.172 18.3904L191.172 16.8204L190.362 14.6904L189.782 12.5404L189.862 11.7304L190.092 11.5504L191.602 12.8704L192.052 13.6004L193.482 14.0504L195.002 13.6904L195.592 13.1404L196.732 13.6304L198.002 12.6504L198.332 12.6204L198.552 13.3704L199.112 14.1704L199.162 13.8904L198.792 12.9604L198.922 12.4104L199.642 11.8404L201.232 12.4804L202.432 14.0604L202.522 14.8904L199.752 17.8004L199.402 17.8504L198.062 18.7104L196.222 20.0904ZM260.812 44.9004L260.982 44.6204L261.452 44.5904L261.172 45.9904L260.602 46.2104L259.102 45.8104L257.812 46.0004L255.052 45.3104L255.432 43.4004L255.352 42.5804L255.602 41.6504L255.912 41.1204L257.382 40.8404L257.732 40.5704L257.422 39.8704L258.332 39.1104L258.802 39.1404L258.722 39.6504L258.302 39.9404L258.702 41.1004L259.732 41.2804L260.092 40.9004L259.982 40.5204L260.182 40.2504L260.542 40.1504L260.862 40.3804L260.942 40.7904L259.872 41.8904L259.302 42.2604L258.632 43.7504L258.652 44.7804L258.962 45.0504L260.412 45.2704L260.812 44.9004ZM191.162 18.9804L189.362 18.2904L186.852 18.9304L186.252 18.8104L186.082 18.5404L186.002 18.2504L186.602 17.1604L187.102 17.4604L187.512 17.4804L187.912 17.0904L187.882 15.5604L187.702 15.0904L188.592 13.5404L189.552 13.3404L191.152 17.3404L191.922 17.5404L192.732 18.2704L192.482 18.8204L191.162 18.9804ZM256.412 14.7704L256.452 14.2604L257.922 12.1304L258.852 10.2504L259.342 9.99042L258.812 12.0304L257.042 14.5104L256.802 14.7304L256.412 14.7704ZM213.992 13.5404L213.672 13.2004L213.292 12.1504L212.972 10.3204L213.802 10.0004L214.322 11.7104L214.302 12.7904L213.992 13.5404ZM262.392 63.3304L261.772 62.8704L261.092 61.8604L261.292 61.2804L261.912 60.6704L262.402 61.2804L262.812 62.6104L262.532 63.3204L262.392 63.3304ZM253.132 41.3504L253.162 40.9504L252.812 40.3404L252.532 40.5304L252.702 41.0604H252.242L252.072 40.8504L252.172 39.9204L253.122 39.1704L253.582 39.2504L254.062 39.9004L253.912 40.6104L253.552 41.1904L253.132 41.3504ZM252.932 17.3504V16.8404L253.922 16.0504L254.742 16.0104L256.182 14.8904L256.082 15.4404L254.992 16.2704L252.932 17.3504ZM256.642 61.2704L256.362 61.1304L256.582 60.1904L257.202 59.7704L257.512 59.9104L257.322 61.1404L256.642 61.2704Z" fill="url(#paint0_linear_86_1624)"/>
<path d="M14.722 181.05L14.912 180.68L14.922 179.21L12.492 176.64L11.202 174.22L10.022 171.23L8.87195 170.53L7.89195 167.75L7.80195 167.22L7.92195 166.14L7.25195 165.03L5.88195 163.43L5.49195 162.29L5.43195 159.94L5.87195 158.8L6.11195 157.34L7.04195 154.34L7.79195 152.84L9.33195 151.63L9.60195 150.62L9.75195 149.27L9.51195 147.71L10.142 145.79L10.022 144.65L9.43195 143.02L8.54195 141.76L8.38195 140.81L9.94195 137.65L11.392 133.48L12.442 131.92L13.082 131.56L13.882 131.42L14.022 131.7L13.482 132.72L12.952 135.79L13.652 137.27L13.312 139.43L13.782 139.91L16.152 138.91L16.452 137.66L17.112 135.97L18.902 132.86L19.182 131.9L22.352 130.14L23.542 130.05L25.632 129.01L27.872 128.15L29.692 126L30.352 125.49L31.722 124.9L33.012 122.96L35.562 121.77L35.842 121.03L36.532 120.65L37.192 120.57L38.992 119.93L40.412 119.05L41.512 118.12L42.392 118.31L42.862 118.78L43.342 118.91L45.412 117.8L46.482 118.17L46.832 118.57L47.592 118.91L48.402 119.06L49.092 119.05L52.122 118.43L53.912 117.65L56.292 115.36L57.482 114.65L57.632 114.94L58.092 114.95L61.462 114.39L62.682 114.46L64.242 113.94L65.862 112L66.182 111.13L67.272 110.3L68.452 110.19L71.112 110.85L72.712 111.47L74.922 110.33L79.852 109.61L80.912 109.26L86.792 106.81L88.412 105.97L91.122 103.71L93.422 100.6L95.062 97.0704L96.562 95.0504L96.432 94.1304L96.822 93.2704L97.082 93.0204L97.792 93.1904L98.332 92.9004L99.132 92.2604L99.712 91.4104L100.382 91.0804L102.652 89.2904L102.982 88.4904L102.922 87.8704L102.602 87.5704L101.742 87.3304L101.252 86.6004L101.132 84.4604L100.492 82.8004L100.522 80.5904L100.862 79.2404L101.752 77.7104L103.082 76.4504L103.822 75.9804L105.202 75.9704L104.652 74.7404L105.112 74.1204L105.412 74.0004L105.652 74.2304H105.912L107.132 73.8104L107.242 73.4904L106.962 73.0804L107.222 71.9904L107.532 71.6404L108.102 71.5204L108.672 70.8904L108.732 70.2704L108.962 69.9004L109.732 69.6204L110.472 70.3604L110.242 70.6504L109.702 70.5904L109.342 71.8404L110.032 72.7804L110.862 73.3004L111.082 74.1604L113.162 78.0504L115.832 82.3204L116.072 83.2504L116.272 82.2604L115.902 81.5404L115.942 80.6504L116.542 78.8304L116.052 77.3304L116.252 76.4704L116.942 76.4504L118.322 78.1204L119.122 78.8404L119.512 79.0104L119.782 78.8604L119.362 78.6604L118.862 78.0404L118.472 76.4804L119.502 75.3004L119.142 75.1104L118.312 75.3604L118.142 75.2404L117.612 74.1104L116.422 72.8204L116.482 71.5904L115.262 71.6104L114.432 70.8604L115.172 70.8304L116.772 71.1904L117.512 70.0704L117.602 69.4904L117.492 69.0504L116.282 68.8104L115.892 68.4604L115.862 67.4704L116.012 67.1504L117.702 66.7804L118.572 67.4604L118.332 67.9904L117.772 68.1404L118.932 69.3604L119.502 69.4804L119.522 69.0404L120.302 67.9804L121.622 68.1704L122.202 68.4304L122.492 68.6204L122.882 69.5504L123.182 69.7604L124.302 69.8204L124.862 69.1804L125.852 69.6604L126.972 69.7704L128.602 69.5404L129.762 70.0504L130.382 69.7904L129.542 69.7104L128.262 69.1104L127.372 68.9004L126.802 68.8604L125.912 69.1204H125.242L125.052 68.9204L124.782 67.7104L125.372 66.3704L125.812 66.2704L126.332 67.0604L127.142 66.5004L127.062 65.4704L127.382 64.3004L128.602 63.0704L127.992 62.8204L127.402 62.9904L126.522 64.4904L126.012 64.5004L125.062 63.6804L124.752 61.4804L125.682 59.3504L126.022 59.2004L127.032 59.7804L127.842 59.3604L128.032 59.0804L127.912 56.9304L128.372 56.8204L130.622 57.9704L131.502 58.8204L133.542 59.8104L132.402 58.8004L132.342 58.5504L132.862 57.6004L132.632 57.3604L131.702 57.3504L130.622 57.7504L130.502 57.1104L130.902 56.5504L131.322 56.3504L131.632 56.5504L132.062 55.8104L131.722 55.7204L130.302 56.6604L130.002 56.6504L129.682 55.8004L130.032 55.3504L130.502 55.1304L131.142 55.3204L131.372 55.2504L131.942 54.8504L131.782 54.4704L132.432 54.0104L133.182 55.7004L133.372 55.8204L133.482 55.3404L133.342 54.3804L134.622 55.1304L134.652 55.5304L135.082 55.7404L136.092 55.6904L136.312 55.4804L136.122 55.3204L135.792 55.3504L135.502 55.0904L135.822 54.7804L134.642 53.9404L133.572 53.4104L133.932 52.9904L134.222 52.8904L133.062 51.1704L134.232 49.5004L135.242 48.6604L135.812 48.9004L137.992 48.9504L138.102 47.5904L137.892 46.2804L138.032 45.5304L138.312 45.3204L139.512 45.8904L138.572 49.8704L138.772 49.6604L139.442 47.3504L140.752 48.0204L140.552 49.2204L140.762 49.6104L141.402 50.0104L142.362 48.9404L142.872 48.5804L143.182 46.6704L144.012 44.9804L144.052 44.2804L143.342 42.4604L142.652 42.0204L143.192 41.9004L144.062 42.0304L144.812 42.4104L144.722 43.2504L144.162 43.4904L144.532 44.7104L144.992 44.8404L145.572 45.4304L145.852 44.9904L145.652 44.4004L146.082 43.4004L147.142 42.5604L147.912 42.4504L147.402 43.7004L148.632 45.2904L148.982 45.3904L150.102 44.2104L151.032 42.5204L150.562 40.5604L151.782 40.0704L152.842 39.8204L153.512 40.3604L154.132 41.1604L153.942 41.5804L154.712 42.5304L154.982 42.1004L154.992 41.7404L155.942 41.7004L157.932 42.3404L158.972 43.8104L160.462 44.8104L163.712 49.3304L164.182 49.1004L166.022 50.6804L166.222 51.7704L165.702 52.5204L164.932 55.1204L165.042 56.3004L164.972 58.4304L164.402 59.5704L164.922 59.2704L165.222 58.8504L165.602 56.3904L166.142 56.6104L166.962 57.4204L167.282 58.4804L167.332 57.4004L166.602 56.1304L166.252 54.7304L167.492 53.0304L167.712 53.0704L168.002 54.5004L169.032 54.5304L169.142 54.0204L168.712 53.2404L168.372 51.7704L169.982 51.3104L175.022 52.5704V58.4704V79.4604L175.082 181.05L174.952 251.27L172.702 252.25L170.112 253.76L166.082 255.59L164.232 256.33L161.252 256.91L156.882 258.6L154.602 259L149.852 259.22L146.732 258.92L144.342 258.23L143.142 258.82L142.092 258.59L140.292 259.57L137.132 262.17L136.362 262.51L134.822 262.84L131.492 264.68L130.232 265.81L128.792 266.68L125.062 267.29L123.752 267.81L122.752 268.63L121.842 269.79L120.712 273.07L120.202 275.22L119.162 275.95L118.182 276.98L117.812 277.72L117.802 278.07L117.322 278.6L115.692 279.71L113.822 279.57L113.542 279.68L112.892 280.56L112.392 280.94L111.652 281.18L110.922 279.46L110.022 279.08L108.142 279.72L106.892 279.54L105.412 279.6L105.212 279.8L103.662 279.96L102.802 279.79L102.192 280.03L101.802 280.48L101.682 281.14L100.242 281.29L99.822 281.15L100.052 280.66L99.732 279.53L99.102 278.72L98.882 278.64L98.042 278.79L97.442 279.36L96.562 279.61L93.762 278.6L93.092 278.55L91.732 278.52L88.642 279.06H86.592L85.822 279.47L83.092 279.85L81.752 280.59L79.972 280.14L77.282 280L75.202 280.64L74.402 281.52L73.072 282.23L72.502 282.88L71.602 284.46L71.452 285.26L69.912 286.77L68.642 287.52L67.232 287.02L65.412 286.85L63.542 288.12L63.322 288.45L63.702 288.87L63.322 289.3L62.442 289.84L60.692 290.41L60.052 291.07L59.722 291.94L58.572 292.8L56.402 293.96L53.752 294.44L53.712 294.71L53.972 294.99L55.472 295.32L54.802 295.7L53.982 295.55L53.172 294.91L52.552 294.68L51.872 294.72L51.532 294.96L51.282 295.87L50.452 295.21L48.272 294.29L44.122 294.27L43.552 294.8L43.302 294.81L41.692 294.29L40.362 294.5L38.822 294.06L36.182 292.3L33.542 291.69L32.892 290.16L31.812 288.91L30.012 287.07L28.362 285.97L26.392 284.94L25.602 284.85L24.812 285.04L24.312 285.69L23.082 284.38L23.092 283.25L22.522 279.21L22.482 276.95L22.952 274.77L23.412 274.9L24.082 275.9L25.372 276.45L26.402 276.36L27.282 276.04L27.642 275.83L30.712 271.41L30.242 267.77L29.432 263.77L29.682 262.9L30.512 261.87L30.472 262.28L29.852 262.97L29.832 263.49L30.272 264.74L30.572 265.19L30.772 265.05L30.752 264.35L31.252 262.51L30.932 259.29L31.182 257.64L30.992 256.41L31.052 253.84L30.642 251.59L30.382 250.88L27.732 246.05L26.982 243.81L26.352 242.35L24.802 239.65L23.492 236.3L23.572 235.96L23.232 233.42L22.512 230.94L22.292 230.75L22.342 225.9L22.732 223.63L22.192 221.74L21.912 221.29L21.742 220.13L21.172 218.78L18.832 216L18.532 215.09L18.452 213.07L17.572 211.29L15.452 208.12L14.632 207.62L13.792 206.42L13.142 203.49L13.282 202.58L13.642 201.73L13.432 200.46L12.902 198.61L11.422 195.54L9.92195 192.73L7.60195 189.38L4.29195 185.86L3.68195 183.93L4.18195 182.93L4.11195 181.82L4.15195 181.53L4.36195 181.38L4.54195 183.72L4.87195 184.4L5.21195 182.48L6.82195 184.47L7.04195 185.12L7.17195 187.17L7.42195 187.91L8.22195 188.93L8.56195 189L8.59195 188.69L9.29195 188.21L9.75195 188.32L10.532 187.16L10.592 185.1L9.81195 184.06L8.32195 183.08L7.22195 181.94L6.59195 179.34L5.49195 177.56L5.68195 176.57L6.34195 175.52L6.65195 175.75L7.66195 177.57L8.81195 178.56L9.21195 179.69L8.95195 181.11L8.65195 181.44L8.68195 182.46L9.00195 183.39L9.55195 183.44L9.92195 183.04L10.792 181.36L11.362 184.18L11.662 184.95L12.862 186.56L14.222 185.49L14.512 184.52L14.182 184.05L13.972 183.2L14.342 180.87L14.722 181.05ZM3.49195 182.78L3.17195 182.52L1.56195 180.08L0.751953 178.45L0.251953 176.57L0.321953 175.52L0.751953 174.9L1.29195 175.03L1.07195 175.56L1.11195 175.89L2.39195 179.55L3.49195 181.55L3.71195 182.34L3.49195 182.78ZM126.342 59.0204L126.252 58.7104L125.672 58.1704L125.762 57.6704L126.032 57.2404L126.742 56.9504L127.682 58.5204L126.342 59.0204ZM26.972 120.78L26.602 120.47L26.332 120.73L26.252 120.64L26.262 120.03L27.372 118.53L27.732 118.31L27.862 118.38L28.012 119.17L27.962 119.52L27.332 120.5L26.972 120.78ZM133.032 50.1204L132.462 49.8104L132.532 48.9604L132.782 48.3204L133.292 47.7904L133.792 48.3504L133.542 49.5704L133.152 49.7604L133.032 50.1204Z" fill="url(#paint1_linear_86_1624)"/>
<path d="M392.532 306.28L391.272 305.64L389.832 303.49L389.542 302.7L389.562 300.86L390.082 298.3L392.932 296.2L394.202 296.92L394.772 297.59L395.772 297.96L396.442 298.39L395.952 298.83L394.942 298.69L394.132 299.08L393.612 299.8L392.992 302.29L393.232 305.04L393.152 305.43L392.532 306.28Z" fill="url(#paint2_linear_86_1624)"/>
<path d="M402.682 327.75L383.432 318.05L382.452 317.97L383.332 316.45L383.442 315.48L382.442 313.44L381.752 312.56L381.192 308.14L380.012 307.39L378.192 306.61L377.262 306.97L375.732 306.68L374.722 306.85L373.712 308.11L372.732 308.2L370.912 308.84L369.452 308.74L367.032 307.98L366.062 307.22L364.942 307.05L364.262 307.14L363.882 307.54L362.742 308.03L360.492 307.83L357.392 307.24L356.632 306.92L355.352 305.69L354.562 305.07L354.292 305.04L353.472 305.22L352.522 305.74L351.572 305.65L351.202 305.35H349.872L348.512 305.7L348.312 305.94L347.932 307.32L348.102 308.68L346.182 309.22L345.762 309.11L344.422 308.33L342.142 305.66L341.582 304.38L341.332 304.12L340.712 303.92L339.612 302.94L338.772 301.78L336.912 300.79L335.242 299.52L334.472 299.24L334.022 299.34L333.352 298.84L333.172 298.56L333.422 297.8L333.002 297.15L332.122 296.93L331.312 296.43L330.812 295.33L330.522 293.68L330.782 292.37L330.792 291.54L330.652 291.33L328.342 290.07L326.722 289.96L325.442 289.44L325.292 289.08L324.612 288.63L323.992 288.84L323.802 289.11L323.452 290.66L322.962 291.28L322.042 291.1L321.672 290.67L321.702 290.41L321.122 288.86L320.182 287.99L320.132 286.11L318.622 283.57L317.752 282.97L316.502 282.4L314.802 282.75L313.192 282.33L312.232 282.7L311.622 283.54L311.092 283.82L310.902 283.56L309.692 282.82L307.912 281.99L306.042 281.85L305.712 281.76L305.202 281.26L305.252 217.56L306.542 217.55L328.342 217.56H345.252H359.032H391.562L392.392 217.15L393.662 215.56L397.132 212.61L398.332 212.28L398.612 212.33L398.782 212.69L399.732 212.97L403.072 212.68L404.632 212.08L406.102 211.9L406.402 211.97L407.232 212.83L407.982 213.34L409.792 213.39L411.432 213.05L414.172 214.3L416.942 216.69L417.072 218.57L417.512 219.55L417.752 219.66L418.282 219.53L418.802 218.98L419.782 216.98L421.652 216.15L422.052 216.92L422.722 217.24L424.802 216.24L425.152 214.23L424.172 212.01L425.222 211.18L426.442 210.58L428.602 209.87L429.042 209.57L429.262 209.01L429.882 208.49L430.362 208.56L431.072 209.29L432.852 209.68L434.882 209.47L436.672 209.59L437.502 208.49L438.952 208.22L440.142 207.76L440.952 207.1L441.732 207.81L441.882 208.62L441.532 211.29L441.732 212.69L442.232 213.37L442.032 215.85L440.322 218.09L439.122 221.61L439.422 222.48L438.212 229.37L437.682 231.39L435.662 237.07L435.522 240.42L435.692 241.03L436.072 241.08L436.262 241.85L435.152 245.57L434.942 247.04L433.802 250.81L432.842 252.77L430.642 255.55L430.142 256.85L430.462 258.54L430.332 260.33L428.442 261.93L427.632 262.87L425.962 263.91L425.872 264.46L426.142 265.04L424.062 265.77L422.532 266.56L420.982 268.89L419.952 271.44L419.712 271.64L419.162 271.68L418.652 272.09L418.542 272.68L419.002 273.09L418.652 274.48L417.412 276.14L416.942 279.64L416.682 280.58L416.292 280.88L415.662 280.81L414.812 281.15L415.412 281.31L415.852 281.72L414.972 283.15L413.992 283.88L413.022 285.31L412.002 288.28L412.442 288.82L411.902 291.28L411.202 291.72L410.982 292.48L411.362 293.59L412.122 294.38L411.952 295.26L411.662 295.51L411.302 295.12L411.432 294.85L411.282 294.24L410.992 294.21L410.302 294.64L410.222 295.08L410.502 295.76L409.892 296.44L408.732 297.08L408.142 298.19L408.082 298.75L407.282 301.07L406.732 301.96L404.632 306.56L404.362 308.85L404.342 311.75L403.712 312.57L403.132 315.79L402.512 318.04L401.822 319.78L401.872 321.75L402.952 323L403.092 323.94L403.082 324.39L402.762 324.29L402.302 324.63L402.322 326.21L402.682 327.75ZM393.152 305.43L393.232 305.03L392.992 302.28L393.612 299.8L394.132 299.07L394.952 298.68L395.962 298.82L396.442 298.39L395.772 297.96L394.772 297.6L394.202 296.92L392.932 296.2L390.082 298.3L389.562 300.86L389.542 302.71L389.832 303.5L391.282 305.65L391.542 305.87L392.632 306.24L393.152 305.43Z" fill="url(#paint3_linear_86_1624)"/>
<path d="M254.262 283.55L253.182 285.29L252.302 285.68L251.372 287.27L250.252 287.97L249.582 289.3L248.812 291.63L249.082 291.76L249.562 291.7L251.012 290.68L251.162 291.37L250.992 293.96L250.472 294.18L250.182 293.63L249.272 292.62L248.622 292.22L247.942 292.32L247.462 293.45L247.072 293.44L246.662 292.65L245.232 290.78L243.622 289.12L242.772 288.44L242.422 288.33L241.302 288.72L241.732 287.53L242.352 286.64L242.402 287.46L243.822 288.98L244.392 289.37L245.472 289.02L244.372 288.58L244.232 288.17L244.172 287.83L244.352 287.43L243.872 284.73L243.042 282.52L242.912 281.04L242.182 279.91L240.442 277.95L238.352 276.25L238.652 275L238.542 274.1L238.002 272.56L236.902 270.29L235.662 269.81L233.652 270.13L232.792 270.62L232.132 269.88L232.142 269.55L231.342 267.42L230.022 264.42L230.892 264.48L231.322 264.88L231.472 265.53L232.212 264.52L232.432 263.86L232.212 262.72L231.442 261.63L230.762 261.04L230.452 260.99L228.732 261.53L228.032 262.2L227.622 262.12L227.642 261.08L227.952 260.37L228.502 260.59L228.682 260.29L227.332 258.41L226.242 257.77L225.562 257.16L225.682 256.69L224.942 256.46L224.672 256.68L224.512 257.33L223.622 257.89L220.162 257.65L219.832 257.57L219.072 256.75L218.072 256.39L216.542 254.94L216.022 254.66L213.842 254.4L212.802 254.61L211.992 255.36L211.052 255.69L210.372 255.74L209.622 255.55L207.792 253.7L204.992 251.67L200.602 249.4L198.252 248.52L197.892 248.56L196.782 249.46L194.952 250.17L194.402 250.24L188.642 249.81L187.402 249.85L185.092 250.03L184.032 250.3L177.452 250.86L174.952 251.27L175.012 181.09L184.722 181.02L199.192 181.03L272.652 181.02H305.222L305.252 217.57L305.202 281.27L304.922 280.9L304.882 335.3L303.612 335.17L302.752 335.43L301.962 335.4L300.132 334.42L298.242 332.52L296.962 329.93L295.692 328L294.912 327.45L294.302 327.48L292.352 324.86L291.672 323.5L292.012 322.8L291.982 322.25L291.472 320.98L291.672 319.73L292.442 319.09L292.862 318.01L292.852 316.2L292.452 314.77L290.552 310.14L287.552 306.14L285.572 304.01L284.412 303.07L284.942 303.24L287.902 305.83L289.862 308.52L290.692 310.23L290.572 309.3L290.072 307.89L289.662 307.28L288.372 305.79L284.592 302.17L284.572 300.99L285.242 300.72L286.062 301.43L285.962 303.1L286.132 303.33L287.152 303.22L287.432 302.06L287.562 300.29L287.382 299.02L285.822 298.25L284.982 299.08L284.382 299.26L283.742 299.23L283.192 299.47L282.972 300.01L283.082 300.36L283.702 300.56L283.912 300.82L283.422 301.45L280.492 301.2L279.722 301.52L279.072 302.31L278.482 302.72L274.562 302.93L273.672 302.26L274.322 301.11L275.762 300.39L277.422 298.6L277.732 296.85L277.602 296.39L277.712 295.55L278.242 294.39L277.882 292.25L278.132 291.07L278.042 290.49L277.382 289.35L275.642 287.22L275.042 285.06L273.662 282.71L273.402 282.77L272.742 284.31L273.032 284.89L272.872 285.44L271.842 286.5L271.462 287.81L271.312 290.25L269.942 294.71L269.932 295.81L269.132 296.46L267.592 295.76L266.802 295.56L266.382 295.64L264.342 296.41L263.882 297.16L263.622 297.33L262.112 297.1L261.272 297.84L260.652 298.07L260.302 297.9L259.992 297.38L260.392 296.73L261.132 296L261.392 295.37L261.572 293.51L262.082 292.76L262.992 293.12L263.922 292.87L264.882 292.81L265.072 293.11L266.002 293.53L266.542 293.24L266.762 292.69L267.242 289.55L267.052 287.1L267.182 284.67L266.732 283.02L266.892 282.8H267.422L267.742 282.18L268.292 280.36L268.382 279.42L270.282 276.99L271.502 275.79L271.962 275.66L272.142 275.19L271.792 273.66L270.692 271.55L271.022 270.57L271.642 270.13L272.222 269.9L272.922 269.88L273.222 269.64L273.142 268.98L272.812 268.35L272.222 268.1L271.592 265.24L271.022 263.97L270.722 262.42L270.142 261.98L270.052 264.07L270.302 264.21L270.552 264.65L270.622 266.02L270.262 267.88L269.692 267.91L268.312 268.35L267.152 269.61L266.032 271.84L265.972 272.91L265.772 273.51L264.132 276.58L263.392 277.2L262.072 277.25L261.302 276.78L260.592 277.84L260.792 277.98L260.372 278.42L257.292 280.05L255.482 281.47L254.862 282.11L254.802 282.53L254.262 283.55ZM271.692 303.73L273.342 304.18L273.872 304.9L273.882 305.6L273.092 306.31L271.802 305.68L270.062 305.55L268.532 306.27L268.332 306.55L268.472 307.47L268.162 307.78L266.742 308.48L265.682 307.4L264.252 307.13L263.852 307.26L263.732 307.75L263.422 307.93L262.132 307.81L260.702 308.03L258.662 308.09L258.312 307.51L256.772 306.23L256.722 305.76L257.232 304.26L261.212 303.08L262.062 303.07L263.082 302.83L265.222 301.88L267.492 302.07L268.132 302.68L268.122 303.76L268.272 303.96L269.312 304.1L270.382 304.71L271.022 304.76L271.692 303.73Z" fill="url(#paint4_linear_86_1624)"/>
<path d="M398.352 330.79L397.032 331.44L395.432 331.6L390.182 331.63L388.362 331.89L386.572 331.82L384.562 331.96L380.812 333.07L378.592 334.17L376.222 335.97L374.392 337.68L372.662 339.4L370.022 342.47L368.982 343.39L366.552 343.7L364.172 344.3L363.322 344.03L362.332 344.09L361.882 344.28L361.502 344.85L362.712 347.06L363.962 346.18L364.192 345.34L364.582 345.52L364.742 349.28L364.102 350.09L363.762 350.26L363.252 350.02L362.952 349.57L362.162 347.5L361.022 346.07L360.182 345.71L359.652 345.88L359.502 346.31L358.432 346.22L357.552 344.44L357.812 344.02L357.472 343.38L356.512 343.23L355.762 343.73L355.212 343.82L354.762 343.56L353.132 341.91L353.312 340.62L354.272 340.22L354.652 339.55L353.892 337.81L353.442 337.52L351.392 337.67L350.932 339.21L348.952 341.25L347.992 341.44L347.552 341.37L346.032 339.6H347.322L348.462 339.09L350.052 336.29L349.702 335L348.362 332.93L347.732 332.61L346.722 333.07L345.272 334.46L343.492 335.79L341.962 335.95L341.772 336.14L341.832 336.64L343.332 336.9L344.172 336.61L344.672 336.24L345.422 336.45L345.582 336.85L345.462 337.46L344.902 338.32L344.632 338.52L343.702 338.3L342.032 338.66L341.682 338.87L338.412 341.08L336.032 344.01L334.832 344.34L334.432 344.62L334.192 345.23L332.782 346.27L332.372 346.16L331.702 345.37L331.092 345.01L328.842 344.29L328.332 343.77L327.412 343.2L326.582 343.09L324.752 342.35L321.842 340.1L320.152 339.43L318.952 339.72L318.752 339.95L317.772 339.93L316.712 339.32L315.652 338.44L314.092 338.1L313.332 338.09L312.552 338.31L311.912 338.85V339.28L312.242 339.93L311.382 340.17L310.112 339.55L309.172 338.41L307.282 336.64L306.312 336L304.842 335.32L304.882 280.92L305.162 281.29L305.672 281.79L306.002 281.88L307.872 282.02L309.652 282.85L310.862 283.59L311.052 283.85L311.582 283.57L312.192 282.73L313.152 282.36L314.762 282.78L316.462 282.43L317.712 283L318.582 283.6L320.092 286.14L320.142 288.02L321.082 288.89L321.662 290.44L321.632 290.7L322.002 291.13L322.922 291.31L323.412 290.69L323.762 289.14L323.952 288.87L324.572 288.66L325.252 289.11L325.402 289.47L326.682 289.99L328.302 290.1L330.612 291.36L330.752 291.57L330.742 292.4L330.482 293.71L330.772 295.36L331.272 296.46L332.082 296.96L332.962 297.18L333.382 297.83L333.132 298.59L333.312 298.87L333.982 299.37L334.432 299.27L335.202 299.55L336.872 300.82L338.732 301.81L339.572 302.97L340.672 303.95L341.292 304.15L341.542 304.41L342.102 305.69L344.382 308.36L345.722 309.14L346.142 309.25L348.062 308.71L347.892 307.35L348.272 305.97L348.472 305.73L349.832 305.38H351.162L351.532 305.68L352.482 305.77L353.432 305.25L354.252 305.07L354.522 305.1L355.312 305.72L356.592 306.95L357.352 307.27L360.452 307.86L362.702 308.06L363.842 307.57L364.222 307.17L364.902 307.08L366.022 307.25L366.992 308.01L369.412 308.77L370.872 308.87L372.692 308.23L373.672 308.14L374.682 306.88L375.692 306.71L377.222 307L378.152 306.64L379.972 307.42L381.152 308.17L381.712 312.59L382.402 313.47L383.402 315.51L383.292 316.48L382.412 318L383.392 318.08L402.642 327.78L401.792 328.32L400.552 328.43L399.332 330.29L398.352 330.79ZM352.512 340.34L351.732 340.04L351.592 339.41L351.862 338.52L353.602 338.88L354.042 339.4L353.922 339.6L353.222 339.61L352.512 340.34ZM352.492 342.26L352.122 341.81L351.592 341.58L349.912 341.72L349.942 341.57L350.702 340.83L351.712 340.63L352.002 340.82L352.582 342.21L352.492 342.26Z" fill="url(#paint5_linear_86_1624)"/>
<path d="M402.682 140.41V140.59L403.352 141.23L402.792 139.3L402.082 137.84L402.092 137.29L402.512 136.18L402.942 135.62L403.422 135.49L403.802 135.65L404.632 136.93L405.122 138.32L406.442 138.86L408.162 140.04L409.392 140.6L408.762 139.11L408.752 138.23L409.052 137.62L409.842 137.76L410.612 138.91L410.292 139.65L410.372 140.22L411.842 142.31L411.152 146.98L411.762 148.24L411.632 149.92L412.352 151.38L413.232 151.86L414.042 151.98L414.352 152.69L415.092 153.25L415.612 154.75L416.382 155.17H416.742L417.252 155.53L418.402 156.95L419.142 157.17L419.722 157.63L419.552 157.9L419.622 158.23L419.922 158.35L420.452 157.83L420.472 157.19L420.732 156.94L421.212 157.08L422.342 158.38L423.922 159.79L424.752 162.26L426.072 164.42L427.652 165.63L429.182 166.23L429.722 166.85L430.042 167.62L430.152 169.05L431.932 172L433.422 172.45L434.492 172.52L434.912 174.28L434.782 175.34L434.342 175.79L434.402 177.19L434.642 177.86L435.002 178.2L435.332 178.29L435.912 179.71L437.472 180.42L437.512 180.71L436.992 181.84L436.282 184.74L436.482 185.52L436.752 189.09L437.052 189.82L437.202 194.09L436.532 194.3L435.872 195.23L436.202 196.89L437.392 197.81L438.272 198.91L438.952 201.24L439.872 202.53L440.192 203.4L439.952 205.03L440.492 206.39L440.992 207.09L440.182 207.75L438.992 208.21L437.542 208.48L436.712 209.58L434.922 209.46L432.892 209.67L431.112 209.28L430.402 208.55L429.922 208.48L429.302 209L429.082 209.56L428.642 209.86L426.482 210.57L425.262 211.17L424.212 212L425.192 214.22L424.842 216.23L422.762 217.23L422.092 216.91L421.692 216.14L419.822 216.97L418.842 218.97L418.322 219.52L417.792 219.65L417.552 219.54L417.112 218.56L416.982 216.68L414.212 214.29L411.472 213.04L409.832 213.38L408.022 213.33L407.272 212.82L406.442 211.96L406.142 211.89L404.672 212.07L403.112 212.67L399.772 212.96L398.822 212.68L398.652 212.32L398.372 212.27L397.172 212.6L393.702 215.55L392.432 217.14L391.602 217.55H359.072H345.252H328.352L306.552 217.54L305.252 217.57L305.232 181.03H272.662V71.4804L274.772 73.2004L275.812 73.6004L277.942 74.1104L279.602 74.0104L280.122 74.3904L281.812 75.1004L283.632 75.3604L285.052 77.3304L285.282 78.7904L285.832 79.8504L286.352 80.3604L287.182 80.6504L288.272 80.7804L289.342 81.4904L290.222 82.3804L292.372 83.0004L293.112 83.4404L294.162 84.3804L294.592 84.5604L295.822 84.6304L298.692 84.1104L300.182 83.5604L301.112 83.0604L302.612 81.9004L303.432 81.6104L304.002 80.5704L304.612 78.2104L304.772 76.5204L307.352 73.1704L308.352 70.9104L308.672 69.2704L309.882 66.0904L309.602 64.2004L310.252 60.0604L312.142 55.7304L312.482 54.3604L311.412 51.4204L310.922 48.2704L311.082 47.3504L311.702 45.7604L311.782 44.5204L311.542 43.6504L310.452 42.3504L310.362 41.0104L311.152 37.7304L312.742 34.6404L312.622 34.1504L312.122 33.5904L311.632 31.6704L311.722 31.3504L311.862 31.1004L312.972 30.4004L313.392 29.8904L313.922 28.4204L314.572 28.6204L314.922 29.2204L314.932 30.1104L315.392 30.8104L315.482 30.3404L314.872 28.5604L314.392 28.2104L313.072 26.2304L313.392 25.9704L313.182 25.8104L312.472 25.7604L312.382 26.4104L312.722 26.8704L312.092 27.0704L311.712 26.9004L311.732 26.6504L312.752 24.4404L313.702 23.1304L313.532 22.7504L314.022 21.3504L314.492 20.6504L314.962 20.4404L315.232 21.7604L316.392 21.5304L316.482 21.2604L315.602 20.4004L315.562 19.9504L315.802 18.6704L317.472 13.8704L317.862 11.4204L317.642 9.49038L317.742 9.22038L318.142 8.93038L319.862 8.63038L320.472 7.82038L320.962 6.59038L321.772 6.56038L322.792 7.04038L322.452 7.56038L321.732 8.22038L321.652 9.23038L322.342 8.35038L322.732 8.38038L324.202 9.63038L324.672 10.6604L325.512 14.0804L325.232 15.4004L325.532 17.6504L325.452 18.9404L326.632 19.9804L327.382 20.0404L328.092 19.7204L328.402 19.8404L329.132 20.6404L328.082 22.3304L327.862 23.2604L327.812 24.4704L328.372 24.6304L328.712 24.5404L329.672 25.0104L329.972 25.3404L330.012 26.5004L330.492 27.0004L330.902 27.0404L331.642 27.6004L331.042 28.9904L330.902 30.1604L331.372 30.4004L332.442 30.2804L332.552 30.5004L332.382 32.9304L332.632 35.2104L332.712 35.6104L333.142 36.0204L333.422 36.6204L333.332 37.6604L332.722 40.2204L333.492 42.2204L334.412 43.1904L334.552 44.9904L334.972 46.4804L335.462 47.5304L335.832 47.9304L336.612 48.3504L337.962 48.3604L339.502 47.1604L342.562 45.7604L343.012 44.7504L343.442 44.8504L344.122 45.8704L343.992 46.9304L344.512 48.3404L345.192 49.1504L346.832 49.7804L347.572 49.8304L348.252 51.3404L350.932 52.5504L352.122 53.4804L352.052 54.1404L351.232 55.5904L351.272 56.2504L351.702 56.9604L351.842 57.7904L351.402 59.0804L352.012 60.2904L352.602 62.3004V64.3304L353.152 64.8804L353.722 66.2104L353.542 68.5104L353.132 69.0804L353.062 70.2404L353.162 70.5704L353.732 70.9304L357.442 75.5604L357.802 75.2604L358.812 75.0904L359.072 75.4104L358.232 77.0004L358.282 77.3504L359.052 78.6704L359.902 80.6604L360.482 82.7904L360.682 84.3604L360.482 85.4404L360.642 86.6004L360.572 87.3504L359.572 89.4704L359.652 90.5604L361.852 93.4404L363.172 93.9404L363.092 95.2104L362.602 96.3504L362.462 97.5604L362.562 97.9404L363.192 98.7804L364.142 99.5204L364.412 100.04L365.682 100.87L366.652 101.33L367.842 101.36L369.172 102.69L369.912 102.72L371.202 103.14L371.932 103.83L373.172 104.09L375.112 103.94L375.272 103.6L374.782 102.75L375.402 103.46L376.452 105.35L376.882 107.55L377.142 108.08L377.692 108.67L378.282 108.81L378.782 108.69L378.612 107.76L378.692 107.36L379.352 107.37L379.672 107.71L379.802 108.98L380.322 109.47L380.972 109.75L382.332 109.69L383.672 110.08L384.532 111.12L384.182 111.26L384.272 111.57L384.912 112.36L385.772 113.06L386.342 112.81L386.382 112.13L386.042 111.82L386.192 111.42L386.942 111.7L388.582 113.17L389.622 113.36L389.992 113.87L390.682 115.81L391.092 115.92L391.422 116.84L390.812 116.69L390.292 116.16L389.852 115.95L389.322 116.17L388.522 117.16L389.192 118.96L390.502 120.33L391.282 120.87L392.442 121.28L393.882 122.4L394.472 123.15L394.362 124.01L394.742 125.45L395.282 125.91L395.702 127.29L396.322 128.38L396.942 128.97L396.802 131.18L397.792 134.72L398.542 136.54L399.232 137.53L399.702 137.91L399.732 139.1L399.402 139.6L400.132 139.23L400.712 138.75L400.982 138.3L402.682 140.41ZM436.382 178.59L435.912 178.49L435.472 177.9L434.882 175.75L435.462 174.33L436.192 173.12L436.182 172.09L436.032 171.83L436.482 170.89L437.612 169.98L438.112 169L438.202 168.47L438.092 168.06L437.442 167L437.232 166.88L437.642 166.12L438.572 165.51L438.662 167.95L438.912 168.5L439.432 168.84L439.542 169.26L436.892 175.5L436.412 177.07L436.572 178.04L436.382 178.59ZM285.122 73.8004L285.012 73.1404L285.302 71.9904L285.922 71.1304L286.832 70.4404L288.712 70.2104L289.302 69.8904L291.392 70.2304L291.452 70.8904L290.982 71.1104L290.272 71.2604L289.802 70.8804L288.802 71.2804L288.962 71.6304L288.292 72.7404L287.082 73.2004L285.512 73.4904L285.122 73.8004ZM416.252 154.69L415.662 154.14L415.242 153.21L414.512 152.55L414.092 151.61L413.992 150.79L414.472 150.68L415.992 151.64L416.202 151.99L416.902 153.33L417.032 154.25L416.742 154.6L416.252 154.69ZM362.652 93.4204L361.902 93.1304L361.692 92.0904L361.212 91.4404L360.712 91.2004L360.442 90.7004L360.892 90.5904L362.432 91.3104L363.332 92.6104L363.012 93.2304L362.652 93.4204ZM439.912 201.99L439.722 201.57L439.782 200.53L440.202 198.15L440.622 198.05L441.372 198.18L440.652 200.56L440.422 201.93L439.912 201.99ZM440.112 197.51L439.392 195.49V193.85L440.322 193.34L440.562 193.52L440.002 195.64L440.112 197.51ZM318.072 7.23038L317.392 6.68038L317.342 5.99038L317.992 5.56038L318.442 5.47038L318.972 6.27038L318.902 6.68038L318.382 6.81038L318.072 7.23038ZM319.122 1.69038L318.372 1.37038L318.142 1.01038L318.562 0.370376L319.162 0.260376L319.522 0.430376L319.772 0.870376L319.122 1.69038ZM288.162 78.1404L287.852 77.4904L288.962 76.4504L289.522 76.8504L289.702 77.6804L288.422 77.6504L288.162 78.1404Z" fill="url(#paint6_linear_86_1624)"/>
<path d="M369.452 414.76L368.552 415.21L368.352 414.76L366.952 414.54L366.012 413.83L365.092 413.63L362.722 413.51L362.492 413.35L362.332 412.92L362.022 412.83L360.712 413.23L359.932 412.97L358.782 411.16L359.422 410.71L360.622 410.89L361.212 411.21L362.032 411.38L362.052 410.4L361.282 409.76L360.862 410.52L357.972 410.15L357.732 409.98L356.542 407.55L355.112 405.27L354.882 405.04L354.202 405.07L353.642 404.17L353.242 403.32L352.492 400.55L352.022 400.04L351.472 399.88L350.792 395.5L350.872 394.67L351.072 394.41L351.362 394.93L353.272 396.39L353.742 398.57L354.642 396.05L354.072 395.65L353.622 395.69L351.692 393.57L351.482 392.97L351.502 392.09L351.342 391.43L350.652 390.02L349.242 388.69L348.152 386.76L345.232 379.59L345.332 379.08L345.032 377.56L344.702 376.94L344.502 375.5L345.382 374.7L345.402 373.04L346.062 372.6L348.492 372.89L349.912 373.94L351.632 373.66L352.292 374.22L354.502 374.94L358.122 377.09L361.602 378.73L363.902 378.94L364.922 378.63L365.862 379.16L365.812 378.66L366.662 377.76L367.432 377.49L368.002 377.67L368.242 378.62L368.812 378.91L369.722 378.89L369.402 378.43L368.642 378.26L368.422 378.05L368.372 377.36L368.862 376.91L370.522 376.16L371.932 376.63L374.202 376.17L374.862 376.76L375.642 376.29L376.732 374.4L376.972 374.25L377.662 374.08L377.922 374.46L379.052 374.97L379.432 374.95L380.122 374.55L380.472 373.96L380.662 373.09L380.882 372.85L381.342 372.87L382.052 373.2L383.592 374.34L384.162 375.09L384.762 376.44L384.072 378.9L384.152 379.64L384.602 380.23L384.642 381.32L384.172 383.04L384.242 384.27L384.612 385.34L384.072 388.26L384.432 391.46L385.092 392.53L385.152 394.19L384.582 395L384.192 394.67L384.142 394.32L384.432 393.95L384.562 392.99L383.792 390.92L383.322 390.15L382.062 392.65L381.242 398.58L380.752 399.08L380.592 399.92L380.712 401.44L379.932 402.25L379.492 403.73L379.642 403.97L380.112 403.94L379.912 403.51L380.232 403.27L380.922 403.69L381.202 404.24L381.262 405.27L380.852 405.54L380.682 406.83L381.262 408.14L381.162 408.98L380.892 409L380.122 408.32L379.342 408.66L378.932 409.27L377.932 408.03L377.222 406.58L377.082 405.87L377.682 404.8L378.032 404.7L378.292 404.94L378.342 405.3L378.172 405.65L378.842 406.37L379.772 406.3L380.112 406.01L379.312 404.61L376.772 403.06L376.402 403.12L375.802 403.57L376.012 404.58L376.352 405.32L376.062 405.9L374.992 406.25L374.742 405.63L374.952 405.5L374.792 404L373.812 403.37L374.152 404.23L373.912 405.77L373.282 406.54L372.992 407.62L373.212 408.66L373.052 409.63L372.682 409.87L372.302 409.82L371.432 409.26L370.642 408.33L370.492 407.39L370.262 407.3L370.032 407.67L370.022 408.67L371.392 409.92L370.952 411.02L370.382 411.91L369.842 413.48L369.682 414.56L369.452 414.76ZM382.612 366.12L381.632 365.58L381.352 364.52L381.412 364.22L380.172 361.89L378.622 360.51L379.942 358.77L380.872 358.37L383.022 361.24L383.422 361.53L384.252 361.75L384.342 362.16L384.852 364.95L384.812 365.33L384.512 365.61L383.142 365.86L382.612 366.12ZM336.942 364.17L336.562 363.89L336.422 363.16L336.622 363.01V362.03L336.002 361.22L336.032 360.45L336.222 358.18L337.072 357.55L337.202 357.18L337.092 356.37L337.552 356.24L338.522 356.83L338.972 357.48L339.122 359.77L339.382 361.24L339.282 362.01L338.952 362.75L336.942 364.17ZM384.892 369.37L384.862 368.68L384.672 368.4L382.152 368.72L381.182 368.3L381.202 367.75L381.922 367.16L382.662 367.12L383.422 367.35L384.942 366.58L386.422 368.34L386.402 368.49L385.652 368.78L384.892 369.37ZM373.642 413.2L372.952 412.88L372.262 413.03L371.692 411.84L373.612 409.47L374.312 411.3L373.832 413.04L373.642 413.2ZM374.282 409.47L373.532 407.9L374.232 406.68L374.662 407.34L375.052 409.15L375.022 409.32L374.282 409.47ZM381.372 401.93L381.422 399.97L382.052 399.49L382.612 399.54L383.102 400.5L383.052 400.65L382.292 400.66L381.372 401.93ZM347.442 372.59L347.252 372.45L347.202 371.76L347.852 370.99L348.832 372.11L347.442 372.59Z" fill="url(#paint7_linear_86_1624)"/>
<path d="M392.372 296.174C392.372 301.235 388.252 305.349 383.186 305.349C378.119 305.349 374 301.235 374 296.174C374 291.114 378.119 287 383.186 287C388.252 287 392.372 291.114 392.372 296.174Z" fill="#F2F2F2"/>
</g>
<defs>
<linearGradient id="paint0_linear_86_1624" x1="223.802" y1="9.99042" x2="223.802" y2="181.1" gradientUnits="userSpaceOnUse">
<stop stop-color="#7A96CC"/>
<stop offset="1" stop-color="#3C5B8C"/>
</linearGradient>
<linearGradient id="paint1_linear_86_1624" x1="87.667" y1="39.8204" x2="87.667" y2="295.87" gradientUnits="userSpaceOnUse">
<stop stop-color="#7A96CC"/>
<stop offset="1" stop-color="#3C5B8C"/>
</linearGradient>
<linearGradient id="paint2_linear_86_1624" x1="392.992" y1="296.2" x2="392.992" y2="306.28" gradientUnits="userSpaceOnUse">
<stop stop-color="#7A96CC"/>
<stop offset="1" stop-color="#3C5B8C"/>
</linearGradient>
<linearGradient id="paint3_linear_86_1624" x1="373.717" y1="207.1" x2="373.717" y2="327.75" gradientUnits="userSpaceOnUse">
<stop stop-color="#7A96CC"/>
<stop offset="1" stop-color="#3C5B8C"/>
</linearGradient>
<linearGradient id="paint4_linear_86_1624" x1="240.102" y1="181.02" x2="240.102" y2="335.43" gradientUnits="userSpaceOnUse">
<stop stop-color="#7A96CC"/>
<stop offset="1" stop-color="#3C5B8C"/>
</linearGradient>
<linearGradient id="paint5_linear_86_1624" x1="353.742" y1="280.92" x2="353.742" y2="350.26" gradientUnits="userSpaceOnUse">
<stop stop-color="#7A96CC"/>
<stop offset="1" stop-color="#3C5B8C"/>
</linearGradient>
<linearGradient id="paint6_linear_86_1624" x1="357.017" y1="0.260376" x2="357.017" y2="219.65" gradientUnits="userSpaceOnUse">
<stop stop-color="#7A96CC"/>
<stop offset="1" stop-color="#3C5B8C"/>
</linearGradient>
<linearGradient id="paint7_linear_86_1624" x1="361.212" y1="356.24" x2="361.212" y2="415.21" gradientUnits="userSpaceOnUse">
<stop stop-color="#7A96CC"/>
<stop offset="1" stop-color="#3C5B8C"/>
</linearGradient>
<clipPath id="clip0_86_1624">
<rect width="442.489" height="415.551" fill="white"/>
</clipPath>
</defs>
</svg>
