<svg width="619" height="500" viewBox="0 0 619 500" fill="none" xmlns="http://www.w3.org/2000/svg">
<g clip-path="url(#clip0_84_1352)">
<path d="M585.314 388.208L585.232 389.066L586.715 389.867L586.683 390.233L587.667 391.028L589.27 394.725L590.348 395.519L591.332 395.589L591.938 396.415L593.698 397.065L594.474 398.472L597.767 399.796L598.965 400.989L599.665 401.291L601.911 400.465L602.693 401.216L603.639 403.682L606.409 406.319L608.257 407.07L609.796 408.722L612.319 410.306L614.641 410.955L614.931 411.403L616.602 411.29L617.246 411.788L617.309 412.797L618.053 412.917L617.864 413.838L618.161 414.494L617.46 414.917L617.107 416.04L617.252 416.841L617.334 417.623L618.243 419.307L617.971 419.667L618.318 420.594L617.77 421.786L616.64 422.815L616.804 423.956L616.691 424.587L615.776 424.694L615.429 426.158L614.193 427.274L614.451 428.322L615.196 429.167L614.805 430.138L615.107 431.053L613.89 432.031L611.821 434.983L610.9 435.153L608.497 434.157L606.465 434.049L601.406 432.643L598.908 430.946L597.975 431.003L594.6 428.416L590.96 426.814L589.951 427.016L586.677 425.054L585.112 425.275L582.324 423.59L580.558 421.2L579.315 420.891L578.47 419.793L577.663 419.408L577.808 419.086L578.268 418.74L577.883 418.065L576.887 418.443L577.259 417.528L578.363 416.973L578.609 415.882L578.306 414.709L579.019 413.397L578.905 407.259L578.451 405.329L578.798 404.773L578.527 403.354L579.435 399.311L583.006 392.372L583.428 390.952L582.961 390.303L582.93 389.457L584.81 387.647L585.314 388.208ZM407.243 337.1L406.757 335.422L407.224 335.189L406.902 334.577L406.978 334.287L407.268 334.104L407.262 332.653L407.748 332.129L407.533 331.581L407.792 331.057H408.265L409.325 330.937L409.792 330.224L410.492 331.082L410.725 332.073L410.845 335.094L411.16 335.328L411.053 337.895L411.627 338.299L411.198 338.999L412.037 339.857L410.958 340.469L409.394 340.462L409.135 339.264L408.467 338.784L408.524 338.16L407.558 338.431L407.205 337.731L407.577 337.889L407.634 337.327L407.243 337.1ZM396.292 327.991L397.97 327.468L398.235 327.897L396.917 328.931L397.775 330.47L398.021 330.325L397.276 329.013L398.204 328.313L398.519 329.026L397.958 329.739L399.011 329.202L399.371 329.776L398.5 330.912L398.071 330.407L397.787 330.552L397.926 331.562L398.765 333.549L399.345 334.072V334.899L400.096 335.611L399.869 336.192L401.723 336.387L402.178 336.987L402.222 339.346L401.213 340.759L401.654 342.399L402.279 342.626L401.831 342.904L402.108 343.181L400.714 344.184L397.913 345.017L396.69 346.651L394.412 348.404L391.965 347.578L391.366 345.376L389.965 345.685L388.855 345.055L387.461 342.342L387.177 340.122L389.442 336.659L390.968 335.176L392.35 331.997L393.359 330.641L394.797 329.392L395.27 328.471H395.529L395.611 327.682L395.712 327.386L395.838 326.421L397.295 326.395L397.598 326.913L396.292 327.991ZM341.437 292.912L342.188 293.057L343.064 292.634L344.812 293.864L345.014 294.956L343.676 296.539L343.437 297.441L342.818 297.82L342.516 300.715L342.856 301.466L345.342 302.582L345.922 304.695L346.092 308.133L347.329 309.004L346.338 309.54L346.288 310.676L346.546 311.13L347.196 310.985L347.846 310.94L347.341 312.928L348.603 315.697L348.294 316.668L347.575 317.242L347.682 317.677L348.281 317.854L348.01 318.334L348.111 319.797L348.426 320.087L348.187 321.38L347.594 320.825L346.856 320.876L346.231 321.462L345.663 321.683L344.976 321.74L343.973 322.623L343.367 322.491L343.31 320.668L342.415 321.103L341.935 319.734L341.103 321.361L336.807 319.015L334.46 321.172L331.905 320.169L330.253 320.377L330.196 317.942L329.704 318.138L329.3 317.337L329.906 317.431L330.373 316.384L330.915 311.111L332.164 310.31L332.088 308.373L335.173 307.37L335.898 307.969L337.614 307.2L338.302 306.222L339.28 302.557L337.968 299.523L336.964 298.993L336.586 297.996L336.75 296.306L334.208 292.193L334.53 289.152L339.652 290.427L341.437 292.912ZM369.786 259.876L371.369 260.501L373.211 260.766L376.359 263.649L378.459 263.926L380.692 264.917L382.572 264.671L386.218 265.207L389.845 267.005L395.642 272.612L397.213 273.338L397.037 273.697L396.38 273.603L396.475 274.448L395.788 275.142L394.829 277.444L391.965 280.17L390.337 283.727L388.798 288.767L388.363 289.55L388.388 290.534L387.896 291.581L390.117 296.981L390.356 297.794L392.709 303.068L393.132 308.695L393.99 309.9L394.753 312.347L394.444 314.467L395.213 316.782L393.397 321.027L394.053 321.79L393.826 322.125L393.75 323.563L394.292 324.036L394.734 322.964L395.131 322.831L395.321 322.036L397.137 323.26L396.671 323.62L397.011 323.784L396.128 324.509L394.785 324.061L394.721 324.44L395.314 324.888L394.412 325.058L394.621 325.531L394.677 326.641L395.018 326.66L395.182 327.411L394.595 329.234L391.851 331.675L391.958 332.155L391.895 332.312L391.504 333.246L391.038 334.097L390.514 333.505L390.173 333.744L390.274 334.375L390.571 334.085L391.031 334.312L390.545 335.082L390.407 335.384L389.12 336.526L389.151 335.586L387.196 336.129L386.962 335.902L385.859 338.406L386.212 339.056L386.716 339.176L385.594 341.358L381.866 340.797L381.638 340.008L381.569 339.686L378.711 339.428L377.69 339.712L377.74 339.327L378.522 339.194L381.538 339.56L381.342 339.094L377.847 338.942L377.462 339.737L377.235 339.232L376.214 339.472L375.721 340.04L375.816 340.267L376.239 339.882L376.459 340.033L376.838 339.794L376.945 340.292L377.444 340.09L377.652 340.475L374.472 342.367L373.892 341.856L373.772 341.711L372.195 340.235L367.723 338.81L366.871 338.034L363.982 339.308L363.282 338.204L361.553 338.728L361.055 340.753L356.709 339.478L357.333 336.179L356.488 336.223L356.576 333.851L355.901 330.496L358.961 327.84L361.282 327.998L364.663 324.724L361.49 321.879L362.21 319.936L362.607 319.81L360.992 318.188L357.352 318.762L355.838 317.286L353.99 316.454L352.262 314.454L350.571 313.502L349.19 312.618L349.612 310.657L348.735 309.212L348.281 306.153L347.795 306.254L347.215 305.187L347.436 304.891L347.184 304.014L346.439 303.724L346.843 301.56L348.388 301.239L348.609 298.52L347.632 297.258L346.837 295.025L346.982 292.773L346.225 290.42L344.761 287.771L344.351 285.74L343.752 285.822L343.153 285.613L342.535 285.027L341.822 284.907L340.749 284.629L338.365 285.954L337.898 286.755L336.946 287.272L333.23 288.54L331.527 288.036L331.098 288.105L331.066 288.559L329.988 287.878L329.124 284.623L330.171 283.115L333.432 281.349L343.544 274.637L348.218 270.234L358.437 262.614L359.907 261.826L367.836 259.315L368.764 259.542L369.811 259.283L369.786 259.876Z" fill="url(#paint0_linear_84_1352)"/>
<path d="M196.83 315.211L196.319 318.662L196.067 319.135L195.026 319.576L192.717 318.554L189.759 318.75L188.699 317.987L188.68 317.406L189.91 316.454L192.13 316.845L194.408 316.214L194.13 315.192L194.919 313.956L194.729 313.249L195.373 311.47L196.256 313.073L196.83 315.211ZM175.944 305.919L176.512 305.951L177.067 306.632L176.291 307.54L175.395 307.818L174.701 307.73L173.749 307.08L173.193 305.78L174.651 305.118L175.944 305.919ZM16.7589 296.47L17.4087 297.189L17.2636 297.529L16.494 297.081L15.6298 297.145L15.7496 296.129L16.7589 296.47ZM207.825 287.493L206.45 288.256L205.642 288.055L204.318 287.077L203.334 285.727L204.065 285.544L208.576 286.919L207.825 287.171V287.493ZM5.24033 279.129L5.50527 279.293L5.25926 279.753L5.5242 281.456L6.50195 282.844L6.31271 283.469L7.158 285.147L7.29047 286.276L8.55839 287.26L8.46377 288.168L8.43854 288.704L8.2493 290.635L8.8738 291.177L8.70979 292.565L8.93688 293.208L8.84857 294.268L8.47008 294.741L9.62446 297.712L9.23967 299.056L9.7317 299.933L10.7599 300.608L8.81072 303.617L8.9495 306.594L10.167 307.831L8.52685 308.133L7.05707 298.734L5.78914 286.301L5.06371 282.756L3.73901 279.602L5.24033 279.129ZM219.003 287.891L221.021 290.502L222.201 291.139L225.09 292.445L225.128 292.748L224.371 293.353L223.179 292.805L222.094 292.981L221.406 293.827L222.106 296.274L223.198 296.627L222.788 297.309L223.393 298.413L224.03 298.709L224.415 299.005L227.33 297.548L227.487 299.51L225.715 301.213L224.163 304.689L223.866 307.767L224.384 309.016L224.295 310.972L223.633 313.016L222.826 314.12L222.39 316.006L218.833 315.167L216.335 315.312L215.098 313.93L214.284 311.344L214.051 306.891L214.436 302.519L216.076 300.639L218.53 300.431L219.123 299.863L219.981 297.883L220.599 293.978L220.075 292.104L218.7 290.307L216.795 289.095L214.966 289.348L214.366 288.364L213.673 284.913L213.78 282.705L217.237 279.047L218.069 285.613L219.003 287.891ZM50.8353 188.134L50.3748 188.835L49.9458 188.525L49.4223 188.759L49.5737 189.541L50.4126 189.957L48.8482 192.657L48.5959 194.455L49.1132 195.458V197.142L47.6686 198.763L47.3847 198.593L48.5454 197.142L47.7885 195.654L47.8137 194.449L46.9999 192.556L49.3781 188.273L50.8353 188.134ZM44.4893 171.235L45.1832 172.591L44.319 173.424L43.909 175.707L43.3286 176.603L44.5966 178.628L45.5743 179.038L46.0537 178.325L45.8203 177.303L44.6533 176.824L44.9687 176.666L45.2211 175.329L46.161 175.575L46.9936 175.184L48.6401 175.96L49.5673 175.512L49.2646 176.767L48.495 177.884L49.1321 178.899L48.6716 180.697L49.3718 182.009L46.9179 179.606L45.5995 179.461L45.7005 181.435L45.2778 184.482L44.8741 185.119L41.5813 185.226L39.8844 186.343L39.9538 187.396L41.6065 188.046L42.2184 188.551L41.8967 188.759L39.7267 188.298L39.1716 187.289L38.5345 186.955L38.2065 185.264L37.4179 184.45L36.5537 180.924L35.7526 179.871L34.5351 179.202L33.652 177.776L32.239 176.767L30.8007 175.077L28.8579 174.111L28.9588 173.247L29.7473 173.399L30.0059 174.017L30.744 174.086L32.3525 172.534L34.5793 171.796L35.9103 172.137L35.2101 172.143L35.166 173.033L35.7841 173.865L37.0836 174.717L37.828 174.648L39.6573 173.455L40.6477 172.061L41.7138 172.124L42.1995 171.285L43.6945 171.771L44.155 170.825L44.4641 170.806L44.4893 171.235ZM312.211 163.407L313.359 163.697L309.329 166.573L306.667 170.32L305.682 171.09L303.752 171.437L302.528 171.121L301.134 168.251L300.321 166.952L299.847 166.775L301.973 165.236L304.768 165.76L312.211 163.407ZM86.7157 153.068L90.7277 155.793L90.2546 156.96L90.57 158.398L92.3552 163.003L95.8751 167.198L96.1779 168.119L93.724 169.601L92.6327 170.945L91.4153 172.932L91.1756 174.648L89.3778 174.496L89.6238 177.783L90.078 178.376L88.829 178.149L88.1855 178.489L85.6623 180.956L84.8738 183.504L84.6151 186.355L84.8044 187.567L85.3721 189.024L85.7001 189.97L85.4541 190.487L85.8389 191.118L85.2586 191.345L85.9335 192.146L87.5484 192.134L88.9236 190.178L89.3651 188.614L88.7154 186.936L89.2011 184.823L90.9359 184.034L91.7117 185.125L92.7147 185.327L94.1214 183.731L94.1341 182.312L91.9388 182.754L90.5258 182.079L92.9103 179.94L94.1214 176.553L94.5378 177.089L94.5125 178.104L94.0899 178.533L94.0142 179.688L94.7586 181.139L95.7994 181.87L97.1052 181.971L99.2752 180.552L100.474 180.987L103.937 180.811L103.413 181.038L103.798 181.656L104.631 181.271L105.722 181.801L106.662 183.826L106.233 183.794L105.968 184.589L106.201 184.905L103.722 186.601L103.3 186.381L103.123 188.008L102.303 189.402L103.161 189.787L103.621 192.298L104.845 194.102L106.693 195.773L107.816 195.805L107.135 196.726L107.085 197.855L107.722 197.66L107.684 197.123L110.27 194.663L111.79 195.086L112.617 195.729L113.166 195.534L112.812 192.954L113.021 191.333L113.588 190.569L113.008 190.355L112.106 190.639L110.428 191.982L107.854 192.897L106.769 192.708L105.924 190.967L106.839 185.971L106.889 184.98L106.359 184.4L107.268 183.996L108.018 182.716L108.308 181.347L108.1 179.864L108.832 178.962L109.236 177.026L108.769 173.865L111.778 173.992L112.762 175.379L115.437 174.944L115.336 176.83L118.464 179.057L120.628 179.454L122.52 173.481L123.858 173.38L124.123 172.251L126.728 172.528L127.056 172.73L126.507 173.954L126.879 174.294L127.403 174.048L127.517 174.749L127.863 174.673L128.147 175.266L127.012 176.338L127.258 177.253L130.475 177.638L130.122 179.757L133.011 180.741L135.515 180.256L139.414 180.811L139.893 183.044L137.136 183.984L137.054 188.488L140 186.879L143.116 187.668L146.409 192.367L150.346 191.383L153.575 193.149L157.606 192.26L157.909 190.09L158.433 189.383L159.776 189.484L163.706 188.305L164.627 185.832L166.311 186.734L171.831 185.043L175.799 182.287L178.284 181.555L179.041 179.505L178.928 177.972L182 177.057L181.854 175.089L185.343 172.869L185.122 171.929L186.062 172.326L190.131 169.746L191.455 169.715L192.976 170.51L194.496 169.954L195.184 169.292L197.707 169.229L198.968 170.598L199.851 175.531L198.886 175.632L198.697 176.105L199.605 178.079L199.511 179.126L198.142 181.637L194.187 183.839L192.818 186.665L191.26 187.163L189.677 188.771L189.412 190.235L188.724 191.831L188.194 192.468L187.456 192.411L186.926 194.31L188.036 200.542L186.768 204.813L186.251 205.185L184.138 205.45L179.388 207.589L178.562 207.286L178.341 206.358L175.818 206.075L174.67 206.39L174.783 206.705L172.891 206.932L171.837 207.677L171.232 207.935L167.705 207.715L165.744 209.582L166.362 209.386L167.157 208.453L167.8 207.816L171.269 208.125L173.894 207.002L175.988 206.642L177.918 207.185L179.685 207.942L184.434 205.627L185.507 205.601L187.33 205.015L189.973 206.119L193.859 205.854L193.676 205.564L191.399 205.286L189.998 205.456L189.065 205.072L188.51 204.188L188.44 203.324L188.579 200.826L188.522 200.303L188.604 198.391L188.289 197.805L188.8 194.487L189.304 193.439L190.244 192.947L190.276 191.692L192.023 188.961L193.266 188.305L194.603 186.601L194.584 184.091L195.303 184.198L195.985 185.088L196.723 185.094L198.142 185.933L198.438 188.803L199.057 190.26L201.176 193.389L203.617 195.805L205.497 197.079L212.493 198.997L217.073 198.763L226.781 196.354L230.597 196.183L232.925 195.862L235.171 195.048L237.681 195.136L238.987 195.811L241.233 196.209L243.39 198.265L244.771 203.085L246.67 204.075L248.108 205.532L248.941 205.784L251.117 207.929L251.357 209.248L251.83 209.714L251.559 211.008L250.682 210.982L249.818 211.695L248.947 213.613L249.307 213.985L249.067 215.196L249.156 215.638L248.537 216.098L248.613 217.978L248.033 220.148L248.014 225.674L244.336 230.758L243.56 232.543L241.472 233.862L240.797 234.833L239 239.261L237.284 241.305L235.189 241.955L233.764 243.286L232.729 245.16L232.281 247.191L232.78 251.329L230.54 257.296L228.351 257.397L227.563 256.666L227.361 255.24L226.642 254.767L224.51 252.982L223.854 251.48L223.835 250.212L224.327 250.074L225.387 250.849L226.163 250.528L226.623 249.815L226.541 249.026L227.311 247.569L227.052 246.093L226.156 244.743L225.406 244.175L221.854 243.81L220.687 244.081L219.35 245.141L218.505 246.957L218.568 247.784L217.312 248.673L215.597 251.108L214.751 253.846L215.634 255.719L216.404 256.42L216.991 260.072L216.833 261.781L215.798 263.554L212.953 264.708L210.209 257.662L211.061 256.659L213.313 256.836L214.347 253.247L213.647 252.521L212.253 252.912L212.335 253.259L211.175 252.843L209.162 251.341L207.768 251.095L206.406 251.752L206.084 252.931L204.822 254.13L202.621 254.142L201.208 253.139L200.665 250.42L199.467 249.405L198.647 249.531L198.445 249.178L198.666 248.036L199.618 248.396L203.693 247.065L204.16 246.32L203.945 245.5L204.557 245.16L205.409 245.424L205.491 244.996L206.62 245.191L205.321 246.768L206.134 247.992L207.686 248.181L208.197 248.648L208.891 248.345L210.184 247.109L209.093 244.983L209.345 244.264L208.986 243.721L208.21 243.545L207.396 244.478L207.245 243.841L208.714 241.879L209.698 241.28L210.43 240.044L210.563 238.814L211.181 238.492L212.506 238.624L212.619 237.943L212.032 237.35L212.329 236.536L210.197 235.3L209.528 236.845L208.916 236.644L209.642 235.691L208.285 235.647L207.85 235.256L208.096 233.654L207.781 233.332L207.15 233.963L205.598 233.275L204.57 234.202L204.665 233.969L203.945 233.704L203.315 233.988L202.299 233.729L201.63 234.247L201.517 234.858L202.211 235.988L201.037 237.319L199.788 236.991L198.407 238.41L198.495 240.107L199.05 240.75L198.23 241.463L197.827 241.047L197.675 242.819L194.937 244.239L193.241 246.837L192.749 248.263L190.818 249.089L189.405 250.332L188.068 253.215L188.535 253.669L187.324 254.899L187.04 254.666L186.996 255.757L188.156 254.88L187.399 257.385L189.374 256.255L189.67 255.738L189.267 255.391L189.777 254.786L190.156 255.448L189.904 255.694L190.181 256.148L188.112 257.744L186.907 257.782L186.529 258.331L186.964 259.454L188.112 260.734L189.033 263.529L189.929 264.942L190.926 269.894L191.922 271.994L191.929 273.149L191.607 275.678L190.623 276.183L190.503 275.382L189.632 275.653L188.137 277.552L186.958 278.037L187.45 278.391L189.065 277.987L190.175 276.189L190.717 276.347L191.178 275.943L192.288 275.855L192.849 276.322L191.878 277.255L190.402 280.605L190.339 282.68L191.512 286.055L190.774 290.452L190.768 293.366L189.052 293.877L186.403 297.126L185.065 297.271L185.242 299.649L185.999 300.576L186.163 301.421L185.942 301.585L185.084 302.488L185.614 304.172L185.116 304.815L182.195 303.421L180.706 301.693L180.435 301.011L180.896 299.239L179.899 298.04L179.565 298.949L178.675 299.605L178.391 300.658L178.808 300.898L178.707 301.308L177.395 301.037L175.401 303.005L173.011 303.238L171.661 303.97L171.534 302.588L173.414 299.8L178.234 300.652L178.555 299.561L178.025 298.81L177.925 297.801L174.55 297.561L173.774 298.242L171.497 298.854L169.737 298.911L168.166 298.135L166.078 298.192L165.548 298.318L164.987 300.198L165.434 300.728L165.39 301.459L162.432 301.062L160.987 301.623L158.906 299.756L159.019 298.968L159.77 298.892L159.492 298.545L157.903 298.173L157.076 298.665L156.704 298.211L155.569 298.198L155.695 298.829L157.228 299.251L158.773 298.892L158.653 299.498L159.196 300.564L157.896 300.923L157.373 301.794L157.392 302.418L157.65 303.226L157.884 303.364L158.893 304.02L163.649 305.484L165.561 305.642L166.109 306.178L168.292 306.689L169.017 306.563L170.02 305.2L170.279 305.768L169.718 306.455L170.159 306.739L169.535 307.906L170.979 306.947L172.701 306.954L172.96 307.256L172.966 308.045L174.07 309.332L170.039 313.602L169.724 314.385L169.831 315.924L170.513 317.002L175.035 317.905L175.49 319.04L173.017 318.996L171.478 320.724L169.756 320.926L168.418 321.746L168.292 323.147L169.699 323.929L169.989 323.645L170.91 326.572L169.415 325.834L166.179 326.793L161.441 327.146L158.01 328.111L156.326 328.887L154.843 330.161L152.516 330.855L151.576 329.455L149.406 328.9L146.17 329.07L143.804 326.484L143.47 325.645L142.082 325.582L141.571 324.944L139.679 324.175L140.77 320.503L140.511 318.403L137.931 316.838L137.572 317.722L135.54 317.04L133.585 318.012L132.077 316.145L133.112 314.769L132.153 313.47L131.61 314.492L128.103 314.719L128.248 313.117L126.444 312.795L125.302 308.991L125.006 306.392L123.189 306.348L123.227 305.515L120.079 305.206L120.805 302.828L119.455 302.242L121.202 300.986L114.768 292.098L115.026 291.953L114.743 291.101L114.774 290.773L111.481 288.988L111.166 289.417L111.179 289.461L110.756 289.714L110.434 290.054L109.04 289.695L108.106 289.001L107.551 289.335L105.558 289.121L103.502 286.755L100.202 286.566L98.0892 290.294L98.1397 292.47L94.1467 297.63L91.3206 299.844L89.5544 298.614L88.4694 300.21L87.2456 303.699L86.1922 302.734L85.1009 304.948L83.6878 304.304L81.8837 305.843L77.3924 303.535L78.0673 297.428L70.731 295.744L70.5228 296.047L69.2991 295.795L68.4664 298.148L67.0723 297.908L65.6341 303.232L63.1298 304.733L65.9495 307.584L60.0325 309.647L56.8469 308.442L55.5916 304.733L52.816 303.099L45.5554 305.181L43.5368 303.2L40.2566 304.21L41.4804 307.13L40.654 308.569L38.5534 309.004L38.6606 312.524L36.9827 314.195L33.0275 314.246L32.2705 312.442L30.0375 311.3L30.8197 310.745L26.9717 310.36L24.4233 307.143L21.8937 310.448L18.6072 310.373L18.153 311.003L17.478 311.041L15.163 308.808L13.3462 307.818L13.4219 306.487L10.3436 305.661L9.51723 305.856L10.148 303.409L9.88309 303.396L9.99664 302.727L11.0249 302.494L12.0594 300.911L11.7818 300.469L11.662 300.072L11.9522 299.491L10.8167 298.457L11.1006 298.078L11.4286 298.324L12.3685 298.097L11.7314 297.025L12.0594 296.741L11.7692 295.946L12.2612 295.492L14.0717 295.826L14.1095 296.533L13.2832 296.451L14.3618 297.832L14.2168 298.103L15.0557 298.652L15.5036 298.539L15.4784 297.794L16.4057 297.548L17.1059 297.902L17.3771 297.611L18.2161 298.406L16.5634 300.318L16.7968 302.141L16.3426 303.339L17.3771 304.096L17.8691 302.954L18.2918 302.771L19.7174 301.989L20.2284 301.27L22.3794 299.87L22.9724 298.64L24.9784 296.35L27.0916 294.792L27.2998 294.243L26.9213 293.019L26.1012 292.262L26.6753 291.543L26.5806 290.496L26.6185 289.114L26.6563 287.992L26.0508 287.531L25.9372 286.907L25.5524 286.282L24.8081 285.512L23.8555 284.314L22.8652 283.235L21.1367 280.106L20.5942 277.331L20.7835 275.268L20.2158 273.54L20.6447 271.363L20.3735 270.468L17.9512 268.764L15.3711 266.279L13.9644 265.043L8.47639 263.062L7.83927 263.157L7.61849 262.646L4.88708 261.037L5.99731 262.318L6.01623 263.188L6.59027 264.052L5.44219 265.566L5.28449 266.323L4.8997 270.386L5.10786 271.515L4.64737 273.641L5.57466 278.075L6.41364 278.353L5.07632 278.939L4.37613 278.637L4.52121 279.135L3.8084 279.608L2.41431 272.65L2.91265 263.056L5.05109 246.667L5.19618 240.403L3.78316 221.328L4.08595 221.321L5.18356 221.372L5.46743 221.725L4.56537 221.618L4.33828 222.066L5.3665 221.914L5.81437 222.482L5.15833 223.573L5.23403 224.715L4.76723 224.929L5.01324 228.14L6.47672 227.737L6.76059 227.528L8.04113 226.759L8.34392 228.916L10.3373 228.336L11.7503 229.389L14.406 229.181L14.1726 230.31L14.9485 232.278L14.0275 232.77L14.9296 234.165L15.5667 234.436L17.2951 233.029L17.8628 232.947L19.0803 230.392L19.995 229.503L20.0076 229.005L19.0614 229.869L18.4621 229.269L16.4183 228.67L16.1218 228.506L15.901 228.002L15.3459 227.882L15.5856 227.289L16.229 227.144L15.6676 225.213L14.7782 224.671L14.7719 223.99L14.2609 223.422L12.6839 222.129L11.1258 221.435L9.87679 220.015L9.42891 218.464L8.27453 216.811L8.28715 215.001L7.80773 214.773L8.407 214.149L7.96543 211.216L6.4578 211.758L5.10156 210.629L4.96909 211.531L4.46444 211.405L4.98801 212.187L5.1331 213.379L4.85554 214.01L4.36351 214.086L4.83662 215.442L4.31935 215.675L5.03848 216.13L4.29412 216.842L5.06371 216.899L5.44219 218.451L4.47075 218.287L5.10156 219.132L4.24366 219.965L5.03217 220.198L4.96909 220.861L3.64439 221.126L4.52121 205.229L3.70747 199.823L3.66962 197.168L4.39505 191.812L8.35654 175.752L11.334 169.059L12.2045 168.018L13.0119 168.327L13.0245 168.926L12.6334 169.166L13.0939 169.614L13.3462 169.872L13.1948 171.077L12.993 171.172L13.2075 171.941L13.7058 172.131L11.4538 174.906L12.6208 176.565L11.5989 177.026L10.7031 176.483L9.95248 180.186L11.0059 179.883L13.7626 181.208L13.8383 181.826L13.4661 182.047L13.8193 182.4L13.731 184.242L14.2925 184.217L14.9359 184.961L17.2951 185.617L19.0677 185.441L19.9193 186.021L20.2851 187.207L18.6514 187.289L18.3107 187.712L18.4747 188.753L19.749 190.79L19.3011 191.282L19.4966 192.638L20.0644 193.137L20.487 193.017V189.737L22.2911 188.765L24.316 189.181L27.4575 188.601L36.1942 192.79L37.8469 194.386L38.5345 194.55L40.1746 193.616L42.0229 191.244L43.0195 188.292L43.1394 191.232L43.9153 192.474L43.6882 194.241L44.7038 194.998L46.325 198.171L45.65 198.713L44.5082 201.079L44.6975 201.81L44.319 201.785L44.1424 200.492L43.1331 200.195L41.6696 200.669L41.0073 201.634L41.329 202.246L40.9 203.249L39.7582 203.103L39.3104 203.602L39.8844 204.006L41.4551 203.703L41.5119 202.485L42.2184 201.369L43.3665 202.05L45.1769 201.918L45.8456 202.258L46.1925 201.987L45.8582 201.741L46.9873 201.072L46.9936 203.4L47.9146 205.116L50.2423 206.257L51.0624 206.251L57.4272 204.485L57.9634 203.936L58.5059 201.072L58.2284 197.704L57.6732 196.095L58.8213 194.108L59.6981 193.622L60.1019 192.758L59.2187 190.777L57.0298 189.465L54.658 187.1L53.8758 184.192L52.488 183.624L53.0179 181.208L54.0461 180.912L55.3834 181.574L57.0551 181.555L59.7171 178.937L61.1742 176.603L62.0574 173.468L64.5554 170.314L65.2997 170.238L66.6181 171.481L67.3814 171.355L67.9365 170.459L69.4252 170.781L69.4063 169.727L70.4661 169.09L71.4501 170.617L72.7307 170.484L73.7841 169.601L73.494 168.201L72.3207 167.734L71.2294 168.182L70.7941 166.725L70.0687 168.598L68.9017 167.538L67.8545 168.258L65.7539 168.623L65.6025 168.314L68.1258 162.542L69.6397 160.864L68.9017 159.243L70.0434 159.426L70.7247 159.136L73.3363 157.357L74.478 155.49L77.7519 153.251L81.562 155.168L82.811 155.597L83.6815 156.032L84.3187 155.799L84.407 155.162L83.6815 154.84L83.8392 154.209L83.0886 153.509L84.735 153.257L85.6812 153.56L86.7157 153.068ZM84.2114 146.097L87.4349 146.577L86.741 146.842L86.0534 147.731L86.2742 148.778L87.6619 148.967L86.5139 150.393L85.6812 150.746L84.9873 150.267L83.9276 150.771L83.4797 150.494L82.8867 151.743L82.8426 152.948L81.726 153.244L81.7449 154.172L79.0262 151.73L77.7267 148.98L76.566 148.267L77.0391 147.567L84.2114 146.097Z" fill="url(#paint1_linear_84_1352)"/>
<path d="M41.1272 170.011L39.7141 169.633L39.9349 168.97L40.8433 168.705L41.1272 170.011ZM88.911 140.401L87.6431 139.808L86.823 138.647L88.0405 136.824L88.482 136.787L89.7563 139.247L89.3967 140.609L88.911 140.401ZM73.0777 128.681L72.8127 130.232L74.1311 134.667L72.9326 136.301L71.4313 143.05L70.8005 143.839L71.1222 142.653L70.9708 140.59L70.2895 140.433L69.6082 140.849L69.7659 141.581L68.8134 140.716L69.0657 140.067L68.6242 139.688L67.2553 139.922L67.0156 140.716L65.9243 142.382L65.8423 143.246L66.7885 145.101L67.1102 148.204L68.006 150.393L69.9299 152.481L70.3526 154.386L70.2075 155.869L69.6461 154.336L69.0279 154.235L68.7503 154.809L68.2331 154.758L68.1447 155.534L69.091 156.398L67.2427 157.565L66.921 158.303L66.5677 159.559L66.9462 159.723L66.7317 160.417L66.9967 161.514L66.4037 161.527L66.0063 161.981L66.1072 163.217L64.8456 163.962L64.3094 164.807L63.338 165.173L60.6255 168.813L61.2878 170.365L57.4336 172.263L57.32 172.617L55.0428 172.238L49.6683 174.421L49.5863 173.556L48.9933 172.73L48.6212 172.124L49.0123 170.598L46.9937 168.453L47.1135 167.065L48.2742 166.693V166.277L47.9462 166.062L46.6467 166.472L46.1358 166.971L45.3662 166.624L45.7068 165.703L45.1896 164.485L44.0415 164.53L43.8901 165.154L43.9279 165.823L45.1076 165.974L44.2749 166.718L45.0634 168.075L42.6789 169.008L42.578 168.264L41.9472 166.529L41.9977 166.138L43.7702 165.791L43.3665 164.94L40.7297 163.041L38.5408 165.356L37.4937 165.867L37.8091 164.53L37.5694 163.325L38.1245 162.019L39.4177 161.741L40.9442 160.366L41.8526 160.675L42.3257 160.164L41.3795 156.285L40.7297 155.604L41.739 154.96L42.1301 155.749L42.7042 155.805L43.7513 154.342L44.7922 154.165L47.738 154.891L51.6301 152.683L51.7563 151.301L51.3841 150.86L46.7729 150.059L46.7792 149.428L47.8516 148.166L49.4412 148.69L50.091 148.274L50.1414 147.321L48.6716 147.334L50.173 144.842L50.072 142.483L49.662 141.612L49.9017 140.95L49.2268 140.079L52.0465 139.165L53.6361 139.638L56.9479 139.007L57.8436 139.417L59.6351 137.966L61.5275 137.865L62.8144 137.165L64.9024 137.058L65.6341 135.714L66.0694 132.718L67.8735 130.605L68.6052 128.681L69.3496 129.614L71.0843 129.267L71.917 129.557L73.7716 127.4L73.9797 125.703L74.497 125.741L74.3519 127.236L73.0777 128.681ZM155.745 112.778L154.477 113.03L152.825 112.273L152.213 111.63L151.929 110.141L154.465 109.624L155.808 109.939L156.351 110.791L157.297 111.346L157.278 111.769L155.745 112.778ZM170.304 109.397L171.415 111.895L173.887 113.857L173.686 114.569L176.297 115.982L178.846 118.304L180.139 120.196L184.863 123.647L188.358 124.971L194.445 124.366L194.256 127.11L193.455 127.116L192.837 128.182L193.487 128.447L193.607 128.87L191.916 131.551L191.027 138.622L191.405 139.997L191.853 149.075L192.275 152.986L194.149 160.757L197.253 165.684L197.208 168.1L196.496 168.756L194.351 167.684L190.257 167.387L187.98 166.245L187.305 166.302L185.936 167.551L185.589 168.504L184.226 168.939L182.618 168.113L182.214 167.122L182.353 166.315L181.47 166.34L180.675 166.151L177.325 167.822L176.928 169.336L175.382 170.005L175.332 170.377L174.72 170.402L174.43 169.576L173.503 169.084L171.875 169.608L171.553 170.226L170.311 170.289L169.32 171.544L169.472 172.377L166.911 172.781L164.968 174.843L163.7 174.673L164.368 176.086L163.624 175.733L162.59 176.288L162.438 176.761L162.003 176.546L160.83 177.158L159.089 176.994L158.313 177.411L155.405 177.404L154.698 178.01L152.598 177.928L150.667 179.139L151.355 179.316L152.162 178.906L154.818 179.366L155.935 178.218L157.978 178.256L159.827 177.764L160.047 178.086L161.637 178.035L162.905 177.354L163.649 177.72L164.646 177.367L165.371 176.49L166.646 176.868L166.967 176.225L166.62 176.01L167.535 174.925L168.305 174.906L169.074 173.948L169.838 174.25L170.904 173.739L170.973 172.919L172.569 170.888L173.301 170.749L174.853 172.2L175.761 172.118L177.943 169.948L178.095 168.182L178.543 167.368L179.054 167.892L180.132 167.816L181.545 168.693L182.498 168.447L185.122 171.891L185.343 172.831L181.855 175.058L182 177.026L178.928 177.941L179.041 179.473L178.284 181.524L175.799 182.255L171.837 185.012L166.318 186.702L164.633 185.8L163.712 188.273L159.782 189.453L158.439 189.352L157.915 190.058L157.612 192.228L153.582 193.118L150.352 191.352L146.422 192.336L143.129 187.636L140.013 186.848L137.067 188.456L137.149 183.952L139.912 183.012L139.433 180.779L135.534 180.224L133.03 180.71L130.141 179.726L130.494 177.606L127.277 177.221L127.031 176.307L128.166 175.234L127.882 174.641L127.535 174.717L127.422 174.017L126.898 174.263L126.526 173.929L127.075 172.705L126.747 172.503L124.148 172.225L123.883 173.361L122.546 173.462L120.653 179.436L118.49 179.038L115.361 176.811L115.462 174.925L112.787 175.361L111.803 173.973L108.794 173.847L107.545 170.623L106.523 169.734L105.501 169.62L103.937 170.175L102.877 171.159L101.451 171.229L100.436 172.371L98.2154 173.373L96.7646 174.843L96.2347 174.976L95.0803 173.752L94.8154 172.938L94.8658 172.181L96.159 171.532L97.6477 169.242L98.064 169.229L100.064 167.166L101.597 164.58L102.164 162.208L101.931 160.6L101.155 159.716L98.2974 158.688L97.1683 159.13L97.0043 158.827L97.3134 155.623L96.1148 152.74L95.5976 152.557L97.3954 150.084L99.0986 146.835L99.3194 143.744L98.3353 141.795L95.5471 139.884L95.3516 138.805L96.4618 134.831L98.0956 132.939L98.247 131.885L99.6158 131.166L100.865 129.665L102.082 126.933L105.129 125.987L105.659 125.262L106.063 122.801L106.757 121.925L107.255 122.095L111.797 120.348L118.256 118.89L123.631 119.111L125.466 119.553L130.235 122.095L131.85 123.565L130.576 125.041L130.254 126.378L130.885 128.037L130.261 128.8L129.535 127.242L128.93 127.141L127.882 128.718L129.125 131.784L129.781 132.238L130.481 133.569L130.79 133.468L131.364 129.829L131.112 128.384L132.727 127.312L133.844 127.324L135.029 126.517L136.02 123.691L136.853 123.439L139.508 119.893L139.433 117.85L139.748 116.929L140.221 116.146L141.893 115.112L145.917 114.33L148.882 113.308L154.559 114.746L156.761 112.973L157.676 112.639L158.956 112.406L160.224 112.488L162.123 113.812L163.403 113.718L164.652 113.207L166.034 110.684L168.04 109.132L170.304 109.397ZM254.827 89.009L254.435 88.9333V88.3277L255.533 87.8231L254.827 89.009ZM258.479 87.4635L258.839 87.924L258.441 88.8513L255.798 89.2487L255.211 89.6398L254.877 89.1982L255.047 88.3719L255.83 87.7348L257.829 87.2616L258.479 87.4635ZM248.222 82.9848L246.626 83.0668L246.039 82.1584L246.342 81.9628L248.222 82.9848ZM243.409 79.6919L243.636 80.1461L243.914 80.0767L244.071 80.266L246.822 83.6408L246.235 83.5588L243.245 79.9569L243.062 79.2188L243.769 79.3891L243.409 79.6919ZM272.912 70.1793L272.407 75.8188L272.073 75.68L272.426 74.4688L272.243 73.6929L271.366 73.2261L271.751 71.9267L270.433 73.1252L270.37 73.6803L268.408 73.3018L266.396 73.8759L265.626 73.6992L262.302 75.333L261.829 76.1783L262.1 76.6199L263.652 76.8596L263.481 79.4459L262.964 80.8779L261.242 82.7892L257.375 82.4549L256.599 82.745L261.362 83.0541L260.662 84.013L255.905 86.6813L254.606 86.3659L253.477 86.9652L252.852 84.8519L252.53 84.6942L252.663 84.1518L250.865 83.7291L251.035 83.1361L250.424 82.3603L248.796 82.0007L247.743 82.4738L244.891 81.0482L244.317 80.3101L244.355 79.1053L247.257 76.7713L248.626 74.4184L250.922 73.0495L252.448 73.0432L253.319 72.4313L255.325 72.7026L256.404 72.4061L257.375 70.8669L258.101 70.438L260.794 70.6146L265.91 70.2424L266.85 70.0153L268.332 68.9051L270.37 69.5927L272.761 69.6747L272.912 70.1793ZM220.845 5.25637L220.151 5.89979L219.52 5.45192L218.99 5.89349L219.413 6.18366L218.542 6.08904L216.246 8.04455L210.821 14.8321L206.841 21.689L205.939 24.1113L205.245 28.4134L205.97 32.2298L207.207 35.5352L212.152 41.8749L212.114 42.8779L213.887 45.4011L214.865 46.1076L215.836 49.1355L216.272 49.4257L216.751 49.186L217.129 49.6149L216.65 50.8765L216.019 50.189L215.761 50.5044L216.316 51.4632L215.546 50.8892L215.187 51.5389L215.805 51.8858L214.922 51.8732L214.846 52.34L214.31 52.3274L214.095 52.7753L214.284 54.6425L213.95 55.0714L213.982 56.5097L213.124 60.1431L213.774 66.3377L214.865 68.3058L214.348 68.7789L214.202 69.5927L215.798 77.8184L216.202 81.6537L215.937 85.2304L215.445 85.3818L214.215 86.9904L212.897 88.1069L211.244 88.7882L209.055 91.16L206.784 94.3772L204.715 98.673L203.271 102.414L201.019 112.595L200.974 113.831L198.949 119.856L197.038 123.458L195.43 122.984L194.37 122.619L191.954 123.041L190.705 123.849L187.576 123.325L183.949 120.537L183.135 119.294L177.723 114.166L176.366 113.119L175.01 112.816L172.077 110.267L169.711 107.7L168.507 107.309L166.513 108.129L164.293 110.4L164.312 112.425L162.558 113.087L161.517 112.772L159.953 111.548L159.183 111.56L157.152 110.475L156.49 109.397L154.011 107.056L153.121 106.842L149.626 104.432L148.806 104.287L148.743 105.189L149.065 105.492L148.687 106.407L146.971 109.737L147.135 110.147L145.917 111.037L142.183 111.642L139.041 109.725L137.729 110.236L137.761 108.432L139.401 107.996L140.366 106.766L140.404 106.312L139.067 106.432L136.619 107.504L135.49 108.589L134.266 109.643L135.313 110.639L136.55 110.463L136.96 110.728L135.389 111.813L134.291 113.712L132.254 113.592L131.131 115.112L128.507 114.487L125.227 114.494L124.217 114.954L123.517 114.311L120.767 115.446L118.376 115.73L113.689 117.862L111.746 117.881L107.804 119.711L106.94 120.436L106.082 121.388L103.95 122.284L103.975 122.669L103.312 122.915L101.388 122.637L100.303 122.442L99.1869 121.685L95.2443 117.698L92.5129 115.326L86.2742 118.007L86.0724 118.89L84.7098 120.354L83.8204 120.253L83.7951 118.663L83.2085 118.064L81.0069 118.272L79.5245 118.872L77.9412 121.086L76.0929 120.619L74.4718 121.527L73.2228 124.593L71.9296 124.587L71.2357 123.047L69.1036 122.442L68.1763 123.565L67.9933 122.347L67.3625 122.467L66.7002 122.675L66 122.751L65.6278 123.035L65.9243 123.817L67.4761 124.934L67.5392 125.993L66.2712 126.41L65.8864 126.984L64.8078 127.034L62.7324 128.062L62.1773 129.318L60.0893 130.188L58.998 130.277L57.2948 129.564L56.4054 129.734L55.2447 129.154L54.0903 129.255L52.3366 129.185L51.8446 129.57L50.9299 132.131L51.3778 133.803L49.4412 135.714L49.4223 137.663L48.1355 139.467L48.6401 141.379L47.9778 142.262L48.0408 142.716L48.823 143.265L46.8171 146.274L46.8107 146.886L43.7324 150.576L40.1936 150.772L39.9665 151.131L40.2503 152.62L38.8941 152.5L36.0996 154.184L34.4973 156.518L35.2354 158.171L37.2224 160.726L36.251 161.924L35.3426 165.816L33.6331 167.406L35.7779 166.807L37.0269 167.116L38.585 167.154L38.9635 167.873L38.1245 169.608L39.2095 168.996L39.6763 169.349L38.3453 171.027L38.5156 172.73L36.3772 171.992L35.5193 170.749L33.16 169.866L30.7503 171.09L30.8576 171.55L30.0564 172.295L29.249 171.948L28.8453 172.143L28.4794 173.235L28.9651 173.273L28.8642 174.143L24.6189 173.052L23.9376 170.598L23.3005 170.011L22.5246 168.201L21.2251 166.996L20.5375 165.129L19.6859 160.24L18.1909 158.449L15.9641 157.111L15.1693 168.668L15.1756 169.355L14.999 169.702L14.3934 169.254L14.3997 167.52L13.4598 165.835L12.8164 165.797L13.157 164.384L13.4724 156.594L14.2736 152.923L17.3267 144.287L25.1361 128.308L26.8015 127.356L29.3878 124.063L32.6869 118.947L34.3333 115.446L35.1282 114.614L36.4213 114.733L37.4432 114.191L39.9475 111.245L45.177 102.496L45.0697 102.105L45.3347 101.909L45.6122 102.06L45.8519 102.458L47.8011 101.392L48.3247 101.922L52.9359 103.417L58.2095 105.77L59.5279 105.776L65.4575 104.312L69.0468 102.88L71.8981 101.297L77.0392 97.3294L79.2281 96.3958L81.2719 96.7679L83.5113 96.2633L89.8951 98.755L93.8376 99.4615L97.1683 99.6003L103.066 98.9442L105.344 98.4396L108.895 96.9446L112.939 96.6292L115.746 95.4874L126.772 86.8327L127.983 85.508L136.676 72.4755L142.347 61.9472L143.432 60.6541L150.257 44.9911L156.281 38.6325L158.357 35.7371L162.501 27.7132L164.551 25.5306L164.173 26.3317L166.185 25.9217L166.204 25.4991L166.98 26.1109L168.387 26.3885L170.714 26.603L172.714 26.2876L175.717 26.7922L177.603 26.8048L182.138 26.0226L189.582 23.1335L196.414 19.0396L213.767 3.79289L216.827 1.66706L218.486 0.872239L221.375 0.159424L222.775 0.279278L224.668 1.39581L221.76 3.9569L220.845 5.25637Z" fill="url(#paint2_linear_84_1352)"/>
<path d="M299.576 446.495L299.16 446.943L298.611 446.64L297.778 447.17L298.971 448.867L300.623 449.857L300.699 450.526L299.696 450.028L297.381 450.621L297.009 448.798L298.271 448.4L297.728 447.473L297.444 447.561L296.807 446.937L296.725 446.407L299.576 446.495ZM278.495 439.79L281.056 441.493L283.289 444.786L283.932 444.641L285.648 445.133L286.853 445.921L286.998 448.785L288.916 450.917L290.284 451.826L291.205 451.926L292.145 452.816L293.041 452.86L292.669 453.901L293.218 454.305L294.41 453.598L295.892 453.964L296.365 454.595L295.949 456.683L296.283 457.541L297.009 457.276L298.466 457.743L298.491 458.771L300.125 458.493L301.898 459.105L303.904 459.13L304.799 459.963L306.969 459.496L307.234 458.916L305.765 458.386L304.459 456.588L304.73 455.623L305.556 455.636L306.433 454.834L308.622 456.153L310.344 455.566L311.152 454.74L312.363 454.664L312.293 453.756L311.581 452.961L312.066 450.135L311 448.514L311.076 447.814L313.057 448.224L313.397 448.81L314.154 449.006L315.189 450.463L317.649 452.254L318.337 452.564L320.235 452.179L320.708 452.683L319.989 453.573L319.8 454.532L320.891 457.585L321.737 457.635L323.522 458.783L324.373 458.727L323.604 460.474L323.717 462.537L325.105 463.653L325.275 464.429L326.07 464.442L326.31 464.883L327.193 465.098L328.228 466.53L329.729 467.507L330.322 468.246L330.278 469.482L330.297 470.169L330.902 471.027L330.991 473.109L329.401 474.226L329.382 474.636L328.228 474.686L326.657 473.393L326.909 474.011L326.594 475.172L327.307 475.828L325.932 476.471L326.348 477.417L326.689 478.036L327.925 478.881L329.281 479.499L329.817 479.177L330.536 479.922L330.398 480.887L328.657 481.196L329.861 482.369L328.72 483.082L329.489 483.763L328.877 483.726L326.802 484.811L328.284 485.946L327.477 486.236L326.916 485.959L326.752 486.671L326.058 486.432L325.622 486.974L324.02 486.318L321.472 485.896L320.052 486.034L319.062 485.643L319.522 484.981L318.829 483.795L318.349 484.186L318.633 485.347L317.567 485.908L316.942 484.666L315.511 483.997L313.946 484.401L313.505 483.681L313.101 484.344L313.397 484.678L312.924 485.088L312.748 484.691L312.237 485.012L311.423 484.325L310.338 484.255L310.256 484.735L309.423 484.867L308.509 484.766L307.039 483.953L306.345 484.274L307.032 484.836L306.862 485.019L304.434 484.829L304.358 485.315L305.153 485.896L303.569 485.984L303.487 486.867L302.907 487.712L301.04 487.889L300.586 488.413L298.863 488.406L295.741 492.008L298.453 493.85L299.242 493.863L299.961 494.405L301.033 494.304L301.431 493.825L301.469 494.411L300.144 494.676L299.009 494.43L294.486 491.649L290.966 488.703L287.604 486.829L286.102 485.536L285.497 485.435L281.453 480.824L278.463 478.383L276.167 477.386L275.214 477.342L273.108 476.055L265.38 472.939L260.138 471.381L255.735 469.015L252.234 462.978L251.54 458.891L251.874 458.247L252.404 457.995L254.101 459.206L252.329 458.298L252.165 458.695L252.707 459.256L252.701 459.774L252.139 459.54L251.78 460.152L252.284 462.713L253.054 464.095L253.521 464.164L253.811 463.962L255.331 463.969L256.214 463.325L256.669 462.455L256.139 461.654L254.177 460.417L255.571 460.556L256.795 461.357L257.274 461.136L258.056 462.019L258.75 462.032L259.419 463.798L261.62 463.691L262.472 462.619L261.412 461.54L261.551 460.297L262.958 461.925L263.645 461.742L264.163 460.354L265.273 459.906L265.058 458.966L266.244 459.174L266.642 458.903L266.421 458.411L265.683 458.758L264.73 458.354L263.576 458.619L263.507 458.985L262.844 458.171L262.346 458.43V456.393H261.526L261.381 455.2L260.371 454.399L260.807 453.163L259.457 453.434L259.495 452.267L259.116 452.046L258.422 453.043L258.151 452.967L258.101 451.258L257.602 451.945L257.053 451.479L256.87 450.179L257.93 446.483L260.756 444.237L261.753 442.609L262.743 442.092L263.336 442.464L264.806 442.319L265.582 442.906L265.948 443.739L265.96 442.66L265.241 441.442L265.746 441.058L266.78 441.751L266.856 440.704L267.992 441.051L269.178 440.029L270.067 440.206L271.366 439.31L278.495 439.79ZM291.325 437.992L292.656 438.894L294.757 438.629L296.454 440.559L296.561 441.121L296.397 441.878L293.281 441.632L290.833 445L290.417 445.107L290.146 444.527L287.913 443.019L287.13 439.664L286.386 439.67L286.001 438.049L286.708 438.03L287.402 438.705L287.616 439.342L287.345 439.859L287.78 440.931L288.31 440.862L288.398 439.985L288.663 439.979L290.038 440.42L290.72 441.177L291.117 441.083L291.325 440.383L291.048 438.932L291.325 437.992ZM328.713 439.367L329.54 439.708L329.868 439.771L332.101 441.808L331.741 442.496L333.034 443.562L333.148 445.063L334.391 445.789L335.469 445.972L335.728 445.713L335.968 445.044L336.144 444.685L336.252 442.313L336.952 442.975L338.567 442.389L339.879 442.508L341.096 443.442L340.844 444.003L341.096 445.997L341.677 447.158L341.431 447.751L343.071 449.05L345.386 449.668L346.546 449.567L347.846 450.135L349.114 449.416L351.031 450.129L353.283 450.394L353.87 453.346L356.368 456.355L357.213 458.38L356.684 459.244L354.507 460.14L353.832 462.329L352.899 463.527L349.82 465.3L346.275 470.062L344.957 473.91L344.118 475.235L341.664 477.38L340.232 480.016L339.412 483.738L339.374 486.148L340.491 497.351L340.194 499.761L335.57 497.49L336.024 496.682L336.006 496.354L335.709 496.43L335.791 494.462L333.325 489.315L331.615 486.829L331.06 485.088L332.057 481.757L332.139 480.225L333.981 478.067L334.952 476.137L334.624 475.664L334.189 475.809L331.388 474.579L331.83 472.384L332.65 471.501L331.192 469.608L330.7 467.507L329.502 466.019L328.48 465.514L327.982 464.057L326.335 463.704L324.96 462.322L324.809 461.78L325.856 460.947L326.569 459.263L326.493 458.638L325.667 458.02L325.862 456.967L323.856 455.409L321.377 455.163L321.648 454.336L321.245 453.037L320.872 452.822L321.522 451.251L320.652 450.621L320.09 448.949L320.374 447.915L321.339 446.615L321.377 445.442L320.494 443.934L317.378 443.89L316.949 443.524L318.368 441.682L319.1 442.124L319.737 442.029L320.04 441.323L319.213 440.875L320.355 439.209H322.374L323.806 440.092L325.351 442.887L326.531 442.609L327.231 441.726L327.818 439.436L327.237 438.667L327.281 438.168L327.925 438.314L328.713 439.367ZM351.801 439.083L351.58 439.916L351.113 440.048L351.416 440.995L350.722 440.282L349.372 441.089L347.978 440.332L351.801 439.083ZM300.649 434.503L303.38 435.014L304.982 437.405L302.819 440.017L302.409 441.329L301.248 439.701L300.403 437.544L298.889 436.2L299.292 435.279L300.649 434.503ZM354.217 434.958L352.955 436.61L352.848 437.676L352.072 437.43L351.776 438.15L351.618 437.393L352.772 436.207L352.438 435.563L352.836 435.09L353.555 435.431L354.217 434.958ZM333.508 434.8L333.861 436.692L332.795 436.106L331.773 434.062L332.536 433.526L333.217 433.993L333.508 434.8ZM286.569 428.751L285.471 429.672L285.383 428.826L287.269 427.274L288.07 427.237L287.963 428.113L286.569 428.751ZM363.383 424.341L361.749 428.145L360.09 427.129L359.049 427.066L358.456 426.133L359.989 425.83L361.011 424.518L361.673 424.234L362.544 423.982L363.446 424.051L363.383 424.341ZM367.123 426.681L367.994 427.905L370.341 429.041L376.611 429.11L379.475 429.842L380.73 429.545L383.077 429.76L388.287 432.056L390.489 436.163L390.962 438.528L390.974 439.569L389.952 441.386L387.171 441.815L383.518 440.503L383.001 439.954L379.254 438.976L376.371 438.503L374.088 438.642L370.309 440.307L367.382 442.685L364.032 446.722L363.13 448.627L360.79 451.201L358.469 451.662L355.1 451.207L353.624 448.507L354.148 448.425L354.476 448.741L354.261 448.924L355.132 449.056L355.113 448.482L355.744 448.545L355.63 448.299L352.18 448.041L342.97 445.051L342.181 443.322L342.377 442.08L341.26 440.925L341.38 440.137L342.112 439.746L342.49 440.055L342.497 441.613L342.926 442.647L343.556 442.742L343.474 443.24L344.515 443.455L345.506 442.59L348.761 442.603L350.426 444.445L349.309 446.943L349.814 446.678L350.022 447.139L351.814 447.65L353.391 447.038L352.829 445.965L352.262 445.82L353.132 443.448L355.51 441.884L354.078 441.291L353.555 440.692L353.334 439.569L355.428 438.49L355.416 438.023L356.98 437.538L358.57 438.143L358.771 437.683L357.579 436.27L357.333 435.267L359.945 436.175L360.431 436.623L360.405 437.695L360.771 438.307L363.055 437.02L364.928 436.56L365.458 435.935L366.922 435.727L367.552 436.263L366.751 437.43L366.518 438.591L366.032 438.837L366.631 439.146L367.212 438.661L368.145 438.553L369.975 436.472L373.419 435.576L373.671 435.374L372.876 435.134L369.918 435.601L369.262 435.248L368.928 435.103L367.653 436.049L367.161 435.5L366.366 433.393L367.388 431.804L367.414 430.857L366.101 428.612L365.458 428.24L365.603 427.886L364.871 427.23L364.297 427.338L364.222 427.754L363.37 427.565L363.011 426.801L363.25 425.792L364.84 424.991L365.591 423.982L366.392 424.631L367.123 426.681ZM366.606 423.288L366.291 423.37L366.177 422.632L365.338 421.818L365.319 420.859L364.657 420.272L365.281 420.38L365.855 421.105L365.609 421.307L366.518 421.831L366.606 423.288ZM353.315 413.289L352.192 413.889L351.006 413.58L352.104 413.201L353.315 413.289ZM318.98 412.343L318.015 414.431L317.624 412.52L318.267 410.817L318.532 410.974L318.267 411.567L318.98 412.343ZM270.9 407.259L271.114 407.864L269.663 409.139L268.591 411.927L267.09 408.912L269.316 407.063L269.682 407.322L271.07 406.357L270.9 407.259ZM314.766 405.877L314.747 408.539L316.059 409.322L316.526 410.154L316.842 410.079L317.46 410.571L317.592 411.227L317.195 411.29L314.974 409L313.151 408.413L311.94 406.451L312.413 406.174L313.404 406.742L314.205 405.884L314.766 405.877ZM297.066 403.934L296.574 403.922L297.034 403.177L298.05 402.931L298.195 403.196L297.066 403.934ZM318.374 405.259L317.889 407.057L316.999 406.647L315.662 407.032L315.41 406.502L315.952 404.515L316.678 403.638L316.747 402.452L317.17 402.345L317.927 403.083L319.377 403.461L318.374 405.259ZM272.041 396.598L271.373 397.134L270.994 396.787L270.78 397.273L271.108 397.191L270.906 397.973L272.344 399.361L272.697 401.392L273.499 403.077L273.259 403.651L272.666 403.379L272.622 403.733L273.77 404.471L274.628 403.089L274.312 404.95L273.928 405.284L270.692 403.02L270.351 398.099L270.761 396.415L270.231 395.406L270.572 395.034L271.53 395.601L272.041 396.598ZM254.48 381.377L253.369 382.178L254.789 382.007L250.632 383.641L253.048 381.44L254.486 381.105L254.48 381.377ZM373.854 341.85L374.435 342.361L373.646 342.841L373.438 342.386L373.608 342.09L373.854 341.85ZM281.819 315.255L282.172 315.886L280.986 315.104L279.889 312.707L280.299 311.117L281.207 312.032L280.772 312.852L282.008 314.252L281.819 315.255ZM329.275 313.224L329.161 314.486L328.209 316.454L328.442 317.223L326.562 318.245L325.484 317.066L324.626 316.996L323.093 313.243L323.497 312.776L324.43 312.764L325.137 311.71L325.894 312.871L326.695 313.224L327.641 310.764L327.124 309.654L327.628 309.111L328.922 311.041L329.275 313.224ZM269.947 297.012L272.123 299.517L274.066 300.595L274.363 302.04L273.385 300.999L269.07 299.58L268.011 298.722L265.569 295.53L262.838 294.287L262.333 291.991L265.557 293.158L266.175 294.483L268.225 295.498L269.947 297.012ZM285.951 282.813L288.84 284.56L292.032 285.399L297.564 285.613L301.033 287.033L307.083 285.412L308.565 287.891L310.609 288.938L312.192 288.913L316.532 287.55L318.236 286.623L320.425 284.636L323.251 283.059L324.474 286.131L324.607 287.405L324.266 287.55L324.254 286.837L323.497 286.692L321.32 288.73L320.79 291.265L321.213 293.107L321.068 294.243L319.497 295.195L317.498 294.445L317.17 293.032L316.268 292.754L315.517 293.215L314.728 292.691L314.249 293.114L313.549 295.776L313.776 297.939L315.801 299.018L317.308 301.062L317.744 302.601L319.251 304.91L319.453 307.332L317.826 309.609L317.466 308.928L313.341 307.736L312.066 309.237L312.685 309.982L311.921 310.303L311.89 311.432L308.792 312.946L308.685 313.678L310.533 314.952L312.274 314.763L313.814 314.347L314.987 313.073L316.015 312.839L316.797 312.044L318.437 311.906L319.352 311.117L320.393 312.246L320.847 314.593L321.85 315.924L321.169 316.334L320.866 315.116L320.153 316.214L320.727 317.236L322.645 318.151L322.664 319.179L322.09 319.065L320.828 320.03L319.422 319.955L318.431 320.491L313.265 320.775L312.363 321.267L312.817 322.181L312.394 322.276V322.787L313.366 323.014L313.429 323.588L317.081 323.052L317.706 322.642L318.437 322.957L318.948 322.882L319.8 322.945L320.885 322.472L322.632 322.856L323.099 321.992L322.172 321.519L322.14 321.122L322.399 320.907L322.847 321.286L323.862 322.409L324.689 324.143L324.613 326.162L325.093 326.528L325.597 326.37L325.919 328.035L325.521 328.691L324.38 328.887V330.508L323.232 330.925L322.601 332.104L322.759 332.483L323.762 332.489L324.418 332.256L325.206 331.782L325.591 332.192L326.234 331.467L326.442 330.13L328.045 328.912L328.505 328.609L328.827 325.045L330.29 321.229L330.972 321.153L331.899 320.232L334.454 321.235L336.807 319.078L341.102 321.425L341.046 323.544L340.547 324.061L339.601 326.761L339.179 326.85L337.797 329.278L337.337 331.316L336.876 331.429L336.643 331.991L336.397 333.296L336.863 334.211L337.652 332.117L338.623 331.675L338.352 331.322L338.541 329.827L342.509 329.423L341.954 328.641L341.929 327.594L341.039 327.083L342.011 326.37L341.979 325.014L342.301 325.645L343.449 325.247L342.478 326.799L342.73 327.171L343.266 327.405L343.96 326.61L344.452 327.089L345.48 326.812L346.584 327.55L346.338 328.37L346.95 328.401L347.354 328.919L347.152 329.436L345.985 328.736L344.837 329.026L343.998 328.073L342.61 327.676L342.433 328.307L343.216 328.326L343.796 330.136L343.367 331.025L344.193 330.521L344.698 330.546L344.95 331.057L345.449 330.956L345.853 330.483L346.445 331L346.723 330.319L347.858 330.174L347.745 330.925L348.149 331.24L347.657 331.763L347.644 332.691L348.88 332.981L349.745 333.833L350.249 333.195L350.678 330.716L349.902 330.792L349.158 330.054L348.893 329.19L349.637 327.865L350.192 327.682L350.773 328.515L351.057 327.209L349.915 327.449L350.022 326.976L350.281 326.629L351.372 326.749L352.306 325.651L352.678 324.686L351.631 324.471V323.147L352.463 322.819L352.148 322.434L353.063 322.055L353.164 321.671L352.936 321.374L351.971 321.45L352.243 321.04L351.063 319.393L351.587 318.359L351.536 317.469L350.199 315.943L350.552 313.615L352.243 314.568L353.971 316.567L355.819 317.4L357.333 318.876L360.973 318.302L362.588 319.929L362.19 320.056L361.471 321.999L364.644 324.843L361.263 328.117L358.948 327.96L355.889 330.622L356.564 333.978L356.475 336.349L357.321 336.305L356.696 339.604L361.042 340.879L361.541 338.854L363.275 338.33L363.976 339.434L366.865 338.166L367.716 338.942L372.189 340.368L373.766 341.844L373.249 342.594L373.469 343.005L368.593 345.534L367.748 346.379L365.805 347.937L363.723 350.48L361.629 356.024L359.655 361.853L360.159 363.556L359.989 364.048L359.812 364.503L360.254 366.029L361.629 368.117L362.613 368.792L369.211 372.236L374.636 372.791L379.121 377.075L381.588 380.342L381.796 382.329L382.433 382.941L381.613 385.433L381.834 387.66L382.484 388.65L382.257 390.006L381.6 391.217L380.579 391.697L378.901 393.741L377.595 394.289L377.305 394.756L376.403 394.479L375.803 394.895L375.059 394.68L373.684 397.443L372.555 397.084L368.77 397.096L366.625 396.529L363.181 397.544L360.639 399.178L359.598 399.248L357.302 401.089L357.163 400.724L356.766 400.787L354.671 404.149L352.747 405.575L352.211 406.723L352.06 409.006L352.571 411.984L351.359 412.955L350.262 413.075L349.549 412.349L350.155 410.009L350.092 408.621L351.145 406.811L350.729 406.426L348.117 406.723L345.373 408.06L343.72 410.779L343.739 411.182L344.37 411.586L345.524 411.574L345.878 411.965L346.281 413.018L345.745 413.996L345.865 414.74L346.919 414.255L347.278 414.45L346.988 414.797L347.638 415.1L348.685 413.611L350.274 413.649L350.653 413.99L350.287 414.765L351.631 414.671L351.858 414.122L352.709 414.532L353.788 414.154L353.529 413.472L354.154 413.403L357.201 414.507L358.601 416.008L358.532 417.402L358.052 417.509L357.661 418.361L357.655 420.108L356.261 421.837L354.589 420.84L353.536 421.427L353.302 420.594L352.646 420.298L352.375 419.944L351.492 419.572L351.801 420.569L352.924 420.682L353.227 421.585L352.88 421.931L353.788 422.152L352.81 423.01L353.403 423.042L353.555 424.284L354.179 424.928L353.908 426.158L355.34 426.442L354.917 427.59L357.705 432.826L357.529 434.352L357.169 434.024L355.636 434.049L355.069 434.472L353.372 434.188L352.274 434.876L351.826 435.816L351.019 436.181L349.511 437.878L347.316 439.108L344.988 439.083L340.856 436.97L339.412 435.544L338.75 433.936L335.129 432.674L334.738 432.958L335.583 433.33L335.671 434.157L333.81 434.27L332.65 433.097L330.877 432.289L329.931 431.078L327.855 429.779L326.14 427.703L323.08 426.189L319.194 425.086L316.52 423.805L314.829 422.518L310.105 421.25L309.6 420.783L310.786 420.846L318.57 423.439L320.689 423.647L327.527 427.136L328.196 426.341L327.874 425.256L326.36 423.502L326.121 422.505L323.642 421.099L323.099 420.272L322.468 420.714L322.777 421.452L323.478 421.9L321.901 421.774L320.809 420.102L321.528 420.121L322.071 419.131L321.503 419.541L320.368 419.263L318.337 416.235L318.305 414.513L318.728 413.863L319.333 414.374L319.049 415.194L320.898 415.018L321.819 415.409L322.273 415.005L322.563 413.826L323.44 413.296L325.976 413.87L326.752 413.529L326.871 412.923L326.196 410.653L325.446 410.627L324.903 410.066L324.38 410.097L324.008 411L323.484 411.132L322.777 410.653L322.954 409.675L321.144 410.06L320.179 409.7L319.51 410.299L318.053 409.694L317.763 409.277L317.901 407.713L320.355 406.016L319.958 405.36L318.993 405.846L318.677 405.802L318.715 405.429L320.538 403.341L319.731 403.455L319.358 402.786L317.731 401.645L315.372 401.985L312.64 404.824L312.741 405.833L311.297 406.596L310.496 405.77L309.53 405.694L307.594 404.515L306.156 404.818L305.355 404.433L303.601 404.496L301.563 403.512L299.425 403.032L298.517 403.367L298.125 402.244L297.16 401.941L296.271 402.301L296.353 401.5L295.362 400.478L294.593 400.907L293.767 400.181L293.041 400.087L292.48 401.418L291.697 402.036L291.937 402.547L292.581 402.427L292.801 401.998L294.277 402.269L294.776 402.654L294.542 403.165L295.224 403.569L295.318 404.792L293.401 405.171L290.783 404.445L289.281 404.622L289.988 403.587L290.48 404.193L290.821 403.884L291.893 404.647L292.341 404.521L291.849 404.212L291.546 402.042L290.171 401.651L288.543 403.184L287.673 403.335L287.048 402.944L286.247 401.537L285.32 402.118V402.767L284.904 403.001L284.342 401.575L283.125 401.607L282.715 402.982L283.125 403.695L282.551 403.821L281.289 404.136L280.072 402.963L277.996 402.824L277.227 402.225L276.823 401.809L277.347 401.632L276.23 400.187L276.312 399.866L277.454 399.557L275.915 396.321L276.413 395.955L277.119 396.289L277.082 396.825L279.144 397.197L279.561 397.771L280.059 397.525L280.709 395.166L281.03 394.586L281.535 394.504L282.267 392.719L281.844 390.927L280.955 391.148L280.589 391.76L280.292 394.321L280.948 394.819L279.397 395.86L278.829 397.103L278.047 395.847L277.523 395.627L277.05 395.961L276.381 395.425L276.899 393.406L276.211 391.817L276.022 389.83L272.994 387.773L270.761 386.833L268.667 384.581L266.888 383.73L266.78 382.739L267.342 382.392L267.733 382.998L268.875 383.137L268.988 383.477L270.395 383.37L271.196 383.881L271.928 383.679L272.149 382.897L273.448 382.171L273.625 381.238L273.36 380.853L272.672 380.702L271.278 379.459L269.935 379.415L269.19 380.065L269.607 380.727L269.304 381.446L269.777 381.907L267.828 382.922L267.512 382.102L266.333 382.007L265.065 380.342L263.608 380.563L263.746 379.774L265.456 376.993L266.005 377.819L268.692 377.39L271.001 375.548L273.164 375.081L274.199 373.586L274.312 372.785L274.167 371.952L272.559 369.625L273.372 365.682L273.063 364.162L271.038 360.762L271.076 358.718L270.698 357.538L267.865 354.7L267.455 353.501L266.623 353.047L266.282 352.044L265.601 352.7L265.822 353.634L266.364 353.457L265.386 355.173L263.784 355.406L262.56 354.757L263.361 351.76L263.879 351.508L264.642 351.886L265.582 351.375L267.79 351.451L267.689 351.817L268.162 352.126L268.875 351.741L269.14 351.148L267.998 351.666L267.929 351.325L268.868 349.83L269.297 348.291L268.667 343.919L266.869 339.743L265.197 337.996L258.965 334.034L256.322 333.208L250.625 332.571L249.73 331.871L249.641 330.824L250.373 330.287L251.963 330.628L252.455 331.133L254.429 331.335L255.439 330.994L260.542 332.161L261.639 332.192L262.92 331.562L263.166 332.205L263.507 331.707L264.446 331.524L264.604 331.019L264.207 331.189L263.38 330.779L263.494 330.439L264.118 330.584L264.074 330.275L264.554 330.268L264.459 329.896L263.973 330.123L261.803 329.272L262.523 330.817L262.226 330.868L260.901 328.919L257.678 326.534L255.092 322.528L254.19 322.049L252.808 321.677L249.326 322.093L247.642 321.784L245.554 320.819L244.115 319.595L246.563 319.501L250.789 318.289L254.398 319.059L256.214 319.778L256.965 320.516L259.608 321.336L262.655 320.813L265.021 319.589L266.724 318.182L268.339 317.999L269.543 318.352L271.108 317.829L271.329 318.788L270.988 318.952L272.748 321.33L274.129 321.235L274.697 320.125L274.338 319.349L275 318.882L275.473 319.677L277.984 321.671L279.138 321.387L280.526 320.131L281.012 317.999L281.459 317.886L282.084 319.652L282.601 317.917L284.273 318.018L286.071 317.368L287.925 315.703L288.506 314.202L288.979 312.492L288.405 311.104L288.493 307.263L288.14 305.616L287.389 304.33L286.531 304.494L286.771 304.027L287.257 303.724L288.266 304.544L288.474 305.232L289.938 306.045L291.086 305.68L294.643 303.434L296.687 303.245L297.76 303.699L298.523 303.522L300.598 300.696L301.399 297.794L301.242 295.94L301.513 292.71L300.68 290.319L295.855 287.638L288.455 287.008L284.897 284.51L282.614 283.576L281.592 283.589L280.81 282.258L279.794 278.088L282.046 281.425L285.951 282.813Z" fill="url(#paint3_linear_84_1352)"/>
<path d="M222.75 447.971L222.472 449.132L221.495 449.99L221.053 449.832L220.347 448.419L220.529 448.167L219.949 447.586L219.76 446.173L222.05 445.599L222.542 446.003L222.258 446.893L222.75 447.971ZM210.878 445.637L211.074 446.243L209.598 445.839L210.159 444.672L210.878 445.637ZM212.039 443.07L212.808 444.237L211.673 444.35L211.402 443.215L211.856 442.553L212.039 443.07ZM226.276 439.203L227.519 439.537L228.011 439.253L229.153 439.727L229.481 440.982L228.484 440.988L228.105 440.219L227.544 440.263L227.361 439.708L226.226 439.581L226.276 439.203ZM211.559 438.314L210.91 439.455L210.493 439.531L209.724 438.238L210.897 438.421L211.446 438.023L211.559 438.314ZM186.112 437.525L187.557 437.916L187.778 439.285L190.301 441.859L192.831 442.37L196.483 446.136L197.536 448.369L199.952 449.17L200.545 450.715L201.656 450.419L203.687 447.896L203.258 447.17L202.255 446.735L202.173 446.23L202.652 446.255L204.261 448.034L204.147 448.697L203.712 448.571L203.529 448.886L204.305 449.838L204.816 451.876L206.242 453.478L207.282 454.122L208.147 453.39L208.449 452.141L210.241 453.85L210.613 453.592L209.869 452.98L209.875 452.469L208.418 450.545L207.39 450.009L207.434 449.586L209.27 449.397L208.14 449.744L208.121 450.179L209.339 450.368L213.666 454.797L213.849 456.235L213.572 456.784L214.676 456.487L214.139 456.027L214.083 455.314L215.054 456.456L213.925 456.904L208.109 457.61L206.872 458.354L206.324 458.96L206.115 460.158L204.917 461.073L202.955 459.25L200.722 457.925L198.155 455.017L196.142 451.971L193.31 450.135L189.689 445.53L189.052 442.098L186.649 439.613L186.176 438.799L186.112 437.525ZM205.03 435.614L206.589 437.758L205.346 438.938L204.86 438.925L202.009 436.661L201.378 436.8L200.646 437.658L200.022 437.519L199.643 436.737L200.375 436.352L200.798 436.572L201.46 435.935L201.826 435.998L201.864 436.503L203.731 436.478L204.236 437.071L204.993 437.09L205.346 436.705L205.03 435.614ZM208.803 431.419L210.153 431.974L211.048 432.895L209.705 432.605L209.011 433.412L207.951 433.286L207.749 432.27L208.67 430.971L208.803 431.419ZM192.067 429.716L192.95 430.328L194.288 430.245L195.84 431.387L197.593 430.681L197.833 432.302L196.962 432.516L195.215 431.671L193.953 430.46L190.598 430.479L188.73 428.473L189.021 427.527L190.169 427.186L191.525 428.555L192.067 429.716ZM223.236 424.808L223.74 425.123L223.501 425.798L224.276 426.316L223.885 427.634L224.44 428.063L225.481 428.082L225.702 429.476L225.437 430.012L224.781 430.17L223.885 433.488L223.482 434.062L223.084 434.1L223.021 433.721L222.548 434.762L223.494 436.087L225.368 436.516L226.415 435.469L226.724 434.037L227.822 433.532L228.553 433.709L228.112 435.469L228.269 437.172L228.068 437.55L227.872 437.203L226.623 437.159L225.103 437.512L224.321 438.692L223.406 439.039L222.283 441.089L219.116 439.966L218.454 440.074L219.545 441.209L218.019 441.007L216.543 441.852L216.612 441.278L217.413 440.597L217.237 440.288L216.133 440.484L216.208 438.963L214.404 437.456L214.013 436.667L213.912 434.308L214.335 433.715L213.263 433.185L213.124 431.961L214.644 431.974L215.685 430.504L218.189 429.224L219.375 427.684L220.29 427.527L221.003 426.322L222.75 425.199L222.34 424.852L223.236 424.808ZM229.329 424.72L229.954 425.117L230.768 428.706L230.099 428.681L229.443 428.113L227.689 428.738L226.465 428.624L226.705 427.52L228.572 427.451L229.304 426.927L226.598 426.808L225.122 427.483L224.907 427.293L224.642 425.792L225.166 425.338L226.667 425.615L229.329 424.72ZM182.107 425.685L183.394 426L183.867 426.82L183.009 427.747L180.978 428.372L180.126 427.981L179.148 426.366L179.054 424.953L180.41 423.982L180.341 425.193L182.107 425.685ZM191.399 424.739L191.474 425.041L190.421 424.688L189.121 423.616L188.604 422.821L188.768 422.354L190.762 423.736L191.399 424.739ZM154.244 425.704L155.31 426.158L156.048 427.596L157.474 429.116L159.221 430.157L161.719 430.353L163.725 431.236L165.138 432.302L166.475 434.157L166.835 434.459L167.857 435.582L170.431 440.824L172.014 443.606L172.064 445.505L172.468 447L173.269 448.817L173.938 449.365L174.392 451.882L173.799 452.431L171.307 452.179L170.033 452.576L167.176 455.598L163.132 455.409L160.211 453.8L158.634 453.699L156.616 451.87L156.729 451.434L159.417 448.899L160.931 450.816L161.864 450.968L163.977 452.305L164.179 453.188L165.649 453.295L167.27 455.049L167.951 454.412L167.138 452.425L166.368 451.554L164.154 450.103L163.712 449.447L161.025 448.381L160.249 447.492L158.723 447.17L158.231 447.378L157.676 448.526L156.944 448.362L153.493 450.021L150.364 448.753L149.242 447.441L149.425 446.76L149.109 446.041L148.043 445.568L148.062 444.344L147.501 443.215L147.671 441.789L147.154 437.594L146.441 436.61L147.198 435.866L148.39 437.689L150.118 438.213L152.478 442.073L153.304 442.666L152.774 443.253L153.752 443.291L154.187 443.082L157.139 441.947L157.095 441.651L155.392 442.035L153.809 441.058L155.638 440.37L155.499 440.067L154.225 440.288L153.556 439.771L154.446 438.389L155.272 438.579L155.575 438.282L155.285 437.872L154.692 437.998L152.692 436.352L149.38 435.847L149.046 435.059L149.349 434.516L150.983 433.778L148.977 434.264L148.598 433.879L148.668 433.292L150.018 432.737L150.188 431.728L147.74 431.545L142.019 432.22L140.032 430.971L139.243 430.05L138.657 430.006L138.581 428.889L140.776 428.315L141.741 427.432L142.467 427.665L142.404 428.429L143.615 428.492L142.65 427.558L142.852 427.369L141.83 427.268L142.599 426.89L142.549 426.448L141.703 426.517L141.729 426.839L140.82 427.426L141.111 427.88L140.253 427.905L138.663 427.319L137.111 427.312L136.644 426.48L136.682 425.464L137.824 424.921L139.142 423.237L141.949 421.465L145.848 420.506L147.942 420.979L152.181 423.439L154.244 425.704ZM130.765 416.002L130.362 416.374L129.131 416.393L129.062 415.201L128.526 415.018L128.456 414.311L128.841 413.39L129.92 413.554L130.778 414.803L130.765 416.002ZM251.572 410.981L249.831 420.689L246.393 432.081L246.26 434.037L243.03 438.168L240.64 443.524L240.324 445.839L239.523 447.069L239.271 450.564L235.915 459.105L235.764 460.669L234.029 465.451L232.382 472.037L230.711 474.478L228.755 475.311L228.055 475.039L226.434 472.585L226.674 472.283L226.352 471.242L227.058 470.762L227.147 469.848L225.765 466.593L225.626 463.918L223.627 460.815L220.757 458.928L220.151 457.654L220.479 457.61L220.599 458.071L222.466 458.19L223.507 458.992L223.778 458.537L224.188 458.607L224.163 459.086L224.668 458.935L225.765 456.531L226.629 456.292L226.062 455.737L226.768 451.151L227.727 451.024L228.036 452.217L229.436 452.879L229.765 451.92L231.682 451.769L230.736 450.753L230.622 450.116L230.257 449.397L229.872 448.842L229.84 447.303L229.052 448.842L228.055 448.268L227.513 448.703L227.084 446.848L227.727 446.331L228.005 444.836L229.19 443.701L229.594 442.584L230.603 441.953L230.976 441.518L231.348 440.187L234.161 436.919L235.107 436.446L235.335 435.86L236.924 436.036L238.754 434.056L239.119 432.775L240.059 431.595L240.349 430.126L242.04 428.019L242.236 426.404L243.352 424.127L244.645 417.724L246.595 414.154L246.834 412.179L248.525 410.602L249.395 408.867L250.171 408.199L251.269 409.082L251.572 410.981ZM146.939 391.753L147.362 394.283L147.576 394.239L148.087 393.583L147.406 393.274L147.482 392.782L147.936 392.889L148.863 392.176L148.611 393.248L147.116 395.217L145.362 395.273L144.151 393.804L144.801 393.343L144.271 392.138L146.012 391.482L146.939 391.753ZM152.459 383.383L153.336 385.912L153.121 387.376L150.592 388.221L150.27 387.767L150.308 385.937L149.841 385.061L150.346 383.553L151.639 384.619L151.752 384.039L151.216 383.95L152.459 383.383ZM143.186 379.081L142 379.699L140.858 378.797L141.767 377.781L142.801 377.623L143.842 378.746L143.186 379.081ZM23.6916 363.19L24.1836 363.979L24.5684 362.698L26.0129 361.544L28.0441 361.683L29.3247 362.263L28.9841 366.811L29.4445 367.694L30.3024 368.363L31.3685 366.654L31.993 366.389L33.2673 367.259L33.1789 368.035L34.2955 371.284L32.6554 373.037L32.7752 373.813L34.3838 375.699L34.8884 379.03L35.74 378.91L34.756 380.967L35.0272 381.522L32.9834 381.213L30.7756 379.497L26.3599 369.776L24.3161 367.183L22.5309 365.928L22.2533 363.298L24.9027 361.43L23.6916 363.19ZM209.585 362.011L208.008 362.534L207.875 361.935L207.945 360.894L208.639 360.106L209.541 359.853L208.834 360.983L209.585 362.011ZM142.114 360.718L140.991 360.484L140.808 359.57L139.849 358.175L140.183 356.762L141.3 357.166L142.341 358.914L143.299 359.084L143.407 360.106L142.114 360.718ZM221.577 345.092L221.274 345.124L221.104 344.184L221.356 343.541L221.577 345.092ZM221.722 341.743L221.911 343.169L222.554 343.244L222.081 343.471L222.207 344.235L221.406 342.853L221.722 341.743ZM220.082 339.737L220.586 340.002L221.867 339.825L222.069 338.576L221.217 338.734L221.003 339.396L220.908 338.986L220.46 339.138L220.738 338.747L222.088 338.437L222.649 339.188L226.819 346.259L227.733 348.562L229.733 350.883L229.525 352.605L230.458 355.217L231.133 356.296L232.704 357.608L233.575 359.658L233.43 360.402L232.527 360.831L231.455 360.938L230.402 360.573L226.964 362.37L226.27 363.588L226.289 364.408L225.172 365.001L224.579 364.345L223.513 364.143L223.4 364.786L223.696 364.957L222.914 365.121L221.848 364.635L221.204 363.531L218.946 362.648L218.889 363.203L216.562 363.891L216.921 364.635L216.637 365.272L215.634 365.184L215.716 365.846L218.113 368.723L218.517 368.779L219.104 367.884L218.397 364.439L219.52 363.399L221.091 364.168L221.104 364.837L222.744 365.398L223.993 366.338L224.794 365.625L225.475 365.701L225.689 364.995L226.428 364.509L226.503 365.007L228.257 366.527L229.449 368.464L230.471 369.555L231.518 369.858L232.988 372.444L234.811 374.04L235.852 376.488L237.271 378.462L239.7 385.918L241.535 387.508L242.627 387.495L242.589 387.792L241.807 387.943L242.538 388.782L242.4 389.218L240.236 389.817L239.977 389.647L240.242 389.287L240.596 389.47L240.747 389.211L240.173 388.7L240.343 388.152L239.662 387.704L239.34 388.24L239.22 387.735L238.684 387.647L238.482 387.098L237.788 386.688L237.486 386.921L236.823 386.587L237.063 387.798L236.672 387.451L236.117 388.013L234.395 387.76L233.455 388.252L236.338 388.221L237.025 388.858L237.334 389.533L236.962 391.665L239.372 398.062L238.842 399.79L239.119 401.846L238.634 405.764L237.29 408.356L237.227 409.643L236.64 410.962L236.767 412.16L236.205 413.176L236.186 414.911L235.511 416.538L235.902 417.863L235 417.976L234.256 418.639L233.77 421.402L233.114 422.827L231.36 423.483L229.771 424.644L229.884 424L228.396 423.609L227.935 424.455L226.51 424.373L226.163 424.726L225.607 424.448L224.27 424.909L223.753 424.19L222.643 424.234L221.886 423.799L221.778 425.098L221.104 425.287L220.41 426.076L214.467 428.385L213.3 429.242L210.903 428.536L210.159 427.312L209.32 426.845L208.235 427.18L205.087 426.946L204.475 427.274L201.933 425.83L202.154 425.06L200.88 423.363L200.344 423.546L200.533 424.278L199.177 425.577L198.432 425.458L198.382 425.111L197.208 425.331L196.174 425.06L196.06 423.754L194.218 423.162L194.035 422.43L193.07 421.73L193.001 421.092L192.149 420.43L190.907 420.228L189.67 419.175L189.071 419.15L188.522 418.651L188.762 418.374L188.175 417.913L186.447 418.979L187.715 419.837L188.251 421.502L187.816 422.215L186.964 422.524L186.832 423.269L185.885 423.18L185.898 423.66L187.153 423.534L186.245 424.253L185.564 423.754L185.406 422.669L184.409 421.288L182.246 421.162L179.64 419.572L174.764 421.755L174.329 420.159L175.326 418.273L175.49 417.106L175.975 416.765L176.442 417.188L177.306 417.099L178.417 415.623L179.464 415.22L180.057 415.371L180.378 414.797L180.965 414.98L180.959 414.488L181.987 414.753L183.495 413.769L182.46 413.163L180.788 409.927L180.353 410.167L179.994 409.839L179.861 407.972L178.694 406.464L178.076 404.439L177.571 404.363L176.985 405.436L176.461 405.196L175.698 406.47L172.424 406.3L169.907 405.644L169.8 403.518L167.724 402.54L167.321 402.988L168.027 404.029L168.481 404.326L167.869 405.322L167.302 404.95L167.024 406.565L167.844 405.947L167.541 406.912L168.04 408.06L169.314 408.924L172.102 412.98L171.257 414.431L170.412 414.974L168.658 414.551L166.387 413.106L166.267 412.728L167.182 411.826L167.478 410.867L166.671 407.839L167.213 402.566L166.967 401.771L166.311 400.736L165.277 399.998L161.978 399.916L161.397 398.44L160.237 397.254L157.953 395.854L157.682 396.226L156.616 394.914L157.19 394.63L157.6 395.141L158.571 395.286L158.048 395.715L158.811 396.062L158.925 395.929L159.442 394.926L159.171 394.258L158.231 393.759L157.884 392.725L158.237 392.782L158.641 392.277L158.944 386.682L158.445 384.449L157.581 382.632L157.669 381.509L158.433 381.938L159.082 382.178L159.436 381.478L157.896 380.91L157.284 379.73L157.398 378.841L156.25 379.762L154.326 379.856L149.671 377.825L149.929 376.072L152.49 375.832L153.582 375.409L154.332 374.614L154.383 373.548L152.907 371.826L152.143 371.151L149.828 370.546L150.699 369.833L152.257 370.407L152.976 370.18L153.266 369.454L153.09 368.634L150.1 367.278L148.485 367.411L145.936 366.862L145.64 366.452L146.189 365.196L144.29 363.089L143.583 361.67L144.069 360.913L144.58 362.036L146.939 364.01L147.728 364.256L147.993 365.14L149.475 366.13L151.979 367.228L153.045 366.843L152.56 365.96L151.424 365.455L151.185 364.471L150.497 364.61L149.292 363.815L149.305 363.405L148.832 363.392L149.134 362.692L149.715 363.241L150.547 363.304L149.973 362.301L149.412 362.421L148.857 361.601L147.21 361.979L145.76 361.033L144.681 358.037L142.259 357.778L141.893 356.838L140.492 355.873L140.202 354.517L140.776 354.05L141.88 354.151L144.113 355.671L146.1 355.936L146.977 355.166L148.182 352.221L147.046 350.341H149.412L151.412 348.909L153.853 348.499L155.07 349.142L155.392 349.943L155.152 353.072L156.578 354.845L161.019 355.52L163.037 355.122L168.04 351.047L170.349 349.842L171.446 348.177L174.72 347.452L175.357 346.676L175.755 346.392L177.521 345.509L179.098 345.111L180.334 345.08L181.728 344.039L183.879 343.219L185.21 343.307L185.4 343.03L184.781 342.077L185.494 342.216L185.93 342.872L186.655 341.516L188.655 340.841L193.323 340.109L193.941 340.5L192.976 340.317L192.717 340.803L193.26 342.38L192.723 342.834L192.95 343.112L193.02 343.478L192.768 344.096L193.84 344.392L194.281 343.938L195.745 343.944L195.934 343.358L194.855 342.367L194.9 340.147L193.827 338.381L195.543 338.078L204.602 343.238L207.674 346.354L215.363 352.113L217.35 354.435L216.675 354.82L215.294 353.545L214.095 351.331L211.578 349.552L211.181 349.918L211.711 350.946L210.966 351.117L211.736 352.025L210.487 351.628L210.008 352.284L209.503 352.12L209.434 352.87L210.582 353.785L210.613 355.141L211.206 356.075L211.982 356.302L212.342 357.059L211.37 357.702L210.638 357.343L210.153 358.175L210.884 358.554L211.061 359.305L208.304 358.636L207.983 358.958L208.02 360.232L207.074 360.036L206.626 361.588L207.043 362.061L206.488 362.333L206.216 363.809L206.374 364.294L205.422 366.351L205.592 366.672L206.115 366.262L207.062 366.635L208.229 365.562L209.629 366.42L210.405 365.474L211.187 365.152L211.818 364.162L211.282 363.039L210.828 363.266L210.979 363.701L210.241 363.493L210.373 362.78L210.765 363.216L211.193 362.925L210.468 361.071L213.969 362.251L214.644 361.891L215.426 360.604L216.555 361.367L217.085 361.298L217.098 360.749L218.441 360.472L218.965 359.626L220.511 359.355L221.703 360.257L222.8 358.932L223.015 358.384L222.409 357.545L222.435 356.283L219.93 354.889L218.139 354.422L217.804 353.918L217.874 353.236L218.776 352.334L219.69 352.025L220.359 352.265L220.952 353.646L221.98 354.328L222.611 354.517L223.198 353.949L223.28 353.362L222.296 352.29L222.504 349.943L221.204 347.906L221.122 346.159L220.378 344.001L221.034 342.43L221.23 342.84L220.965 342.96L220.498 343.932L221.621 346.304L223.04 348.07L223.526 347.136L223.381 346.745L223.797 346.562L222.674 345.641L222.712 345.339L223.513 345.414L223.179 343.143L222.51 342.285L222.113 340.286L221.551 340.229L221.305 340.797L219.665 339.535L219.892 338.387L220.567 339.51L220.082 339.737ZM182.952 334.243L184.731 334.791L184.895 335.712L184.031 336.772L184.043 339.062L184.548 340.027L184.107 340.67L183.715 339.996L183.898 337.056L182.624 335.548L182.302 334.217L182.952 334.243ZM107.375 289.272L108.182 289.367L108.517 290.105L109.4 289.871L109.942 290.426L110.258 289.998L110.579 289.657L111.444 289.644L111.002 289.405L110.996 289.36L111.418 289.152L112.705 290.281L114.579 291.045L114.863 291.896L114.604 292.048L121.038 300.942L119.291 302.197L120.641 302.784L119.922 305.162L123.069 305.471L123.032 306.304L124.848 306.348L125.145 308.947L126.286 312.751L128.091 313.073L127.952 314.675L131.459 314.448L132.002 313.426L132.96 314.725L131.926 316.1L133.434 317.968L135.389 316.996L137.427 317.684L137.786 316.801L140.366 318.365L140.631 320.466L139.54 324.137L133.534 325.272L133.137 324.881L131.478 325.348L130.349 325.083L130.166 324.591L129.592 324.383L129.359 325.089L129.705 325.405L129.447 326.168L132.203 327.569L137.212 326.925L138.095 327.588L139.142 326.831L140.764 328.679L140.978 329.764L142.378 331.417L143.066 331.202L145.293 332.438L146.056 336.375L146.466 337.39L147.179 337.926L150.611 337.479L151.311 337.088L155.947 337.598L154.875 338.929L150.289 342.285L149.854 344.159L148.087 346.285L147.917 348.247L146.845 347.754L145.829 347.975L145.217 347.754L144.908 348.001L144.479 348.909L144.593 350.265L145.671 353.167L145.526 354L144.069 354.075L141.514 352.965L139.66 352.612L136.777 355.476L135.578 354.769L134.834 355.261L133.982 355.267L133.717 353.829L133.37 353.981L130.544 352.643L130.128 353.173L130.746 354.189L131.175 354.328L131.724 353.886L132.317 353.987V354.277L131.289 355.16L129.945 354.271L129.554 354.592L131.592 355.375L131.863 357.33L130.961 357.008L128.179 357.431L126.476 357.236L125.832 356.731L123.006 358.428L124.211 358.504L125.788 359.412L126.974 358.806L130.608 358.018L131.245 358.876L132.109 359.078L133.572 357.368L134.184 357.639L135.522 357.078L141.432 362.875L140.896 363.954L137.95 366.635L136.171 367.562L134.38 367.638L133.15 368.205L132.651 369.366L134.43 372.88L135.168 373.529L135.2 374.299L134.613 376.513L133.427 378.242L133.213 377.434L132.475 376.709L130.942 376.185L130.128 376.532L130.582 376.665L131.112 378.033L131.781 378.298L132.468 378.09L132.664 378.399L133.087 378.153L133.345 378.841L135.389 378.923L137.376 381.156L137.654 383.389L136.083 385.66L136.998 385.609L139.559 389.804L139.086 389.445L137.748 389.665L136.802 389.003L135.755 389.161L134.247 391.526L131.875 392.145L131.781 393.898L130.822 393.993L130.204 395.015L130.122 395.463L130.513 395.595L130.759 394.857L132.361 394.062L132.058 393.021L132.361 392.384L134.279 391.968L135.736 389.924L136.386 389.798L137.3 390.523L138.329 390.113L140.606 392.056L143.091 393.337L143.659 395.072L143.066 396.257L143.388 397.096L141.811 398.73L141.243 399.853L141.678 402.818L141.451 403.632L135.856 406.773L135.124 405.745L135.566 404.49L136.02 405.171L135.749 405.265L135.831 406.552L136.474 406.565L136.632 406.231L135.843 404.458L132.386 403.859L129.933 406.256L128.715 406.729L126.797 408.388L124.438 409.435L124.262 410.06L124.747 410.558L125.006 412.684L126.305 413.624L126.236 413.964L124.451 414.008L122.312 413.308L121.417 414.343L121.543 414.778L121.877 414.664L121.808 415.573L121.29 415.548L121.341 415.024L120.843 415.926L121.618 415.983L122.653 415.27L123 415.85L123.788 415.131L124.325 415.213L125.176 416.431L126.305 416.652L127.491 418.09L127.996 419.339L129.018 419.686L128.98 421.849L124.609 426.429L124.198 426.063L121.637 425.969L121.114 426.618L119.512 427.123L118.345 426.808L118.149 426.189L118.25 426.833L117.859 426.953L118.256 427.003L117.871 427.173L118.218 427.155L118.319 427.609L117.815 427.514L118.035 427.968L117.726 428.202L118.035 429.52L118.837 430.012L118.925 429.558L119.436 429.457L120.533 430.832L122.874 430.599L123.896 431.059L125.126 430.782L126.198 429.589L128.74 428.511L130.967 428.082L131.024 426.877L131.762 426.625L133.869 427.918L134.853 430.391L135.932 431.747L137.95 432.397L140.543 434.093L141.457 435.141L143.211 434.787L145.331 435.21L145.469 437.235L146.561 438.452L146.359 439.525L146.813 444.092L147.602 444.596L147.911 446.066L149.216 446.811L148.825 447.959L146.964 448.917L142.908 447.952L142.17 449.107L142.309 449.908L143.041 450.299L144.22 450.141L145.526 451.315L145.76 453.093L147.141 454.279L147.387 455.989L146.63 457.522L144.403 458.317L143.918 457.421L142.435 456.557L142.593 455.699L140.322 454.973L138.366 455.289L136.689 454.418L136.474 453.522L137.717 452.646L138.259 451.371L137.49 451.258L136.979 450.74L136.512 449.466L135.238 449.17L134.115 447.921L133.188 447.605L133.844 446.905L136.581 446.136L137.559 446.211L138.196 447.214L139.357 447.063L139.824 446.501L139.464 445.599L138.026 444.464L136.739 443.606L135.2 443.253L134.626 444.035L134.317 446.148L133.982 446.331L133.566 445.587L132.86 445.77L132.367 446.382L133.099 446.363L133.478 447.069L131.068 448.406L131.497 448.835L131.371 450.04L130.368 451.643L129.554 452.128L127.971 451.308L127.737 452.059L126.678 452.021L126.318 452.765L125.41 452.854L124.432 454.456L123.807 454.79L123.233 456.241L121.965 456.702L121.227 457.61L119.959 457.755L118.584 458.676L117.354 458.67L117.361 457.787L116.547 457.112L116.011 457.421L114.295 457.61L113.942 458.544L113.531 460.335L111.986 461.231L111.109 462.53L110.869 463.502L109.627 462.694L106.498 462.196L106.618 463.287L105.873 462.896L105.684 462.089L104.486 461.71L102.707 462.089L101.464 458.827L101.426 458.197L102.253 456.916L101.849 455.989L98.7769 454.62L97.8622 454.588L94.2413 452.778L90.5133 452.355L88.7975 452.929L85.0504 452.658L82.1361 450.463L79.4867 449.611L76.3642 448.047L73.3111 448.123L71.4691 447.687L68.6178 448.924L67.6653 448.835L66.328 447.404L65.5332 447.397L65.0411 447.832L64.4166 447.53L63.338 447.719L63.3443 448.028L61.3761 449.132L61.414 449.536L59.49 448.899L57.1245 449.523L53.0368 446.855L51.9455 446.716L51.1823 447.107L49.0627 446.678L51.0119 438.85L51.1129 435.33L48.7284 427.192L49.9963 419.66L50.318 419.705L51.1318 418.191L52.3934 414.059L53.1504 413.409L52.7656 412.64L53.4847 411.346L52.3177 410.804L50.501 410.69L46.7098 411.246L42.1491 410.507L41.6444 411.674L42.0544 414.223L42.4203 414.664L41.6886 417.875L43.3097 420.342L42.824 420.399L42.2563 421.395L41.3669 421.9L39.4303 421.685L40.1115 422.19L39.7078 422.562L40.4585 423.414L39.5438 423.849L38.9382 424.045L37.7397 424.411L37.0963 423.868L34.3712 419.427L34.0999 419.553L33.9233 418.266L34.0621 417.989L34.9767 418.071L35.084 417.768L34.0999 417.755L35.1723 411.454L35.4435 406.199L36.1059 405.064L36.9953 405.644L37.235 405.392L37.2098 405.013L36.169 404.622L36.7115 402.591L37.6451 401.676L37.8343 401.903L39.487 401.373L39.0896 402.597L41.7958 402.547L43.6882 402.995L43.9784 403.354L45.2337 404.326L45.3788 404.824L44.7669 405.959L43.5684 407.088L43.2908 408.274L43.7072 408.628L43.171 409.915L48.6464 410.772L51.6112 410.331L51.5607 409.933L52.2105 409.322L52.8665 409.258L53.1756 409.814L53.6487 409.826L53.4595 409.441L53.9074 409.012L53.3838 408.539L51.7247 399.449L51.4157 400.295L50.8605 400.124L50.8732 399.128L51.422 399.102L51.1886 397.986L51.6932 397.361L51.0182 397.021L50.9236 396.226L51.3778 395.633L51.0498 395.21L51.668 394.586L50.8668 394.378L50.7218 393.741L51.5103 393.463L51.3463 392.927L50.6713 393.066L50.501 392.504L49.9774 392.517L49.7629 392.145L50.2991 391.735L50.4442 390.757L50.7596 391.211L51.2075 391.091L50.6902 388.486L51.1507 386.757L49.7755 386.297L47.1829 387.798L46.5521 388.606L44.8489 389.262L43.3854 392.51L42.3068 392.939L41.1587 392.838L40.0737 391.678L40.1052 390.353L41.4426 388.587L42.6663 388.17L45.2463 388.549L49.7377 385.843L51.2516 386.316L52.1032 384.001L52.1915 382.607L51.6806 381.938L51.7752 381.225L50.9993 380.115L48.0345 368.294L46.4386 367.436L44.8174 365.941L42.9123 365.121L41.8715 363.91L41.083 363.664L39.0455 364.376L34.9011 363.367L34.3838 364.433L32.2012 363.474L32.9203 363.417L32.8068 363.014L31.8038 362.736L31.6776 363.317L31.2739 362.976L31.7533 362.099L31.1477 361.266L30.3781 360.099L30.0312 359.506L21.3197 349.779L19.2507 346.644L19.5471 345.484L21.1683 344.682L21.1999 344.102L20.588 343.219L18.9605 342.317L17.0933 342.159L15.3396 344.449L15.0684 345.597L14.324 346.632L14.343 348.442L14.8098 349.817L15.6803 351.06L17.2258 351.703L16.3805 353.217L17.1501 354.454L18.5126 355.299L20.3735 357.469L20.4177 359.797L19.3074 360.459L10.3941 352.732L0.162354 347.9L0.20651 346.953L1.89077 342.809L7.57437 324.162L8.98738 314.763L8.51428 308.127L10.1544 307.824L9.91467 307.048L9.25863 306.613L9.29648 305.78L10.1228 305.591L13.2012 306.418L13.1255 307.749L14.9422 308.739L17.2573 310.972L17.9323 310.934L18.3864 310.303L21.6793 310.379L24.2088 307.074L26.7573 310.291L30.6052 310.675L29.823 311.231L32.0561 312.379L32.8131 314.183L36.7682 314.132L38.4462 312.461L38.3453 308.941L40.4459 308.512L41.2722 307.074L40.0485 304.153L43.335 303.144L45.3536 305.131L52.6142 303.049L55.3898 304.683L56.6451 308.392L59.8307 309.597L65.754 307.534L62.9342 304.683L65.4386 303.181L66.8768 297.857L68.2709 298.097L69.1036 295.744L70.3273 295.997L70.5355 295.694L77.8718 297.378L77.1969 303.491L81.6882 305.799L83.4923 304.26L84.9054 304.904L85.9967 302.689L87.0501 303.655L88.2739 300.166L89.3589 298.57L91.1251 299.8L93.9512 297.586L97.9442 292.426L97.8937 290.256L100.007 286.528L103.306 286.717L105.363 289.083L107.375 289.272ZM138.316 400.509L137.969 400.566L138.259 401.209L140.499 400.818L140.177 400.162L140.133 399.853L139.458 398.667L138.348 399.336L138.316 400.509Z" fill="url(#paint4_linear_84_1352)"/>
<path d="M391.372 324.174C391.372 329.235 387.252 333.349 382.186 333.349C377.119 333.349 373 329.235 373 324.174C373 319.114 377.119 315 382.186 315C387.252 315 391.372 319.114 391.372 324.174Z" fill="#F2F2F2"/>
</g>
<defs>
<linearGradient id="paint0_linear_84_1352" x1="473.721" y1="259.283" x2="473.721" y2="435.153" gradientUnits="userSpaceOnUse">
<stop stop-color="#7A96CC"/>
<stop offset="1" stop-color="#3C5B8C"/>
</linearGradient>
<linearGradient id="paint1_linear_84_1352" x1="157.887" y1="146.097" x2="157.887" y2="330.855" gradientUnits="userSpaceOnUse">
<stop stop-color="#7A96CC"/>
<stop offset="1" stop-color="#3C5B8C"/>
</linearGradient>
<linearGradient id="paint2_linear_84_1352" x1="142.864" y1="0.159424" x2="142.864" y2="193.118" gradientUnits="userSpaceOnUse">
<stop stop-color="#7A96CC"/>
<stop offset="1" stop-color="#3C5B8C"/>
</linearGradient>
<linearGradient id="paint3_linear_84_1352" x1="317.545" y1="278.088" x2="317.545" y2="499.761" gradientUnits="userSpaceOnUse">
<stop stop-color="#7A96CC"/>
<stop offset="1" stop-color="#3C5B8C"/>
</linearGradient>
<linearGradient id="paint4_linear_84_1352" x1="125.867" y1="286.528" x2="125.867" y2="475.311" gradientUnits="userSpaceOnUse">
<stop stop-color="#7A96CC"/>
<stop offset="1" stop-color="#3C5B8C"/>
</linearGradient>
<clipPath id="clip0_84_1352">
<rect width="618.489" height="500" fill="white"/>
</clipPath>
</defs>
</svg>
