<svg width="520" height="499" viewBox="0 0 520 499" fill="none" xmlns="http://www.w3.org/2000/svg">
<g clip-path="url(#clip0_50_697)">
<g filter="url(#filter0_d_50_697)">
<path d="M509.515 497.108H509.448L509.096 497.152V497.416L509.272 497.504L509.492 497.636V497.548L509.581 497.504L509.647 497.46L509.735 497.328L509.47 497.372V497.108H509.515ZM509.184 498.516L509.008 498.45L508.92 498.714L509.294 499.022V498.824L509.206 498.67V498.516H509.184ZM520 453.48L519.846 452.556L519.229 450.708L519.075 449.718V448.816L519.141 448.046L519.339 447.408L519.515 446.792L519.097 445.78L519.031 444.328L519.097 441.556L518.921 440.632L518.568 439.796L517.533 438.278L518.15 439.51L518.238 439.84L518.304 440.544L517.379 440.126L517.114 439.884L516.938 439.51L516.762 439.114L516.674 438.806L516.431 438.564L516.586 438.168V437.926L516.497 437.662L516.431 437.222H516.365L516.167 437.156L515.991 437.046L515.903 436.936V436.716L515.991 436.562L516.167 436.43V434.934L516.255 434.252L516.167 433.68L517.313 429.191L517.379 427.739L516.674 423.361L516.872 422.459L516.497 421.997L516.365 421.447V420.919L516.674 420.523V420.171L515.991 419.775L515.66 419.511L515.22 418.851L514.537 419.137H513.061L512.466 419.533L512.29 420.149L512.378 420.985L512.621 421.755L512.995 422.151L512.907 422.547L512.819 422.745L512.907 422.899L512.995 423.119L512.114 423.999L511.96 424.329L511.783 424.791V425.187L512.048 425.649V426.089L511.079 427.409L511.607 428.157L512.114 428.927L512.29 429.785L512.07 430.709L512.4 431.743L511.872 433.152L510.572 435.308H510.33L509.955 434.384L509.779 433.988L509.603 433.68L509.36 433.438L508.589 433.042L506.805 432.514L506.431 432.558L506.078 432.426H505.219L504.36 432.579L504.029 432.888L502.113 435L501.937 435.924L500.813 436.496L496.87 437.354L494.623 438.52L493.324 438.586L493.588 438.916L493.324 439.598L493.081 440.236L492.663 440.698L492.134 440.896L491.716 440.72L491.363 440.368L491.033 440.192L490.394 440.522L490.328 440.104L490.24 440.016H490.174L489.931 439.862V440.214L490.174 440.676L490.02 441.732L490.174 442.172L489.469 442.348L488.874 442.634L488.433 443.184L488.213 444.394L488.125 444.592L488.213 444.724L488.632 444.768L488.808 444.944L488.632 445.34L488.213 445.956V447.012L487.861 447.32L486.715 447.496L486.583 447.65L486.495 447.848L486.319 448.068L486.231 448.398L486.165 448.794L485.966 448.992L485.57 448.75L485.394 449.08L485.019 449.278H484.689L484.336 449.058L484.248 449.52V450.07L484.424 450.598L484.623 450.994L484.358 451.368L485.812 450.774L486.517 450.708L487.288 451.368L486.253 452.006L486.076 452.16L486.165 452.512L486.231 452.71H486.495L486.891 452.314L487.09 452.49L487.156 452.798L487.244 452.974L488.61 453.634L488.676 453.7L489.226 454.118L489.138 454.492L489.072 454.558L488.874 454.514L488.698 454.624L488.367 454.888L487.839 455.108L486.473 455.394L486.12 455.592L485.856 455.79L485.526 455.922L484.667 455.878L484.226 455.966L484.16 456.428L484.336 456.604L484.865 456.758L485.107 457.044L484.865 457.572L485.283 457.792L485.46 458.254L485.283 458.716L484.865 458.87V459.201H485.79V459.553L485.283 459.949L485.019 460.103L484.623 460.169H484.953H485.305L485.57 460.301L485.79 460.543L485.724 460.719L485.548 461.159H486.319L487.09 461.313L487.773 461.709L488.037 462.325L488.213 462.501L489.249 462.237L489.579 462.325L489.843 462.743L490.416 464.085L490.967 464.503L491.187 464.811L491.121 465.405H490.967L490.02 465.911L489.843 466.043L489.072 466.285L488.367 466.813L488.015 467.363L488.411 467.671L488.015 468.507L487.332 468.815L485.526 468.969L486.561 470.157L486.693 470.795L486.297 471.587L486.561 472.203L487.068 471.807L487.751 471.653L489.226 471.565L489.909 471.323L491.187 470.663L491.892 470.597L492.222 470.685L492.487 470.839L492.663 471.125L492.817 471.565L493.258 471.851H493.324L493.258 472.203L492.883 472.599L492.817 472.841H492.751L492.31 473.501L492.487 473.457L492.575 473.721L492.751 474.051L492.817 474.161L492.575 474.403L491.363 474.799L491.804 474.865L492.134 475.063L492.377 475.371L492.575 475.811L491.429 476.515L490.658 476.757H489.887V477.109L490.306 477.351V477.791L490.13 478.275L489.887 478.671L489.447 478.913L488.411 479.067L488.015 479.309L488.411 479.419L488.786 479.573L489.226 479.661H489.623L489.447 480.079L489.381 480.255L490.218 480.189L491.694 479.617H492.553L492.288 480.585L492.729 481.047L493.566 481.201H494.337L496.584 481.861L497.443 481.905L497.047 482.411L496.518 482.697L496.187 483.027L496.011 483.665L495.637 483.973L493.742 484.853L493.147 484.545L492.795 485.205L492.553 486.173L492.288 486.789L492.861 486.987L492.949 487.318L492.773 488.22L492.949 488.418L493.39 488.638L493.896 488.748H494.271L494.491 488.88L494.932 489.034V489.32L494.491 489.65L494.756 489.87L495.108 489.914H495.372L495.703 490.002L495.879 490.2L495.967 490.398L496.033 490.552L496.804 490.75L497.135 491.014L497.509 491.322L497.862 491.608L498.456 491.476L499.315 491.608L500.175 491.894L500.527 492.202L500.769 492.554L501.034 492.4L501.1 492.312L501.518 492.202L501.452 492.356L501.364 492.422V492.466L501.276 492.554L501.518 492.862L502.554 492.026L502.994 491.894V492.18L502.443 492.862L502.994 493.28L503.853 493.632L504.448 494.16L504.118 494.248L503.941 494.402L503.501 495.612L504.448 496.008L505.571 496.162L506.078 496.404L507.047 497.196L507.488 497.35L508.061 497.042L508.259 496.646L508.567 495.942L508.832 495.15L509.03 494.446L508.567 494.688L507.995 495.238L507.576 495.414V495.106L507.906 494.798L508.083 494.446L507.906 494.072L507.576 493.808V493.456L508.259 493.368L509.206 492.73L509.713 492.488L509.537 492.136L509.889 491.828L510.065 491.41L509.889 491.036L509.537 490.882L509.603 490.552L509.691 490.222L509.603 489.892L509.537 489.562L510.153 489.452L510.484 488.99L510.748 488.528L511.101 488.286L511.695 488.132L512.202 487.758L512.554 487.185L512.643 486.525L512.378 486.085L511.607 486.217L510.484 486.701L509.977 486.393L510.241 485.953L510.55 485.491L510.484 485.073L510.924 485.007H511.431L511.982 485.161L512.378 485.381L512.312 484.677L512.378 484.413H512.643H512.973L513.325 484.171L513.524 483.621L513.59 482.785H513.149L513.325 482.323L513.7 481.905L514.03 481.597L514.295 481.487L514.383 481.245L514.471 477.791L514.096 474.535L514.471 471.279V469.585L514.647 469.123L515.154 468.595L517.555 465.075L518.172 463.909L518.502 463.293L519.449 462.413L519.714 461.973L519.78 461.599L519.868 460.763L519.934 460.367L519.692 459.245L519.934 453.326L520 453.48ZM117.036 121.708L117.124 121.84L117.036 121.488L116.948 121.4L116.772 121.246L116.684 121.18V121.466L116.772 121.686H116.948H117.036V121.708ZM411.334 417.113L410.74 417.223L410.387 417.553L410.167 418.103L409.462 418.367L409.286 418.741L409.374 419.225L409.616 419.269L409.881 418.983L410.563 418.763L411.114 417.839L411.334 417.553L411.951 417.465V417.223L411.775 417.003L411.334 417.135V417.113ZM100.361 234.55L98.9952 233.978L98.2903 233.846L97.6955 233.956L97.343 234.418L97.7836 235.364H100.625L101.396 235.716L101.044 235.056L100.361 234.55ZM105.78 222.318L105.427 221.922L104.238 221.284L103.885 220.866L103.797 220.118L103.974 219.436L103.885 218.842L103.114 218.38L102.52 218.27L100.449 218.38L101.044 219.172L101.661 221.152L102.167 221.944L103.114 221.46L104.062 222.076L104.745 223.242L105.251 224.408L105.868 224.76L106.044 224.078L105.956 223.022L105.78 222.296V222.318ZM3.10599 142.807L2.92976 142.565L2.335 142.235L1.4759 142.477L0 143.313V143.665L0.947217 143.401L1.29967 143.511L1.4759 144.039H1.38778L1.12344 144.017H1.03533V144.413L1.65212 144.281L3.45844 143.335V142.939H3.1941L3.10599 142.873V142.807ZM129.504 259.213L129.769 258.927V258.619L129.592 258.355L129.328 258.135L128.645 258.003L126.663 258.531V258.839L127.015 259.147L128.469 260.797L128.976 260.995L130.958 260.621L134.395 262.843L136.025 263.151L136.201 263.217L136.377 263.415L136.73 263.195L136.972 263.107H137.324L136.884 262.139L136.201 261.347L135.43 260.819L131.817 260.247L131.223 259.961V259.587H131.729V259.235L130.87 259.455L129.835 259.917H128.976L128.293 258.839L128.733 258.883L129.504 259.235V259.213ZM402.325 418.565L402.061 418.829L401.884 418.917H401.708H401.62L401.554 419.071L401.201 419.225H400.232L399.836 419.379L399.902 419.643L400.761 420.105L401.201 420.237L401.708 420.083L402.149 419.841L402.545 419.313V418.631L402.479 418.367L402.325 418.543V418.565ZM71.8783 203.133L71.4598 202.913L70.2482 201.681L70.1601 201.527L69.301 200.823L67.6709 199.965L67.2524 199.877L66.8999 199.569H66.7237L66.5695 199.899L66.2171 200.185L66.4814 200.955L66.7898 201.791L67.0541 202.649L66.966 203.485L67.5608 203.925L69.4552 204.475L72.2088 204.739L73.156 204.453L73.2441 203.485L72.8916 203.067L71.8563 203.133H71.8783ZM138.007 271.754L137.589 271.226L137.06 271.292L136.642 271.446L136.201 271.226L135.342 270.302L134.307 269.4L133.117 268.784L131.994 268.63L132.765 270.368L133.205 271.556L133.117 272.084L132.941 272.546L133.536 273.514L134.307 274.438L135.011 274.988L137.06 277.342L137.501 278.046L137.743 278.706L138.294 280.466L138.888 280.752L139.395 279.96L139.858 278.64L140.122 276.484L140.034 276.044L139.77 275.604L138.734 274.988L138.404 274.636L138.58 274.174V273.822L138.228 273.448L138.139 272.942L138.228 272.37L138.051 271.754H138.007ZM468.013 115.79L462.418 112.798L461.735 112.71L459.753 112.93L456.867 112.072L456.426 112.182L455.567 112.644L455.127 112.776L454.906 112.71L454.135 112.446L453.695 112.38L453.276 112.468L452.836 112.644L452.439 112.754L451.999 112.644L451.668 112.358L451.294 111.654L451.029 111.324L450.258 110.906L448.738 110.642L447.967 110.158L447.417 109.586L446.646 108.266L446.139 107.738L446.205 107.562L446.293 107.452L446.514 107.298L446.293 106.506L445.677 106.264L444.135 106.154L443.958 105.538L443.275 105.472L442.504 105.736L441.932 106.066L441.733 106.33L441.491 107.1L441.293 107.408L441.073 107.54L440.28 107.628L440.037 107.738L439.773 108.024L439.421 108.772L439.2 108.992H439.002L438.055 108.53H434.971L434.442 108.31L433.847 108.024L432.46 107.034H432.305L431.953 107.32L432.019 107.628L432.107 107.936L432.019 108.2L431.006 108.882L430.235 108.266L429.794 106.792V104.878H429.023L426.886 103.602L426.446 103.536L425.41 103.646L423.957 103.316L423.582 103.404L423.34 104.152L423.582 105.032L423.78 105.912L423.186 106.726L422.745 106.836L421.379 106.308H419.749L419.309 106.11L418.89 105.362L418.978 104.702L419.154 104.02L418.978 103.14H418.78L418.339 103.47H418.207L418.119 103.294L418.031 102.854L417.965 102.744L417.877 102.524L417.612 101.512L417.48 101.358L416.93 101.182L416.753 101.028V100.808L416.819 100.28L416.753 100.038L414.44 97.7714L413.846 97.0454L413.581 96.4294L413.78 95.9234H414.462L414.551 95.4613L414.462 95.1313L412.744 93.3053L412.48 92.9533H412.568V92.6232L412.48 92.1832L412.26 91.7212L411.621 91.1492L408.361 89.5211L408.008 89.4551L407.678 89.5651L407.061 90.0271L406.642 90.1152L406.378 90.0711L405.695 90.0051L404.748 89.4771L402.942 88.1791L401.994 87.7831L400.959 87.6731L399.021 87.8931L399.153 88.3991L398.206 88.4871L397.963 88.5751L397.787 88.9051V89.2571L397.699 89.5431L397.302 89.6971L396.928 90.2252L396.421 90.4232L393.403 90.5992L392.72 90.7972L392.28 89.2571L391.597 88.5751L389.372 88.0471L388.513 87.6291L387.808 87.057L386.707 85.583L386.354 85.495L385.583 85.011L385.143 84.945L384.812 85.165L384.284 85.759L383.953 85.935H383.865L383.094 85.803L382.411 85.429L381.552 85.253L380.671 85.693L380.252 86.265L380.164 86.661V86.727L380.076 86.881H379.812L379.57 86.947L379.217 86.859L378.094 86.331L377.675 86.551L377.499 86.639L377.08 86.969L376.552 87.343L375.869 87.7391L375.693 87.8711L374.922 87.6731L374.745 87.299L374.657 87.189L374.745 86.727L374.834 86.199V85.627L374.657 85.143L373.027 82.0409L372.344 81.4468L371.221 81.0508L371.045 80.9408L370.824 80.8088L370.648 80.7648L370.472 80.9188L370.384 81.2268L370.142 81.4908L369.877 81.5568L369.348 81.4468L369.194 81.2488L369.106 81.0068V80.7428L369.194 79.9728L369.437 79.7968L369.525 79.7088L369.613 79.5988L369.348 78.7847L368.666 77.9487L367.983 77.2007H367.542L367.234 77.2227L366.639 77.3767L365.604 77.6627L364.833 77.4427L364.128 76.9587L363.974 76.7827L363.621 76.4307L362.762 75.1766L362.167 74.2526L361.727 73.8566L361.396 73.7686L360.449 73.4826L359.744 73.0865L358.466 71.7665L357.872 71.4585H357.784H357.431H357.013L356.308 71.7225L355.537 72.0085L354.942 72.0965H354.678L354.171 72.0305L353.819 71.9865L353.488 71.5685V69.5224L353.4 69.2144L353.048 68.6424L352.959 68.3564L353.048 68.0264L353.312 67.6523L353.4 67.5863L353.488 67.3663V67.2123L353.642 66.7063L353.73 66.4863L353.819 66.2443L353.907 65.7823V65.4523L353.819 65.0562L353.312 64.0662L352.365 63.6482L351.682 63.3622L351.153 62.5922L351.329 61.7121L352.277 59.314L352.695 58.346V57.752L352.629 57.29L352.695 56.916V56.7839L352.871 56.3659L353.4 55.3319L353.554 55.2659L353.907 55.6619H353.995V55.1119L354.083 54.7159L354.259 53.5718V52.6258L353.907 52.1858L352.871 52.4058L352.453 52.2518L352.277 51.4818L351.329 51.8998L347.54 55.7059L347.364 56.1239L347.298 56.6959V56.916L347.364 57.004V57.092L347.452 57.246V57.422L347.54 57.62L347.364 58.192L347.21 59.358L346.946 60.2381V60.3481L346.681 60.8761L346.439 61.0521L346.263 61.1401L344.787 61.3601L343.597 61.9761L339.897 63.8242L338.773 64.0222L334.147 62.7242L333.288 62.4822L332.253 62.6362L330.535 62.9002L330.182 62.7902H330.094L328.112 61.6901H328.376V61.2061L328.288 60.9201L328.2 60.4801L328.112 60.0621L327.957 59.9961L328.112 59.336L328.288 58.984V58.918L328.552 58.61L328.905 58.236L329.147 57.994L329.764 57.576L330.006 57.4L330.447 57.158L330.865 56.982V56.6079L330.623 56.1679L330.535 55.8819L330.447 55.6619L329.852 53.2858L329.499 53.0878L329.059 53.1538L328.376 53.4838L328.112 53.3738L327.869 53.2198L327.957 52.3838V52.2298L328.376 50.8437L328.64 50.0297L328.816 49.0177L328.993 48.6217V48.5776L329.411 48.0496L330.182 47.3896L330.27 47.3236L330.535 46.9716L330.623 46.6856V46.3776L330.447 46.0256L330.006 45.6295L329.676 45.4535L329.499 45.3435L329.147 45.2115L328.728 45.4095V45.9596L328.816 46.1576L328.64 46.2456L328.552 46.3996L328.045 46.2016L327.869 46.0916L327.098 44.5075L326.922 44.0235L326.151 43.3635L325.688 43.0774L325.38 42.9234L324.257 41.6254H324.168L323.574 41.2954L323.221 41.3394L322.803 41.3834L321.327 41.9994L320.556 42.3074H320.049H319.785L319.609 42.2414L319.102 42.0214L318.749 41.7794L318.485 41.6034L317.802 41.2294L316.348 41.0314L314.806 41.1634L314.542 41.2294L314.278 41.3174L314.035 41.6474L313.331 42.7254L313.242 43.0774L313.176 43.1875V43.2535L313 43.4735L312.912 43.4295H312.824L312.736 43.8255L311.458 42.6594L311.194 40.3934L311.106 37.7973L310.841 35.6632L310.247 34.6291L309.564 33.9471L308.793 33.5511L308 33.3751H305.863H305.687L305.268 33.0671L305.599 32.4951V32.4511L305.687 31.9891L305.422 31.703L305.268 31.659L304.916 31.549L304.563 31.593H304.409L304.145 31.769L304.057 31.813L303.969 31.9451L303.704 32.1651L303.55 32.2531L303.198 32.5391L301.986 32.9791L301.656 33.1111L301.391 33.1551L300.796 33.2211L300.18 33.0451L298.638 32.2531L298.219 31.879L297.69 31.263L297.602 31.175L297.426 30.537V28.7549L296.501 25.6308L296.148 24.0248L296.413 23.5407L296.655 23.0787L296.501 22.5727L296.237 21.7807L295.972 21.2967V21.2527L295.554 21.0987L295.003 21.0327L294.783 20.7026L294.232 19.6466L293.924 18.9426L293.747 18.6346L293.219 17.7105L292.624 17.1385L291.853 16.9185L291.677 16.8745L289.958 17.4245L288.923 17.7545L288.593 17.8645L287.029 18.3266L286.61 18.6126L286.258 18.8546L285.927 19.1846L285.575 19.5366L285.156 20.3066L284.54 21.3847L284.033 21.7587L283.857 21.7147L283.592 21.6487H283.504L283.35 21.5827L280.839 20.4166L280.508 20.2626L280.332 20.1086L279.825 19.7126V19.5806L279.649 19.3826L279.209 18.2606L278.966 17.8865L278.878 17.7325L277.667 16.6325L277.402 16.2145L277.314 15.8185L277.16 15.4885L276.719 15.2464H276.389L275.684 15.3125H275.442L274.913 15.2024L274.649 15.1144V15.0704L274.407 14.7624L274.318 14.4324L274.142 14.0364L273.966 13.8604L273.878 13.7944L273.547 13.6404L273.459 13.4864V13.1784L273.724 12.5624L273.79 12.2103L273.459 11.0003L273.107 9.76825L273.283 9.24023L273.547 8.95422L274.054 8.4262L274.23 8.20619L274.318 8.09619L274.23 6.97415L273.636 6.13812L272.336 4.73007L272.005 3.65203V3.21201L271.653 1.16594L271.565 1.01193L271.124 -0.110107L270.618 0.285907L269.164 0.945931L266.322 1.71596L264.163 1.45195L263.833 1.49595L263.48 1.69396L257.467 3.67403L251.805 4.37805L250.506 5.10408L249.911 4.97208L243.104 7.94218L242.113 8.97622L241.078 10.4063L240.483 11.0223L239.778 11.2643L239.007 11.3303L238.743 11.4623L237.884 12.1443V12.4303L237.972 13.2004L238.5 15.2904L238.743 16.5665L238.589 17.6225L238.148 18.4366L237.377 20.6366L237.201 21.6267L237.289 22.7927L237.641 25.1468L237.818 27.7649L237.972 28.5349L238.919 30.009L237.818 30.845L237.641 33.0891V35.7072L236.958 37.5553V37.9513L238.919 39.4913V39.8433L237.553 39.5573L236.87 41.0314L236.518 43.2095V44.9915L236.87 45.4315L238.324 46.1796L238.677 46.8836L238.919 47.4996L239.448 47.9176L240.219 48.1596H240.901V48.5776H240.13L240.307 48.9957L240.483 49.2377L240.725 49.3257H241.188V49.6777L240.835 49.9857H240.505L236.98 48.2916L235.769 48.4456L234.557 50.0737L233.786 52.9998L233.456 53.4618L233.103 53.8138L231.209 56.1019L226.561 59.8421L225.195 61.3821L224.336 61.6901L223.477 62.3721L208.872 67.0803L205.854 67.0363L203.101 68.0484L201.735 68.9944L200.413 69.3684L196.03 72.0085L195.721 72.5365L191.073 74.6706L190.721 75.0226H190.302L188.584 76.4747L188.056 77.0907L186.602 81.8869L184.795 85.231L184.707 85.627L184.619 86.221L184.707 86.683L185.258 87.035L185.412 87.3651L185.677 87.8931L186.359 88.3111L187.219 88.5751L187.835 88.6411H188.518L191.095 89.4991L194.025 89.8951L196.933 89.4771L199.422 87.8931L198.827 88.7071L198.145 89.3231L196.514 90.1591L187.747 92.1612L185.412 93.8773L184.553 95.1973L184.223 95.4393L183.452 95.6593L182.416 96.5174L180.786 97.3094L175.081 98.6515L174.222 99.4655L170.874 97.4414L169.155 97.0234L168.032 96.3194L167.437 96.0554H165.036L163.472 95.3953L162.613 95.1753L161.335 95.8794L160.476 95.7914L158.934 95.3513L152.898 94.9553L148.691 93.3493L144.043 93.1073L143.448 93.4153L142.854 94.0533L142.589 94.8013L142.942 95.3513V95.7034L142.259 95.9014L141.906 95.6814L141.554 95.2853L141.223 94.9553L140.783 95.0213L140.474 95.2633L140.21 95.3073L140.034 94.7573L140.122 94.6033L140.298 94.3173L140.474 93.8773L140.563 93.2833L140.386 92.0952L140.034 91.2812L137.368 87.8711L136.862 86.375L136.245 85.429L135.738 84.3509L135.915 83.0529L136.179 82.7889L136.509 82.6789H137.28L137.368 82.4369L137.457 81.9309L137.633 81.4248L138.58 80.7648L138.404 79.8408L137.633 78.1907L137.457 77.2887L137.28 76.9147L137.038 76.7607L132.698 75.9686L132.104 76.0566L130.474 76.5627L129.967 76.9587L129.02 78.1907L128.491 78.7187L127.896 79.0047H127.456L126.773 78.6967L126.354 78.6087L125.914 78.7407L125.495 79.2688L125.143 79.3788L124.878 79.2688L124.79 79.0047V78.7407L124.724 78.6087L124.196 78.6527L121.53 77.7507L119.217 77.3987L118.446 77.1347H118.27L117.829 77.1787L117.675 77.1347L117.587 76.8927L117.411 76.2327L117.235 75.9906L116.904 75.8366L115.869 75.9906L115.516 75.8806L114.834 75.3746L114.481 75.2426L113.534 75.3746L113.38 75.7926L113.446 76.5847L113.137 77.8827L114.679 78.5427L115.891 78.7627L116.133 79.1588L116.398 79.6868L116.662 80.3028L116.926 81.0728V81.9749L116.75 83.6909L116.574 84.2409L115.538 85.165L115.274 85.913L115.538 86.243L116.398 87.343L116.75 87.9371L116.926 88.3551V88.6411L116.992 88.9051L117.543 89.8511L117.631 90.1812L117.719 90.5552L117.785 91.3252L117.631 93.1733L117.719 93.8773L118.05 94.2513H118.49L118.997 94.0093L119.437 93.8773L119.349 94.0753L119.261 94.2293L119.173 94.6033L119.856 95.0213L120.715 95.9234L121.31 96.3414L121.662 95.4173H121.927L122.345 96.5174V96.8474H121.662L121.927 97.7054L122.345 98.3214L123.38 99.1135L123.204 99.1795L123.116 99.2675L122.896 99.5095L123.403 100.148L123.997 102.15L124.548 102.788L124.878 101.776H125.583L126.531 102.238L127.302 102.48V102.81L125.98 102.436L125.297 102.48L125.033 102.986L125.121 103.976L125.297 105.01L125.473 106.022L125.804 106.88L125.98 106.638L126.068 106.55L126.509 106.88L125.804 107.364L125.561 107.694L125.297 108.398L125.121 109.102V109.696L125.297 110.114L125.804 110.202L125.649 110.752L125.561 111.324V112.622L125.649 113.084L125.87 113.612L126.134 113.92L126.222 113.7L126.553 112.864L127.169 112.468H128.028L128.623 112.798V113.128L127.764 112.71L127.346 112.952L127.081 113.766L126.729 116.868L126.817 117.176L127.257 117.286L127.434 117.572V118.056L127.257 118.672L126.905 118.21L126.641 118.738L126.398 121.312L126.134 121.928L125.782 122.412L125.275 122.632V123.028L126.134 123.248L126.553 124.106L126.729 125.36V126.834L127.081 128.111L128.359 129.277L128.623 130.531L128.888 130.861L129.306 131.169L130.518 131.521L130.694 131.719L130.782 132.027L130.87 132.357L130.936 132.599L131.112 132.511L131.289 132.313V132.181L132.676 132.313L133.447 132.709L134.042 133.633L132.743 133.149L128.888 134.007L126.134 133.633L125.539 133.765L123.821 134.689L121.068 135.129L118.49 135.085L116.948 134.667L116.155 133.743V132.489L117.014 131.059L116.794 130.685L116.706 130.399V130.157L116.794 129.937L113.181 130.663L113.446 131.059H112.058L111.794 131.235L111.705 131.609V132.005L111.639 132.159L111.023 132.313L110.604 132.709L110.34 133.193L110.252 133.611L110.604 134.271L111.287 135.855L111.639 136.163H111.97L112.41 136.317L112.653 136.647L112.917 137.263L112.499 136.933L112.41 136.779L112.234 136.537H111.97L112.146 137.395L112.653 138.341L112.41 138.759L113.446 139.463L112.322 140.167L111.97 140.563L112.146 139.375L111.882 138.671L111.023 137.285L111.111 137.065L111.287 136.537L110.78 136.383L110.516 135.987L110.34 135.459L110.252 134.887L109.481 133.501L109.393 133.259L107.762 133.435L106.132 133.985L106.463 134.755L106.639 135.129L106.903 135.459L106.463 134.975L105.956 134.931L105.604 135.239L105.185 135.833L105.538 136.119L105.604 136.185V136.537L105.097 136.845L104.833 136.537L104.59 135.877L104.502 135.085V135.745L104.326 136.295L104.062 136.713L103.731 136.911L103.643 136.361L103.555 135.745L103.291 135.283L102.872 135.085L102.784 134.777L102.608 133.545L102.432 133.259L101.572 133.655L100.89 134.381L100.207 134.843L99.5899 134.337L100.537 133.237L100.713 132.929L100.89 132.621L101.066 132.335L101.286 132.115V131.719L100.779 131.785L100.427 131.631L100.185 131.235L100.097 130.619L99.5679 131.609L98.6207 132.533L97.6074 133.237L96.6602 133.589L96.3958 132.863L95.6248 132.753L93.9947 133.215L94.6776 133.545H95.0301V133.941L94.4794 134.513L92.0783 136.009L91.4615 136.207L91.1311 136.493L90.7786 136.823L90.0076 138.143L89.3247 138.891L88.73 139.133L87.3422 139.067L87.166 139.463V140.211L87.0999 140.717L86.5712 140.321L86.3069 139.903L85.9764 139.595L85.624 139.419L85.3156 139.375L85.5359 139.133L85.7121 138.825L85.8883 138.451L85.9764 137.967L83.9939 136.999L83.1348 136.339L82.6281 136.097L82.4519 135.943L82.3638 135.635L82.4519 135.371L82.54 135.129L82.4519 134.865L82.3638 134.447L81.9232 132.841L79.6984 130.861L79.434 130.311L78.9274 129.673L78.2445 129.123L77.7158 128.793V128.463L77.8921 128.375L78.2445 128.067L78.1564 127.737V127.406L78.2445 126.944L77.5396 126.702L75.7333 126.614L74.8081 126.262V125.866H74.3675V125.536L74.9623 125.074L75.2266 124.92L75.5791 124.832V124.568L75.491 124.502H75.4029L75.3148 124.458L75.5791 124.084L75.2266 123.798L74.8081 123.688L74.4557 123.776L74.1032 124.084L73.5084 123.952L72.8256 124.964L71.7021 127.384H71.4378V126.966L72.1427 125.976L72.385 125.536L72.8476 124.15L73.156 123.71L72.6493 123.314V122.984L72.9137 122.456V121.884L72.6493 121.422L72.2088 121.136L71.7021 121.268L71.1073 122.06L70.6668 121.906L70.4245 122.302L69.5654 123.05L68.4419 124.348L68.1776 124.876L68.0895 125.558L67.8251 125.228V125.074L67.759 124.832L68.2657 124.282L68.53 123.314V122.258L68.2657 121.488L67.759 121.356L66.6356 122.676L66.3713 122.588H66.1069L65.6884 122.896L62.6705 124.018L62.4282 124.194L62.0757 124.634L61.8114 124.832L61.3929 124.876L60.5338 124.81L60.6219 124.546L60.71 124.392L60.7981 124.238L61.0404 124.084H60.5338L59.3222 123.314L58.1988 123.248L57.8683 122.984H57.604L57.4278 123.424L56.6568 124.832L55.6215 125.294L55.291 125.756L55.4673 126.636L56.6568 128.155L57.2075 128.485L55.3131 128.815L55.2249 129.167L55.3131 130.003L55.6435 131.235L55.2249 131.521H54.1896L53.2424 131.257L53.3305 130.355L52.0308 130.707H51.6123L51.1938 130.487L50.4007 129.739L49.9822 129.585L48.3521 129.695L47.6692 129.497L47.2287 128.837V129.453L47.1406 129.717L46.9643 129.959L46.5458 129.629L46.2815 130.223L46.1052 131.235L46.2815 132.159L45.929 131.873L45.8629 131.719L45.7748 131.411H45.5105L45.6867 132.489L45.8629 132.929L46.0171 133.259L45.7748 133.611L46.0171 133.985L45.7748 134.359L45.2461 133.743L44.2108 133.061L43.7923 132.489V132.159L43.9685 132.093L44.2989 131.763L43.616 131.609L43.1094 131.873L42.0741 132.863L42.2503 132.225V131.697L41.9859 131.301L41.6335 131.081V130.685H41.8978V130.355L41.4793 130.201L41.3912 129.937L41.5454 129.541L41.6335 129.013L41.3912 128.859L40.1796 129.233L39.4086 129.695L38.946 129.849L38.4394 129.937L38.6156 130.421V130.817L38.4394 131.147L38.175 131.389H38.0208L37.8446 130.993L37.6684 130.751H37.4922L37.2278 131.059L36.6331 130.685L35.8621 130.619L35.003 130.773L34.3201 131.037L33.7033 131.455L33.1085 132.071L32.9323 132.621L33.6372 132.819V133.215H33.1085L32.3375 132.907L31.897 132.819L31.5666 132.907L30.4431 133.567L29.6721 133.677L29.9365 132.489L29.2536 131.719H28.3064L27.3591 132.049L26.4119 132.621L25.3766 132.797V133.193L25.6409 133.259L26.0595 133.567H25.2885L24.0769 134.161L23.3059 134.315H20.5524V134.645L20.8167 134.843L20.9049 134.997L20.8167 135.173L20.7286 135.415L21.6758 135.811H21.0811L19.451 135.415L19.0104 135.723L19.1866 136.449L20.0458 137.571L19.6052 137.703L18.4377 137.043L17.7548 136.845L16.6314 136.955L16.0366 137.175L15.4198 137.549L15.6841 137.945L15.3317 137.791L14.9132 137.549L14.3184 138.473L13.4593 140.101L13.1068 141.641L13.9659 142.301V142.631L13.3712 142.851L12.9306 143.577L12.7544 144.589V145.579L13.3712 147.009L13.4593 147.691L12.7544 147.757L13.0187 148.879L13.2831 149.407L13.7897 149.605H15.596L15.8604 149.451L15.9485 149.055V148.659L16.0366 148.483L16.7195 148.593L17.9971 149.099L18.6139 149.231L19.2968 149.143L20.3321 148.593L22.0503 148.175L24.2752 146.767L25.3986 146.305L27.7997 145.909L28.4826 145.645L29.606 145.007L30.2008 144.809L26.8525 146.833L26.434 147.141L24.4514 149.605V149.935L24.9581 149.891L25.3986 149.759L25.8172 149.539L26.0815 149.231L26.3458 149.605L26.2577 149.715H26.1696L26.0815 149.935L26.9406 149.803L28.0641 149.033L28.5707 149.253L28.6588 149.033L28.9232 148.769L29.0113 148.505H29.2756V148.901H29.0113V149.253L29.5179 149.099L30.377 148.527H30.9938L30.2889 149.275L29.9585 149.517L29.7823 149.737V149.957L29.4298 150.067L29.2756 150.199L29.0113 150.683L30.5532 150.573L30.7295 150.507L30.9057 151.057L31.4124 151.233L31.8529 151.101L32.1833 150.705L32.3596 151.321L32.7781 151.541L33.8134 151.475V151.871L30.9938 152.487L30.2008 152.179H30.7295L30.9938 152.069L31.2361 151.849L28.835 152.003L27.2049 152.465L26.7644 152.509L26.2577 152.421L25.9934 152.245L25.7291 152.003L25.3986 151.827L22.2266 152.047L21.2793 151.585L21.6979 149.627L21.1912 149.341L20.6625 149.781L20.0678 151.431L20.1559 151.629L20.244 152.003L20.1559 152.377L19.7153 152.531L19.2968 152.465L19.0324 152.355L18.702 152.311L18.3496 152.531L18.4377 153.059L18.3496 153.631L20.5083 153.719L20.9269 153.829L21.1031 154.379L21.015 154.577L20.7507 154.82L20.5744 155.436L20.6625 155.832L20.8388 156.272L21.2793 156.866L21.1031 157.218L20.7507 158.34L21.6979 158.032L22.2926 157.02L22.8213 155.832L23.328 154.885L24.2752 154.577L26.1696 155.766L27.1168 155.436L27.2049 155.788L27.2931 156.096L27.5354 156.338L27.7997 156.514L29.3417 156.866L29.8043 157.35L29.9805 158.516L30.1567 158.89L30.5753 159.55L30.7515 160.144L30.3991 161.64L30.2228 162.014L29.7162 162.234L27.7336 161.618L16.3009 164.17L16.1467 164.104L15.8824 163.774H15.7062L15.6181 163.972L15.53 164.148V164.346L15.2656 164.742L15.1995 165.072L15.0233 165.38L14.759 165.578L17.4244 166.348L18.6359 166.282L19.2307 166.37L20.266 167.404L20.7727 167.162L21.2133 166.634L21.6318 166.326L21.9842 166.524L25.1563 169.01L26.7864 171.188L27.4032 172.134L27.7336 173.564L28.2623 174.906L28.3504 175.852L28.2623 176.182L27.9099 176.27H27.5574L27.4032 176.402L27.3151 176.71L27.4032 177.436V177.832L32.5578 178.074L33.4169 177.832L33.9236 177.502L35.1351 176.402V176.006H34.1879V175.698L34.276 175.544L34.3641 175.346L33.8355 174.972L33.9236 174.334L34.4523 174.18L35.1351 175.346L35.4656 174.994L35.818 174.774L36.1705 174.642H36.589V174.29L36.1705 173.872L35.6418 173.168L35.4656 172.376L35.818 171.76L35.9942 172.618L36.3247 173.454L36.7652 174.07L37.1838 174.312L37.7124 174.378L38.2191 174.554L39.2544 175.39L39.4307 174.928L39.695 174.818H40.0254L40.466 174.642L40.2898 175.104L40.1135 175.346L39.8492 175.412H39.5188L40.2016 175.566L40.9726 174.686L41.237 173.894L40.8845 172.816L41.8317 172.992L42.779 173.63L43.4618 174.4L43.5499 174.972L43.9905 175.258L44.2328 175.368H44.5853L44.409 175.984L44.4972 176.314L44.7615 176.512L45.0258 176.776L45.7087 178.03L45.7968 178.206L46.3916 178.272L47.1626 178.118H47.9336L48.4623 178.602L50.3347 177.568L50.599 177.722L50.9515 178.426L51.6343 178.668L52.934 178.602L53.0882 178.69L53.5288 179.13L53.7931 179.284L54.0354 179.328L54.9826 179.284L56.2823 179.592H56.789L57.2295 179.284L57.3176 179.68L57.4718 179.922L57.9124 180.362L58.419 181.44L59.4544 182.804L59.6306 183.091L60.1373 183.245L62.9789 182.54V182.21L62.8027 181.946L62.6265 181.726L62.3841 181.55L63.067 181.396L64.1905 180.736L65.1377 179.834L65.9087 178.91V179.284L65.4681 179.658L65.1377 180.274L64.6971 181.44L64.4328 181.506L63.838 181.418L63.7499 181.616V182.1L63.6618 182.364L63.5737 182.452L63.2653 182.496V182.893L64.7191 183.047L65.3139 183.267L65.9307 183.619V183.949L64.5429 183.421L63.86 183.355L63.2653 183.597H64.2125L65.7545 184.059L66.6136 184.323L67.737 185.555L67.9793 185.775L68.3318 185.555L68.4199 185.071L68.5961 184.587L69.1028 184.345L68.6842 183.773L68.5961 183.619L69.1028 183.487L69.3671 183.135L69.6315 182.959L70.05 183.267V182.98L70.1381 182.937H70.3143L70.1381 182.188L69.8738 181.616L69.6315 181.22L69.1028 181.022L69.6315 180.934L70.1381 181.176L70.4906 181.286L70.7329 180.714H70.9972V182.188L71.1734 182.078L71.592 181.924L71.7682 181.814V182.695L71.8563 183.003L71.9444 183.289L69.3671 184.521L68.9265 185.973L68.8384 186.655L68.9265 186.985L69.279 187.183L69.6975 187.337L70.05 187.557L70.5566 188.129L70.9091 188.811L71.1734 189.735L71.2615 190.945L71.1734 191.649L70.821 192.529L70.7329 193.079L70.821 193.563L71.2615 195.059H71.5039L71.6801 194.839L72.4511 195.037H72.9137L72.1427 194.157L71.592 192.947L71.3497 191.451L71.7682 189.691L71.592 189.581L71.4157 189.427L71.2615 189.339L71.592 188.789H71.9444L72.363 189.031L72.7154 189.339L72.4511 189.537L72.2748 189.691L72.7154 189.999L73.3102 189.933L74.4336 189.339L74.698 189.581L74.8742 189.647H75.3808L75.1165 188.987L75.2927 188.415L75.4689 188.349L75.6452 189.141L75.7994 189.845L76.1518 189.977L76.3281 189.647L76.1518 188.943L76.5924 189.383L77.0109 189.911L77.2753 190.241L77.6057 190.043L77.9581 190.571L78.0463 190.769L78.1344 190.549L78.2225 190.395L78.3106 190.043L77.9581 189.669L77.5396 189.119L77.1872 188.547L77.099 188.019V186.765L77.0109 186.391L76.8347 185.731V185.335H77.099L77.1872 185.973L77.4515 186.457L77.7819 186.721H78.3106L77.9581 186.985L77.87 187.381V187.909L78.0463 188.547H78.3106L78.4648 188.327L78.5529 188.239L78.9935 188.151V188.547H78.7291V188.877L79.9407 188.591L80.6236 188.261L80.976 187.645L81.2844 187.271L83.0907 187.073L83.8617 186.721L83.3551 186.391L84.4785 186.589L84.8971 186.875L85.3597 187.469L84.5446 187.227L83.8617 187.117L85.5799 188.261L85.7562 188.569H86.2188L86.373 188.437L86.5492 188.195L86.0425 187.821L86.4611 187.689L86.7254 187.447L86.6373 187.117L86.3069 186.765V186.435L87.0779 187.469L86.9016 188.437L85.5139 190.373L85.7782 190.725L85.0953 191.209L84.06 191.297L83.2009 191.011L82.6942 190.351L82.4299 191.099V191.451L82.0774 191.143L81.8572 191.077L81.6809 191.187L81.5047 191.473H81.2404L80.7337 190.417H79.6984L79.1917 190.835L79.7865 191.077V191.319L79.6984 191.385L79.8746 191.451L80.205 191.517L80.5575 191.671L80.7337 191.957L80.8218 192.023L81.4166 193.035L81.5047 193.233L81.9453 193.695L82.4519 193.937L82.9586 194.003L83.6635 193.915L85.4478 193.277L86.0646 193.233L87.2541 193.673L87.6947 193.387L87.7828 192.155L88.1132 192.419L88.5538 192.529H89.501L89.4129 192.155L89.2366 191.957L89.0604 191.847L88.73 191.781L89.3247 191.649L89.8314 191.693L90.3821 191.605L90.8888 191.077L90.6685 191.781L90.1178 192.375L89.523 192.749L88.9943 192.859L89.3468 193.211L89.6111 193.167L89.7873 192.991L90.1178 192.859H91.4174L92.5189 192.463L93.0475 192.397L93.5542 192.485L96.3077 193.563H96.9025L97.8497 193.409L98.4665 193.563L97.7616 193.497L96.4839 193.849L94.2371 193.981L93.8185 194.311L94.3252 194.993L94.0829 195.983L94.5014 196.269L95.1843 196.335L95.8011 196.731L95.4486 197.457L96.0434 197.699H96.9025L97.5193 197.831L97.343 198.183L96.1315 198.843L95.8011 199.239L95.5367 198.931L95.713 198.821L95.8011 198.535L95.1843 198.403L94.8539 198.249H94.5014L91.6598 199.899L93.1356 200.845L93.5542 201.637V203.155H93.8185L94.0829 202.627L93.9947 202.429L93.8185 202.033L93.9947 201.923L94.0829 201.835L94.3252 201.703L94.8539 202.451L95.6248 203.155L95.8892 203.859L95.2724 204.563L94.5014 204.717L92.9594 203.991L92.1884 203.881V204.211L95.4486 205.949L96.4839 205.993L96.5721 205.839V205.531L96.7483 205.179L96.9906 204.937L97.2549 204.871H97.6074L98.2022 204.937L98.7969 205.267L99.656 206.279L100.185 206.741L100.779 206.983H101.462L102.145 206.741L103.004 205.905L104.04 205.597L104.392 205.245L104.568 204.915L104.723 204.607L104.987 204.211L106.11 203.551L111.001 203.199L112.3 203.595L112.807 204.101L113.159 204.211L113.93 204.299L114.701 204.541L115.913 205.289L117.102 206.323L118.226 207.599L118.821 208.105L120.297 208.413L120.979 208.875L119.085 208.809L118.314 208.435L117.455 207.599L117.102 207.357L115.649 207.049L114.195 205.993V205.597H114.966L114.613 205.245L114.283 205.025L113.93 204.915H113.512L113.754 205.267H113.159L111.353 204.805L111.089 204.563L110.846 204.211L110.582 204.255L110.318 204.365L110.053 204.563L106.793 204.893L105.934 205.267L105.67 205.707L105.427 206.323L105.339 207.005L105.251 207.577L105.339 208.347L105.758 209.183L105.67 209.887L105.604 210.658L105.516 211.076L105.251 211.274L104.04 211.428L103.709 211.736L103.269 212.066L102.85 212.418L104.04 213.122L108.181 213.826L110.318 215.014L110.868 215.564L111.177 216.18L111.639 217.104L111.728 217.962L111.111 218.424L110.692 219.348L110.075 221.218L109.657 221.988L108.269 222.824L107.762 223.396L107.939 224.1L107.08 224.782L106.815 225.332L106.727 226.432V227.312L106.903 228.302L107.168 229.116L107.586 229.468L108.445 229.776L109.569 230.546L111.551 232.614L112.587 234.77L112.917 235.078L113.534 235.144L114.129 235.364L114.547 235.76L114.9 237.058L115.318 237.564L115.847 238.027L116.442 238.643L116.618 239.259L116.794 239.963L117.058 240.513L117.653 240.755L117.477 241.635L118.248 245.397L118.6 245.859L118.931 246.057L119.107 245.815L119.019 245.375L118.843 244.517V243.879L119.195 244.429L119.548 245.551L119.79 245.969L120.23 246.255L121.266 246.519L122.455 247.575L124.35 247.905L124.878 248.455L124.614 249.093L125.561 249.401L127.962 249.511L128.91 249.709L129.681 250.281L130.275 251.205L130.452 252.503L130.892 253.603L131.751 253.669L133.646 253.053L134.152 253.251L134.923 253.955L136.047 254.615L136.377 254.681L136.906 254.835L137.589 255.825L138.272 256.639L139.219 256.903L139.131 255.275L140.519 254.505L142.06 254.615L142.831 255.693L142.92 256.397L143.096 256.837V257.255L142.831 257.893L140.43 259.433L139.99 260.093L140.166 261.061L139.814 261.303L139.505 261.721L139.329 262.205V262.645L139.681 262.997L140.012 263.063H140.276L140.717 263.151L141.223 263.107L141.4 263.151L141.488 263.305L141.4 263.547V263.767L141.576 263.877L141.796 263.943L142.567 264.581L142.149 264.999V265.219L142.413 265.374L142.567 265.616L142.743 265.681L143.184 265.836L143.36 265.902V266.584L143.602 267.288V267.794L143.779 268.212L144.462 268.476L144.638 268.652L144.902 268.894L144.99 269.114V269.422L144.638 270.28L144.131 270.698L143.602 270.654L142.831 270.148L143.36 271.82L143.691 272.502L144.285 272.898L144.131 273.052L143.779 273.448L143.602 273.602L143.779 273.866L144.043 274.306L144.197 274.834L144.285 275.362L144.131 275.956L143.955 276.066L143.602 276L143.36 276.044L142.743 276.374L142.413 276.748L142.237 276.968L142.06 277.254L141.796 277.562L141.378 277.782L141.708 278.31L141.884 279.058L142.06 279.806L142.149 280.4L142.325 280.84L143.272 281.918L146.444 284.492L147.215 285.394L144.726 284.228L144.285 283.832L143.867 283.568L141.62 280.906L140.937 280.862L138.624 281.61V282.248L138.029 285.768L138.624 286.032L139.902 285.746L140.519 286.252L140.937 286.802L141.488 287.33L142.083 287.682L142.765 287.814L143.801 288.232L145.695 290.146L146.885 290.586L147.061 290.784L147.237 291.73L147.325 291.95L152.392 295.603L154.022 297.473L154.793 298.727L155.498 300.135L156.687 303.303L157.128 305.239L158.494 314.809L158.934 316.415L159.617 317.713L160.829 318.681L162.371 319.187L163.824 319.891L164.684 321.454L163.913 320.793L163.053 320.375L162.106 320.155L161.071 320.089L161.842 320.617L162.701 321.432L163.053 322.51L162.701 323.83L162.965 324.446L163.053 325.854L163.23 326.558L162.767 326.184L162.459 325.37L162.282 324.336V323.28L162.371 322.488L162.282 322.026L162.018 321.388L161.688 321.035L160.564 320.375L159.176 319.055L157.987 317.493L156.775 314.589L156.687 314.017L156.004 309.375L155.586 307.505L155.498 306.493L155.057 304.975L154.022 303.501L149.726 298.705L149.22 298.551L147.744 297.715L145.343 295.867L145.012 295.471L144.66 294.855L144.572 294.591V294.327L144.66 294.063L144.748 293.909V292.962L144.66 292.742L144.307 292.544L143.713 292.764L143.294 293.534L141.994 295.999L141.818 296.747L141.223 307.329L139.681 315.249L137.523 339.802L137.787 339.252L138.117 338.064L138.47 335.886L140.1 333.444L140.364 333.004L140.452 332.916V332.718L140.541 332.498L140.717 332.344H140.871L141.047 332.432L141.223 332.586L141.4 332.696L141.818 332.85L144.484 335.336L144.836 336.04H144.307L145.166 336.964V337.734L144.484 338.24L143.206 338.438L141.047 337.888L140.188 337.932L139.505 338.812L138.822 341.078L138.734 341.672L138.646 342.002L137.699 343.366L137.611 343.784L137.963 345.192L138.051 345.896L137.787 348.977L136.84 355.885L134.527 369.789L133.315 376.147L132.456 378.942L131.002 386.95L130.143 389.722L129.879 391.24L129.328 393.066L129.02 393.616L127.213 395.068L126.861 395.464L126.685 396.014L125.914 397.532L125.671 397.95L124.967 398.434L124.196 398.874L123.336 399.182L120.252 399.688L119.57 399.952L119.305 400.304L118.799 399.908L118.534 401.25V402.856L119.57 403.362L119.988 403.956L120.164 404.902L120.341 405.299L120.671 405.233L121.112 405.035L121.883 404.925L122.565 404.617H122.918L123.601 404.969L123.953 405.211V405.431L123.865 405.739V406.179L124.107 407.015L124.284 407.235L124.724 407.433L125.143 407.499L125.583 407.433L125.914 407.213L126.178 406.795L126.442 405.959L126.949 405.651H127.632L128.755 406.003L130.231 406.773L130.65 406.707L131.002 406.575H131.421L132.456 407.631L132.632 409.413L132.192 411.327L131.685 412.867L131.245 413.483L129.791 415.045L129.438 415.463L129.967 416.519L130.562 417.245L131.333 417.707L132.192 417.927L133.227 418.015L133.822 417.817L134.086 417.157L134.174 415.903L134.439 414.935L135.033 414.231L135.804 413.945L136.664 414.143L135.893 414.781L135.628 415.419L135.716 416.057L136.333 416.761L137.016 417.157L139.065 417.531L140.276 418.191L141.488 419.137L142.765 419.027L143.118 419.137L143.624 419.511L143.889 419.731L145.166 419.885L145.783 420.039L146.202 420.545L147.413 421.469L148.779 421.909L151.533 422.151L154.286 421.667L155.233 421.997L155.916 423.691V424.043L155.74 424.263V424.505L155.916 424.967L156.269 425.297L156.599 425.341L156.952 425.275L157.37 425.341L158.582 426.089L159.176 426.617L160.564 428.465L160.652 428.685L160.564 428.883V429.081L160.74 429.191H161.335L161.511 429.235L161.688 429.543V430.137L162.018 430.379L162.282 430.335L162.877 429.917L163.142 429.829L163.23 428.685H164.177L166.071 429.609L167.085 429.521L167.944 428.993L169.706 427.673L170.014 427.981L170.279 427.871L170.521 427.519L170.697 427.057L171.226 427.563L173.363 428.883L173.803 429.763L174.75 429.873L175.786 429.587L176.381 429.323V430.159L176.557 430.995L176.975 431.699L177.57 432.161L177.746 432.426L177.834 432.756L177.923 433.064L178.275 433.24L178.694 433.35L178.958 433.57L179.134 433.812L179.376 434.032L180.764 434.582L181.954 434.472L184.707 433.46L186.866 433.13L187.549 432.69L188.144 432.602L189.95 433.086L190.567 433.372L191.338 434.714L191.844 435.352L192.373 435.286L193.364 433.878L193.981 433.262L194.664 433.02L195.611 433.878L195.699 434.032V434.428L195.876 434.582L196.559 434.714H197.241L198.607 434.318L199.224 434.56L203.608 434.428L204.885 434.604L205.326 434.428L205.656 433.922V433.152L205.414 432.426L204.973 431.897L204.555 431.699L204.731 431.237L204.885 431.039L205.15 430.819L204.731 430.269L205.238 428.927L205.15 427.893L205.326 427.211L206.185 426.881L207.132 426.815L207.727 426.881L208.938 427.343L209.533 427.475L210.216 427.409L210.899 427.519L212.375 428.421L213.454 428.839L213.719 429.081L214.335 429.653L214.644 429.807L214.996 429.653L215.327 429.367L215.679 429.257L216.032 429.367L216.538 429.851L216.803 430.005L219.886 430.203L220.569 430.445L221.186 431.017L221.495 431.699L221.847 432.448L222.199 433.108L222.794 433.548L223.103 433.614L224.314 433.218H228.698L229.557 433.46L229.381 434.12L229.557 434.34H229.909L230.152 434.516L230.768 435.638L231.451 436.562L232.046 438.19L232.575 438.872L233.346 438.542L233.941 436.65L235.064 436.716L236.099 436.32H236.606L238.5 437.618L238.919 437.794L242.972 438.19L242.62 439.18L243.214 439.532L244.007 439.796L244.426 440.434L243.567 440.522L242.972 441.138L242.532 442.128L242.443 443.316L242.532 443.382L242.62 443.47V443.734L243.214 443.998L245.461 444.306L246.144 444.614L248.215 445.978L248.986 446.176L249.669 446.22L250.219 446.44L250.726 447.232L251.145 449.014L251.497 449.74L252.18 450.356L252.621 450.62L253.127 450.686L254.074 450.598L254.603 450.466L255.022 450.202L255.616 449.564L256.475 448.904L256.652 448.618L256.916 447.914L257.092 447.672L257.687 447.408L259.317 447.628L261.476 446.946L262.555 446.836L263.591 447.386L264.031 447.738L266.08 448.706L267.203 448.948H267.732L267.974 449.74L268.591 450.466L269.274 451.016L269.869 451.192L270.552 451.61L270.992 451.742H271.323L271.587 451.5L271.939 450.73L272.182 450.488H272.887L274.517 451.016L275.288 451.17L276.235 451.104V450.906L275.706 450.4L275.464 449.476L275.706 449.08L277.182 447.892L277.865 447.584L278.548 447.518L279.936 447.738L280.707 447.628L281.213 447.254L282.337 446.22L282.843 445.89L283.46 445.824H284.055L284.65 445.758L285.773 444.834L286.985 445.296L287.579 444.878L287.888 444.966H288.923L289.188 445.054L289.452 445.604L289.694 446.044L290.047 446.396L290.487 446.682L291.17 446.924L292.117 447.012L292.976 446.946L295.466 446.528V445.054L294.342 443.492L291.853 441.006L291.5 440.06L291.082 436.43V435.858L290.994 435.594L290.818 435.462L290.311 435.506L290.135 435.44L289.958 435.066L289.782 434.692V434.274L290.135 433.79L290.641 434.472L290.818 434.648L290.906 434.318L291.346 431.876L291.412 431.017L291.346 430.159L291.17 429.323L290.994 428.927L290.553 428.729L289.628 428.421L289.011 428.355L288.681 428.179L288.505 427.893L288.24 427.211L287.976 426.903L289.364 425.429L289.782 425.209L289.958 424.945L289.87 423.845L290.047 423.603L290.399 423.669L290.818 423.933L291.082 423.889L291.677 423.339L291.5 422.877L290.553 422.063L290.135 421.359L290.047 420.589L290.311 420.039L291.082 419.929L290.641 420.787L290.487 421.227L290.641 421.623L291.082 421.777L291.258 421.381L291.412 420.853L291.677 420.589L291.853 420.325L291.941 419.687L292.117 418.455L292.205 417.949L292.888 417.201L293.064 416.629L292.8 416.189L292.205 415.815L291.589 415.155L291.346 413.835L291.5 413.483L291.941 413.329H292.888L293.064 413.483L292.712 413.835L292.117 414.341V414.649L292.536 414.935L292.8 415.243L292.976 415.419L293.307 415.331L294.254 413.813L294.43 413.241L294.937 412.735L295.73 412.009L295.972 411.547L296.325 410.623L296.589 410.183L297.184 409.457L302.074 405.739L303.286 405.101L304.145 404.947L305.599 405.651L306.281 405.321L309.211 401.756L310.423 400.766L314.366 398.61L321.415 392.78V392.428L320.225 392.824L319.19 393.726L317.296 395.772L315.489 397.356L314.366 397.972L313.176 398.06V397.752L316.084 396.476L316.635 395.904L316.723 395.156L316.965 394.694L319.3 392.758L320.247 392.186L322.384 391.526L324.014 390.36L325.05 390.008L327.032 389.722L326.68 390.448L326.261 390.932L325.644 391.218L324.873 391.416L323.155 391.57L322.384 391.812L321.966 392.406L323.155 391.856L325.314 391.636L327.296 391.834L328.222 392.604L328.31 392.758L329.015 395.354L329.169 395.772L329.433 396.08L330.204 396.476L331.063 396.674L341.989 397.026L343.531 397.356L344.479 398.104L344.567 398.962L344.302 399.952L343.994 400.788L343.906 401.14L344.853 401.624L346.307 402.02L351.462 402.262L352.761 401.756L351.902 400.832L350.779 400.062L349.831 399.072L349.391 397.444V393.946L349.237 393.44L348.201 391.746V391.438L348.796 391.79L349.259 392.516L349.677 393.352L349.853 394.1L349.942 394.936L349.853 397.796L350.448 399.072L351.66 400.194L353.114 401.03L354.501 401.426L354.237 400.634L353.885 400.326L353.708 400.084L353.973 399.402L354.325 399.116L355.184 398.918L355.515 398.61L356.462 398.214L358.356 399.336L359.039 399.094L359.986 399.336L360.757 398.72L361.198 397.642L360.757 396.432L360.251 395.97L359.832 395.75L359.48 395.354L359.304 394.43L359.392 394.078L359.568 393.418L359.744 392.758L359.986 392.45L360.251 392.604L360.757 393.308L360.846 393.462H361.705H361.969L362.74 393.704L362.916 393.946V394.364L363.181 395.112L363.952 395.992L364.811 396.146L365.846 395.772L366.859 395.09L366.947 396.256L366.529 397.356L365.846 398.236L365.141 398.764L364.128 399.072H361.022L359.898 399.688L359.392 400.678L359.568 401.756L360.515 402.746L361.462 402.988H363.687L364.238 402.746L365.78 402.966L370.494 401.888L371.441 402.57V405.079L371.617 405.365L371.882 405.629L372.058 405.783L372.212 405.739L372.124 406.113L372.058 406.421L371.794 407.213L371.529 407.719L371.441 408.203L371.706 408.687L372.124 408.863L373.159 408.797L373.6 409.039L374.195 408.841L375.054 408.775L375.913 408.885L376.353 409.193L376.508 409.435L376.948 409.325L377.389 409.083L377.984 408.621L378.314 408.797L379.173 409.963L379.437 410.227L379.988 410.425L380.142 410.579L380.319 410.667L380.583 410.733L380.759 410.623L380.847 410.403L380.913 410.161L381.09 410.051L382.896 410.117L383.579 410.491L383.336 411.349L384.702 412.075L385.385 412.317L386.178 412.383L386.509 412.537L386.597 413.197L386.861 413.351L387.544 413.395L387.72 413.483L387.962 413.659L386.883 414.231L386.619 414.671L386.795 415.331L387.103 415.573L388.821 416.299L389.615 416.365L390.033 416.123L390.121 415.463L390.385 415.111H390.98L392.104 415.331V415.001L391.487 414.759L390.716 413.901L390.121 413.659L391.157 413.131L391.751 412.977H392.346L392.192 413.219V413.703L392.104 413.989L392.963 413.637H393.998L394.989 413.879L395.694 414.341L395.915 414.495L398.492 414.649L398.756 414.869V415.353L398.58 416.145L398.382 416.299H397.104V416.629L397.809 416.761H400.144L400.739 416.629V416.321H400.474L400.21 416.233L399.792 415.991L400.166 415.001L400.232 414.165L400.496 413.483L401.267 412.999L401.708 412.933L404.109 412.999L404.374 413.043L404.88 413.263L405.321 413.329L405.651 413.549L405.827 414.011L405.915 414.451L406.004 414.671L407.281 414.715L407.634 414.451L407.127 413.681L407.281 413.307V412.647L407.546 412.031L407.898 411.789L408.999 411.701L409.704 411.327L410.475 411.041H410.872L411.731 411.107L412.171 411.041L412.678 410.623L413.229 410.029L413.912 409.633L414.859 409.721L415.189 410.007L415.366 410.425L415.454 410.799L415.63 411.041L415.96 411.129L416.665 410.821L416.996 410.733L416.841 410.051L418.295 408.885L418.494 408.577L418.406 408.423L418.229 408.247L418.053 408.027V407.741L418.119 407.279L418.207 407.103L418.383 406.971L418.472 406.729L418.802 405.915L418.714 405.651L415.366 405.805L415.101 405.739L415.189 405.321L415.74 404.881L416.687 404.397L417.458 404.264L417.789 403.912L417.965 403.384L418.317 402.746L418.846 402.262L419.463 402.042L419.793 401.756L420.058 400.304L420.3 399.424L420.718 398.588L421.159 398.082L421.842 398.632L422.811 398.852L424.595 398.764V398.588L424.75 398.214L424.926 397.994L425.014 398.258L425.19 398.412L425.366 398.478H425.631L425.785 398.434L425.961 398.192L426.049 397.554L426.115 397.4H426.38L426.534 397.356L426.6 397.268L427.9 395.024V394.892H427.988V394.078H427.9L428.406 393.308L428.957 392.868L429.53 392.516L430.058 392.054L430.918 392.384L431.777 392.12L432.724 391.636L433.671 391.394L433.759 391.548V391.878L433.935 392.12L434.288 392.032L434.442 391.834V388.71L434.618 388.358L434.883 388.138L435.147 387.676L435.477 387.236L436.094 387.016L436.601 386.972L436.975 386.84L437.284 386.62L437.658 386.334L438.341 385.322L438.782 384.97L439.288 385.168L439.553 385.234L441.359 384.992L441.183 385.476L441.095 385.63L441.778 385.564L441.844 385.102L441.932 384.508L442.262 384.024L442.879 383.87L442.967 383.232L443.474 382.638L444.157 382.374L444.928 382.836L445.192 382.484L445.544 382.33L445.875 382.374L446.139 382.462H446.315L446.646 382.33V382.154L446.58 381.538L446.646 381.362L446.734 381.296H446.91H447.086L447.527 380.966L446.822 378.612L446.646 377.358L447.196 376.345L448.738 374.651L449.421 373.507L451.316 371.967L452.087 371.087L452.351 370.537L452.726 369.415L452.858 368.821L453.298 368.381L453.805 367.985L454.179 367.457L454.268 366.599L453.717 365.411L452.858 364.619L452.461 363.695L452.968 362.089L451.866 361.891L450.391 362.837L449.443 362.925L443.253 364.707L441.8 364.663L441.425 364.597L441.183 364.267L440.918 363.849L440.742 363.497L440.236 363.321L439.266 363.167L438.694 362.881L434.905 360.571L433.451 360.043L431.358 358.943L430.918 358.811L430.411 358.855L430.058 358.987L429.64 359.053L429.089 358.855L428.759 358.481L428.583 358.041L428.516 357.579L428.252 357.117L428.032 356.721L427.327 356.215L426.975 355.863L426.776 355.489L426.38 354.477L426.027 354.015L425.256 353.091L425.168 352.871L424.992 352.431V352.189L425.058 351.881L425.433 350.341L425.675 349.901L426.798 349.241L425.939 348.47L424.816 347.326L424.045 345.94L423.957 344.4L424.309 343.74L426.115 342.354L427.327 340.264L427.834 339.89L427.393 338.812L427.657 337.822L428.34 337.03L429.111 336.568H429.816L431.094 336.942H431.733L431.534 336.282L430.411 334.258L430.235 333.818L430.058 332.586L429.728 331.508V331.442L429.904 330.65L429.97 330.606V330.056L429.904 329.77L429.816 329.528L429.111 328.824L427.393 328.098L426.71 328.032L424.992 328.384L424.287 328.208L421.886 326.8L420.674 325.788L420.08 324.732L420.168 321.938L419.903 320.507L419.044 319.847L417.745 319.737L417.414 319.429L416.974 318.681L416.886 318.219V317.471L416.291 316.987L415.718 316.041L416.115 315.469L416.753 314.941L417.921 314.237L418.273 314.171H418.868L419.243 314.149L419.485 313.995L420.19 313.511L420.432 313.357L421.644 313.555L422.965 314.259L424.243 314.699L425.366 314.149L425.455 313.841L425.278 313.621L425.08 313.357L425.278 312.917L425.521 312.785H426.38L426.71 312.697L427.261 312.235L427.834 311.157L428.252 310.739L429.552 310.167L430.763 309.815L431.094 309.947L431.534 310.475L431.733 310.541L431.953 310.299L432.636 309.067L433.583 308.275V307.505L433.186 306.493L433.01 305.041L433.186 304.733L434.398 303.369L435.081 302.049L435.411 301.279V300.663L435.191 300.465L433.715 299.805L433.209 299.453L432.944 298.881L432.68 298.265L432.349 297.715L430.807 296.571L429.155 295.669L428.913 294.921L428.737 292.852L428.561 292.456L428.23 291.862L428.142 291.466L428.23 291.048L428.627 290.168L428.715 289.882L428.45 289.112L428.054 288.804L426.908 288.518L426.402 288.144L425.631 287.352L425.08 287.198L424.221 287L423.274 286.296L422.503 285.218L422.128 283.128L422.062 282.226V281.324L422.216 280.488L422.657 279.74L423.252 279.41L424.265 279.256V279.168L424.353 278.97L424.529 278.728L424.684 278.596H424.772L425.124 278.794L425.212 278.838L425.455 278.794H426.314L427.085 278.574L427.856 278.178L428.627 277.562L429.023 276.748L429.287 276.066L429.552 275.45L429.904 274.988L430.433 274.746L430.169 274.35L429.992 273.822L429.75 272.876L429.398 271.82L429.221 271.292L429.023 271.182L426.622 268.454L425.851 268.124L425.587 268.234L425.344 268.476L424.97 268.696L424.728 268.652L424.397 268.41V267.64L424.463 267.596V267.068L424.397 266.562L424.309 266.628L424.485 266.364L424.728 266.012L424.97 265.616V265.219L424.463 264.691L421.622 264.075L421.357 263.239L421.71 261.501L422.305 259.675L423.516 257.233L422.745 255.847L421.423 254.527L420.741 253.361L421.005 252.767L421.952 251.667L422.106 250.831V249.841L421.776 249.335L421.225 249.071L415.894 247.707L413.581 247.619L411.268 248.059L408.25 250.127L407.127 250.435L405.937 250.479L404.902 250.831L403.713 251.843L402.743 253.163L401.972 254.175L401.796 254.879L401.884 255.385L402.237 256.265V256.485L402.611 257.321L402.743 257.541L403.118 257.739L403.713 257.475L403.955 257.585L404.153 258.751L403.294 259.741L400.959 261.237L399.175 263.349L398.051 263.921L396.84 263.393L395.21 263.459L393.668 263.855L392.809 264.383L393.227 263.283L393.492 262.755L393.668 262.315L392.985 261.545L392.632 260.841L392.809 260.225L393.668 259.675L395.716 258.641H395.782H395.871L396.223 258.729L396.399 258.773L396.553 258.729L397.413 258.487L397.479 258.157V257.123L397.743 255.671L397.831 255.275L399.043 252.723L398.954 252.151L398.514 251.381L398.007 250.831L396.113 249.665L396.509 249.269V248.191L396.443 248.037L396.355 247.817L396.289 247.575V247.311L396.465 247.003L396.884 246.563L398.095 244.451L399.373 242.889L398.514 241.921L398.338 241.261L398.888 240.623L403.602 236.288L406.18 234.88L406.532 234.572L407.479 233.516L408.625 232.9L409.021 232.592L409.396 232.108L409.572 231.69V230.81L409.308 230.524L409.043 230.282L408.977 229.974L409.043 229.732L409.594 228.06L409.836 227.62L410.101 227.136V226.41L410.013 225.86L409.506 224.958L409.44 224.496L409.947 222.67L411.665 221.68L415.454 220.47L417.855 218.688L418.626 217.522L418.207 216.576L418.736 215.74L418.978 215.41L419.947 215.102L420.014 214.772L420.19 214.684L420.718 214.42L420.63 213.54L421.754 213.166L424.067 211.032L424.662 209.909L425.697 208.853L428.12 207.093L428.032 205.817L428.186 204.739L428.891 204.057L429.221 204.013L429.398 203.947L429.926 203.243L430.257 203.023L430.631 202.935L430.962 202.715L431.226 202.165L430.851 201.637L430.345 201.153L429.838 200.735L429.133 201.043L424.926 201.439L425.102 200.779L425.609 199.965L426.159 199.261L426.997 198.733L427.085 197.765L428.032 197.545L428.539 197.215L429.045 196.753L429.42 196.313L429.243 195.675L428.825 194.971L428.737 194.399L429.442 194.201L429.794 193.959L430.036 193.871L430.389 193.959L430.741 194.201L431.6 194.333L433.407 194.025L434.266 194.201L434.684 194.465L435.125 194.531L436.116 194.443L435.433 195.917L435.698 196.775L436.381 197.237L437.504 197.567L437.592 197.677L437.68 197.875L437.812 198.051L438.077 198.183L438.341 198.117L439.707 197.545L440.544 197.347L443.077 197.457L444.068 197.061L444.773 196.137L444.839 195.653L444.773 195.367L444.597 195.125L444.509 194.993L444.333 194.685V194.355L444.773 194.245L445.28 194.421L445.699 194.729L446.227 194.795L446.734 194.311L446.822 194.223V193.805L446.558 193.453L446.492 193.233L446.558 193.079L446.734 192.969L447.108 193.035L447.461 192.947L447.527 192.639V192.111H447.461L446.844 191.671L446.756 191.627L448.342 190.373L449.179 189.889L450.369 189.449H450.28L450.369 189.427L450.545 188.899L450.633 188.701L450.545 188.195L450.369 187.931L450.104 187.733L449.95 187.469L449.179 185.863L448.65 185.203L448.144 184.939L447.945 184.697L447.879 184.125L447.791 183.003L447.879 182.695L448.452 182.078L448.716 181.726V180.868L448.32 179.02L448.386 178.294L448.937 176.578L449.113 176.336L449.62 176.072V175.5L449.443 174.532V173.806L449.62 173.586L449.796 173.344L449.972 173.102L450.214 172.552V171.474L450.391 170.77L451.338 169.758L451.69 169.12L451.624 167.492L450.082 164.786L449.994 162.608L450.236 161.574L450.413 160.782L450.677 160.298L450.919 159.99L451.073 159.572L451.162 158.802L451.426 158.164L453.651 155.018L454.003 154.269L454.268 153.367L454.356 152.289L454.488 151.167L455.127 150.705L455.81 150.375L456.25 149.583L456.316 148.857L456.162 148.153L455.92 147.471L455.832 146.833V146.129L456.096 144.721L456.272 144.105L456.514 143.599L456.779 143.247L456.955 142.719L457.043 141.707L457.197 141.223L457.638 140.805L458.497 140.101V139.727L458.056 138.583V136.735L458.431 134.997L459.885 132.665L460.325 132.357L460.92 132.181L461.449 131.719L462.418 130.553L462.815 130.289L463.321 129.827L463.696 129.321L463.872 128.881V127.869L464.136 127.406L464.467 127.274H465.502L465.744 127.164L465.943 126.988L466.009 126.68L466.075 126.174L466.251 125.888L466.449 125.734L466.515 125.602H466.78L468.145 124.898L468.322 124.722L468.74 123.974L470.37 119.552L471.494 117.462L472.199 116.604L471.868 116.208L468.344 115.504L468.013 115.79ZM252.378 446.374L251.938 446.44H251.85L251.079 446.308L250.66 445.956L250.572 445.34L250.902 444.482L251.343 444.306L251.673 444.812L252.026 445.604L252.466 446.308L252.378 446.352V446.374Z" fill="url(#paint0_linear_50_697)"/>
</g>
<path d="M274.715 102.348C274.715 107.408 270.596 111.522 265.529 111.522C260.463 111.522 256.343 107.408 256.343 102.348C256.343 97.2875 260.463 93.1733 265.529 93.1733C270.596 93.1733 274.715 97.2875 274.715 102.348Z" fill="#F2F2F2"/>
</g>
<defs>
<linearGradient id="paint0_linear_50_697" x1="260" y1="-0.110107" x2="260" y2="499.022" gradientUnits="userSpaceOnUse">
<stop stop-color="#7A96CC"/>
<stop offset="1" stop-color="#3C5B8C"/>
</linearGradient>
<clipPath id="clip0_50_697">
<rect width="520" height="499" fill="white"/>
</clipPath>
</defs>
</svg>
