<svg width="232" height="500" viewBox="0 0 232 500" fill="none" xmlns="http://www.w3.org/2000/svg">
<g clip-path="url(#clip0_86_1436)">
<path d="M188.971 29.5644L189.504 30.468H189.11L188.346 30.3985L187.975 30.468L187.651 29.8193L187.836 29.4949L188.137 29.2632L188.23 29.0315L188.531 28.8693L188.67 29.1937L188.971 29.5644ZM83.8739 1.04263L83.9666 1.92307L83.4568 1.99258L82.7386 1.76088L82.113 2.03892L81.5338 2.38646L80.6533 1.96941L81.2557 1.41334L81.974 1.01946L82.9008 0.695082L83.2483 0.231689L83.6422 0.486555V0.78776L83.8739 1.04263Z" fill="url(#paint0_linear_86_1436)"/>
<path d="M67.5623 241.358L62.9979 249.583L59.9163 253.429L25.0461 281.673L14.11 287.094L13.1601 287.674V287.396L12.3028 284.731L4.3788 270.829L3.89224 269.092L3.313 265.547L1.69113 262.372L1.29725 261.214L0.509481 257.46L0.231445 254.819L1.41309 247.961L1.57528 242.933L2.36305 241.08L5.88483 237.419L7.275 235.565L8.8042 233.943L11.0053 232.854L14.6198 232.275L15.6856 231.696L16.4038 230.839L16.8904 229.726L19.022 221.594L20.1341 219.184L22.3584 217.586L27.2704 215.408L29.6337 213.716L35.009 211.237L35.4724 210.82L35.7273 211.052L36.1675 212.326L36.1907 212.998L35.2639 216.566V217.099L35.3797 217.493L37.3723 219.462L37.5808 219.764L37.8589 220.273L37.8357 220.598L37.6735 220.806L37.3955 220.945L34.6846 221.293L34.1517 221.455L33.8969 221.687L31.8811 224.166L31.5799 224.652L31.2324 225.371L31.2555 225.764L31.4409 226.042L35.5883 228.8L36.6309 229.796L37.1174 230.329L37.9516 231.557L38.6466 232.762L39.11 233.457L39.6198 233.851L39.8746 233.943L41.9831 234.152L46.2463 235.612L46.5706 235.82L47.5438 236.561L48.2852 237.326L48.5169 237.697L48.6559 238.021L48.8876 238.971L49.3973 240.593L49.6754 241.033L49.9302 241.265L62.3491 240.523L64.5039 240.709L67.5623 241.358Z" fill="url(#paint1_linear_86_1436)"/>
<path d="M162.002 46.5246L161.747 46.6868L153.777 49.2586L146.756 53.128L144.37 54.0547L143.304 54.634L142.794 55.0047L142.748 55.2596L142.841 55.4913L143.142 55.7925L143.582 56.0937L143.86 56.418L144.022 57.2521L144.37 57.7387L145.389 58.4801L145.876 58.9435L146.154 59.4764L146.177 60.0788L146.015 60.8203L143.188 63.7165L142.145 64.4579L141.288 64.6433L141.057 64.1335L140.709 63.6933L140.477 63.5543L140.014 63.5311L139.527 63.647L139.226 63.8787L138.902 64.2494L137.975 65.9407L137.048 68.165L136.492 68.6748L134.754 69.2308L134.175 67.9102L131.951 64.6201L130.097 60.7276L129.68 59.5923L129.472 58.8045L129.286 58.5728L128.962 58.3875L127.433 58.2716L124.235 57.1595L117.609 50.95L119.856 49.0038L124.768 46.7563L127.757 46.0844L128.29 45.8064L128.661 45.5283L129.333 44.3235L130.097 43.3967L131.094 42.5163L131.626 42.1456L132.044 41.937L134.106 41.8444L135.241 41.9834L136.33 42.3078L139.342 43.7211L139.736 43.8138L140.547 43.8833L141.311 43.8601L141.775 43.6979L142.099 43.4894L142.308 43.2577L142.539 42.7711L142.98 41.5895L143.883 39.8518L144.347 39.1567L146.316 35.0788L146.687 34.0362L147.011 33.4801L147.498 32.8314L147.845 32.2521L148.424 31.5339L148.818 31.2095L149.235 31.001L152.201 30.6998L154.889 29.773L155.259 29.7035L155.769 30.5144L155.955 31.1863L155.607 32.0436L155.236 31.0242L152.78 33.457L153.244 36.9324L155.375 40.5237L157.97 43.1882L160.079 44.2077L160.681 44.6247L162.002 46.5246Z" fill="url(#paint2_linear_86_1436)"/>
<path d="M117.609 50.9501L124.235 57.1595L127.433 58.2717L128.962 58.3875L129.286 58.5729L129.472 58.8046L129.68 59.5923L130.097 60.7276L131.951 64.6201L134.175 67.9102L134.754 69.2309L131.418 72.0344L130.375 73.1697L130.028 74.0965L128.36 76.5061L127.664 78.2207L124.258 78.5914L123.007 78.8694L122.081 79.2633L119.648 80.584L119.138 80.7925L118.651 80.8852L117.98 80.7693L117.47 80.4681L117.122 80.2133L115.871 78.8926L115.361 78.5451L114.597 78.128L114.064 77.9426L113.346 77.8963L110.102 78.1048L108.41 78.406L107.901 78.6609L107.437 79.0548L107.229 79.2865L106.557 80.2133L104.309 84.3143L103.846 84.407L103.128 84.268L100.185 82.6461L99.189 81.951L98.8183 81.7888L98.378 81.6961H97.6134L96.8025 81.812L93.5356 83.0168L92.9564 83.1326L91.5662 82.2059L86.9554 77.7573L88.0212 77.1549L88.2993 76.9695L88.5078 76.7147L88.6468 76.2049L88.6932 74.1892L88.809 73.5173L89.0175 73.0075L89.3882 72.4978L90.2919 71.4783L90.4772 71.2235L90.4077 70.4125L90.0602 69.115L88.1603 64.0177L87.72 63.4385L87.5115 63.0446L87.3493 62.558L87.2335 61.2374L87.6042 57.6924L87.4652 57.0668L87.164 56.6961L86.6311 56.2559L85.7738 55.7693L82.53 55.2364L82.2288 55.1206L81.6496 54.7035L81.4411 54.4255L81.3716 54.1243L81.4874 53.7304L81.7654 53.128L81.9508 52.3634L81.974 51.7378L82.0435 51.344L82.2983 50.7647L82.53 50.533L84.6153 48.7953L84.986 48.2624L84.9397 47.799L84.7312 47.2198L83.6654 45.4589L81.5106 42.9797L81.3484 42.6785L81.2789 42.331L81.4179 41.8212L81.6033 41.6127L81.974 41.4274L83.0398 41.0335L83.2251 40.8713L82.8544 40.1299L80.3984 37.5117L80.8387 37.3263L82.0898 36.0984L83.8507 33.9436L85.5884 30.5608L86.353 30.0511L86.9091 29.7731L88.4846 28.0817L89.087 27.711L90.8016 27.0159L90.8711 27.3402L91.0101 29.7731L90.9174 30.862L90.5931 32.3912L90.5004 33.3875L90.6626 34.1984L90.9174 34.824L91.1491 35.1252L91.4272 35.3106L91.682 35.3569L95.2038 35.2874L95.5745 35.4264L95.9684 35.6813L96.6867 36.3069L97.2659 37.0715L97.4744 37.6044L98.0073 39.3653L99.3743 42.3541L100.116 44.3931L100.417 44.926L100.695 45.3199L102.572 47.1039L103.081 47.4515L103.614 47.7295L105.653 48.4014L106.325 48.8416L106.904 49.3282L107.229 50.0001L107.206 50.8574L107.02 51.761L106.58 52.9658L106.441 53.2439L106.117 54.1706L106.163 54.6109L106.279 55.2596L106.742 56.5803L107.09 57.2059L107.391 57.6461L108.156 58.1326L108.41 58.2485L108.92 58.3412H109.407L109.94 58.1326L110.473 57.6924L115.917 51.9464L116.45 51.483L116.983 51.1586L117.609 50.9501Z" fill="url(#paint3_linear_86_1436)"/>
<path d="M166.497 57.9936L166.427 58.3643L165.176 62.8361L163.021 67.1456L162.905 67.8407L163.044 68.3504L163.253 70.0418L162.233 76.2513L160.913 76.3903L160.403 76.5293L159.87 76.7378L157.762 77.9658L157.53 78.1512L157.206 78.1743L156.904 78.0585L156.464 77.3634L156.325 76.9463L156.256 76.5988L156.372 76.0659L155.885 75.3708L150.741 70.6442L150.602 70.343L149.05 69.1845L146.779 68.1187L145.783 67.7943L145.111 67.6553L144.532 67.9334L144.045 68.026L143.744 67.9565L143.373 67.7712L142.794 67.1919L142.423 66.7517L141.288 64.6433L142.145 64.4579L143.188 63.7165L146.015 60.8203L146.663 61.0057L147.243 61.0983L148.007 61.1215L149.258 60.913L149.583 60.7045L149.93 60.4032L150.764 59.2911L151.112 59.0131L151.552 58.9204L152.456 59.1057H152.966L153.614 58.9899L154.008 58.9436L154.402 58.8277L154.865 58.5265L155.63 57.7387L156.395 57.1363L156.719 56.4644L157.414 53.9621L157.275 53.6146L157.46 53.4524L158.318 51.8768L159.546 54.5877L161.029 56.6498L163.021 57.8778L165.732 58.2021L166.497 57.9936Z" fill="url(#paint4_linear_86_1436)"/>
<path d="M155.26 29.7035L154.889 29.773L152.201 30.6998L149.235 31.001L148.818 31.2095L148.424 31.5339L147.845 32.2521L147.498 32.8314L147.011 33.4801L146.687 34.0362L146.316 35.0788L144.347 39.1567L143.883 39.8517L142.98 41.5895L142.539 42.7711L142.308 43.2577L142.099 43.4894L141.775 43.6979L141.311 43.8601L140.547 43.8833L139.736 43.8138L139.342 43.7211L136.33 42.3077L135.241 41.9834L134.106 41.8443L132.044 41.937L131.627 42.1455L131.094 42.5163L130.097 43.3967L129.333 44.3235L128.661 45.5283L128.29 45.8063L127.757 46.0844L124.768 46.7563L119.856 49.0037L117.609 50.95L116.983 51.1585L116.45 51.4829L115.918 51.9463L110.473 57.6923L109.94 58.1326L109.407 58.3411H108.92L108.411 58.2484L108.156 58.1326L107.391 57.646L107.09 57.2058L106.742 56.5802L106.279 55.2595L106.163 54.6108L106.117 54.1706L106.441 53.2438L106.58 52.9657L107.02 51.7609L107.206 50.8573L107.229 50L106.905 49.3281L106.325 48.8416L105.653 48.4013L103.614 47.7294L103.082 47.4514L102.572 47.1038L100.695 45.3198L100.417 44.9259L100.116 44.393L99.3744 42.3541L98.0074 39.3652L97.4745 37.6043L97.266 37.0714L96.6868 36.3068L95.9685 35.6812L95.5746 35.4264L95.2039 35.2873L91.6821 35.3568L91.4273 35.3105L91.1492 35.1252L90.9175 34.8239L90.6627 34.1984L90.5005 33.3874L90.5932 32.3911L90.9175 30.8619L91.0102 29.773L90.8712 27.3402L90.8017 27.0158L95.3198 25.1622L95.9917 24.7452L97.1965 22.7989L98.216 22.2429L105.7 22.1502L107.855 21.2929L109.222 19.7869L110.032 19.254L110.797 19.5783L111.376 19.9259L112.002 19.81L112.604 19.5088L114.249 19.0918L115.593 18.4894L116.798 17.6784L117.586 16.8675L118.744 17.5163L119.787 17.3309L121.872 15.8944L123.054 15.2688L124.027 15.0139L126.506 14.9676L127.757 14.4579L128.452 14.3188L129.055 14.6896L129.495 15.153L130.074 15.3615L134.917 15.5005L135.056 16.3809L135.079 19.6015L133.318 21.0149L131.186 21.9416L129.981 23.7025L130.167 24.2354L131.07 26.1817L131.348 26.6219L131.673 26.8536L132.02 27.8499L132.484 28.0816L134.963 28.4291L136.121 28.1974L137.373 27.1548L138.068 26.2049L138.693 24.8842L138.67 23.7257L135.056 22.2429L134.5 22.3124L133.341 22.6831H132.692V22.2429L134.083 21.2929L134.615 21.1307L134.963 20.8063L135.403 20.2734L136.26 20.1344L141.775 21.3856L142.794 21.2929L145.806 19.9259L146.293 20.0417L147.196 21.4551L151.182 22.0575L153.035 23.7489L157.229 25.2781L158.318 26.1817L156.511 26.6682L155.653 27.0158L154.866 27.595L154.564 26.4365L152.989 26.228L151.182 26.6914L150.162 27.595L150.579 28.7535L152.062 29.3328L153.777 29.4023L154.866 29.1011L155.26 29.7035Z" fill="url(#paint5_linear_86_1436)"/>
<path d="M86.9554 77.7572L86.0518 77.5023L85.1018 77.4097L84.0129 77.6182L81.6032 78.545L76.6913 80.2363L63.1602 80.9314L62.6505 81.0241L60.4957 81.8119L55.3984 84.4532L54.2631 84.5227L50.7181 84.2215L49.8145 84.3142L49.9536 83.3411L50.0462 80.4449L49.9304 79.101L49.4438 77.8035L48.5865 77.2706L47.5207 76.9694L46.4086 76.3902L41.4966 75.7646L39.1797 74.7915L39.2955 72.3818L40.6394 70.7368L42.2612 69.6942L45.922 68.304L52.7802 64.1335L54.0546 62.7201L55.3289 60.241L55.8155 57.7618L54.6802 56.3253L52.7107 55.2827L53.0583 54.1474L54.8192 53.2901L56.9971 53.0121L59.1287 53.1742L61.075 52.7572L64.9906 51.1817L66.0101 50.4402L66.0564 49.583L64.1102 46.5941L63.9248 45.8758L63.9712 45.0185L63.7858 43.1418L64.8516 42.7016L68.8599 41.0334L70.2501 40.7553H75.0926L76.3437 40.3151L78.6839 38.3225L80.3984 37.5116L82.8544 40.1298L83.2251 40.8712L83.0397 41.0334L81.9739 41.4273L81.6032 41.6126L81.4179 41.8211L81.2789 42.3309L81.3484 42.6784L81.5105 42.9796L83.6653 45.4588L84.7311 47.2197L84.9397 47.7989L84.986 48.2623L84.6153 48.7952L82.53 50.5329L82.2983 50.7646L82.0435 51.3439L81.9739 51.7377L81.9508 52.3633L81.7654 53.1279L81.4874 53.7303L81.3715 54.1242L81.441 54.4254L81.6496 54.7034L82.2288 55.1205L82.53 55.2363L85.7738 55.7692L86.631 56.2558L87.1639 56.696L87.4651 57.0667L87.6042 57.6923L87.2334 61.2373L87.3493 62.5579L87.5115 63.0445L87.72 63.4384L88.1602 64.0176L90.0601 69.1149L90.4077 70.4124L90.4772 71.2234L90.2918 71.4782L89.3882 72.4977L89.0175 73.0074L88.809 73.5172L88.6931 74.1891L88.6468 76.2048L88.5078 76.7146L88.2992 76.9694L88.0212 77.1548L86.9554 77.7572Z" fill="url(#paint6_linear_86_1436)"/>
<path d="M172.892 84.7313L172.289 83.4338L171.872 83.0399L171.548 83.0167L171.107 83.1094L170.366 83.4569L169.949 83.735L169.555 83.8972L169.184 83.9203L168.605 83.5959L168.234 83.3179L167.099 83.063L163.601 83.6886L163.253 83.6423L162.813 83.4106L162.604 83.2021L162.28 82.6692L162.118 81.2327L162.234 76.2512L163.253 70.0417L163.044 68.3504L162.905 67.8406L163.021 67.1455L165.176 62.836L166.427 58.3643L166.497 57.9935L167.655 58.0399L170.528 56.5802L172.289 56.14L173.378 55.0047L174.189 51.3902L175 48.5403L176.019 47.6367L177.224 47.3819L179.866 47.5672L182.229 47.1038L184.43 46.2466L187.257 44.2076L188.994 42.3772L189.504 42.1224L189.736 41.4736L189.898 41.1029L193.165 38.4384L193.628 37.8592L193.767 37.0714L193.559 36.5848L193.466 36.1214L193.976 35.4032L195.204 34.8008L198.054 34.4996L200.255 32.8314L201.413 32.646L202.41 33.1557L202.943 34.4301L202.873 35.0325L202.271 35.8897L202.132 36.6312L202.271 37.4189L202.827 38.4384L202.943 39.064L203.151 39.5505L204.124 41.0334L204.495 41.7285L204.634 42.4236L204.727 43.9528L204.866 44.6247L205.144 45.1808L205.514 45.8295L205.931 46.3392L206.233 46.5709L206.557 46.9648L207.229 48.0306L206.928 49.1891L206.14 50.3012L203.869 51.228L200.788 53.8462L199.096 56.9741L196.687 60.519L192.702 67.9565L189.666 75.6024L188.207 77.5719L183.503 78.7998L178.035 81.9046L176.066 81.3717L174.096 82.8314L172.892 84.7313Z" fill="url(#paint7_linear_86_1436)"/>
<path d="M157.275 53.6146L157.414 53.9621L156.719 56.4644L156.395 57.1363L155.63 57.7387L154.866 58.5265L154.402 58.8277L154.008 58.9436L153.615 58.9899L152.966 59.1058H152.456L151.552 58.9204L151.112 59.0131L150.765 59.2911L149.931 60.4033L149.583 60.7045L149.259 60.913L148.008 61.1215L147.243 61.0983L146.664 61.0057L146.015 60.8203L146.177 60.0789L146.154 59.4765L145.876 58.9436L145.389 58.4802L144.37 57.7387L144.022 57.2522L143.86 56.4181L143.582 56.0937L143.142 55.7925L142.841 55.4913L142.748 55.2596L142.794 55.0047L143.304 54.634L144.37 54.0548L146.756 53.128L153.777 49.2587L161.747 46.6868L162.002 46.5247L162.558 47.3356L162.28 48.1697L160.983 49.4672L160.426 50.9037L159.824 51.483L159.059 51.5988L158.318 50.9501L158.735 49.8843L158.202 49.583L157.229 49.7452L155.399 50.3476L154.843 50.7647L153.869 52.1549L153.591 53.1975L154.402 53.545L156.163 53.5914L156.905 53.9853L157.275 53.6146Z" fill="url(#paint8_linear_86_1436)"/>
<path d="M86.4224 130.028L83.6189 129.842L73.8876 125.695L69.2769 124.398L68.7208 124.351L68.2574 124.513L67.6318 124.884L66.3575 125.904L65.8014 126.436L65.4539 126.854L65.1064 127.664L64.921 128.313L64.782 128.892L64.5503 131.765L64.3881 132.669L64.2491 133.156L63.9479 133.619L63.7857 133.804L62.5809 133.967L59.9627 133.804L59.314 133.596L56.8348 132.275L56.3019 132.136L55.7922 132.113L55.3056 132.298L54.6337 132.669L52.6179 134.198L51.6448 135.125L50.9266 135.426L49.2352 135.588L48.2157 135.727L48.0072 133.596L47.0341 131.302L44.2769 126.738L43.605 124.305L43.3501 121.339L43.6745 115.778L45.111 110.588L45.2963 106.719L46.478 101.576L47.1267 100.394L47.6365 99.0732L47.4975 97.822L47.0572 96.5014L46.8024 95.1112L47.0572 92.215L49.7449 84.6849L49.8144 84.3142L50.718 84.2215L54.263 84.5227L55.3983 84.4532L60.4956 81.8118L62.6504 81.0241L63.1601 80.9314L76.6912 80.2363L81.6031 78.5449L84.2444 82.5764L84.9395 84.0129L85.009 84.3373L85.0322 84.8702L84.9627 85.4031L84.592 86.2141L84.4066 86.4921L84.2444 86.886L84.1054 87.3494L84.0591 88.2762L84.1286 88.7859L84.2444 89.1798L84.8237 90.1529L86.2834 91.9601L87.3955 93.7905L87.7894 94.7636L87.8589 95.3429V96.3392L87.7431 97.7989L87.7662 98.3086L87.8589 99.2585L88.0443 99.7451L88.276 100.116L89.0174 100.649L92.4928 102.433L92.933 102.85L93.4196 103.452L94.3 104.866L94.6244 105.561L94.8098 106.14L94.7403 107.368L94.4391 109.268L94.0452 110.82L93.7208 111.608L93.4196 112.118L92.0526 113.624L91.2417 114.875L91.0331 115.385L90.8478 116.427L90.6856 117.03L90.4771 117.586L90.1527 118.165L88.1369 119.856L87.9284 120.088L87.7431 120.436L87.604 120.899L87.5345 121.478V124.235L87.2797 126.83L87.2101 127.34L86.4224 130.028Z" fill="url(#paint9_linear_86_1436)"/>
<path d="M86.4228 130.028L89.9214 135.032L90.9872 136.26L91.4738 136.376L91.9835 136.284L92.7481 135.959L93.2578 135.867L93.4895 135.89L95.737 136.932L96.2699 137.28L96.6174 137.627L97.2894 139.226L97.7064 139.898L98.0308 140.199L98.3552 140.385L99.7685 140.64L100.927 141.219L102.989 142.47L103.452 142.841L103.893 143.304L104.217 143.791L104.588 144.578L104.727 145.042L104.796 145.528L104.68 146.733L104.449 147.729L104.24 148.147L103.939 148.61L103.29 149.328L102.526 150.046L100.556 151.205L100 151.622L99.5136 152.132L99.2819 152.502L99.0734 152.966L98.4247 154.866L97.9381 155.561L97.0577 156.325L96.5016 156.696L96.2004 157.044L95.876 157.53L94.9956 159.731L94.7407 160.797L94.6944 161.585L94.8102 162.025L95.0651 162.373L95.737 162.813L99.977 164.157L100.579 164.481L100.834 164.666L101.182 165.176L101.321 165.779L101.298 166.52L100.811 169.439L100.765 170.273L100.834 171.478L100.95 172.197L101.205 172.892L101.668 173.981L101.761 174.328V174.792L101.645 175.255L101.39 175.579L100.973 175.973L99.5136 176.807L96.6638 177.711L94.4395 178.869L94.1383 178.916L93.6749 178.846L92.7018 178.568L92.3774 178.707L92.053 179.008L91.497 179.773L91.0799 180.607L90.547 181.835L90.1995 182.391L88.3459 184.476L87.9752 185.032L87.813 185.45L87.8825 185.728L88.1605 186.26L88.6008 186.724L89.4117 187.164L89.5971 187.349L89.6897 187.581L89.18 188.045L75.3014 196.061L73.6332 196.965L72.5674 197.359L70.0187 197.729L69.509 197.892L63.7166 200.811L63.1374 201.182L62.674 201.645L62.4423 202.085L62.1179 203.36L61.9325 203.869L61.446 203.846L60.6582 203.545L56.7194 201.298L55.9316 200.718L49.7453 198.656L48.61 198.031L47.9149 197.428L47.1272 197.034L45.0187 196.779L44.3237 196.71L44.7639 196.084L44.9261 195.158L43.8834 188.207L43.7676 185.635L44.3468 182.947L45.6907 179.263L46.6869 174.166L47.4515 171.733L50.1161 168.767L53.5452 163.485L54.1012 162.118L52.155 160.589L49.7917 159.87L47.6601 158.805L46.3394 156.349L45.9919 153.499L46.1077 150.95L46.7101 148.54L48.749 143.605L48.7722 141.543L48.2161 135.728L49.2356 135.589L50.927 135.426L51.6452 135.125L52.6184 134.198L54.6341 132.669L55.306 132.298L55.7926 132.113L56.3023 132.136L56.8352 132.275L59.3144 133.596L59.9631 133.805L62.5813 133.967L63.7861 133.805L63.9483 133.619L64.2495 133.156L64.3885 132.669L64.5507 131.766L64.7824 128.893L64.9214 128.313L65.1068 127.665L65.4543 126.854L65.8019 126.437L66.3579 125.904L67.6323 124.884L68.2578 124.514L68.7212 124.351L69.2773 124.398L73.8881 125.695L83.6193 129.843L86.4228 130.028Z" fill="url(#paint10_linear_86_1436)"/>
<path d="M126.691 230.561L127.386 231.626L127.873 232.113L128.406 232.391L129.356 232.739L130.306 232.901L131.557 232.808L132.553 232.576L133.04 232.507L133.99 232.53L134.5 232.692L134.917 232.947L135.357 233.503L136.052 234.615L136.932 235.449L137.975 236.214L138.971 236.747L140.269 236.955L140.732 236.932L141.01 236.84L141.242 236.654L141.381 236.168L141.358 235.38L141.474 234.778L141.728 234.523L142.076 234.499L142.285 234.638L143.489 235.727L143.211 235.913L143.744 237.071L143.953 238.438V241.311L144.138 242.562L144.949 245.204L145.134 246.478L145.667 248.702L146.942 251.251L152.155 258.735L152.688 259.291L153.499 259.731L161.608 267.841L163.716 269.115L168.165 271.061L168.976 271.246L167.586 272.266L164.064 276.622L163.647 277.247L163.438 277.803L160.287 282.808L159.083 285.264L158.689 285.681L158.364 285.913L154.611 287.025L152.78 287.813L146.27 293.234L145.644 293.466L141.45 294.393L139.782 295.134L139.296 295.273L138.323 295.297L135.218 295.018L134.175 295.204L131.789 295.968L131.256 296.038L130.746 296.015L129.263 295.806L128.221 295.783L125.95 293.327L125.162 292.284L122.915 287.998L122.15 286.932L117.678 282.785L117.493 282.437L117.377 282.02L117.4 281.418L117.609 280.676L118.953 278.568L119.462 277.317L119.602 276.529L119.532 276.158L119.323 275.741L118.837 275.023L116.149 272.173L115.848 272.011L115.361 271.965L114.597 272.127L114.064 272.034L113.554 271.71L113.137 271.246L112.373 269.787L112.025 269.254L111.793 268.999L111.307 268.605L110.728 268.281L108.225 267.238L107.762 266.867L107.576 266.636L104.611 261.423L103.105 258.179L102.201 255.723L101.506 253.174L101.043 250.139L100.973 247.22L101.321 244.439L101.46 243.976L101.715 243.512L102.108 243.049L103.151 242.122L105.283 240.57L106.279 239.574L106.557 239.087L106.488 238.809L106.233 238.508L103.638 236.932L103.336 236.654L102.363 235.612L101.807 234.731L101.46 233.573L104.935 232.043L106.117 231.742L112.512 232.53H113.091L113.531 232.461L115.871 231.163L116.914 230.816L117.91 230.306L119.602 228.869L120.343 228.406L122.614 227.641L123.193 227.549H123.656L124.189 227.78L125.301 228.499L125.857 228.939L126.228 229.425L126.506 229.981L126.691 230.561Z" fill="url(#paint11_linear_86_1436)"/>
<path d="M117.91 230.306L116.914 230.816L115.871 231.163L113.531 232.461L113.091 232.53H112.512L106.117 231.742L104.935 232.044L101.46 233.573L93.9298 234.778L93.0494 234.708L92.0531 234.361L91.5434 234.476L89.3191 235.334L88.0448 235.959L87.6277 236.446L87.4655 236.701L87.3033 237.21L87.2338 237.72L87.2107 239.226L87.0485 239.759L86.6778 240.222L86.307 240.408L85.9363 240.431L82.3914 240.06L80.2134 239.481H79.7964L79.3098 239.574L77.2941 240.454L67.5628 241.358L64.5045 240.709L62.3497 240.524L49.9308 241.265L49.6759 241.033L49.3979 240.593L48.8881 238.971L48.6564 238.021L48.5174 237.697L48.2857 237.326L47.5443 236.562L46.5712 235.82L46.2468 235.612L41.9836 234.152L39.8752 233.943L39.6203 233.851L39.1106 233.457L38.6472 232.762L37.9521 231.557L37.118 230.329L36.6314 229.796L35.5888 228.8L31.4414 226.043L31.2561 225.765L31.2329 225.371L31.5805 224.652L31.8817 224.166L33.8974 221.687L34.1523 221.455L34.6852 221.293L37.396 220.945L37.6741 220.806L37.8362 220.598L37.8594 220.273L37.5814 219.764L37.3729 219.462L35.3803 217.493L35.2644 217.099V216.566L36.1912 212.998L36.168 212.326L35.7278 211.052L35.4729 210.82L37.8131 208.735L39.1569 207.924L39.5971 207.461L39.852 206.974L40.2459 205.792L40.5934 205.213L42.6324 203.939L43.0726 203.151L41.6129 200.857L41.7751 199.791L42.4238 198.749L44.2542 196.826L44.3237 196.71L45.0188 196.779L47.1273 197.034L47.915 197.428L48.6101 198.031L49.7454 198.656L55.9317 200.718L56.7195 201.297L60.6583 203.545L61.4461 203.846L61.9326 203.869L62.118 203.36L62.4424 202.085L62.6741 201.645L63.1374 201.182L63.7167 200.811L69.5091 197.892L70.0188 197.729L72.5675 197.359L73.6333 196.965L75.3015 196.061L84.4535 199.722L89.8983 199.768L95.7602 200.857L99.2357 202.711L99.6759 202.896L100.023 202.966L100.255 202.943L100.742 202.757L101.553 202.34L101.923 202.178L102.456 202.108L102.734 202.224L102.896 202.433L102.85 202.989L101.506 206.464L101.39 206.997L101.344 207.553L101.367 207.901L101.483 208.457L101.831 209.361L102.039 209.754L102.665 210.612L103.87 211.909L105.376 213.207L105.909 213.577L106.326 213.809L109.894 215.13L110.334 215.431L110.82 215.964L111.655 217.285L111.979 217.702L112.442 218.165L113.925 219.323L114.319 219.555L116.984 220.853L117.632 221.293L118.026 221.687L118.165 222.196L117.91 230.306Z" fill="url(#paint12_linear_86_1436)"/>
<path d="M112.002 145.042L113.554 147.057L113.971 147.915V148.378L113.693 150.556L113.462 151.39L113.091 153.499L113.137 153.916L113.392 154.425L113.647 154.773L117.91 158.758L118.281 158.967L119.277 159.222L119.903 159.245L120.691 159.152L121.038 159.198L121.362 159.337L124.861 163.021L125.023 163.253L125.487 164.249L125.857 164.736L126.367 165.292L126.83 165.616L127.363 165.941L128.962 166.543L133.109 167.377L138.184 168.999L138.74 169.069L138.971 169.022L141.798 168.003L142.146 168.234L142.47 168.767L144.463 175.811L144.764 176.39L145.83 177.896L141.427 187.859L134.917 198.61L133.642 201.344L133.248 202.363L133.086 202.966L132.947 203.916V204.611L133.272 206.001L133.48 206.464L133.828 206.719L139.944 207.461L141.172 207.808L145.76 210.125L145.992 210.334L146.27 210.681L146.339 211.237L146.154 212.465L145.853 213.647L145.528 214.412L145.134 214.875L144.903 215.083L142.192 216.474L141.682 216.914L140.825 217.887L140.593 218.095L140.037 218.258L138.763 218.234L137.998 218.35L137.535 218.582L137.164 218.837L135.056 220.69L134.523 221.061L133.411 221.664L130.028 222.822L128.429 223.679L127.734 224.351L127.201 225L126.993 225.371L126.923 225.695L127.224 226.158L128.174 226.993L128.545 227.502L128.869 228.035L129.263 228.985L129.449 229.796L129.495 230.538L129.402 230.931L129.194 231.186L128.73 231.348L128.267 231.302L127.804 231.117L126.691 230.561L126.506 229.981L126.228 229.425L125.857 228.939L125.301 228.499L124.189 227.78L123.656 227.549H123.193L122.614 227.641L120.343 228.406L119.602 228.869L117.91 230.306L118.165 222.196L118.026 221.687L117.632 221.293L116.983 220.853L114.319 219.555L113.925 219.323L112.442 218.165L111.979 217.702L111.654 217.285L110.82 215.964L110.334 215.431L109.893 215.13L106.325 213.809L105.908 213.577L105.375 213.207L103.869 211.909L102.665 210.612L102.039 209.754L101.83 209.361L101.483 208.457L101.367 207.901L101.344 207.553L101.39 206.997L101.506 206.464L102.85 202.989L102.896 202.433L102.734 202.224L102.456 202.108L101.923 202.178L101.552 202.34L100.741 202.757L100.255 202.943L100.023 202.966L99.6757 202.896L99.2355 202.711L95.76 200.857L89.8981 199.768L84.4533 199.722L75.3013 196.061L89.1799 188.044L89.6896 187.581L89.5969 187.349L89.4116 187.164L88.6006 186.724L88.1604 186.26L87.8824 185.728L87.8129 185.45L87.975 185.032L88.3458 184.476L90.1993 182.391L90.5469 181.835L91.0798 180.607L91.4968 179.773L92.0529 179.008L92.3773 178.707L92.7016 178.568L93.6748 178.846L94.1382 178.916L94.4394 178.869L96.6636 177.711L99.5135 176.807L100.973 175.973L101.39 175.579L101.645 175.255L101.761 174.791V174.328L101.668 173.981L101.205 172.892L100.95 172.196L100.834 171.478L100.765 170.273L100.811 169.439L101.298 166.52L101.321 165.779L101.182 165.176L100.834 164.666L100.579 164.481L99.9769 164.157L95.7369 162.813L95.0649 162.373L94.8101 162.025L94.6942 161.585L94.7406 160.797L94.9954 159.731L95.8759 157.53L96.2003 157.044L96.5015 156.696L97.0575 156.325L97.938 155.561L98.4245 154.866L99.0733 152.966L99.2818 152.502L99.5135 152.132L100 151.622L100.556 151.205L102.526 150.046L103.29 149.328L103.939 148.61L104.24 148.146L104.449 147.729L104.68 146.733L104.796 145.528L107.808 144.648H108.874L112.002 145.042Z" fill="url(#paint13_linear_86_1436)"/>
<path d="M204.958 203.197L202.688 205.005L201.599 204.773L198.587 203.29L197.498 202.549L198.795 201.506L205.26 201.552L205.792 202.34L204.958 203.197ZM215.408 195.227L216.775 196.64L216.335 197.59L210.82 199.931L207.97 201.668L206.928 202.085L206.441 200.904L207.229 199.977L208.179 199.073L209.198 197.59L209.337 196.64L209.268 196.2L209.314 195.551L209.778 195.297L209.893 195.969L210.751 196.525L212.095 196.27L212.234 194.741L211.84 193.93L212.28 193.003L212.952 192.377L213.415 191.636L213.925 190.894L214.852 191.427L216.474 191.682L216.752 192.308L215.269 192.817L215.06 193.234L214.713 193.675L214.574 194.509L215.083 194.717L215.408 195.227ZM200.417 172.428L200.788 174.398L200.556 176.483L198.633 178.893L196.455 180.005L194.856 181.789L195.273 183.411L194.81 184.847L194.787 187.581L192.47 189.272L191.983 189.829L191.613 190.13L191.381 190.547L192.007 191.914L192.238 192.841L190.176 193.814L188.832 194.81L187.025 196.826L186.145 198.633L185.032 199.652L184.5 200.88L183.526 201.993L182.6 202.595L178.823 203.823L178.313 204.147L178.105 204.634L178.012 205.352L177.734 206.186L177.294 206.905L177.201 208.248L176.807 209.013L176.715 210.241L175.834 211.075L174.583 211.701L169.3 212.488L167.354 213.577L164.342 218.605L161.608 219.323L161.052 219.277L160.542 219.022L159.893 218.976L159.222 219.231L158.874 219.578L158.642 219.995L157.437 221.617L156.905 222.104L156.163 222.289L153.475 223.471L152.34 224.374L150.093 225.278L148.703 226.761L147.984 228.893L145.969 232.994L144.764 234.94L143.976 235.218L143.489 235.728L142.285 234.639L142.076 234.5L141.728 234.523L141.474 234.778L141.358 235.38L141.381 236.168L141.242 236.654L141.01 236.84L140.732 236.932L140.269 236.956L138.971 236.747L137.975 236.214L136.932 235.45L136.052 234.615L135.357 233.503L134.917 232.947L134.5 232.692L133.99 232.53L133.04 232.507L132.553 232.576L131.557 232.808L130.306 232.901L129.356 232.739L128.406 232.391L127.873 232.113L127.386 231.627L126.691 230.561L127.804 231.117L128.267 231.302L128.73 231.348L129.194 231.186L129.402 230.931L129.495 230.538L129.449 229.796L129.263 228.985L128.869 228.035L128.545 227.502L128.174 226.993L127.224 226.158L126.923 225.695L126.993 225.371L127.201 225L127.734 224.351L128.429 223.679L130.028 222.822L133.411 221.664L134.523 221.061L135.056 220.69L137.164 218.837L137.535 218.582L137.998 218.35L138.763 218.234L140.037 218.258L140.593 218.095L140.825 217.887L141.682 216.914L142.192 216.474L144.903 215.083L145.134 214.875L145.528 214.412L145.853 213.647L146.154 212.465L146.339 211.237L146.27 210.681L145.992 210.334L145.76 210.125L141.172 207.808L139.944 207.461L133.828 206.719L133.48 206.464L133.272 206.001L132.947 204.611V203.916L133.086 202.966L133.248 202.363L133.642 201.344L134.917 198.61L141.427 187.859L145.83 177.896L146.27 177.039L147.336 175.371L150.301 171.918L152.549 169.926L153.753 169.138L154.449 168.86L155.862 168.721L162.373 169.856L162.836 169.995L163.114 170.158L164.713 171.27L165.176 171.525L165.941 171.548L166.728 171.339L173.007 168.35L174.12 167.539L175.093 166.613L175.394 166.149L175.487 165.825L175.44 165.361L175.487 164.829L175.765 164.388L176.83 163.763L177.085 163.554L177.363 163.068L177.479 162.604L177.757 162.21L178.221 162.071L183.272 163.554L183.99 163.601L184.546 163.276L185.079 162.79L185.287 162.535L185.658 161.979L186.538 160.079L186.793 160.009L187.141 160.195L187.836 161.029L188.392 162.071L188.809 164.527L189.018 165.292L189.805 167.4L190.083 167.98L190.408 168.258L190.848 168.466L191.636 168.513L192.099 168.397L192.424 168.211L193.142 167.215L193.35 166.983L193.652 166.96L194.045 167.169L194.694 167.887L195.297 168.721L196.872 171.432L197.683 171.918L200.348 172.428H200.417Z" fill="url(#paint14_linear_86_1436)"/>
<path d="M86.9557 77.7572L91.5664 82.2058L92.9566 83.1326L93.5359 83.0167L96.8028 81.8119L97.6137 81.696H98.3783L98.8185 81.7887L99.1892 81.9509L100.186 82.646L103.128 84.2679L103.846 84.4069L104.31 84.3142L106.557 80.2132L107.229 79.2864L107.438 79.0547L107.901 78.6608L108.411 78.406L110.102 78.1048L113.346 77.8962L114.064 77.9426L114.597 78.1279L115.362 78.545L115.871 78.8925L117.123 80.2132L117.47 80.4681L117.98 80.7693L118.652 80.8851L119.138 80.7924L119.648 80.5839L122.081 79.2632L123.008 78.8694L124.259 78.5913L127.665 78.2206L128.476 79.7498L128.73 81.0936L128.661 81.9741L128.082 83.7813L127.618 84.6154L126.854 85.6812L125.718 87.0482L124.606 88.0909L120.899 90.4078L119.509 90.9639L119.208 91.1492L118.768 91.5663L118.698 91.8907L118.768 92.215L118.953 92.4931L121.038 94.4857L121.617 94.9259L122.22 95.2966L124.768 95.9685L127.549 97.0112L128.105 97.3587L128.337 97.544L128.568 98.0074L128.8 98.7257L129.101 100.255L129.194 101.506L129.032 102.085L128.846 102.641L128.545 103.197L127.526 104.634L115.176 114.852L114.412 115.755L113.995 116.358V116.914L114.412 118.582L114.504 119.161L114.528 119.764L114.389 120.621L113.578 122.822L113.508 123.378L113.601 124.073L113.74 124.467L114.087 125.023L114.504 125.556L114.875 125.95L115.06 126.228L115.199 126.576L115.176 127.201L114.782 127.618L113.346 127.943L112.28 128.406L109.894 129.935L109.291 130.121L108.712 130.19L108.086 130.167L107.391 130.051L103.429 128.73L103.059 128.707L102.642 128.8L102.039 129.124L101.784 129.425L101.715 129.727L101.784 130.028L102.016 130.538L109.616 139.875L111.863 144.184L112.002 145.042L108.874 144.648H107.808L104.796 145.528L104.727 145.042L104.588 144.578L104.217 143.791L103.893 143.304L103.452 142.841L102.989 142.47L100.927 141.219L99.7685 140.64L98.3551 140.385L98.0308 140.199L97.7064 139.898L97.2893 139.226L96.6174 137.627L96.2699 137.28L95.737 136.932L93.4895 135.89L93.2578 135.867L92.7481 135.959L91.9835 136.284L91.4738 136.376L90.9872 136.26L89.9214 135.032L86.4228 130.028L87.2106 127.34L87.2801 126.83L87.5349 124.235V121.478L87.6044 120.899L87.7435 120.436L87.9288 120.088L88.1373 119.856L90.1531 118.165L90.4775 117.586L90.686 117.03L90.8482 116.427L91.0335 115.385L91.2421 114.875L92.053 113.624L93.42 112.118L93.7212 111.608L94.0456 110.82L94.4395 109.268L94.7407 107.368L94.8102 106.14L94.6248 105.561L94.3005 104.866L93.42 103.452L92.9334 102.85L92.4932 102.433L89.0178 100.649L88.2764 100.116L88.0447 99.7452L87.8593 99.2586L87.7666 98.3086L87.7435 97.7989L87.8593 96.3392V95.3429L87.7898 94.7637L87.3959 93.7906L86.2838 91.9602L84.8241 90.1529L84.2448 89.1798L84.129 88.7859L84.0595 88.2762L84.1058 87.3494L84.2448 86.886L84.407 86.4921L84.5924 86.2141L84.9631 85.4032L85.0326 84.8703L85.0094 84.3374L84.9399 84.013L84.2448 82.5765L81.6035 78.545L84.0132 77.6182L85.1021 77.4097L86.0521 77.5023L86.9557 77.7572Z" fill="url(#paint15_linear_86_1436)"/>
<path d="M176.946 144.045L183.526 146.247L187.396 147.011L189.527 147.104L190.083 147.034L190.477 146.942L190.639 146.733L191.103 145.621L191.752 144.625L192.215 144.069L193.095 143.211L194.347 142.285L195.621 141.566L200.324 139.805L200.371 140.338L200.88 141.844L201.738 142.91L204.333 143.721L202.803 145.111L202.386 146.988L202.108 148.726L202.317 151.738L201.622 153.174L201.923 155.7L203.267 157.855L205.259 160.38L206.441 161.307L207.854 161.956L208.619 162.373L208.526 163.716L206.974 163.763L205.839 164.62L204.75 166.821L203.081 168.235L202.294 169.787L201.506 171.455L200.417 172.428H200.347L197.683 171.919L196.872 171.432L195.296 168.721L194.694 167.887L194.045 167.169L193.651 166.96L193.35 166.983L193.142 167.215L192.423 168.211L192.099 168.397L191.636 168.513L190.848 168.466L190.408 168.258L190.083 167.98L189.805 167.4L189.018 165.292L188.809 164.527L188.392 162.071L187.836 161.029L187.141 160.195L186.793 160.009L186.538 160.079L185.658 161.979L185.287 162.535L185.079 162.79L184.546 163.276L183.99 163.601L183.271 163.554L178.22 162.071L177.757 162.21L177.479 162.604L177.363 163.068L177.085 163.554L176.83 163.763L175.765 164.388L175.486 164.829L175.44 165.362L175.486 165.825L175.394 166.149L175.093 166.613L174.119 167.539L173.007 168.35L166.728 171.339L165.941 171.548L165.176 171.525L164.713 171.27L163.114 170.158L162.836 169.995L162.372 169.856L155.862 168.721L155.954 166.057L155.885 165.153L155.584 164.388L154.217 162.396L153.962 161.909L153.823 161.446L153.777 161.098V160.426L153.962 158.503L153.939 157.808L153.8 156.696L153.661 156.186L153.499 155.723L153.035 154.75L152.78 153.985L152.873 153.429L153.105 152.641L154.866 148.286L155.491 147.243L156.673 145.76L156.928 145.273L156.974 144.741L156.928 144.208L156.07 141.914L156.047 141.636L156.117 141.311L156.279 140.987L156.65 140.454L157.739 139.713L160.218 138.879L159.801 140.524L159.731 141.103L159.824 141.821L159.963 142.146L160.403 142.655L161.724 143.675L162.396 144.486L162.72 144.648L163.114 144.741L164.898 144.324L165.431 144.347L167.423 144.926L168.026 145.273L168.234 145.552L168.489 146.2L168.582 147.498L168.675 147.868L168.86 148.147L169.138 148.378L172.428 149.838L172.752 149.907L173.1 149.861L173.424 149.745L173.702 149.421L173.957 149.004L174.258 148.216L174.421 147.845L174.676 147.498L176.066 146.756L176.413 146.108L176.946 144.045Z" fill="url(#paint16_linear_86_1436)"/>
<path d="M200.324 139.805L195.621 141.566L194.347 142.284L193.096 143.211L192.215 144.069L191.752 144.625L191.103 145.621L190.64 146.733L190.477 146.942L190.083 147.034L189.527 147.104L187.396 147.011L183.526 146.246L176.946 144.045L176.437 143.559L175.093 143.026L174.745 142.98L174.444 143.072L174.212 143.258L173.981 143.651L173.795 144.3L173.355 145.088L172.984 145.297L172.544 145.389L171.386 145.25L170.899 145.088L170.412 144.694L170.065 144.045V143.605L170.158 142.841L170.297 142.493L170.528 142.284L172.336 141.474L172.845 141.126L173.054 140.848L173.193 140.524L173.17 140.037L173.031 139.713L172.498 138.948V138.67L172.66 138.369L173.146 137.998L173.772 137.72L175.046 137.442L177.062 136.724L177.989 136.145L178.429 135.774L178.707 135.264L178.962 134.523L179.31 132.252L179.333 131.742L179.124 129.564L179.101 128.267L179.124 127.966L179.68 126.923L181.905 124.189L182.044 124.004L182.183 124.143L183.272 124.722L185.009 125.394L188.415 124.189L188.995 124.328L189.504 124.652L190.547 125.626L189.921 126.552L189.597 127.919L189.875 129.333L190.524 130.352L192.817 131.441L197.938 133.457L200.209 133.202L201.854 134.592L202.641 136.214L200.487 137.071L200.209 138.693L200.324 139.805Z" fill="url(#paint17_linear_86_1436)"/>
<path d="M160.218 138.879L157.738 139.713L156.649 140.454L156.279 140.987L156.117 141.311L156.047 141.636L156.07 141.914L156.928 144.208L156.974 144.74L156.928 145.273L156.673 145.76L155.491 147.243L154.865 148.285L153.105 152.641L152.873 153.429L152.78 153.985L153.035 154.75L153.498 155.723L153.661 156.186L153.8 156.696L153.939 157.808L153.962 158.503L153.776 160.426V161.098L153.823 161.446L153.962 161.909L154.217 162.396L155.584 164.388L155.885 165.153L155.954 166.057L155.862 168.721L154.448 168.86L153.753 169.138L152.548 169.926L150.301 171.918L147.335 175.371L146.269 177.039L145.829 177.896L144.763 176.39L144.462 175.811L142.47 168.767L142.145 168.234L141.798 168.003L138.971 169.022L138.739 169.069L138.183 168.999L133.109 167.377L128.962 166.543L127.363 165.941L126.83 165.616L126.367 165.292L125.857 164.736L125.486 164.249L125.023 163.253L124.861 163.021L121.362 159.337L121.038 159.198L120.69 159.152L119.902 159.245L119.277 159.221L118.281 158.967L117.91 158.758L113.647 154.773L113.392 154.425L113.137 153.916L113.091 153.499L113.461 151.39L113.693 150.556L113.971 148.378V147.915L113.554 147.057L112.002 145.042L111.863 144.184L109.615 139.875L102.016 130.538L101.784 130.028L101.714 129.727L101.784 129.425L102.039 129.124L102.641 128.8L103.058 128.707L103.429 128.73L107.391 130.051L108.086 130.167L108.712 130.19L109.291 130.12L109.893 129.935L112.28 128.406L113.345 127.943L114.782 127.618L115.176 127.201L115.199 126.576L115.06 126.228L114.875 125.95L114.504 125.556L114.087 125.023L113.739 124.467L113.6 124.073L113.508 123.378L113.577 122.822L114.388 120.621L114.527 119.764L114.504 119.161L114.411 118.582L113.994 116.914V116.358L114.411 115.755L115.176 114.852L127.525 104.634L128.73 105.074L129.24 105.19L130.398 105.259L135.426 104.541L137.419 104.495L139.203 105.584L139.736 105.816L141.983 106.233L142.771 106.65L143.165 106.974L144.694 108.503L144.972 108.665L145.32 108.642L145.667 108.411L146.107 107.692L146.293 107.206L146.409 106.812L146.779 104.333L146.941 103.684L147.243 103.36L147.845 104.101L148.216 104.147L148.656 103.939L149.444 103.151L149.814 102.688L150.301 101.761L151.228 101.112L154.611 99.9768L152.734 103.429L152.757 104.449L155.885 106.117L156.186 106.418L156.51 106.905L157.02 107.878L157.206 108.387L157.275 108.851L156.765 112.071L156.093 114.643L155.723 115.732L155.607 115.964L155.004 116.937L152.317 120.32L152.016 120.853L151.946 121.107V121.409L152.108 121.895L158.526 134.94L159.082 135.728L159.523 136.608L160.218 138.879Z" fill="url(#paint18_linear_86_1436)"/>
<path d="M172.892 84.7314L172.289 85.635L171.501 88.2995L170.714 91.2189L170.042 94.0919L169.903 97.7064L169.787 101.414L170.065 103.754L170.783 106.117L171.2 107.391L171.478 107.831L171.733 108.527L172.058 110.056L172.266 110.705L173.517 112.604L174.421 113.647L175.209 114.087L175.88 114.759L177.363 119.37L178.128 120.297L182.044 124.004L181.905 124.189L179.68 126.923L179.124 127.966L179.101 128.267L179.124 129.565L179.333 131.743L179.31 132.252L178.962 134.523L178.707 135.264L178.429 135.774L177.989 136.145L177.062 136.724L175.046 137.442L173.772 137.72L173.146 137.998L172.66 138.369L172.498 138.67V138.948L173.031 139.713L173.17 140.037L173.193 140.524L173.054 140.848L172.845 141.126L172.336 141.474L170.528 142.285L170.297 142.493L170.158 142.841L170.065 143.605V144.046L170.412 144.694L170.899 145.088L171.386 145.25L172.544 145.389L172.984 145.297L173.355 145.088L173.795 144.3L173.981 143.652L174.212 143.258L174.444 143.072L174.745 142.98L175.093 143.026L176.437 143.559L176.946 144.046L176.413 146.108L176.066 146.756L174.676 147.498L174.421 147.845L174.259 148.216L173.957 149.004L173.703 149.421L173.425 149.745L173.1 149.861L172.753 149.907L172.428 149.838L169.138 148.378L168.86 148.147L168.675 147.869L168.582 147.498L168.489 146.2L168.235 145.552L168.026 145.274L167.424 144.926L165.431 144.347L164.898 144.324L163.114 144.741L162.72 144.648L162.396 144.486L161.724 143.675L160.403 142.655L159.963 142.146L159.824 141.821L159.731 141.103L159.801 140.524L160.218 138.879L159.523 136.608L159.083 135.728L158.526 134.94L152.108 121.895L151.946 121.409V121.108L152.016 120.853L152.317 120.32L155.005 116.937L155.607 115.964L155.723 115.732L156.094 114.643L156.766 112.072L157.275 108.851L157.206 108.388L157.02 107.878L156.511 106.905L156.186 106.418L155.885 106.117L152.757 104.449L152.734 103.429L154.611 99.977L156.094 99.3283L156.65 99.027L157.136 98.6563L157.345 98.4246L157.576 98.0076L157.808 97.4052L158.086 96.2467L158.179 95.6674V95.2041L157.901 94.3236L157.924 94.0456L158.063 93.7907L158.457 93.5359L158.758 93.3968L162.836 92.5627L163.045 92.3079L163.137 91.914L162.975 91.1725L162.697 90.7323L162.28 90.1299L162.326 89.8519L162.651 89.5043L163.415 88.9019L163.647 87.7203L163.601 83.6888L167.099 83.0632L168.235 83.3181L168.605 83.5961L169.184 83.9205L169.555 83.8973L169.949 83.7351L170.366 83.4571L171.108 83.1095L171.548 83.0168L171.872 83.04L172.289 83.4339L172.892 84.7314Z" fill="url(#paint19_linear_86_1436)"/>
<path d="M141.288 64.6433L142.423 66.7517L142.794 67.1919L143.373 67.7712L143.744 67.9565L144.045 68.026L144.532 67.9334L145.111 67.6553L145.783 67.7943L146.779 68.1187L149.05 69.1845L150.602 70.343L150.741 70.6442L155.885 75.3708L156.372 76.0659L156.256 76.5988L156.325 76.9463L156.464 77.3634L156.904 78.0585L157.206 78.1743L157.53 78.1511L157.762 77.9658L159.87 76.7378L160.403 76.5293L160.913 76.3903L162.233 76.2512L162.118 81.2327L162.28 82.6692L162.604 83.2021L162.813 83.4106L163.253 83.6423L163.6 83.6887L163.647 87.7202L163.415 88.9018L162.65 89.5042L162.326 89.8518L162.28 90.1298L162.697 90.7322L162.975 91.1725L163.137 91.9139L163.044 92.3078L162.836 92.5626L158.758 93.3967L158.457 93.5358L158.063 93.7906L157.924 94.0455L157.901 94.3235L158.179 95.204V95.6674L158.086 96.2466L157.808 97.4051L157.576 98.0075L157.345 98.4245L157.136 98.6562L156.65 99.027L156.093 99.3282L154.611 99.9769L151.228 101.112L150.301 101.761L149.815 102.688L149.444 103.151L148.656 103.939L148.216 104.147L147.845 104.101L147.243 103.36L146.942 103.684L146.779 104.333L146.409 106.812L146.293 107.206L146.107 107.692L145.667 108.411L145.32 108.642L144.972 108.666L144.694 108.503L143.165 106.974L142.771 106.65L141.983 106.233L139.736 105.816L139.203 105.584L137.419 104.495L135.426 104.541L130.398 105.26L129.24 105.19L128.73 105.074L127.525 104.634L128.545 103.197L128.846 102.641L129.031 102.085L129.194 101.506L129.101 100.255L128.8 98.7258L128.568 98.0075L128.336 97.5441L128.105 97.3587L127.549 97.0112L124.768 95.9686L122.22 95.2966L121.617 94.9259L121.038 94.4857L118.953 92.4931L118.767 92.2151L118.698 91.8907L118.767 91.5663L119.207 91.1493L119.509 90.9639L120.899 90.4079L124.606 88.0909L125.718 87.0483L126.853 85.6813L127.618 84.6155L128.081 83.7814L128.661 81.9741L128.73 81.0937L128.475 79.7498L127.664 78.2207L128.359 76.5061L130.028 74.0965L130.375 73.1697L131.418 72.0344L134.754 69.2308L136.492 68.6748L137.048 68.165L137.975 65.9408L138.902 64.2494L139.226 63.8787L139.527 63.647L140.014 63.5311L140.477 63.5543L140.709 63.6933L141.056 64.1335L141.288 64.6433Z" fill="url(#paint20_linear_86_1436)"/>
<path d="M209.847 365.083L213.531 358.156L214.481 357.044L215.477 356.14L216.497 355.375L217.609 354.703L220.297 353.707L221.177 353.267L223.216 351.761L223.726 351.274L224.097 350.765L224.305 350.209L224.189 349.931L223.934 349.768L223.471 349.745L221.849 350.046L221.432 350L221.015 349.838L220.505 349.537L205.607 337.164L205.422 336.909L205.329 336.654L205.375 336.121L205.908 334.013L205.978 333.179L205.746 327.386L205.816 326.83L205.908 326.344L206.65 324.374L206.951 323.285L207.136 322.127V321.664L206.974 320.969L206.696 320.482L206.024 319.972L205.329 319.602L204.611 319.115L202.201 316.914L201.784 316.404L201.437 315.848L201.274 315.5L200.533 312.326L200.185 311.77L199.606 311.307L183.944 303.916L182.716 303.638L180.097 303.313L179.101 303.012L178.568 302.711L178.012 302.271L177.618 301.784L177.502 301.298L177.757 300.88L178.893 300.463L179.032 300.255L179.194 299.537L179.75 298.61V298.146L179.588 297.915L179.032 297.845L174.653 298.378L172.683 298.1L172.173 298.146L171.71 298.285L161.77 302.711L161.029 303.221L157.16 304.889L156.65 305.213L156.256 305.746L156.001 305.931L155.607 306.07H154.912L152.016 305.491L150.973 305.422L150.626 305.538L150.232 305.723L149.537 306.233L148.842 306.858L147.66 308.55L147.243 308.92L145.32 309.731L143.907 310.125L142.679 310.31L137.79 310.426L138.578 308.55L138.74 308.063L138.809 307.576V302.456L138.717 301.969L138.438 301.691L137.952 301.367L136.84 300.996L136.237 300.857L135.82 300.834L135.311 300.88L134.778 300.857L133.781 300.602L132.577 300.185L131.511 299.259L128.221 295.783L129.263 295.806L130.746 296.015L131.256 296.038L131.789 295.969L134.175 295.204L135.218 295.019L138.323 295.297L139.296 295.273L139.782 295.134L141.451 294.393L145.644 293.466L146.27 293.234L152.78 287.813L154.611 287.025L158.364 285.913L158.689 285.681L159.083 285.264L160.287 282.808L163.438 277.804L163.647 277.247L164.064 276.622L167.586 272.266L168.976 271.247L170.621 271.617L174.514 271.038L178.8 269.81L182.414 267.841L183.48 267.563L184.801 269.949L184.639 274.629L182.97 276.066L182.067 276.46L181.349 277.363L181.071 278.522L181.395 279.588L182.739 281.881L183.503 282.739L184.708 283.109L187.095 282.6L191.381 279.958L193.42 279.356L194.393 278.939L195.297 277.873L195.714 276.599L195.343 275.417L194.393 274.282L194.231 273.703L195.922 272.359L196.571 272.822L197.289 272.938L197.915 272.66L198.262 271.895H198.656L199.56 272.498L201.946 273.61L202.943 274.259L203.684 275.209L205.654 278.244L205.839 278.892L206.14 282.298L204.611 284.731L205.793 288.879L205.306 290.848L206.951 290.338L208.063 291.52L209.198 293.026L210.496 293.767L211.863 294.092L214.759 295.575L216.149 296.084L215.802 296.409L215.385 296.548L209.824 294.717L207.09 294.416L206.418 296.548L206.974 297.359L207.878 298.1L208.781 299.073L209.152 300.533L209.685 301.205H210.936L213.415 300.741L215.825 301.274L220.598 303.058H223.123L224.05 302.386L223.726 301.483L222.776 300.672L221.756 300.324L221.108 299.884L220.32 298.888L219.439 297.984L224.583 301.645L227.711 303.128L228.128 303.221L228.174 306.256L226.552 312.697L226.413 313.74L226.39 317.516L225.371 322.081L225.788 329.078L224.954 336.168L225 339.875L226.159 342.47L229.958 346.223L231.256 348.633L231.464 351.46L230.468 353.545L228.615 355.306L224.676 357.97L209.847 365.083ZM195.552 254.657L197.243 256.696L199.05 258.364L200.139 259.059L201.298 259.592L202.271 260.218L202.943 261.168L199.189 264.643L198.239 265.083L197.892 265.385L197.637 265.964L197.081 268.188H196.71L196.895 266.381L197.081 265.802L196.2 266.103L195.482 268.258L194.463 269.81L193.513 270.876L193.165 272.104L192.215 271.131V269.949L192.563 268.837L191.543 267.261L190.593 266.798L189.69 265.987L188.717 265.686L187.651 266.752L187.187 267.771L186.122 268.003L184.824 266.96L184.453 265.941L184.106 264.064L184.152 262.257L185.241 260.334L184.546 257.553L184.569 255.445L186.678 254.657L191.265 255.653L193.744 255.816L195.552 254.657Z" fill="url(#paint21_linear_86_1436)"/>
<path d="M128.22 295.783L131.51 299.259L132.576 300.185L133.781 300.602L134.777 300.857L135.31 300.88L135.82 300.834L136.237 300.857L136.839 300.996L137.952 301.367L138.438 301.691L138.716 301.969L138.809 302.456V307.576L138.739 308.063L138.577 308.55L137.789 310.426L137.511 311.399L137.558 312.071L137.789 312.465L138.322 313.044L140.616 314.805L141.983 316.288L142.215 316.775V317.146L141.983 317.285L141.473 317.493L140.755 317.678L140.292 317.956L140.13 318.165L139.921 318.628L139.875 318.906L139.944 320.134L140.176 322.312L140.338 322.799L140.755 323.494L141.056 324.073L141.126 324.444L141.103 324.768L140.987 325.023L140.338 326.089L138.925 327.78L138.647 328.313L138.485 329.727L138.392 332.461L138.438 333.04L138.508 333.272L140.778 337.303L141.08 338.091L140.94 338.346L140.732 338.485L140.199 338.508L139.921 338.438L139.295 338.183L137.882 337.373L131.765 332.437L129.981 330.167L129.24 329.541L128.776 329.263L127.734 328.892L126.877 328.684L126.181 328.638L124.351 328.8L122.845 329.124L121.478 329.611L120.296 330.329L118.003 332.298L117.4 332.669L115.964 333.318L49.5596 347.057L48.517 347.382L48.4243 347.289L47.7755 345.065L47.2195 338.137L46.4549 328.661L45.6903 326.506L39.9442 317.516L34.592 309.106L33.3409 308.341L32.1592 308.596L30.9544 308.503L29.7959 308.156L28.707 307.576L22.428 303.035L20.3659 302.317L17.6551 302.062L15.5698 301.437L14.1101 299.838L13.2528 296.664L13.1602 287.674L14.1101 287.095L25.0462 281.673L59.9164 253.429L62.998 249.583L67.5624 241.358L77.2936 240.454L79.3094 239.574L79.7959 239.481H80.213L82.3909 240.06L85.9359 240.431L86.3066 240.408L86.6773 240.222L87.048 239.759L87.2102 239.226L87.2334 237.72L87.3029 237.21L87.4651 236.701L87.6273 236.446L88.0443 235.959L89.3186 235.334L91.5429 234.476L92.0526 234.361L93.0489 234.708L93.9294 234.778L101.46 233.573L101.807 234.731L102.363 235.612L103.336 236.654L103.637 236.932L106.232 238.508L106.487 238.809L106.557 239.087L106.279 239.574L105.282 240.57L103.151 242.122L102.108 243.049L101.714 243.513L101.46 243.976L101.32 244.439L100.973 247.22L101.042 250.139L101.506 253.174L102.201 255.723L103.105 258.179L104.611 261.423L107.576 266.636L107.762 266.867L108.225 267.238L110.727 268.281L111.307 268.605L111.793 268.999L112.025 269.254L112.372 269.787L113.137 271.247L113.554 271.71L114.064 272.034L114.597 272.127L115.361 271.965L115.848 272.011L116.149 272.173L118.837 275.023L119.323 275.741L119.532 276.158L119.601 276.529L119.462 277.317L118.953 278.568L117.609 280.677L117.4 281.418L117.377 282.02L117.493 282.437L117.678 282.785L122.15 286.932L122.915 287.998L125.162 292.285L125.95 293.327L128.22 295.783Z" fill="url(#paint22_linear_86_1436)"/>
<path d="M209.847 365.083L192.354 373.494L190.802 375.139L188.531 380.468L186.677 382.322L184.615 383.596L182.715 385.148L181.603 385.496L180.584 385.079L179.564 384.5L178.499 384.337L177.224 385.704L176.738 391.057L175.996 393.281L173.61 395.505L172.66 397.822L171.988 398.818L171.154 399.676L170.227 400.417L167.122 401.645L160.774 401.552L157.854 403.916L154.031 410.681L150.417 414.759L149.537 416.288L148.934 420.621L149.027 421.756L153.267 433.109L154.981 440.083L156.765 443.86L156.858 445.088L156.534 447.637L156.789 449.977L158.202 454.611L158.179 456.812L157.298 459.476L153.8 466.752L148.633 472.66L142.655 482.345L135.635 491.497L134.175 492.331L130.051 492.609L128.383 493.049L115.709 499.768L114.11 492.539L110.913 478.105L107.692 463.601L106.094 456.348L102.873 441.798L101.274 434.523L99.6756 427.224L98.0537 419.926L94.8563 405.306L93.2344 397.984L91.6357 390.663L90.037 383.318L88.8554 377.827L88.2066 376.552L87.4189 375.602L77.8961 368.698L66.0565 360.102L56.9972 353.522L50.0695 349.073L48.5171 347.382L49.5597 347.057L115.964 333.318L117.4 332.669L118.003 332.298L120.297 330.329L121.478 329.611L122.845 329.124L124.351 328.8L126.182 328.638L126.877 328.684L127.734 328.892L128.777 329.263L129.24 329.541L129.981 330.167L131.765 332.437L137.882 337.373L139.296 338.183L139.921 338.438L140.199 338.508L140.732 338.485L140.941 338.346L141.08 338.091L140.778 337.303L138.508 333.272L138.438 333.04L138.392 332.461L138.485 329.727L138.647 328.313L138.925 327.78L140.338 326.089L140.987 325.023L141.103 324.768L141.126 324.444L141.056 324.073L140.755 323.494L140.338 322.799L140.176 322.312L139.944 320.134L139.875 318.906L139.921 318.628L140.13 318.165L140.292 317.956L140.755 317.678L141.474 317.493L141.983 317.285L142.215 317.146V316.775L141.983 316.288L140.616 314.805L138.322 313.044L137.79 312.465L137.558 312.071L137.512 311.399L137.79 310.426L142.678 310.31L143.906 310.125L145.32 309.731L147.243 308.92L147.66 308.55L148.841 306.858L149.537 306.233L150.232 305.723L150.626 305.538L150.973 305.422L152.016 305.491L154.912 306.07H155.607L156.001 305.931L156.256 305.746L156.65 305.213L157.159 304.889L161.029 303.221L161.77 302.711L171.71 298.285L172.173 298.146L172.683 298.1L174.652 298.378L179.031 297.845L179.588 297.915L179.75 298.146V298.61L179.194 299.537L179.031 300.255L178.892 300.463L177.757 300.88L177.502 301.297L177.618 301.784L178.012 302.271L178.568 302.711L179.101 303.012L180.097 303.313L182.715 303.638L183.943 303.916L199.606 311.307L200.185 311.77L200.533 312.326L201.274 315.5L201.436 315.848L201.784 316.404L202.201 316.914L204.611 319.115L205.329 319.601L206.024 319.972L206.696 320.482L206.974 320.968L207.136 321.664V322.127L206.951 323.285L206.65 324.374L205.908 326.344L205.816 326.83L205.746 327.386L205.978 333.179L205.908 334.013L205.375 336.121L205.329 336.654L205.422 336.909L205.607 337.164L220.505 349.537L221.015 349.838L221.432 350L221.849 350.046L223.471 349.745L223.934 349.768L224.189 349.93L224.305 350.209L224.096 350.765L223.726 351.274L223.216 351.761L221.177 353.267L220.297 353.707L217.609 354.703L216.497 355.375L215.477 356.14L214.481 357.044L213.531 358.156L209.847 365.083Z" fill="url(#paint23_linear_86_1436)"/>
<path d="M149.372 56.1743C149.372 61.2345 145.252 65.3487 140.186 65.3487C135.119 65.3487 131 61.2345 131 56.1743C131 51.1142 135.119 47 140.186 47C145.252 47 149.372 51.1142 149.372 56.1743Z" fill="#F2F2F2"/>
</g>
<defs>
<linearGradient id="paint0_linear_86_1436" x1="135.079" y1="0.231689" x2="135.079" y2="30.468" gradientUnits="userSpaceOnUse">
<stop stop-color="#7A96CC"/>
<stop offset="1" stop-color="#3C5B8C"/>
</linearGradient>
<linearGradient id="paint1_linear_86_1436" x1="33.8969" y1="210.82" x2="33.8969" y2="287.674" gradientUnits="userSpaceOnUse">
<stop stop-color="#7A96CC"/>
<stop offset="1" stop-color="#3C5B8C"/>
</linearGradient>
<linearGradient id="paint2_linear_86_1436" x1="139.805" y1="29.7035" x2="139.805" y2="69.2308" gradientUnits="userSpaceOnUse">
<stop stop-color="#7A96CC"/>
<stop offset="1" stop-color="#3C5B8C"/>
</linearGradient>
<linearGradient id="paint3_linear_86_1436" x1="107.576" y1="27.0159" x2="107.576" y2="84.407" gradientUnits="userSpaceOnUse">
<stop stop-color="#7A96CC"/>
<stop offset="1" stop-color="#3C5B8C"/>
</linearGradient>
<linearGradient id="paint4_linear_86_1436" x1="153.892" y1="51.8768" x2="153.892" y2="78.1743" gradientUnits="userSpaceOnUse">
<stop stop-color="#7A96CC"/>
<stop offset="1" stop-color="#3C5B8C"/>
</linearGradient>
<linearGradient id="paint5_linear_86_1436" x1="124.409" y1="14.3188" x2="124.409" y2="58.3411" gradientUnits="userSpaceOnUse">
<stop stop-color="#7A96CC"/>
<stop offset="1" stop-color="#3C5B8C"/>
</linearGradient>
<linearGradient id="paint6_linear_86_1436" x1="64.8284" y1="37.5116" x2="64.8284" y2="84.5227" gradientUnits="userSpaceOnUse">
<stop stop-color="#7A96CC"/>
<stop offset="1" stop-color="#3C5B8C"/>
</linearGradient>
<linearGradient id="paint7_linear_86_1436" x1="184.673" y1="32.646" x2="184.673" y2="84.7313" gradientUnits="userSpaceOnUse">
<stop stop-color="#7A96CC"/>
<stop offset="1" stop-color="#3C5B8C"/>
</linearGradient>
<linearGradient id="paint8_linear_86_1436" x1="152.653" y1="46.5247" x2="152.653" y2="61.1215" gradientUnits="userSpaceOnUse">
<stop stop-color="#7A96CC"/>
<stop offset="1" stop-color="#3C5B8C"/>
</linearGradient>
<linearGradient id="paint9_linear_86_1436" x1="69.0799" y1="78.5449" x2="69.0799" y2="135.727" gradientUnits="userSpaceOnUse">
<stop stop-color="#7A96CC"/>
<stop offset="1" stop-color="#3C5B8C"/>
</linearGradient>
<linearGradient id="paint10_linear_86_1436" x1="74.2819" y1="124.351" x2="74.2819" y2="203.869" gradientUnits="userSpaceOnUse">
<stop stop-color="#7A96CC"/>
<stop offset="1" stop-color="#3C5B8C"/>
</linearGradient>
<linearGradient id="paint11_linear_86_1436" x1="134.975" y1="227.549" x2="134.975" y2="296.038" gradientUnits="userSpaceOnUse">
<stop stop-color="#7A96CC"/>
<stop offset="1" stop-color="#3C5B8C"/>
</linearGradient>
<linearGradient id="paint12_linear_86_1436" x1="74.6991" y1="196.061" x2="74.6991" y2="241.358" gradientUnits="userSpaceOnUse">
<stop stop-color="#7A96CC"/>
<stop offset="1" stop-color="#3C5B8C"/>
</linearGradient>
<linearGradient id="paint13_linear_86_1436" x1="110.82" y1="144.648" x2="110.82" y2="231.348" gradientUnits="userSpaceOnUse">
<stop stop-color="#7A96CC"/>
<stop offset="1" stop-color="#3C5B8C"/>
</linearGradient>
<linearGradient id="paint14_linear_86_1436" x1="171.733" y1="160.009" x2="171.733" y2="236.956" gradientUnits="userSpaceOnUse">
<stop stop-color="#7A96CC"/>
<stop offset="1" stop-color="#3C5B8C"/>
</linearGradient>
<linearGradient id="paint15_linear_86_1436" x1="105.399" y1="77.4097" x2="105.399" y2="145.528" gradientUnits="userSpaceOnUse">
<stop stop-color="#7A96CC"/>
<stop offset="1" stop-color="#3C5B8C"/>
</linearGradient>
<linearGradient id="paint16_linear_86_1436" x1="180.7" y1="138.879" x2="180.7" y2="172.428" gradientUnits="userSpaceOnUse">
<stop stop-color="#7A96CC"/>
<stop offset="1" stop-color="#3C5B8C"/>
</linearGradient>
<linearGradient id="paint17_linear_86_1436" x1="186.353" y1="124.004" x2="186.353" y2="147.104" gradientUnits="userSpaceOnUse">
<stop stop-color="#7A96CC"/>
<stop offset="1" stop-color="#3C5B8C"/>
</linearGradient>
<linearGradient id="paint18_linear_86_1436" x1="130.966" y1="99.9768" x2="130.966" y2="177.896" gradientUnits="userSpaceOnUse">
<stop stop-color="#7A96CC"/>
<stop offset="1" stop-color="#3C5B8C"/>
</linearGradient>
<linearGradient id="paint19_linear_86_1436" x1="166.995" y1="83.0168" x2="166.995" y2="149.907" gradientUnits="userSpaceOnUse">
<stop stop-color="#7A96CC"/>
<stop offset="1" stop-color="#3C5B8C"/>
</linearGradient>
<linearGradient id="paint20_linear_86_1436" x1="141.172" y1="63.5311" x2="141.172" y2="108.666" gradientUnits="userSpaceOnUse">
<stop stop-color="#7A96CC"/>
<stop offset="1" stop-color="#3C5B8C"/>
</linearGradient>
<linearGradient id="paint21_linear_86_1436" x1="179.843" y1="254.657" x2="179.843" y2="365.083" gradientUnits="userSpaceOnUse">
<stop stop-color="#7A96CC"/>
<stop offset="1" stop-color="#3C5B8C"/>
</linearGradient>
<linearGradient id="paint22_linear_86_1436" x1="77.6875" y1="233.573" x2="77.6875" y2="347.382" gradientUnits="userSpaceOnUse">
<stop stop-color="#7A96CC"/>
<stop offset="1" stop-color="#3C5B8C"/>
</linearGradient>
<linearGradient id="paint23_linear_86_1436" x1="136.411" y1="297.845" x2="136.411" y2="499.768" gradientUnits="userSpaceOnUse">
<stop stop-color="#7A96CC"/>
<stop offset="1" stop-color="#3C5B8C"/>
</linearGradient>
<clipPath id="clip0_86_1436">
<rect width="231.696" height="500" fill="white"/>
</clipPath>
</defs>
</svg>
