<svg width="86" height="95" viewBox="0 0 86 95" fill="none" xmlns="http://www.w3.org/2000/svg">
<path d="M84.9022 34.2079C84.8829 34.0142 84.8655 34.0936 84.7067 33.9735C84.5519 33.8573 84.6099 33.9948 84.4144 34.0316C84.2189 34.0684 84.3157 34.111 84.0253 34.2853C84.0253 34.2853 83.7117 34.4829 83.5549 34.5023C83.4 34.5197 83.3226 34.5759 83.1271 34.5759C82.9315 34.5759 82.8541 34.6553 82.7167 34.6185C82.5792 34.5759 82.2695 34.7928 82.2695 34.7928L82.0139 34.9071C82.0139 34.9071 81.8397 34.9865 81.741 34.9497C81.6423 34.909 81.0208 35.0059 80.9395 34.9884C80.8621 34.9691 80.5524 35.0465 80.5524 35.0465L80.3743 35.1047L80.0626 35.126L79.7703 35.341C79.7703 35.341 79.4567 35.5346 79.3986 35.4785C79.3386 35.4184 79.1063 35.4978 79.0869 35.4378C79.0675 35.3816 78.7152 35.3623 78.7152 35.3623C78.7152 35.3623 78.4829 35.3816 78.3648 35.4184C78.2467 35.4572 78.1093 35.4998 78.1093 35.4998L77.8576 35.5753C77.8576 35.5753 77.4685 35.7923 77.3892 35.8504C77.3098 35.9085 77.0368 35.7923 77.0368 35.7923C77.0368 35.7923 76.4522 35.7341 76.4328 35.6741C76.4115 35.6179 75.9237 35.4204 75.8869 35.3429C75.8482 35.2674 75.5714 35.0892 75.5346 35.031C75.4978 34.971 75.3797 34.6766 75.3797 34.6766L75.2849 34.5681L75.1648 34.4248C75.1648 34.4248 74.8319 34.3899 74.6944 34.4248C74.557 34.4655 74.5202 34.3686 74.5396 34.2505C74.557 34.1343 74.8125 34.2505 74.8125 34.2505C74.8125 34.2505 75.2636 34.0723 75.3216 34.018C75.3817 33.9599 75.341 33.7643 75.3991 33.7081C75.4591 33.6442 75.3023 33.4525 75.2423 33.3343C75.1842 33.2181 75.07 33.2181 75.07 33.2181C75.07 33.2181 74.8338 33.1794 74.739 33.0418C74.6422 32.9024 74.5028 32.9024 74.4253 32.7881C74.3479 32.67 74.2511 32.6119 74.193 32.4956C74.133 32.3794 74.0556 32.2632 74.0362 32.087C74.0169 31.9107 73.7033 31.7732 73.7033 31.7732L73.0025 31.0894C73.0025 31.0894 72.5321 30.8338 72.4353 30.6788C72.3385 30.5239 72.2204 30.4658 72.2204 30.4658C72.2204 30.4658 71.9881 30.427 71.9494 30.367C71.9068 30.3089 71.6358 30.1907 71.6358 30.1907L71.4383 30.1132C71.4383 30.1132 71.2834 30.0919 71.2447 29.9951C71.206 29.8963 71.1266 29.7414 71.1266 29.6639C71.1266 29.5864 70.7782 29.4121 70.7782 29.4121L70.7569 29.3714C70.7375 29.3327 70.4646 29.2939 70.4065 29.2726C70.3484 29.2552 70.2323 28.8446 70.1935 28.7671C70.1529 28.6896 69.7425 27.4965 69.7231 27.2641C69.7057 27.0297 69.6457 26.8747 69.5683 26.621C69.5024 26.4021 69.3785 26.3556 69.3321 26.2995C69.3243 26.2898 69.3185 26.2801 69.3166 26.2704C69.2972 26.1929 69.0417 26.0729 69.0223 26.0148C69.003 25.9586 68.4571 25.6061 68.3758 25.4511C68.3003 25.2962 68.0467 25.1373 67.9886 25.1005C67.9286 25.0599 67.7911 24.963 67.7737 24.8642C67.7543 24.7674 67.6769 24.4342 67.6769 24.2987C67.6769 24.1631 67.5956 23.9093 67.5956 23.7524C67.5956 23.5956 67.4601 23.1849 67.4814 23.03C67.4988 22.877 67.6769 22.5632 67.6769 22.5632C67.6769 22.5632 67.2646 21.585 67.2646 21.5076C67.2646 21.4301 67.1678 21.3313 67.0729 21.1163C66.9761 20.9033 66.8987 20.8413 66.8774 20.7444C66.858 20.6476 66.6238 20.6301 66.5444 20.5701C66.467 20.512 66.4283 20.3338 66.3876 20.1982C66.3508 20.0626 66.1534 20.082 66.0953 19.9852C66.0372 19.8844 65.8204 19.9057 65.7256 19.8089C65.7101 19.7934 65.6965 19.776 65.681 19.7547C65.6094 19.6636 65.561 19.5532 65.53 19.4564C65.4913 19.3402 65.4526 19.1252 65.4526 19.0283C65.4526 18.9315 65.6636 18.7746 65.6636 18.7746C65.6636 18.7746 65.6636 18.5577 65.6462 18.5015C65.6268 18.4453 65.6268 18.426 65.6268 18.3272C65.6268 18.2284 65.3152 17.9766 65.3152 17.9766C65.3152 17.9766 65.1371 17.7597 65.1371 17.6434C65.1371 17.5272 64.7867 17.3122 64.7867 17.1941C64.7867 17.0759 64.535 16.8435 64.4943 16.7641C64.4537 16.6866 64.3201 16.4522 64.3201 16.3941C64.3201 16.336 63.7936 15.1661 63.7548 14.9899C63.7142 14.8136 63.6968 14.833 63.6561 14.7342C63.6193 14.6354 63.5013 14.5366 63.5013 14.4417C63.5013 14.3468 63.3638 14.2461 63.3251 14.1667C63.2864 14.0892 63.1876 13.9536 63.1315 13.8161C63.0715 13.6767 63.0521 13.698 63.0521 13.6399C63.0521 13.5817 62.9941 13.4055 62.9553 13.2505C62.9147 13.0936 62.723 12.8205 62.6824 12.7043C62.6456 12.5862 62.5275 12.5494 62.4675 12.47C62.4114 12.3925 62.0977 12.1581 62.0977 12.1581L61.9409 11.5344C61.9409 11.5344 61.8635 10.812 61.9022 10.8894C61.9409 10.9669 61.9409 11.2207 61.9409 11.2207C61.9409 11.2207 62.2158 11.5519 62.2739 11.5906C62.332 11.6313 62.4481 11.825 62.5294 11.7862C62.6069 11.7475 62.5875 12.0206 62.6475 12.0206C62.7075 12.0206 62.8605 12.5087 62.9186 12.5881C62.9766 12.6656 63.0153 12.8031 63.0153 12.8031C63.0153 12.8031 63.2709 13.0956 63.329 13.1363C63.3328 13.1382 63.3406 13.1498 63.3464 13.1556C63.5012 11.9334 63.418 10.6318 62.7482 9.57235C62.5875 9.31862 62.6049 9.0765 62.7056 8.87507C62.481 8.87894 62.2642 8.88669 62.1384 8.90218C61.8074 8.94092 61.8287 8.91768 61.7493 8.80534C61.6699 8.68525 61.517 8.74917 61.4376 8.59034C61.3563 8.43539 61.2227 8.53417 61.1627 8.47219C61.1046 8.41602 60.793 8.39278 60.7736 8.33467C60.7543 8.2785 59.7399 8.31724 59.465 8.39278C59.192 8.47219 59.2694 8.51287 59.2694 8.51287C59.2694 8.51287 58.861 8.7666 58.6267 8.94092C58.3925 9.11718 58.2163 9.23339 58.0595 9.25276C57.9047 9.27407 57.9047 9.31087 57.8466 9.25276C57.7866 9.19466 57.6704 9.23339 57.5523 9.13461C57.4362 9.03777 57.32 9.0765 57.1226 9.0184C56.9309 8.96029 56.7335 8.97966 56.656 8.94092C56.5747 8.90218 56.3463 8.86151 56.265 8.84214C56.1856 8.82277 55.8546 8.80534 55.8546 8.80534C55.8546 8.80534 54.8402 8.45282 54.7821 8.41602C54.724 8.37534 53.9226 8.28044 53.9226 8.28044C53.9226 8.28044 53.5915 8.31724 53.5335 8.28044C53.4754 8.23976 53.2799 8.33661 53.0069 8.16035C52.9624 8.13517 52.9217 8.10611 52.8753 8.07512C52.8017 8.02476 52.7223 7.95891 52.6372 7.85044C52.4997 7.67612 52.5965 7.77297 52.5404 7.67612C52.4804 7.57928 52.4223 7.61608 52.2481 7.57928C52.0719 7.5386 51.8957 7.61608 51.7989 7.63545C51.7002 7.65482 51.4098 7.63545 51.4098 7.63545C51.4098 7.63545 50.5522 7.51923 50.4554 7.44369C50.3567 7.36041 50.2986 7.44369 50.2793 7.3236C50.2599 7.20933 50.0644 7.18996 50.047 7.0505C50.0276 6.91492 49.8902 6.89361 49.7527 6.75803C49.6172 6.62051 49.5204 6.73866 49.4604 6.68055C49.4043 6.62051 49.2262 6.69798 49.0713 6.56434C48.9164 6.42488 48.8584 6.48299 48.779 6.44812C48.6996 6.40745 48.2911 6.54497 48.0395 6.58371C47.784 6.62051 47.902 6.65925 47.842 6.73672C47.784 6.81614 47.3755 7.00983 47.2574 6.95366C47.1393 6.89167 47.0019 7.12604 46.8683 7.18996C46.7308 7.24613 46.6128 7.40302 46.4792 7.51923C46.3417 7.63545 46.2643 7.94922 46.2643 7.94922C46.2643 7.94922 46.4424 8.35791 46.4598 8.41796C46.4792 8.47413 46.5779 8.82664 46.5973 8.88475C46.6147 8.94286 46.3224 9.51037 46.3224 9.51037L45.8152 9.7428C45.8152 9.7428 45.4841 9.89969 45.368 9.91906C45.2499 9.93843 45.097 9.93843 45.035 9.99654C44.975 10.0546 44.7427 9.7428 44.6246 9.64596C44.5085 9.54717 44.3323 9.45033 44.2355 9.37285C44.1387 9.29344 43.9819 9.33411 43.8464 9.17722C43.709 9.02033 43.3973 9.0397 43.3392 8.98353C43.2792 8.92155 42.9869 8.90412 42.9869 8.90412C42.9869 8.90412 42.1293 8.74917 42.1099 8.66975C42.0906 8.59034 41.777 8.74917 41.5814 8.74917C41.3859 8.74917 41.4072 8.7666 41.3685 8.63102C41.3298 8.4935 41.1168 8.57291 40.9774 8.53417C40.84 8.4935 40.9407 8.33661 40.9174 8.14292C40.9 7.94729 40.7045 7.83107 40.6077 7.61414C40.5109 7.40108 40.5303 7.37977 40.4915 7.3023C40.4528 7.22482 40.3735 7.1241 40.2767 7.08924C40.1799 7.04856 39.9263 7.14735 39.8062 7.12604C39.6901 7.10667 39.0087 6.61857 39.0087 6.61857L38.2285 6.46362C38.2285 6.46362 37.5064 6.61857 37.4464 6.54303C37.3903 6.46362 37.1735 6.58371 37.0205 6.58371C36.8676 6.58371 36.7863 6.52366 36.7863 6.52366C36.7863 6.52366 36.5908 6.42682 36.492 6.31254C36.3953 6.19439 36.2752 6.21182 36.1591 6.15565C36.0816 6.11497 35.9674 6.06074 35.8629 5.99876C35.8048 5.96777 35.7525 5.93291 35.7119 5.89804C35.5957 5.8012 35.4777 5.68498 35.4157 5.60557C35.3596 5.52809 35.2802 5.33247 35.2028 5.25499C35.1253 5.17751 34.8698 5.23368 34.8698 5.23368C34.8698 5.23368 34.7749 5.43125 34.6588 5.38864C34.5426 5.35183 34.4439 5.33247 34.3258 5.17558C34.2097 5.01869 34.1303 5.03806 34.0529 4.88504C33.9754 4.72621 34.0896 4.80563 34.1884 4.70684C34.2852 4.60806 34.3452 4.53059 34.382 4.43568C34.4226 4.33689 34.6975 4.27879 34.7343 4.21874C34.7749 4.16257 34.9685 4.06379 35.0866 3.94758C35.2008 3.83136 35.2608 3.65317 35.3208 3.53695C35.3789 3.42074 35.3576 3.40137 35.3576 3.26385V2.97138C35.3576 2.91133 34.9685 2.32832 34.8698 2.22954C34.7711 2.1327 34.6549 2.05522 34.6549 1.9177C34.6549 1.78018 34.7323 1.79955 34.7924 1.66396C34.8485 1.52644 34.9279 1.50708 35.0034 1.33275C35.0847 1.15456 35.2376 1.09645 35.2996 0.784609C35.2996 0.784609 35.1215 0.647089 35.0614 0.668395C35.0034 0.687764 34.6936 1.02091 34.4594 1.05771C34.2251 1.09645 34.4594 1.05771 34.44 0.920193C34.4207 0.784609 34.38 0.590918 34.3626 0.453398C34.3432 0.313941 34.1264 0.356553 33.9503 0.197726C33.776 0.0408371 33.7179 0.197726 33.6599 0.158988C33.5999 0.122187 33.3288 0.335247 33.2669 0.356553C33.2108 0.373985 33.0346 0.511505 33.0346 0.511505C33.0346 0.511505 32.2699 0.794294 31.995 0.854338C31.9466 0.864022 31.9137 0.867896 31.9021 0.860148C31.8266 0.82141 31.5691 0.976363 31.4723 0.898887C31.3756 0.82141 31.2362 0.918256 31.1026 0.685827C30.9671 0.453398 30.8703 0.703259 30.8296 0.645152C30.789 0.588982 30.6709 0.741997 30.6148 0.685827C30.5547 0.629657 30.2644 0.802041 30.185 0.741997C30.1076 0.685827 30.0108 0.763303 29.9527 0.685827C29.8927 0.610288 29.6217 0.588982 29.5403 0.588982C29.459 0.588982 29.308 0.703259 29.2306 0.722628C29.1512 0.74006 28.9557 0.935688 28.9557 0.935688C28.9557 0.935688 28.4485 1.2882 28.1756 1.24947C28.1136 1.24172 27.9239 1.07321 27.9239 1.07321L27.7671 0.879517L26.6927 0.780735C26.6927 0.780735 26.2281 0.879517 26.1681 0.840779C26.11 0.800104 25.7983 0.858212 25.5815 0.879517C25.3686 0.89695 25.4673 0.955057 25.3879 0.916319C25.3105 0.879517 25.1169 1.09258 24.9795 1.11388C24.842 1.13325 24.4703 1.32888 24.3755 1.32888C24.2806 1.32888 23.3785 1.42573 23.1055 1.38505C22.8326 1.34825 22.7164 1.60198 22.6177 1.58261C22.519 1.56325 22.4415 1.75694 22.3447 1.81504C22.2441 1.87315 22.1086 1.9913 22.0118 2.0281C21.915 2.06878 21.6014 2.34188 21.5046 2.32251C21.4078 2.30508 21.4271 2.16562 21.4271 2.16562C21.4271 2.16562 20.4902 2.49877 20.4321 2.47747C20.374 2.4581 20.2579 2.65372 20.1766 2.6944C20.0991 2.73314 19.9617 2.86872 19.9036 2.92683C19.8455 2.98687 19.65 3.22317 19.65 3.22317L19.3596 3.4556C19.3596 3.4556 19.1622 3.55051 19.1022 3.51177C19.0441 3.47304 18.9086 3.55245 18.7518 3.49434C18.5969 3.4343 18.5562 3.55245 18.5175 3.41686C18.4807 3.27934 18.3452 3.33745 18.3046 3.25998C18.2659 3.18056 17.9736 3.37619 17.8961 3.25998C17.8187 3.14182 17.8555 3.18056 17.7393 3.04692C17.6251 2.90746 17.5244 3.08565 17.4257 3.06435C17.3289 3.04692 17.1334 3.12439 17.1334 3.12439L16.9185 3.22511C16.9185 3.22511 16.4887 3.29871 16.3919 3.29871C16.2952 3.29871 15.9854 3.22511 15.9854 3.14376C15.9854 3.06628 15.515 3.1825 15.4763 3.02948C15.4356 2.87066 14.8316 2.81255 14.8316 2.67309C14.8316 2.53364 14.6768 2.55882 14.6574 2.44066C14.6381 2.32445 14.4019 2.32445 14.4019 2.26634C14.4019 2.20824 14.2838 2.38256 14.2257 2.42323C14.1657 2.46003 14.0902 2.59755 13.9915 2.77381C13.8966 2.95007 13.9741 2.95007 13.9315 3.08759C13.8966 3.22705 13.6004 3.81006 13.6004 3.81006C13.6004 3.81006 13.523 3.98438 13.4823 4.06379C13.4456 4.14127 13.3681 4.31559 13.3468 4.37563C13.3275 4.43374 13.2287 4.6468 13.1726 4.66617C13.1126 4.68941 12.9384 4.97995 12.8571 4.94121C12.7796 4.90053 12.5647 5.23368 12.5647 5.23368L11.9801 5.45062C11.9801 5.45062 11.5503 5.64431 11.4923 5.58814C11.4361 5.52809 11.2174 5.74115 11.1612 5.74115C11.1051 5.74115 10.9483 5.99489 10.7334 6.19245C10.5185 6.38614 10.4779 6.50236 10.3637 6.5992C10.2436 6.69992 10.1081 6.95366 10.0694 7.00983C10.0307 7.06793 9.81775 7.40108 9.7558 7.47856C9.69772 7.5541 9.71515 7.7904 9.71515 7.7904C9.71515 7.7904 9.40541 9.27407 9.38411 9.40965C9.36475 9.54524 9.38411 9.74086 9.46155 9.74086C9.53898 9.74086 9.48478 10.1321 9.5022 10.229C9.51962 10.3258 9.46155 10.382 9.40541 10.4633C9.34927 10.5427 9.20795 10.7965 9.14987 10.8526C9.0918 10.9127 8.95629 11.1471 8.87885 11.2052C8.80142 11.2633 8.76076 11.3621 8.62332 11.5151C8.48781 11.6739 8.36972 11.6526 8.23421 11.7126C8.0987 11.7707 8.05998 11.9063 8.05998 11.9063L7.90318 12.1407C7.90318 12.1407 7.74637 12.3363 7.64958 12.3964C7.55085 12.4564 7.4134 12.592 7.27983 12.6869C7.14238 12.7857 6.90814 12.9019 6.83071 12.8825C6.75327 12.867 5.56465 13.3338 5.46592 13.3532C5.36913 13.3706 5.15425 13.6825 5.05552 13.8006H10.7005L10.7276 13.6127L10.8379 13.8219V13.8258L10.7315 13.6224L10.7044 13.8122H5.06326C4.96453 13.9285 4.88516 14.4553 4.88516 14.4553L4.68964 14.7865C4.68964 14.7865 4.31989 15.1371 4.25988 15.1584C4.2018 15.1778 3.84947 15.4121 3.84947 15.4121C3.84947 15.4121 3.5378 15.7433 3.46036 15.7646C3.38293 15.784 3.36163 16.214 3.36163 16.214C3.36163 16.214 3.24355 16.6227 3.20677 16.6808C3.16611 16.7389 2.97253 17.2076 2.97253 17.2076C2.97253 17.2076 2.65892 17.5795 2.62213 17.6396C2.58148 17.6977 2.38596 17.934 2.32982 17.9921C2.26981 18.0483 2.1343 18.1858 2.0375 18.2633C1.94071 18.3407 1.86134 18.5751 1.80326 18.6739C1.74325 18.7707 1.76261 18.8482 1.72583 19.0245C1.68324 19.2007 1.64646 19.4138 1.58838 19.5339C1.52837 19.6481 1.27477 20.3106 1.06183 20.4888C0.846945 20.665 0.730793 20.8006 0.668845 20.9168C0.612705 21.033 0.513976 21.1705 0.513976 21.2693C0.513976 21.3468 0.426862 21.6451 0.33394 21.924H0.324261C0.302966 21.9918 0.2778 22.0557 0.258441 22.1158C0.138418 22.4315 0.219724 22.6232 0.2778 22.6426C0.335876 22.662 0.355235 22.6833 0.550757 22.5438C0.74628 22.4082 0.999878 23.0513 1.07731 23.0513C1.15475 23.0513 1.46836 23.8706 1.48578 23.9287C1.50514 23.9907 1.34833 24.2037 1.21282 24.3006C1.07538 24.3974 1.11216 24.6124 1.11216 24.6124C1.11216 24.6124 1.21282 24.8468 1.29026 24.9049C1.36769 24.963 1.4277 25.1974 1.4277 25.1974L1.56322 25.7242C1.56322 25.7242 1.72002 26.3285 1.72002 26.3886C1.72002 26.4486 1.52643 26.7566 1.52643 26.7566C1.52643 26.7566 1.23412 27.0684 1.21282 27.4791C1.19346 27.8877 1.19346 28.0446 1.13539 28.0853C1.11216 28.0989 1.08893 28.1589 1.06957 28.2248C1.0386 28.3235 1.01924 28.4359 1.01924 28.4359C1.01924 28.4359 0.941802 29.0015 0.804356 29.0983C0.666909 29.1971 0.74628 29.4121 0.707562 29.4702C0.666909 29.5283 0.355235 29.8595 0.219724 29.9564C0.0822776 30.0571 0.0435603 30.3089 0.122931 30.3263C0.200365 30.3495 0.279736 30.6788 0.355235 30.7389C0.432669 30.7989 0.432669 31.0507 0.550757 31.0313C0.666909 31.01 0.943738 31.44 0.943738 31.44C0.943738 31.44 0.924379 31.9107 0.980519 31.8913C1.04053 31.8739 0.924379 31.9707 0.82565 32.087C0.728857 32.2032 0.707562 32.3 0.666909 32.4201C0.630128 32.5363 0.726921 32.6932 0.726921 32.6932L0.763702 33.1213C0.763702 33.1213 0.726921 33.2975 0.763702 33.3363C0.777253 33.3498 0.79274 33.3789 0.812099 33.4176C0.854688 33.499 0.901149 33.6113 0.901149 33.6113C0.901149 33.6113 1.09667 33.6907 1.17411 33.6907C1.25154 33.6907 1.19346 33.865 1.25348 33.9444C1.31155 34.0219 1.46836 34.0994 1.54386 34.0607C1.62323 34.0219 1.70066 34.0994 1.79745 34.0026C1.89618 33.9038 2.10913 34.0607 2.20786 34.0413C2.30465 34.0239 2.50017 34.2369 2.50017 34.2369V34.8432C2.50017 34.8993 2.59697 35.0369 2.65504 35.0175C2.70344 35.002 2.79443 35.1608 2.94736 35.3022C2.97833 35.3332 3.00931 35.3623 3.04802 35.3894C3.04802 35.3894 3.16418 35.6625 3.26291 35.74C3.3597 35.8155 3.49521 36.0324 3.59587 36.0905C3.6946 36.1506 3.89013 36.2455 3.89013 36.2455C3.89013 36.2455 4.37409 36.6949 4.84451 37.3766C5.00519 37.611 5.06713 37.7253 5.08649 37.7795C5.0923 37.7911 5.09617 37.8028 5.09617 37.8105C5.19103 37.8861 5.32267 38.1107 5.39042 38.1785C5.46979 38.2579 5.66532 38.7247 5.66532 38.8216C5.66532 38.9184 5.6266 39.1935 5.6266 39.1935L5.74275 39.4259C5.74275 39.4259 5.99635 39.4453 6.09314 39.4453C6.18993 39.4453 6.17058 39.6409 6.22865 39.6603C6.28866 39.6796 6.62163 39.8733 6.67777 39.8946C6.73585 39.914 6.85394 40.2839 7.02816 40.4021C7.05333 40.4215 7.0843 40.435 7.11334 40.4505C7.30693 40.5493 7.59731 40.6365 7.59731 40.6365C7.59731 40.6365 8.16258 40.8127 8.33875 41.0664C8.51104 41.3182 8.74528 41.5158 8.86337 41.6088C8.98145 41.7114 9.17504 41.8858 9.23312 42C9.29313 42.1182 9.58544 42.1976 9.58544 42.1976C9.58544 42.1976 9.89712 42.3932 9.91648 42.4707C9.93583 42.5501 10.1681 42.6857 10.2262 42.7225C10.2862 42.7612 10.5785 42.9975 10.6366 43.0363C10.6947 43.075 11.0857 43.1525 11.1845 43.2106C11.2793 43.2706 11.7304 43.4643 11.8272 43.4837C11.924 43.5031 12.2937 43.5438 12.2937 43.5438C12.315 43.5321 12.3324 43.5244 12.3499 43.5147C12.797 43.3016 13.0061 43.2222 13.2113 42.9975C13.4262 42.7612 13.4262 42.9375 13.5636 42.8581C13.6972 42.7826 13.9895 42.8019 14.2451 42.6237C14.4987 42.4494 14.6361 42.585 14.9865 42.4494C15.3369 42.3138 15.5344 42.4901 15.7067 42.4126C15.8848 42.3332 16.6843 42.4126 16.9766 42.3545C17.267 42.2944 17.4044 42.3545 17.5438 42.3932C17.5941 42.4087 17.6793 42.4262 17.78 42.4475C17.9368 42.4785 18.142 42.5133 18.3801 42.5501C18.7692 42.6063 18.7498 42.9569 18.8466 43.075C18.9434 43.1932 19.0615 43.0557 19.0615 43.0557C19.0615 43.0557 19.4313 42.7825 19.7236 42.6663C20.0159 42.5501 20.2133 42.4901 20.4069 42.3138C20.6025 42.1376 20.6218 42.1182 20.7205 42.0795C20.8173 42.0388 20.8754 42.1163 21.1871 42.0388C21.5007 41.9613 21.5007 42.0194 21.6556 41.9613C21.7891 41.909 21.9208 41.847 22.0408 41.7579C22.0621 41.7405 22.0853 41.7231 22.1047 41.7114C22.2402 41.5914 22.3196 41.5139 22.4938 41.5139C22.668 41.5139 22.9623 41.3764 23.1597 41.2776C23.3378 41.1904 23.3882 41.1827 23.5585 41.1381C23.574 41.1342 23.5895 41.1265 23.6069 41.1226C23.8218 41.0665 23.8799 41.0296 23.8799 41.0296C23.8799 41.0296 24.6833 40.989 24.9523 40.772C25.2272 40.559 25.2853 40.8728 25.2853 40.8728C25.2853 40.8728 25.3453 40.8611 25.4421 40.8495C25.5467 40.8379 25.6977 40.8205 25.868 40.8127C26.201 40.7933 26.4565 40.6946 26.7682 40.7933C27.0799 40.8902 27.0392 41.1439 27.2386 41.1846C27.4322 41.2233 27.4903 41.5565 27.7826 41.4945C28.0749 41.4364 28.0168 41.9051 28.1523 41.9458C28.2898 41.9845 28.133 42.3351 28.1717 42.5308C28.2104 42.7244 28.3266 42.9782 28.5414 43.077C28.7563 43.1738 28.8551 43.3888 28.9325 43.3113C29.0099 43.2358 29.9043 43.2532 30.1405 43.3307C30.3747 43.4101 30.5702 43.3675 30.7077 43.3133C30.8432 43.2532 31.1336 43.1564 31.2923 43.077C31.451 43.0014 31.8402 42.8445 32.0337 42.7845C32.2293 42.7244 32.0144 42.8813 31.9776 43.0944C31.9641 43.1583 31.9679 43.2106 31.9795 43.2629C32.0105 43.3927 32.1015 43.4895 32.1693 43.5476C32.266 43.6232 32.3841 43.8575 32.4829 43.8769C32.5797 43.8982 32.7752 43.7394 32.93 43.6832C33.0869 43.6232 33.1643 44.0338 33.2437 44.0532C33.3211 44.0725 33.4953 44.735 33.5941 44.795C33.6908 44.8531 33.5941 45.653 33.6734 45.653C33.7373 45.653 33.5089 46.0036 33.3927 46.1702C33.3695 46.1993 33.3521 46.2244 33.3424 46.238C33.2611 46.3368 33.2049 46.5285 33.2611 46.7067C33.3211 46.883 33.2804 47.0573 33.3017 47.3517C33.3211 47.6442 33.2437 47.743 33.2804 48.1342C33.3211 48.5235 32.9901 48.5642 32.8313 48.7192C32.6745 48.8741 32.6745 49.3235 32.6958 49.5772C32.7152 49.8329 32.6745 50.2222 32.7152 50.3578C32.7558 50.4934 33.0268 51.1577 33.1817 51.1577C33.3366 51.1577 33.4585 51.7252 33.5534 51.6652C33.6521 51.6052 34.3549 52.5039 34.8427 53.2263C35.0421 53.5188 35.166 53.7086 35.2589 53.8307C35.3925 54.0127 35.4525 54.0534 35.5435 54.065C35.7022 54.0863 35.9752 54.6906 36.3256 54.9638C36.341 54.9754 36.3546 54.987 36.3681 55.0005C36.674 55.2853 36.6605 55.8063 36.6605 55.9012V56.1356C36.6605 56.2867 36.6643 56.4629 36.6798 56.5462C36.6992 56.6818 36.8928 56.9917 37.0496 57.2086C37.2044 57.4236 37.3438 57.9137 37.5568 58.1441C37.7697 58.3805 37.7697 58.6923 38.004 58.9073C38.2382 59.1242 37.9304 59.3567 37.8684 59.531C37.8104 59.7072 37.5161 59.9803 37.4987 60.0578C37.4793 60.1392 37.7116 60.5847 37.9285 60.9778C38.1414 61.3672 38.2382 61.9308 38.4531 62.2271C38.668 62.5196 38.4937 62.7927 38.5131 62.8896C38.5305 62.9903 38.5692 63.2401 38.5886 63.3777C38.6099 63.5152 38.4531 63.9452 38.4531 63.9452C38.4531 63.9452 38.2576 64.2357 38.1975 64.3151C38.1414 64.3926 37.9052 64.5108 37.7329 64.6076C37.5568 64.7045 37.3806 64.9001 37.2625 65.0783C37.1444 65.2526 37.0283 65.5451 37.0864 65.6826C37.1444 65.8201 36.8753 66.1106 36.8173 66.1281C36.7573 66.1494 36.583 66.8331 36.6005 66.9881C36.6198 67.145 36.523 67.6524 36.523 67.7105C36.523 67.7686 36.3101 68.278 36.2694 68.3323C36.2307 68.3943 36.1746 68.588 36.1339 68.7642C36.0933 68.9405 35.9771 69.291 35.9771 69.291V70.1898C35.9771 70.1898 35.9713 70.2518 35.9616 70.3486C35.9326 70.7127 35.8822 71.6018 36.0352 71.8478C36.2307 72.1635 36.1513 72.2003 36.2307 72.2971C36.3081 72.3978 36.4262 72.5702 36.6005 72.5915C36.7786 72.6109 36.796 72.9227 36.8928 72.9809C36.9896 73.039 37.2238 73.4496 37.3225 73.4709C37.4193 73.4903 37.4793 74.0733 37.4793 74.0733C37.4793 74.0733 37.6749 74.5614 37.7523 74.542C37.8297 74.5246 38.1007 75.4 38.1007 75.4L38.2382 75.8107C38.2382 75.8107 38.3756 75.8707 38.4337 75.9695C38.4937 76.0663 38.5131 76.2019 38.6292 76.2387C38.7454 76.2775 38.7454 76.415 39.059 76.692C39.3726 76.9612 39.2932 77.1375 39.3513 77.2343C39.4113 77.3331 39.4481 77.6062 39.4481 77.7224C39.4481 77.8386 39.4868 78.2299 39.4868 78.2299C39.4868 78.2299 39.2352 79.0511 39.1945 79.1267C39.1539 79.2061 39.2352 79.3804 39.3281 79.4985C39.4288 79.6128 39.4462 79.8123 39.543 79.8685C39.6398 79.9285 39.6398 80.2598 39.7191 80.2384C39.7946 80.221 39.7772 80.7846 39.8353 81.0423C39.8953 81.2941 39.7579 81.3928 39.7366 81.4509C39.7191 81.511 39.6785 81.6078 39.7366 81.8035C39.7946 81.9971 39.814 82.0185 39.9921 82.7002C40.1663 83.384 40.147 83.2465 40.265 83.3259C40.3831 83.4072 40.3618 83.8721 40.4412 83.8333C40.5186 83.7965 41.0626 84.827 41.3375 85.2415C41.5795 85.6017 41.6066 85.5824 41.7034 85.6676C41.7169 85.6792 41.7324 85.6928 41.7479 85.7083C41.8834 85.8438 42.0015 86.0782 42.1177 86.2351C42.2358 86.3901 42.3693 86.5876 42.5261 86.5876C42.6829 86.5876 42.6249 86.9963 42.6249 87.1319C42.6249 87.2675 42.7604 87.6026 42.7797 87.6781C42.801 87.7575 42.8804 88.1468 42.8572 88.2437C42.8378 88.3425 43.014 88.5768 43.2095 88.7918C43.4031 89.0068 43.5212 89.0456 43.616 89.1405C43.7167 89.2392 43.7535 89.6286 43.8135 89.6692C43.8716 89.708 44.0845 89.9617 44.1058 90.0411C44.1252 90.1167 44.1252 90.8004 44.0477 91.0154C43.9684 91.2284 44.0477 91.0154 43.7922 91.2284C43.5386 91.4473 43.5192 91.366 43.5192 91.366L43.5793 91.6197C43.5793 91.6197 43.6935 91.9896 43.8116 91.9315C43.9277 91.8715 44.0826 92.4797 44.1232 92.5765C44.16 92.6734 44.1426 92.7315 44.1426 92.7315C44.1426 92.7315 44.1426 92.9659 44.1232 93.1208C44.1039 93.2796 44.3188 93.2177 44.3594 93.1615C44.3962 93.1014 44.5936 93.239 44.6517 93.2951C44.7098 93.3532 44.8472 93.4326 44.944 93.4326C45.0408 93.4326 45.0408 93.667 45.0408 93.667C45.0408 93.667 45.1763 93.8433 45.2364 93.822C45.2944 93.8045 45.4106 94.0176 45.6661 93.9014C45.9178 93.7832 45.9952 93.9982 46.4056 94.1164C46.5314 94.1512 46.6786 93.9382 46.7773 93.8413C46.8722 93.7445 46.9709 93.7251 46.9709 93.7251L47.4007 93.5895C47.4007 93.5895 47.5962 93.5702 48.024 93.5895C48.4538 93.6089 48.1982 93.4326 48.355 93.3532C48.5118 93.2796 48.5312 93.5101 48.7441 93.3939C48.959 93.2796 48.7441 93.3939 49.0171 93.237C49.1158 93.1828 49.0965 93.1208 49.2513 92.9852C49.4101 92.8477 49.3501 93.024 49.6056 92.9271C49.6056 92.9271 49.7218 92.9639 49.9947 93.1014C49.9947 93.1014 50.1902 93.1208 50.3645 93.0646C50.5426 93.0046 50.4825 93.0821 50.56 93.0046C50.6394 92.9271 50.6781 93.024 50.7749 93.0046C50.8736 92.9852 50.9491 93.1014 51.0885 93.0801C51.2259 93.0627 51.3227 93.1208 51.5163 93.237C51.5163 93.237 52.0216 93.4326 52.2384 93.3358C52.2926 93.3087 52.3545 93.2002 52.3932 93.0801C52.432 92.9639 52.5868 93.0433 52.6275 92.9833C52.6681 92.9252 52.8637 93.0995 52.8637 93.0995L53.0979 93.1402C53.0979 93.1402 53.2334 93.0414 53.3302 92.962C53.427 92.8826 53.427 92.8651 53.6206 92.6114C53.6709 92.5455 53.8955 92.6695 54.0697 92.6482H54.3252C54.3252 92.6482 54.5188 92.6695 54.6563 92.5707C54.7937 92.4739 54.8111 92.5707 54.9486 92.4526C55.0841 92.3364 55.1422 92.3751 55.2409 92.317C55.3377 92.2569 55.5139 92.0826 55.5139 92.0826C55.5139 92.0826 55.8275 91.8657 56.1179 91.6333C56.1953 91.5732 56.2921 91.4783 56.5263 91.2439C56.7586 91.0115 56.6638 91.1471 56.7586 90.9902C56.8593 90.8372 56.8593 90.934 56.9193 90.8178C56.9774 90.6997 57.0916 90.659 57.229 90.4847C57.3665 90.3084 57.4052 90.3452 57.6375 90.1515C57.8698 89.9559 57.8698 89.9753 57.9705 89.8184C58.0673 89.6634 58.2628 89.586 58.5551 89.2334C58.8474 88.8829 58.5551 89.2334 58.5551 89.1753C58.5551 89.1172 58.8687 88.9797 58.9268 88.941C58.9829 88.9022 59.1998 88.5516 59.2559 88.4354C59.314 88.3192 59.2772 88.3386 59.3333 88.1991C59.3933 88.0635 59.5482 87.9086 59.6276 87.7517C59.705 87.5967 59.8405 87.5348 59.8812 87.4592C59.9199 87.3818 60.0573 87.283 60.0573 87.283C60.0573 87.283 60.2122 87.0893 60.2296 87.0099C60.2529 86.9324 60.5045 86.6593 60.5626 86.5605C60.6226 86.4637 60.6807 86.423 60.7194 86.3474C60.7581 86.268 60.8762 86.268 60.9343 86.1906C60.9924 86.1111 61.2847 85.84 61.3234 85.7606C61.3621 85.6812 61.4783 85.563 61.5964 85.3306C61.7125 85.0962 61.6525 85.1562 61.7125 84.98C61.7706 84.8037 61.8306 84.7456 61.8887 84.6313C61.9487 84.5132 62.0823 84.3195 62.1036 84.1626C62.121 84.0057 62.0455 83.9476 62.1403 83.7132C62.2003 83.5719 62.2391 83.4866 62.2526 83.4111C62.2623 83.3627 62.2662 83.3181 62.2565 83.2619C62.2391 83.1264 62.2971 83.0683 62.2758 82.9307C62.2565 82.7971 62.3726 82.8145 62.4501 82.7138C62.5294 82.6189 62.4501 82.5395 62.4133 82.402C62.3746 82.2664 62.2758 82.1482 62.2758 82.1482C62.2758 82.1482 62.181 82.3051 62.0435 82.1695L61.9061 82.034C61.7686 81.8964 61.9061 82.034 61.9235 81.7415C61.9468 81.4471 62.0029 81.664 62.119 81.509C62.2391 81.3502 62.2391 81.4277 62.3359 81.2921C62.4326 81.1565 62.5101 81.174 62.7056 81.019C62.9011 80.8621 62.9786 80.9222 63.1528 80.804C63.329 80.6859 63.4664 80.7265 63.5651 80.6859C63.6619 80.6471 64.0898 80.4902 64.0898 80.4902C64.0898 80.4902 64.3821 80.4902 64.4421 80.4128C64.5002 80.3353 64.7944 80.1784 64.8525 80.1397C64.9086 80.1029 65.2029 80.0021 65.2029 80.0021C65.2029 80.0021 65.3403 79.6109 65.319 79.4559C65.3016 79.301 65.3597 79.3397 65.4158 79.0472C65.4758 78.7548 65.4371 78.9485 65.4545 78.7315C65.4758 78.5185 65.5126 78.4023 65.5126 78.4023C65.5126 78.4023 65.59 78.2454 65.59 78.0904C65.59 77.9355 65.5726 77.7398 65.59 77.6817C65.6094 77.6236 65.532 77.5461 65.5513 77.3311C65.5726 77.1161 65.3771 77.1762 65.3945 76.998C65.4139 76.8237 65.3945 76.9225 65.4352 76.7636C65.4739 76.6106 65.3771 76.6474 65.3171 76.5138C65.261 76.3762 65.2203 76.3588 65.1429 76.2213C65.0635 76.0857 65.0248 76.1031 65.0248 75.9695C65.0248 75.8359 65.0828 75.7894 65.1022 75.5782C65.1216 75.3613 65.1022 75.4 65.1022 75.2451C65.1022 75.0901 65.0441 75.0901 64.926 74.9526C64.8099 74.8151 64.7925 74.8945 64.5969 74.6582C64.4014 74.4258 64.5969 74.5807 64.5776 74.4064C64.5602 74.2302 64.6182 74.3076 64.6182 74.2302C64.6182 74.1527 64.6357 74.0946 64.5621 73.959C64.4808 73.8195 64.5021 73.6646 64.5021 73.6646C64.5795 73.6258 64.6763 73.8757 64.6763 73.8757C64.6763 73.8757 64.8138 73.8757 64.9299 73.6646C65.0499 73.4496 65.1274 73.4883 65.2648 73.3314C65.4003 73.1745 65.4197 73.3527 65.4971 73.2714C65.5765 73.1958 65.6346 73.2133 65.712 73.1164C65.7894 73.0196 65.9462 72.9595 66.1418 72.7465C66.3373 72.5315 66.2966 72.6303 66.376 72.5509C66.4534 72.4714 66.5909 72.2584 66.6083 72.2003C66.6277 72.1402 66.6877 72.024 66.6877 72.024C66.6877 72.024 66.8619 71.9078 67.0574 71.7315C67.251 71.5553 67.2897 71.4972 67.4272 71.3403C67.5646 71.1853 67.5646 71.2241 67.6788 71.1272C67.7989 71.0304 67.7989 71.1079 67.9731 71.0091C68.1473 70.9122 68.188 70.9316 68.3041 70.8735C68.4242 70.8154 68.4609 70.8367 68.6177 70.6992C68.7745 70.5597 68.8868 70.5791 69.2004 70.4241C69.2566 70.397 69.7076 70.1704 69.7076 70.1704C69.7076 70.1704 70.0793 69.998 70.178 70.0348C70.2748 70.0736 70.9001 69.3123 71.2892 68.9424C71.6783 68.5705 71.4635 68.7661 71.5409 68.6286C71.6203 68.4911 71.6783 68.4737 71.7171 68.3555C71.7577 68.2393 71.8545 67.6524 71.8932 67.5362C71.9319 67.4181 71.9126 67.3212 71.9126 67.1837C71.9126 67.0462 71.8739 66.8525 71.8739 66.7343C71.8739 66.6162 71.8158 66.3624 71.8932 66.1881C71.9707 66.0119 71.7577 65.8956 71.7577 65.6806C71.7577 65.4657 71.7964 65.4443 71.7964 65.3088C71.7964 65.1732 71.7403 64.9388 71.719 64.7412C71.6996 64.5476 71.6803 64.5088 71.6629 64.35C71.6416 64.197 71.6416 64.2551 71.6029 63.8232C71.5622 63.397 71.6803 63.49 71.6803 63.3351C71.6803 63.1801 71.719 63.1239 71.7597 63.0426C71.7984 62.9651 71.7384 62.1632 71.7384 62.0683C71.7384 62.0199 71.688 61.9289 71.6319 61.8417C71.5757 61.7507 71.5138 61.6596 71.5041 61.619C71.4848 61.5395 71.388 61.5027 71.3299 61.4214C71.2699 61.3459 71.1537 61.2664 71.1344 61.2083C71.115 61.1483 70.9989 60.974 70.9795 60.8752C70.9601 60.7783 70.7065 60.7783 70.6678 60.7202C70.631 60.6621 70.6097 60.4452 70.5885 60.3096C70.571 60.1702 70.4742 60.1527 70.3562 59.959C70.2381 59.7634 70.2787 59.7247 70.1626 59.4303C70.0445 59.1378 70.1045 59.314 70.1413 59.1959C70.1819 59.0777 70.2381 59.1184 70.2787 58.9828C70.3194 58.8434 70.4162 58.824 70.2787 58.6477C70.2787 58.6477 70.2206 58.4521 70.1819 58.3766C70.1413 58.2952 70.2787 58.1771 70.2787 58.1771L70.4529 57.964C70.4529 57.964 70.5304 57.6134 70.5304 57.5553C70.5304 57.4972 70.4723 57.4779 70.2187 57.1834C69.9612 56.891 70.0425 56.9878 69.9438 56.891C69.8451 56.7922 69.7676 56.7341 69.7289 56.5985C69.6921 56.4629 69.6728 56.4629 69.6921 56.306C69.7096 56.1491 69.6921 56.0329 69.6921 55.8973C69.6921 55.7618 69.6921 55.8179 69.7502 55.6417C69.8064 55.4674 69.7502 55.6417 69.8664 55.4267C69.9496 55.2756 70.0251 55.1342 70.0987 54.9715C70.1316 54.9056 70.1626 54.8379 70.1993 54.7623C70.3174 54.5105 70.2961 54.6267 70.3349 54.4485C70.3755 54.2742 70.4723 54.313 70.5691 54.0185C70.6659 53.7261 70.724 53.7648 70.8614 53.5324C70.9989 53.2961 71.0163 53.1392 71.0356 52.868C71.055 52.5949 71.1537 52.4787 71.2331 52.4187C71.3105 52.3605 71.388 52.3605 71.5022 52.2618C71.6203 52.1649 71.6996 52.0874 71.8158 51.8899C71.9339 51.6942 72.0675 51.518 72.1468 51.425C72.2262 51.3243 72.4585 51.3456 72.4585 51.3456C72.4585 51.3456 72.7508 51.3069 72.8495 51.0512C72.8766 50.9834 72.9057 50.9369 72.9367 50.8962C73.018 50.7955 73.1128 50.7781 73.1999 50.6793C73.318 50.5457 73.3374 50.4469 73.4322 50.3094C73.4968 50.2177 73.5626 50.1008 73.6297 49.9588C73.7246 49.7418 73.7071 49.8639 73.8039 49.7244C73.9007 49.5888 74.0962 49.4881 74.3111 49.2557C74.526 49.0213 74.4466 49.1976 74.5841 48.9652C74.7235 48.7308 74.7796 48.8664 74.9558 48.5933C75.1319 48.3202 75.1687 48.417 75.3062 48.1633C75.4436 47.9095 75.6546 47.8321 75.7533 47.6539C75.8521 47.4815 75.9295 47.5009 76.1657 47.3033C76.398 47.1096 76.4967 47.0902 76.6129 47.0108C76.731 46.9333 76.8645 46.8946 76.9265 46.8346C76.9865 46.7765 77.3562 46.6409 77.3562 46.6409L77.6292 46.5053C77.6292 46.5053 78.4287 45.9552 78.5294 45.839C78.6242 45.7228 78.8198 45.6821 78.8585 45.6279C78.8953 45.5678 79.0327 45.4903 79.114 45.3528C79.1914 45.2153 79.2882 45.1746 79.3463 45.041C79.4044 44.9015 79.6793 44.6091 79.6793 44.6091C79.6793 44.6091 80.5756 43.5747 80.6356 43.4953C80.6917 43.4198 81.1428 42.9123 81.1989 42.8523C81.2551 42.7942 81.3364 42.7167 81.3751 42.5443C81.4138 42.3661 81.7642 42.1511 81.8049 41.8974C81.8416 41.6437 81.9791 41.4868 82.0197 41.3512C82.0565 41.2137 82.254 41.1149 82.2733 41.0393C82.2927 40.9599 82.4108 40.9018 82.585 40.6481C82.7631 40.3943 82.6818 40.4137 82.7418 40.2568C82.7999 40.1038 82.8386 40.0612 82.9954 39.8113C83.1503 39.5576 82.9954 39.8113 83.0516 39.6738C83.1116 39.5382 83.3071 39.2826 83.4445 39.0676C83.58 38.8526 83.522 38.9107 83.6401 38.7557C83.7562 38.5988 83.6401 38.7557 83.8336 38.347C84.0292 37.9345 83.9304 38.1495 84.0485 38.0933C84.1627 38.0313 84.066 37.857 84.184 37.7214C84.3021 37.5858 84.2615 37.6246 84.3428 37.4483C84.4202 37.2721 84.4802 37.2333 84.5538 37.0357C84.6332 36.8421 84.5538 36.9215 84.5538 36.6677C84.5538 36.414 84.6332 36.4314 84.6719 36.3152C84.7125 36.199 84.7493 36.1022 84.79 36.0421C84.8287 35.9821 84.9855 35.8465 84.9855 35.8465C84.9855 35.8465 85.0823 35.0059 85.0649 34.9284C85.0455 34.8509 84.9081 34.4016 84.8887 34.204L84.9022 34.2079Z" fill="#001336"/>
</svg>
