<svg width="38" height="35" viewBox="0 0 38 35" fill="none" xmlns="http://www.w3.org/2000/svg">
<g id="flag-for-flag-saudi-arabia_svgrepo.com" clip-path="url(#clip0_2_11589)">
<path id="Vector" d="M33.7778 4.85938H4.22222C3.10242 4.85938 2.02848 5.2691 1.23666 5.9984C0.44484 6.72771 0 7.71687 0 8.74826L0 26.2483C0 27.2797 0.44484 28.2688 1.23666 28.9981C2.02848 29.7274 3.10242 30.1372 4.22222 30.1372H33.7778C34.8976 30.1372 35.9715 29.7274 36.7633 28.9981C37.5552 28.2688 38 27.2797 38 26.2483V8.74826C38 7.71687 37.5552 6.72771 36.7633 5.9984C35.9715 5.2691 34.8976 4.85938 33.7778 4.85938Z" fill="#006C35"/>
<g id="Group">
<path id="Vector_2" d="M9.41341 13.6596C10.0805 13.7179 9.71214 12.6203 9.95386 12.421C9.99925 12.3228 10.0837 12.3218 10.09 12.4463V13.3777C10.0837 13.681 10.3001 13.7695 10.4679 13.8326C10.6431 13.82 10.7592 13.8258 10.8279 13.9824L10.9102 15.5943C10.9102 15.5943 11.3155 15.7013 11.3345 14.6872C11.3546 14.0922 11.2057 13.5945 11.2934 13.4788C11.2965 13.365 11.4538 13.3582 11.5636 13.4136C11.7377 13.5264 11.8159 13.6664 12.0861 13.611C12.4988 13.507 12.7458 13.3222 12.7521 13.0306C12.7279 12.7535 12.6941 12.4764 12.5642 12.1993C12.5822 12.1488 12.4851 12.0185 12.503 11.9679C12.5769 12.0749 12.6899 12.0661 12.7152 11.9679C12.6455 11.755 12.5368 11.5508 12.3595 11.4624C12.2138 11.3438 12.0006 11.3681 11.9225 11.615C11.8866 11.8989 12.0344 12.2372 12.2581 12.5124C12.3056 12.6203 12.3732 12.7992 12.3436 12.9606C12.2244 13.0228 12.104 12.9975 12.0048 12.9003C12.0048 12.9003 11.6765 12.6738 11.6765 12.6232C11.7641 12.1099 11.6966 12.0515 11.648 11.9096C11.6142 11.7132 11.5129 11.65 11.4306 11.5158C11.3482 11.4361 11.2374 11.4361 11.1846 11.5158C11.039 11.7472 11.1065 12.245 11.2121 12.4677C11.287 12.6718 11.4031 12.8011 11.3482 12.8011C11.3029 12.9168 11.21 12.8896 11.1424 12.7564C11.0453 12.4803 11.0263 12.069 11.0263 11.8833C10.9967 11.6539 10.9651 11.1629 10.8015 11.0385C10.7012 10.9131 10.5524 10.9733 10.5006 11.089C10.4901 11.3165 10.488 11.545 10.5165 11.756C10.6284 12.1245 10.6642 12.4492 10.7191 12.8274C10.7339 13.3339 10.4014 13.0471 10.4162 12.7963C10.4932 12.4706 10.4732 11.9572 10.4046 11.827C10.3507 11.6977 10.2864 11.6646 10.1555 11.686C10.052 11.6782 9.78391 11.9485 9.70791 12.3957C9.70791 12.3957 9.64353 12.6261 9.61608 12.8313C9.57914 13.0627 9.41447 13.226 9.29836 12.7992C9.19808 12.489 9.13686 11.7239 8.96903 11.9028C8.92047 12.5007 8.86241 13.5527 9.41341 13.6596Z" fill="white"/>
<path id="Vector_3" d="M10.4173 14.0977C9.86841 14.1074 9.06514 14.7617 9.04297 15.1243C9.62141 14.8677 10.1904 14.6207 10.7794 14.3563C10.6844 14.225 10.7741 14.1074 10.4173 14.0977Z" fill="white"/>
<path id="Vector_4" d="M13.4442 16.059C13.6986 15.2783 13.403 14.7027 13.5413 14.7056C13.8337 14.9963 14.2432 14.7445 14.333 14.6434C14.372 14.5929 14.4681 14.5598 14.5356 14.6259C14.7647 14.7776 15.1679 14.7056 15.2513 14.4392C15.304 14.1717 15.3365 13.9011 15.3484 13.6294C15.1616 13.6829 15.0222 13.7188 15.0096 13.7898L14.9705 14.0212C14.9547 14.0961 14.7932 14.099 14.7869 14.0037C14.7161 13.7072 14.4227 13.6683 14.2454 14.1281C14.1261 14.2176 13.9107 14.2351 13.8875 14.1019C13.916 13.7937 13.7809 13.7519 13.5107 13.8967C13.4241 13.2852 13.3365 12.7009 13.25 12.0894C13.3629 12.0865 13.4664 12.1633 13.5687 12.0447C13.4558 11.7209 13.2172 11.0598 13.0853 11.0122C13.0209 10.9402 12.966 10.9849 12.8826 11.0034C12.7412 11.0452 12.6092 11.158 12.6504 11.3767C12.8182 12.3149 12.928 13.0295 13.0948 13.9677C13.1201 14.0776 13.0209 14.2224 12.8921 14.2079C12.6736 14.0717 12.6187 13.7956 12.2451 13.8073C11.9738 13.8102 11.6645 14.0805 11.6265 14.342C11.5811 14.5491 11.5653 14.7747 11.6265 14.9565C11.8165 15.1665 12.0456 15.1461 12.2451 15.0984C12.4087 15.0362 12.5449 14.8845 12.6019 14.9205C12.6409 14.9642 12.6114 15.463 11.8292 15.8461C11.3552 16.0415 10.9784 16.0862 10.7757 15.7304C10.6501 15.5077 10.7852 14.6619 10.476 14.8583C9.5608 17.0312 12.6187 17.3326 12.9607 14.9477C12.9935 14.8495 13.1222 14.7513 13.1444 14.9117C13.0737 17.072 10.7789 17.2208 10.3894 16.5412C10.2923 16.3808 10.2638 16.0249 10.2543 15.8111C10.1962 15.3862 9.95452 15.5495 9.91652 15.9705C9.87746 16.2048 9.88802 16.2709 9.88802 16.4955C10.0094 18.2017 12.965 17.4687 13.4442 16.059ZM12.3042 14.5831C12.2852 14.6162 12.2018 14.6026 12.1406 14.6026C12.0709 14.5997 12.0382 14.589 11.996 14.5374C11.977 14.4791 12.0361 14.4237 12.0625 14.3799C12.0952 14.3284 12.2715 14.2749 12.3337 14.4188C12.3453 14.4461 12.3486 14.4758 12.3434 14.5047C12.3382 14.5336 12.3247 14.5607 12.3042 14.5831Z" fill="white"/>
<path id="Vector_5" d="M14.3575 12.647C14.5412 12.5848 15.412 11.668 15.412 11.668C15.3666 11.632 15.3265 11.6057 15.2811 11.5698C15.2326 11.5309 15.2379 11.492 15.2811 11.4541C15.4965 11.3384 15.4279 11.0846 15.3149 10.9689C15.2419 10.9359 15.1615 10.9191 15.0801 10.9198C14.9987 10.9204 14.9186 10.9386 14.8463 10.9728C14.6953 11.106 14.6594 11.3199 14.7787 11.4541C14.8948 11.5046 15.0109 11.6125 14.9339 11.6718C14.5781 12.0218 13.6028 12.6256 13.7158 12.647C13.74 12.6761 14.3385 12.6752 14.3575 12.647ZM15.0025 11.2071C15.0584 11.1945 15.1302 11.2402 15.164 11.3082C15.1978 11.3763 15.1798 11.4414 15.1249 11.4541H15.1228C15.0679 11.4667 14.9961 11.421 14.9624 11.353C14.9296 11.2839 14.9476 11.2198 15.0025 11.2071ZM9.3542 16.778C9.21064 17.0473 9.15047 16.8625 9.13781 16.7118C9.12131 16.4588 9.13512 16.2048 9.17898 15.9545C9.21486 15.7406 9.17898 15.8057 9.10509 15.8923C8.77892 16.3706 8.75042 17.0861 8.93092 17.2991C9.02592 17.4002 9.1832 17.4449 9.30036 17.4118C9.50514 17.3302 9.59486 16.9471 9.54631 16.8081C9.47664 16.7099 9.42281 16.6943 9.3542 16.778ZM20.1008 11.7146C20.4766 12.1793 20.8334 12.6528 21.1828 13.135C21.2514 13.5531 21.301 13.9614 21.3305 14.3668C21.3886 15.1485 21.4055 15.9943 21.3527 16.8178C21.511 16.8236 21.7675 16.5806 21.8562 16.2257C21.9143 15.7348 21.8351 14.8607 21.8298 14.571C21.8228 14.3894 21.8133 14.2079 21.8013 14.0266C22.2172 14.6527 22.6225 15.308 23.0184 16.0361C23.163 15.9739 23.1313 15.2292 23.0469 15.1242C22.7302 14.4991 22.2943 13.8807 22.1549 13.6435C22.1032 13.556 21.9269 13.3071 21.7169 13.0223C21.6988 12.7949 21.6692 12.5685 21.6282 12.3436C21.5628 11.9275 21.815 12.3893 21.7802 12.1473C21.6989 11.7311 21.4477 11.4502 21.1543 11.0691C21.0593 10.9456 21.0624 10.9203 20.9157 11.0992C20.8638 11.2064 20.84 11.3233 20.846 11.4405C20.8002 11.3784 20.7513 11.3184 20.6993 11.2606C20.54 11.134 20.3799 11.0082 20.219 10.8834C20.1124 10.8134 19.8528 10.687 19.8063 10.897C19.7847 11.0442 19.7926 11.1938 19.8295 11.3384C19.857 11.4424 20.0206 11.6155 20.1008 11.7146ZM20.8819 11.6913C20.902 11.772 20.9231 11.8527 20.9368 11.9353L20.9526 12.0141C20.9084 11.9571 20.8622 11.9013 20.8144 11.8468C20.6413 11.6582 20.7848 11.6991 20.8819 11.6913Z" fill="white"/>
<path id="Vector_6" d="M23.1367 16.2309C22.7693 16.5839 22.2394 17.0184 21.6631 17.2197C21.6008 17.2839 21.8172 17.559 22.0959 17.559C22.5635 17.5084 22.9752 17.2664 23.3562 16.6296C23.4586 16.4818 23.6381 16.1639 23.6423 15.9169C23.6771 14.4722 23.5642 13.3473 23.3288 12.3032C23.313 12.2194 23.3173 12.1334 23.3414 12.0514C23.371 12.0183 23.4744 12.0514 23.5293 11.9697C23.6085 11.8939 23.3172 11.2716 23.1504 11.0325C23.0913 10.9255 23.0712 10.8536 22.973 11.0451C22.8696 11.2007 22.801 11.4719 22.8094 11.7247C23.0322 13.147 23.1008 14.3925 23.2464 15.8148C23.2581 15.9519 23.2359 16.1522 23.1367 16.2309ZM29.2906 12.624C29.2747 12.5229 29.2262 12.2876 29.2452 12.2575C29.2747 12.1855 29.4278 12.2652 29.4827 12.1826C29.5629 12.1077 29.0879 11.5458 28.9222 11.3066C28.862 11.1997 28.8419 11.1277 28.7438 11.3193C28.6403 11.4748 28.6044 11.7539 28.6456 11.9989C28.8937 13.5437 29.0784 14.7045 29.1164 16.0744C29.0942 16.2047 29.09 16.2747 29.0235 16.438C28.8768 16.6111 28.7153 16.8269 28.5622 16.9319C28.4102 17.0359 28.0862 17.1361 27.9795 17.2129C27.6449 17.3927 27.6439 17.5979 27.9162 17.6047C28.3828 17.5541 28.9359 17.5191 29.3169 16.9883C29.4193 16.8405 29.5407 16.439 29.546 16.192C29.5808 14.7473 29.5259 13.6682 29.2906 12.624ZM25.7534 13.8266C25.7576 13.6283 25.7777 13.3658 25.7893 13.2015C25.7945 13.1402 25.8104 13.0712 25.8737 13.0557C25.9381 13.0401 26.0521 13.1159 26.0532 13.0518C26.0405 12.9264 26.013 12.7397 25.936 12.6512C25.8304 12.5073 25.5507 12.5423 25.5011 12.7679C25.5022 12.8515 25.5433 12.8962 25.5359 12.972C25.5233 13.0148 25.4747 13.044 25.3597 12.9934C25.3787 12.9779 25.2847 12.8583 25.2847 12.8583C25.195 12.8077 25.0747 12.8612 24.9976 12.9069C24.9697 12.9559 24.9531 13.0097 24.9487 13.0649C24.9444 13.1201 24.9524 13.1755 24.9723 13.2277C25.0989 13.4484 25.5412 13.8227 25.7534 13.8266Z" fill="white"/>
<path id="Vector_7" d="M25.6053 12.1358C25.9146 12.4848 26.2302 12.8387 26.5479 13.1984C26.6166 14.0015 26.6345 14.6587 26.7021 15.4617C26.6926 15.802 26.5786 16.0986 26.4698 16.1413C26.4698 16.1413 26.3062 16.2288 26.1964 16.1326C26.1162 16.1024 25.7964 15.6416 25.7964 15.6416C25.6328 15.5036 25.5251 15.5424 25.409 15.6416C25.0881 15.9265 24.9435 16.4612 24.7261 16.8287C24.6691 16.9113 24.5107 16.9813 24.3344 16.8229C23.8879 16.2599 24.1497 15.4598 24.0948 15.6659C23.6969 16.0791 23.8721 16.7626 23.9618 16.9104C24.0927 17.1515 24.1993 17.307 24.4548 17.4266C24.687 17.5841 24.8686 17.4849 24.9678 17.3751C25.2021 17.1505 25.2053 16.5817 25.3151 16.467C25.3911 16.2599 25.5863 16.2949 25.6803 16.3873C25.7663 16.4991 25.8804 16.5902 26.0128 16.6527C26.2313 16.8306 26.492 16.8627 26.7485 16.7004C26.9237 16.6099 27.0388 16.4923 27.1412 16.2599C27.2552 15.9799 27.1929 14.6927 27.1697 13.9208C27.3333 14.1152 27.4927 14.3184 27.6542 14.5216C27.7249 15.1662 27.765 15.8079 27.7418 16.4631C27.7249 16.5944 28.2379 16.0742 28.2337 15.8273C28.2316 15.628 28.2337 15.4472 28.2337 15.277C28.4807 15.6192 28.7213 15.9722 28.9472 16.3455C29.0887 16.2774 29.0422 15.5434 28.9525 15.4423C28.6918 15.0398 28.3445 14.6208 28.1049 14.3213C28.0891 14.2834 28.0806 14.2406 28.0616 14.2047C27.9656 13.9995 28.0257 13.8342 27.9803 13.6165C27.936 13.3977 27.9476 13.0711 27.879 12.8115C27.86 12.7104 27.803 12.3856 27.8199 12.3555C27.8473 12.2826 27.9529 12.3574 28.0046 12.2738C28.0817 12.1961 27.7376 11.3745 27.5623 11.1392C27.499 11.0342 27.385 11.0702 27.2436 11.2413C27.1137 11.3541 27.1623 11.6108 27.2119 11.8548C27.3354 12.4459 27.4388 13.0127 27.5275 13.5737C27.3377 13.3413 27.1459 13.1102 26.9522 12.8805L26.9438 12.8377C26.9438 12.827 26.9153 12.3283 26.8899 12.2097C26.8857 12.162 26.8731 12.1474 26.9279 12.1533C26.986 12.198 26.9934 12.2009 27.0303 12.2165C27.0894 12.2262 27.1412 12.1338 27.1063 12.0492L26.5606 11.1237C26.5173 11.0838 26.4603 11.0411 26.3917 11.1344C26.3491 11.1687 26.315 11.211 26.2917 11.2584C26.2684 11.3059 26.2564 11.3574 26.2566 11.4095C26.2735 11.6283 26.3147 11.8519 26.3305 12.0716L26.3537 12.1902C26.3294 12.164 26.2999 12.1309 26.2872 12.1192C25.8238 11.6701 26.5004 12.0463 26.1986 11.6992C25.9431 11.4406 25.8692 11.3599 25.6497 11.2044C25.5399 11.1392 25.4734 11.0148 25.4375 11.2267C25.4194 11.4126 25.4141 11.5993 25.4217 11.7858C25.4217 11.8752 25.5198 12.0386 25.6053 12.1358ZM16.2098 13.1848C16.4758 13.2859 16.6458 12.8192 16.7556 12.3079C16.8294 12.164 16.8864 12.1484 16.9244 12.2223C16.9149 12.9029 16.9772 13.0536 17.1672 13.2606C17.5905 13.562 17.9409 13.2986 17.9694 13.2733L18.2988 12.9699C18.3716 12.899 18.4698 12.8941 18.5732 12.9573C18.6746 13.0409 18.6608 13.1867 18.8762 13.2879C19.0577 13.3549 19.4462 13.3034 19.5359 13.1595C19.6573 12.969 19.6868 12.9029 19.7417 12.8309C19.8283 12.7249 19.9761 12.7726 19.9761 12.8056C19.9623 12.8649 19.8758 12.9242 19.9349 13.0302C20.0383 13.1012 20.0616 13.0555 20.1228 13.0399C20.3381 12.9447 20.4986 12.5149 20.4986 12.5149C20.5081 12.3545 20.4109 12.3681 20.3476 12.4012C20.2653 12.4469 20.26 12.4624 20.1777 12.5091C20.0721 12.5237 19.8684 12.5879 19.7681 12.444C19.6647 12.2709 19.6626 12.0298 19.5844 11.8558C19.5844 11.8431 19.4472 11.5806 19.5749 11.5641C19.6393 11.5748 19.7755 11.6079 19.7977 11.5029C19.8642 11.3998 19.6531 11.1062 19.5095 10.9574C19.3839 10.8311 19.2097 10.8155 19.0419 10.9448C18.9237 11.0449 18.9406 11.1558 18.9173 11.2617C18.8982 11.3365 18.8982 11.4144 18.9174 11.4892C18.9367 11.5639 18.9746 11.6335 19.0282 11.6924C19.1453 11.9054 19.3596 12.1805 19.2889 12.5655C19.2889 12.5655 19.1643 12.7483 18.9458 12.7249C18.8551 12.7065 18.7073 12.6705 18.6292 12.1358C18.5701 11.7304 18.6439 11.1636 18.4571 10.8981C18.3896 10.7377 18.341 10.5831 18.1763 10.8573C18.132 10.9652 17.942 11.1286 18.0803 11.4659C18.1932 11.6788 18.2386 12.0259 18.1879 12.4129C18.1098 12.5227 18.0929 12.5597 17.9906 12.6695C17.847 12.8115 17.6918 12.7755 17.5726 12.722C17.4607 12.653 17.3741 12.617 17.3234 12.3973C17.3329 12.0473 17.3541 11.4737 17.2844 11.3522C17.182 11.1636 17.0131 11.2316 16.9403 11.289C16.593 11.5816 16.422 12.0745 16.3175 12.4663C16.2214 12.7522 16.1191 12.6705 16.0473 12.5548C15.8721 12.4031 15.8604 11.2199 15.6483 11.4154C15.3073 12.304 15.8404 13.2801 16.2098 13.1848Z" fill="white"/>
<path id="Vector_8" d="M21.2555 15.0942L21.1542 15.0407L19.1687 15.032C19.0663 14.996 19.0969 14.9649 19.1687 14.9396C19.6426 14.8803 20.486 14.7539 20.542 14.0082C20.5325 13.6203 20.3604 13.3656 19.8432 13.2956C19.4643 13.3228 19.193 13.6621 19.2363 14.0345C19.2183 14.1356 19.2721 14.332 19.1613 14.3543C18.4319 14.4156 17.6371 14.8356 17.6107 15.137C17.5664 15.1652 17.4671 15.0835 17.4798 14.9552C17.4447 14.4062 17.2731 13.872 16.9784 13.3938C16.7483 13.1818 16.8201 13.2518 16.666 13.352C16.5668 13.457 16.5488 13.5289 16.5541 13.7379C16.5541 13.7457 16.7399 14.2231 16.8971 14.5575C17.0016 14.9007 17.0998 15.2925 17.0291 15.6629C16.7842 16.1529 16.2913 16.5924 15.8163 16.8306C15.5714 16.9035 15.3613 16.8772 15.3096 16.8267C15.1586 16.7334 15.166 16.5613 15.1776 16.5584C15.5777 16.3007 16.0358 16.0936 16.3947 15.4004C16.5003 15.136 16.5319 14.9756 16.4274 14.5663C16.3984 14.422 16.3264 14.2881 16.2195 14.1793C16.2839 14.1404 16.4686 14.2697 16.4971 14.1929C16.4436 13.9689 16.3225 13.7633 16.1477 13.5999C16.0052 13.4803 15.85 13.4667 15.7191 13.5765C15.5714 13.6524 15.5397 13.9227 15.6104 14.1599C15.6885 14.3388 15.9007 14.3689 16.0527 14.7277C16.0527 14.7354 16.1076 14.996 16.0295 15.0981C15.9672 15.277 15.1597 15.8613 15.1154 15.8875C15.0932 15.9128 15.1027 15.8749 15.0995 15.7777C15.0943 15.659 15.1513 15.379 15.1354 15.3771C14.8726 15.5336 14.785 16.0129 14.7375 16.1549C14.0725 16.5778 13.3199 16.8928 12.885 17.3225C12.658 17.6482 14.4451 16.9482 14.653 16.8636C14.6995 16.8947 14.6942 17.0415 14.8188 17.1728C15.0045 17.4042 15.3972 17.5471 15.7825 17.4586C16.4264 17.2438 16.799 16.8393 17.1769 16.3911C17.2307 16.3182 17.3151 16.2628 17.3933 16.3182C17.6529 16.8539 18.4034 17.2331 19.3714 17.2729C19.5962 17.0211 19.4875 16.8996 19.3967 16.8471C19.3967 16.8393 18.9185 16.6721 18.8457 16.5049C18.8014 16.3532 18.909 16.22 19.1244 16.1189C19.7461 16.0499 20.3573 15.9731 20.9494 15.7981C20.9558 15.6153 21.0708 15.3411 21.15 15.2225C21.226 15.102 21.2671 15.1379 21.2555 15.0942ZM19.6226 13.9547C19.6521 13.909 19.7503 13.911 19.8421 13.9606C19.934 14.0092 19.9857 14.087 19.9551 14.1327C19.9255 14.1793 19.8263 14.1764 19.7345 14.1268C19.6426 14.0782 19.593 14.0014 19.6226 13.9547ZM18.8235 15.802C18.6103 15.8691 18.4055 15.9215 18.4055 16.2054C18.4847 16.6002 18.2968 16.465 18.186 16.4106C18.0551 16.324 17.6867 16.115 17.6339 15.6639C17.6255 15.556 17.7173 15.4656 17.864 15.4656C18.0846 15.521 18.4108 15.5249 18.6937 15.5521C18.9249 15.5657 19.0399 15.7329 18.8235 15.802ZM11.4695 11.4221C11.6975 11.5232 12.1281 11.4804 12.1091 11.1402C12.1091 11.11 12.1007 11.0089 12.0975 10.9817C12.0511 10.8815 11.9244 10.9059 11.8949 11.0099C11.8854 11.0439 11.9107 11.0984 11.878 11.1159C11.859 11.1334 11.7861 11.1227 11.7893 11.0293C11.7893 10.9992 11.765 10.9671 11.7513 10.9486C11.7365 10.9399 11.7281 10.937 11.7017 10.937C11.67 10.9379 11.67 10.9457 11.6531 10.971C11.6458 10.9953 11.6352 11.0206 11.6352 11.0488C11.631 11.0818 11.6173 11.0935 11.5909 11.0993C11.5613 11.0993 11.5676 11.1022 11.5444 11.0877C11.5296 11.0731 11.5117 11.0672 11.5117 11.0429C11.5116 11.0145 11.5066 10.9863 11.4969 10.9593C11.4843 10.9438 11.4642 10.937 11.441 10.9311C11.3164 10.9311 11.308 11.0624 11.3154 11.1129C11.3038 11.1217 11.2995 11.357 11.4695 11.4221Z" fill="white"/>
<path id="Vector_9" d="M18.4854 13.6381C18.4854 13.6079 18.4611 13.5768 18.4474 13.5574C18.4326 13.5486 18.4241 13.5457 18.3977 13.5457C18.3661 13.5467 18.3671 13.5544 18.3492 13.5797C18.3418 13.605 18.3312 13.6293 18.3312 13.6575C18.3281 13.6915 18.3133 13.7032 18.2869 13.7081C18.2574 13.7081 18.2637 13.711 18.2394 13.6974C18.2246 13.6828 18.2067 13.6769 18.2067 13.6526C18.2067 13.6242 18.2017 13.596 18.1919 13.569C18.1792 13.5535 18.1592 13.5467 18.136 13.5418C18.0114 13.5418 18.003 13.6731 18.0093 13.7226C17.9998 13.7324 17.9945 13.9667 18.1645 14.0328C18.3935 14.1329 18.9371 14.0746 18.8041 13.7508C18.8019 13.6976 18.798 13.6444 18.7925 13.5914C18.7461 13.4912 18.6184 13.5165 18.5899 13.6196C18.5814 13.6536 18.6067 13.7081 18.573 13.7256C18.5561 13.7431 18.4822 13.7324 18.4854 13.6381ZM22.0711 12.9507C22.2991 13.0518 22.7287 13.009 22.7097 12.6697C22.7075 12.6165 22.7036 12.5633 22.6981 12.5103C22.6516 12.4101 22.525 12.4354 22.4965 12.5385C22.487 12.5725 22.5123 12.6269 22.4785 12.6444C22.4595 12.6619 22.3867 12.6522 22.3899 12.5579C22.3899 12.5278 22.3656 12.4957 22.3519 12.4772C22.3371 12.4685 22.3286 12.4656 22.3012 12.4656C22.2695 12.4675 22.2706 12.4743 22.2526 12.4996C22.2452 12.5249 22.2347 12.5492 22.2347 12.5774C22.2305 12.6114 22.2167 12.6231 22.1904 12.6279C22.1608 12.6279 22.1671 12.6308 22.1429 12.6172C22.1281 12.6026 22.1112 12.5968 22.1112 12.5725C22.1111 12.5438 22.1061 12.5152 22.0964 12.4879C22.0827 12.4724 22.0637 12.4656 22.0394 12.4607C21.9149 12.4607 21.9064 12.5919 21.9138 12.6415C21.9064 12.6512 21.9011 12.8856 22.0711 12.9507ZM22.2252 11.6363C22.3065 11.8463 22.1629 12.0465 22.2484 12.0757C22.3255 12.1087 22.4352 11.8589 22.4754 11.6285C22.5229 11.4418 22.3782 11.0597 22.1735 10.981C22.0489 10.9537 21.8716 11.0218 21.9286 11.1754C21.9001 11.2493 22.1798 11.5001 22.2252 11.6363ZM24.331 16.5596C24.4904 16.5606 24.6741 16.2242 24.7522 15.8907C24.7955 15.4318 24.7226 15.1528 24.71 14.8825C24.6962 14.6132 24.3796 12.5569 24.3141 12.3528C24.2371 11.9668 24.6234 12.3012 24.5812 12.0767C24.4471 11.7937 24.1146 11.3825 24.0091 11.1365C23.9457 11.0315 23.9732 10.9382 23.8317 11.1093C23.7019 11.5031 23.6565 11.8239 23.7061 12.0689C24.0418 13.6828 24.3859 15.0244 24.331 16.5596ZM28.2957 12.3401C28.3326 12.4451 28.2397 12.7844 28.3168 12.8156C28.3875 12.8506 28.4867 12.5812 28.5237 12.3314C28.5437 12.1943 28.435 11.716 28.2482 11.6304C28.1342 11.6012 27.9727 11.6742 28.0255 11.8414C27.9991 11.9221 28.2545 12.1924 28.2957 12.3401ZM14.4479 15.8946C14.5165 15.9208 14.6104 15.7225 14.6463 15.5387C14.6664 15.4376 14.5608 15.0867 14.3824 15.0235C14.2726 15.0021 14.1227 15.0293 14.1692 15.179C14.1639 15.2597 14.412 15.3569 14.4267 15.5446C14.4626 15.6224 14.374 15.8722 14.4479 15.8946ZM9.63875 11.4078C9.67358 11.4885 9.60391 11.7461 9.67675 11.7704C9.74325 11.7976 9.83719 11.5915 9.87203 11.4019C9.89208 11.2969 9.87625 10.9411 9.61236 10.8682C9.50364 10.8458 9.35269 10.9013 9.4023 11.0286C9.37697 11.0889 9.59969 11.295 9.63875 11.4078ZM14.8131 12.5482C14.6115 12.6493 14.5323 12.9487 14.659 13.1228C14.7761 13.2774 14.9619 13.22 14.9872 13.22C15.1857 13.2424 15.3029 12.8778 15.3029 12.8778C15.3029 12.8778 15.3092 12.7757 15.0738 12.9692C14.9746 12.9867 14.9619 12.9526 14.9376 12.9001C14.9136 12.805 14.9244 12.7052 14.9682 12.6162C15.002 12.5258 14.926 12.486 14.8131 12.5482ZM16.3352 11.4272C16.3677 11.4087 16.3956 11.3841 16.4171 11.3549C16.4386 11.3258 16.4531 11.2927 16.4597 11.2581C16.4904 11.1161 16.2961 11.3251 16.2719 11.1667C16.2286 11.0199 16.3531 10.9596 16.4714 10.8176C16.4756 10.7194 16.4735 10.6504 16.3289 10.7301C16.2275 10.7933 16.0249 10.9858 16.0185 11.2075C16.0122 11.3329 15.9869 11.3319 16.0766 11.4117C16.141 11.4982 16.2054 11.4894 16.3352 11.4272ZM17.7064 11.5031C17.8372 11.1764 17.8372 11.0383 17.8467 10.8993C17.8066 10.6883 17.6515 10.6951 17.5491 10.9294C17.5047 11.0179 17.453 11.4836 17.4615 11.4836C17.4266 11.6226 17.6187 11.6819 17.7064 11.5031ZM26.3302 13.8199C26.3302 13.8199 25.2715 14.5131 25.2462 14.5374C25.1406 14.6229 25.1934 14.9262 25.2462 14.8912C25.3211 14.9185 26.3862 14.2525 26.3651 14.1747C26.4147 14.1767 26.439 13.7849 26.3302 13.8199ZM26.2004 15.7001C26.2711 15.7351 26.458 15.5222 26.4506 15.2568C26.4717 15.1197 26.3967 14.6171 26.211 14.5315C26.097 14.5024 25.945 14.5918 25.9977 14.7581C25.9714 14.8378 26.1286 15.1168 26.1698 15.2646C26.2067 15.3706 26.1234 15.669 26.2004 15.7001ZM20.2049 17.1546C20.2049 17.1633 20.2946 17.2343 20.4001 17.1779C20.6218 17.0992 20.7611 17.0233 21.0715 16.9601C21.1527 16.9592 21.1475 16.7579 21.0187 16.7511C20.8509 16.7589 20.6946 16.7667 20.5268 16.8892C20.4234 16.9106 20.4065 16.8532 20.3832 16.8007C20.3579 16.6714 20.4413 16.5819 20.4234 16.4857C20.4297 16.4915 20.3273 16.405 20.2228 16.4536C20.2175 16.4536 19.9895 16.5956 19.9167 16.6947C19.8713 16.7268 19.8766 16.754 19.8903 16.8075C19.9251 16.8814 19.9874 16.859 20.0571 16.824C20.15 16.8124 20.1943 16.8687 20.1869 16.9708C20.1426 17.1001 20.2049 17.1478 20.2049 17.1546ZM27.1198 17.316C27.085 17.3714 27.0617 17.455 27.1694 17.4812C27.3679 17.5328 27.8249 17.2586 27.8249 17.2537C27.8988 17.2022 27.8745 17.106 27.8682 17.106C27.8249 17.0603 27.7278 17.0865 27.6624 17.0797C27.6317 17.0797 27.5283 17.0651 27.5779 16.9815C27.6128 16.9365 27.6405 16.887 27.6602 16.8347C27.6909 16.7715 27.6645 16.7297 27.5526 16.6957C27.4396 16.6762 27.3942 16.686 27.2686 16.6957C27.2011 16.7093 27.1779 16.7365 27.1652 16.8124C27.1705 16.9271 27.2454 16.9212 27.3235 16.9669C27.3689 17.0204 27.3985 17.069 27.3204 17.1556C27.2465 17.2187 27.1947 17.2537 27.1198 17.316ZM26.9171 22.3618H25.3338V21.8757C25.3338 21.7468 25.2782 21.6231 25.1792 21.532C25.0802 21.4408 24.946 21.3896 24.806 21.3896C24.666 21.3896 24.5318 21.4408 24.4328 21.532C24.3339 21.6231 24.2782 21.7468 24.2782 21.8757V22.3618H11.6116C11.6116 22.3618 11.6116 23.334 14.7782 23.334H24.2782V23.8201C24.2782 23.9491 24.3339 24.0727 24.4328 24.1639C24.5318 24.255 24.666 24.3062 24.806 24.3062C24.946 24.3062 25.0802 24.255 25.1792 24.1639C25.2782 24.0727 25.3338 23.9491 25.3338 23.8201V23.334H26.3894V23.8201C26.3894 23.9491 26.445 24.0727 26.5439 24.1639C26.6429 24.255 26.7772 24.3062 26.9171 24.3062C27.0571 24.3062 27.1914 24.255 27.2903 24.1639C27.3893 24.0727 27.4449 23.9491 27.4449 23.8201V22.8479C27.4449 22.719 27.3893 22.5953 27.2903 22.5042C27.1914 22.413 27.0571 22.3618 26.9171 22.3618Z" fill="white"/>
</g>
</g>
<defs>
<clipPath id="clip0_2_11589">
<rect width="38" height="35" fill="white"/>
</clipPath>
</defs>
</svg>
