<svg width="118" height="88" viewBox="0 0 118 88" fill="none" xmlns="http://www.w3.org/2000/svg">
<path d="M117.469 53.5854C117.322 53.3945 117.129 52.7242 117.129 52.7242C117.129 52.7242 117.129 52.4401 116.932 52.1471C116.74 51.8541 116.883 51.3258 116.74 51.3258C116.597 51.3258 116.444 50.9928 116.351 50.8463C116.252 50.7043 116.154 50.2737 116.006 50.1316C115.863 49.9807 115.813 49.6965 115.863 49.55C115.912 49.408 116.006 49.0218 116.006 48.8309C116.006 48.64 116.194 47.9208 116.194 47.7299C116.194 47.539 116.48 46.9131 116.386 46.7222C116.288 46.5224 116.342 46.1939 116.288 45.9053C116.239 45.6168 116.239 45.3238 116.185 45.1817C116.14 45.0352 115.952 44.8487 116.239 44.5069C116.525 44.1784 116.771 44.7511 116.717 43.6945C116.668 42.6424 116.615 42.1097 116.471 42.2562C116.324 42.3982 115.849 43.5525 115.849 43.5525C115.366 43.9831 115.12 43.7478 115.12 43.7478C115.12 43.7478 115.021 43.5968 114.833 43.3616C114.636 43.1218 114.144 42.6956 114.055 42.5447C113.956 42.4071 113.759 41.1064 113.374 41.1596C112.985 41.2085 112.108 40.3961 112.108 40.3961C112.108 40.3961 112.251 39.9166 112.018 39.9166C111.785 39.9166 111.051 39.4416 111.051 39.4416C111.051 39.4416 110.474 39.2951 110.371 39.153C110.273 39.011 110.322 38.3362 110.08 38.385C109.839 38.4383 109.601 38.243 109.548 37.9588C109.498 37.6703 109.543 36.8046 109.445 36.6581C109.346 36.516 109.597 36.6137 109.346 36.041C109.105 35.4595 108.903 35.313 108.903 35.313C108.903 35.313 108.903 35.606 108.617 35.606C108.33 35.606 107.936 35.5571 107.887 35.4151C107.834 35.273 107.887 35.1265 107.744 35.0289C107.601 34.9401 107.887 34.6959 107.453 34.6959C107.019 34.6959 106.974 34.2786 106.822 34.5094C106.437 35.0821 106.446 35.748 106.245 35.5616C105.811 35.1842 105.9 34.5627 105.757 34.2697C105.614 33.9856 105.421 33.8879 105.421 33.4529C105.421 33.0178 105.663 32.7825 105.318 32.3519C104.978 31.9213 105.265 31.8236 104.83 31.5395C104.396 31.2421 104.642 30.9091 104.298 30.7759C103.962 30.6294 104.15 30.5806 103.958 30.3853C103.761 30.1988 103.425 30.0079 103.425 30.0079C103.425 30.0079 103.228 29.7194 103.425 29.4308C103.618 29.1467 104.204 28.9025 103.716 28.8093C103.228 28.7116 103.47 28.9069 102.893 28.574C102.311 28.241 101.68 28.2899 101.68 28.2899C101.68 28.2899 102.646 28.0457 102.163 27.806C101.68 27.5663 100.713 27.6195 100.664 27.4198C100.61 27.2289 100.373 27.2289 100.283 26.9403C100.18 26.6562 100.082 26.3188 99.791 26.2788C99.5046 26.2256 99.6433 25.9326 99.2584 25.9326C98.8735 25.9326 99.1107 25.8393 98.5826 25.8926C98.05 25.9459 97.8039 25.8482 97.5174 25.5597C97.222 25.2711 97.2668 25.1601 97.0788 24.9382C96.4478 24.1746 96.4478 23.8816 96.4478 23.593C96.4478 23.3045 96.6402 23.0159 96.3538 22.9715C96.0539 22.9227 95.9107 22.6829 95.7675 22.3456C95.6198 22.0082 95.575 21.3867 95.6198 21.1025C95.6646 20.814 95.575 20.3345 95.575 20.3345C95.575 20.3345 96.2956 20.6186 95.3736 19.5665C94.4517 18.5099 94.6486 18.7008 94.6486 18.7008C94.6486 18.7008 94.4069 18.3723 94.2637 18.1725C94.116 17.9861 94.304 17.844 93.9683 17.7464C93.6282 17.6531 93.7266 17.6931 93.6237 17.1692C93.5342 16.641 93.6729 16.1127 93.579 15.8729C93.4805 15.6288 93.5208 15.1005 93.476 14.8119C93.4268 14.5278 93.4268 14.5722 93.3686 13.711C93.3238 12.8453 93.6148 13.1827 93.3238 12.8453C93.0329 12.5168 92.8897 12.3658 92.6928 12.3658C92.4959 12.3658 92.5943 12.2682 92.205 12.0373C91.8156 11.7932 91.914 11.6023 91.6231 11.3093C91.3322 11.0251 91.6231 10.9763 91.3322 11.0251C90.7549 11.2649 90.37 11.4114 90.37 11.4114C89.8911 11.7532 90.0119 11.62 89.6405 11.509C89.0184 11.327 89.2601 11.1716 88.9647 10.8875C88.6648 10.6034 88.817 10.4081 88.6648 10.2616C88.5216 10.1284 88.5663 9.77768 88.4724 9.59123C88.3829 9.40034 88.5261 9.30267 88.3291 8.82322C88.1322 8.34377 88.2262 7.86875 88.1277 7.63347C88.0338 7.3893 88.2262 7.19841 88.0338 6.91429C87.8368 6.62129 88.0338 6.2395 87.8368 6.04861C87.6444 5.86216 87.8905 5.71122 87.4967 5.42266C87.1118 5.13854 87.1521 5.03643 87.0536 4.80559C86.9552 4.56142 87.0044 4.37053 86.9104 4.08641C86.8075 3.79785 87.1476 3.89107 86.615 3.36279C86.0779 2.83006 86.2301 3.1719 86.0779 2.83006C85.9347 2.50155 86.1316 2.30622 86.0287 2.01766C85.9347 1.73354 85.8855 1.77793 85.7378 1.34731C85.5946 0.912254 85.8855 0.912254 85.5946 0.912254C85.3037 0.912254 85.6841 0.716921 85.3037 0.912254C84.9143 1.10315 84.6726 1.10759 84.5786 1.35175C84.4802 1.58704 84.4802 1.49825 84.4354 1.9777C84.3907 2.45716 84.4354 2.74572 84.3414 3.07867C84.2475 3.41162 84.5384 3.17634 84.1087 3.75345C83.6656 4.32613 83.6209 4.4238 83.6209 4.71236C83.6254 4.99648 83.4329 4.95209 83.2404 5.33831C83.048 5.72454 82.954 5.29392 83.048 5.72454C83.1509 6.1596 83.1957 6.1596 83.3434 6.34605C83.4866 6.53694 83.7507 6.65237 83.5806 6.82994C83.048 7.35379 83.2897 6.87433 83.048 7.35379C82.8108 8.17507 83.2449 8.07297 83.0525 8.50802C82.9406 8.75663 82.9719 8.78327 82.9764 8.80546C82.8824 8.90313 82.7258 9.07626 82.8556 8.94308C82.3767 9.47137 82.4259 9.32487 82.5691 9.80876C82.7213 10.2882 82.7616 10.1373 82.7616 10.5235C82.7616 10.9097 82.7123 11.2249 82.6721 11.4425C82.5288 12.1128 82.4125 12.2327 82.4349 12.4502C82.4886 12.9296 82.6989 12.8897 82.775 13.0717C83.0167 13.6977 83.1912 13.9329 83.0167 14.1238C82.6765 14.5145 82.9674 13.9329 82.6765 14.5145C82.5333 14.7986 82.4572 14.8918 82.408 14.9451C82.408 14.7809 82.3901 14.6299 82.3901 14.9673C82.3633 14.9984 82.3677 15.0117 82.3901 15.0872C82.3901 15.904 82.4886 15.2825 82.3901 15.904C82.2916 16.53 82.05 16.672 82.05 16.672C82.05 16.672 82.1976 16.7209 82.0992 17.1515L82.0052 17.5821C81.9112 18.0127 81.9604 17.5377 81.9112 18.0127C81.862 18.4966 82.2514 18.2569 81.862 18.4966C81.4726 18.7363 80.949 19.0737 80.949 19.3623C80.949 19.6509 80.8505 19.7041 80.8013 19.8373C80.6133 20.37 80.0807 20.8007 80.0807 20.8007C79.5974 21.0848 79.6913 20.5077 79.3512 20.8539C79.02 21.1869 78.9171 20.8095 78.6754 21.0448C78.4382 21.289 78.5322 20.8095 77.9996 21.0004L77.467 21.1958C77.467 21.1958 77.4133 20.6675 77.2253 20.6719C77.0329 20.6719 76.836 20.4322 76.5987 20.4322C76.3615 20.4322 76.4018 20.0948 76.1557 20.0504C75.914 19.9971 75.4843 19.9083 75.4843 19.9083C75.4843 19.9083 75.5783 19.4777 75.4306 19.3756C75.2829 19.2779 75.0905 18.9006 75.0905 18.9006C75.0905 18.9006 74.8488 18.7053 74.6071 18.8029C74.361 18.9006 74.1193 18.4211 73.9716 18.6165C73.8284 18.8029 73.6852 18.2746 73.2958 18.4211C72.9109 18.5676 72.9601 18.3235 72.7632 18.1859C72.5708 18.0438 72.3336 17.9905 72.1366 17.8529C71.6533 17.52 71.9442 17.8529 71.6533 17.52C71.0222 16.9961 70.9461 16.894 70.7805 16.7564C70.2927 16.3746 70.5344 15.8907 70.145 15.8907C69.7556 15.8907 70.1003 15.944 69.7601 15.8907C69.42 15.8463 69.3708 16.086 69.1291 16.1349C68.8919 16.1793 68.6949 15.9928 68.4488 15.9928C68.2026 15.9928 68.2563 15.611 67.9699 15.5622C67.6745 15.5222 67.7193 15.3757 67.5805 15.1848C67.4373 14.9895 67.4821 14.8963 67.2896 14.6566C67.0927 14.4124 66.8779 14.2082 66.757 14.1283C66.22 13.7953 65.7903 13.6488 65.5934 13.5068L65.0608 12.8364L65.3472 12.3081C65.8261 11.8242 65.9693 11.5845 66.117 11.4913C66.2602 11.3936 66.4035 11.1051 66.4035 11.1051C66.4035 11.1051 66.7436 10.67 66.7391 10.4303C66.7391 10.195 67.1419 9.9819 66.9316 9.85759C66.5467 9.61787 67.4642 9.5202 67.4642 9.5202C66.8823 9.32931 66.4348 9.48469 66.4482 9.32931C66.493 8.80546 66.4795 8.42812 66.7346 8.46363C67.7014 8.60569 67.6029 8.7078 67.8938 8.65452C68.1847 8.61013 68.1847 8.94308 68.3772 8.5613C68.5741 8.17507 68.7173 8.32157 68.5249 7.98862C68.3324 7.65566 68.2787 7.60683 68.4756 7.265C68.6681 6.93205 68.5204 7.70006 68.8605 6.73671C69.1917 5.77337 69.4379 5.9687 69.4379 5.9687C69.0485 5.34275 68.7889 5.09858 68.6591 5.0098C68.1803 4.68128 68.319 3.86444 68.0773 4.39272C67.8401 4.91657 67.7909 4.82778 67.6969 5.25396C67.594 5.68458 68.0863 5.58692 67.594 5.68458C67.1106 5.78225 67.1598 5.49813 66.9674 5.39602C66.4348 5.1119 66.7749 5.35163 66.4348 5.1119C66.2334 4.153 66.4303 3.95766 66.2334 4.153C66.0409 4.34833 65.947 4.53478 65.7053 4.73012C65.4591 4.91657 65.1727 4.91657 65.0295 5.06751C64.8818 5.21401 64.6222 5.38714 64.4432 5.2584C63.9106 4.88105 63.8748 4.75231 63.6689 4.73456C63.1811 4.68128 63.284 4.49483 62.9394 4.63689C62.6037 4.78339 62.7469 4.30394 62.4068 4.446C62.0711 4.5925 62.3486 5.04975 62.2188 4.97428C61.5923 4.59693 61.185 4.37941 61.0015 4.30394C60.3212 4.01538 60.3704 3.7357 60.1332 3.8822C59.8916 4.01982 59.8871 3.68242 59.4037 3.78009C58.9248 3.8822 59.0233 3.68686 58.8264 3.63803C58.6339 3.59364 58.5802 3.25624 58.3385 3.26068C58.1013 3.26068 58.4281 2.53707 58.0924 2.68356C57.7567 2.83006 57.5643 2.93217 57.3673 2.8789C57.1749 2.8345 57.0317 2.45272 56.884 2.35061C56.7318 2.25295 56.884 1.91999 56.5438 1.97326C56.1992 2.01766 56.1992 1.58704 55.8143 1.92443C55.4294 2.25738 55.2817 1.77349 55.0445 2.25738C54.8029 2.73684 54.7044 2.59922 54.8029 2.73684C54.9013 2.88334 55.049 3.21629 55.4294 3.26512C55.8188 3.31396 56.0605 3.1719 56.2529 3.36279C56.4499 3.55368 56.79 3.46045 56.79 3.70018C56.79 3.93991 57.0317 4.26842 56.884 4.51259C56.7408 4.75675 56.5036 5.04531 56.5036 5.04531L56.0202 5.13854C56.0202 5.13854 55.6801 4.89881 55.4876 5.00092C55.2907 5.09414 55.2012 4.95209 55.0535 5.28504C54.9148 5.61799 54.5254 5.86216 54.5254 5.86216C53.9928 5.7201 53.6482 5.04087 53.505 5.04975C53.505 5.04975 52.6367 5.28948 52.395 5.57804C52.1578 5.8666 52.2071 6.30166 52.0594 6.30166C51.9117 6.30166 51.2851 6.35049 51.0971 6.49699C51.0971 6.49699 50.7973 6.54582 50.757 6.78555C50.7033 7.02527 50.4168 6.78555 50.1752 7.07855C49.938 7.36267 49.9335 6.97644 49.938 7.36267C49.938 7.74445 49.9827 8.13956 50.1304 8.13956C50.1304 8.13956 49.6515 8.89869 49.6515 9.28491C49.6515 9.67114 49.1682 9.29379 48.7833 9.67114C48.3939 10.0618 48.1254 10.2349 48.1075 10.5368C48.0135 11.7843 48.0135 11.3048 48.0135 11.7843C48.0135 12.2637 48.0135 12.3614 48.2999 12.65C48.5953 12.9296 48.6937 13.6089 48.6937 13.6089C47.9195 13.8974 47.6286 13.8974 47.4361 13.6133C47.4361 13.6133 46.6574 12.7521 46.3709 13.0406C46.08 13.3247 45.2118 13.3247 45.2118 13.3247C44.3435 14.6743 43.9542 14.5766 43.9542 14.5766V13.8086C44.0526 12.9474 43.6632 12.3747 43.6632 12.3747C42.786 11.5135 42.8845 11.0296 42.2087 11.0296C41.5329 11.0296 42.2982 11.6067 41.5239 11.0296C40.7541 10.4569 40.2663 10.1728 40.2663 10.1728C40.2663 10.1728 39.586 10.4569 39.492 10.7499C39.492 10.7499 38.6596 10.5324 38.4313 11.1317C38.1404 11.9041 37.3662 12.3836 37.3662 12.3836C36.4934 12.3836 36.301 12.095 36.0145 12.2859C35.1463 12.8675 35.0478 13.2493 35.0478 13.2493L34.9583 14.5944C34.9583 14.5944 33.8931 14.6921 33.6962 15.1715C33.6962 15.1715 33.4098 15.7486 33.4187 16.1349C33.4187 16.1349 33.7991 16.7075 33.9066 17.1914L32.7429 17.3779L31.4808 16.712L31.1989 17.9595C31.1989 17.9595 32.0716 18.248 32.1656 18.7275L31.1049 20.0726L30.8184 21.0404L30.2321 19.2158L29.3102 18.3013C29.3102 18.3013 28.97 18.0172 28.8761 18.1637C28.7731 18.3013 28.5404 18.3546 28.2002 18.9805C27.8646 19.6065 26.9919 20.2812 26.9023 20.4277C26.7994 20.5698 26.8486 20.7119 26.9023 20.9028C26.9471 21.0981 27.1888 21.1469 27.1888 21.4843C27.1933 21.8173 26.9605 22.3367 27.05 22.532C27.3409 23.2068 27.0948 23.2112 26.8531 23.4066C26.6159 23.593 25.9401 24.0281 25.9401 24.0281C25.9401 24.0281 26.3295 24.0814 25.9893 24.5564C25.6537 25.0403 25.1211 25.6706 24.9779 25.8615C24.8302 26.048 24.6914 26.0968 24.4945 26.341C24.302 26.5807 23.9172 26.8693 23.9172 26.8693C23.2369 27.2555 22.5163 27.6906 22.5163 27.6906C22.5163 27.6906 22.2746 27.6906 21.5496 27.7882C20.8246 27.8815 20.7753 27.8371 20.4844 28.028C20.198 28.2233 20.2427 28.1212 19.9563 28.3698C19.6654 28.6095 19.2313 28.8537 19.2313 28.8537C19.2313 28.8537 18.8419 28.5651 18.6987 28.756C18.5555 28.9513 18.5062 28.3254 18.2198 28.3787C17.9289 28.4231 17.5887 28.4763 17.3471 28.6628C17.1054 28.8581 17.1054 28.7605 16.8145 29.0002C16.5236 29.2399 15.803 29.4841 15.803 29.4841C15.803 29.4841 15.3689 29.675 15.1719 29.8215C15.1719 29.8215 14.5454 30.1544 14.3529 30.2565C14.156 30.3453 13.9098 30.2033 13.9098 30.2033C13.9098 30.2033 12.4598 30.0346 12.2226 30.1145C11.6407 30.3098 11.3498 30.2121 11.2066 30.403C11.0634 30.5939 10.7546 30.4829 10.5756 30.6472C9.89976 31.2643 9.95347 30.8425 9.71179 31.3664C9.46563 31.8991 9.56409 31.5617 9.22395 31.8991C8.88829 32.232 7.96633 32.6183 7.96633 32.6183C7.96633 32.6183 7.58143 32.8092 7.48744 32.9601C7.38451 33.0977 7.34423 33.2931 7.10255 33.4351C6.86087 33.5816 6.13583 33.3907 6.13583 33.3907C6.13583 33.3907 5.80464 33.6349 5.94338 33.8657C6.0866 34.1099 4.83345 34.7847 4.8782 34.9312C4.93191 35.0821 4.77526 35.4151 4.641 35.6548C4.39484 36.081 3.86225 35.4639 3.86225 35.4639C3.86225 35.4639 3.52211 35.2242 3.71904 35.0244C3.91596 34.8335 3.91596 34.6471 3.95624 34.4517C4.00995 34.2608 3.91149 33.8791 3.91149 33.8791C3.91149 33.8791 3.76379 33.7326 3.47736 34.0699C3.19092 34.4029 3.24463 34.9356 3.09246 35.3662C2.99698 35.6533 2.90001 35.9108 2.80155 36.1387C2.65833 36.4672 2.7568 36.4672 2.7568 36.7646C2.7568 37.0621 2.95372 37.6792 2.90449 37.8168C2.87167 37.9144 2.82244 38.1216 2.7568 38.4383C2.66728 38.9177 2.8105 38.9177 2.56882 39.2063C2.32714 39.4949 2.38085 39.4949 2.18393 39.9255C1.99148 40.3561 1.94225 40.5958 1.84826 40.8844C1.75427 41.1729 1.65581 41.1286 1.80351 41.7057C1.94672 42.2783 2.08994 42.6157 2.19288 42.8066C2.28686 42.9975 2.38533 42.2784 2.67624 43.0908C2.96715 43.9076 3.45498 44.6268 3.50421 44.8177C3.55344 45.0041 3.93834 45.3415 3.93834 45.4836C3.93834 45.6256 3.69666 45.8742 3.69666 46.0651C3.69666 46.256 4.0368 46.0119 3.98309 46.5934C3.93834 47.1661 3.60267 47.3614 3.60267 47.3614C3.60267 47.3614 3.35652 46.3493 3.02085 46.3981C2.68071 46.4469 2.92239 45.8698 2.43456 45.7721C1.9512 45.6878 1.70952 45.2039 1.75875 45.5368C1.80798 45.8742 2.57777 46.2116 2.63596 46.5446C2.68071 46.882 2.7747 47.1217 2.97162 47.3614C3.16407 47.5967 3.07008 47.024 3.16407 47.5967C3.26701 48.1738 3.07008 48.2227 2.92687 48.1738C2.78365 48.125 2.87764 47.6456 2.29134 47.6012C1.71399 47.5523 1.5663 47.357 1.47232 47.2149C1.37385 47.0684 1.42308 46.6423 1.18141 46.3981C1.02476 46.2472 0.930775 46.114 0.841264 45.9763C0.796509 45.8964 0.742802 45.8165 0.693571 45.7277C0.545878 45.4925 0.304199 45.2039 0.304199 45.2039C0.304199 45.2039 0.35343 46.5446 0.693571 46.5446C1.03371 46.5357 1.13217 46.7799 1.13217 47.064C1.13217 47.3481 1.46784 47.6944 1.5663 47.8276C1.66476 47.9741 1.80798 47.8853 2.05414 48.1161C2.29134 48.3603 2.44351 48.2626 2.72994 48.4047C3.02533 48.5512 2.87764 49.3192 3.06561 49.4524C3.26701 49.6033 3.31176 49.4524 3.45498 49.883C3.60267 50.3181 3.89806 50.2204 3.94281 50.5089C3.99652 50.7975 3.94729 51.6099 3.94729 51.9029C3.94729 52.1959 4.19344 53.0527 4.19344 53.0527C4.57387 53.4878 4.91848 53.9672 4.96771 54.1537C5.01694 54.3446 4.77974 53.8207 5.11541 54.7308C5.45555 55.6453 5.93891 55.6364 5.99261 55.925C6.04184 56.218 6.42674 57.2657 6.33723 57.4122C6.23877 57.5631 6.19401 58.2246 6.19401 58.2246C6.19401 58.2246 6.43569 58.4688 6.24324 58.7085C6.05079 58.9526 6.288 59.0947 6.24324 59.5253C6.19849 59.9648 6.44017 59.8627 6.48492 60.2933C6.53863 60.7239 6.41779 60.8216 6.73108 61.159C7.21891 61.6784 7.50982 62.1579 7.70674 62.3044C7.89472 62.4509 8.23933 62.8327 8.28409 62.9747C8.48101 63.5962 8.62871 63.7871 8.48549 64.271C8.34227 64.7505 8.43178 64.0313 8.34227 64.7505C8.24381 65.4741 8.58395 66.1844 8.58395 66.1844C8.58395 66.1844 8.3915 66.8148 8.29752 67.0545C8.208 67.2942 8.19905 66.8148 8.208 67.2942C8.208 67.7692 8.25724 67.9157 8.25724 68.2531C8.25724 68.5905 8.40045 68.4929 8.21248 69.0256C8.01556 69.5539 8.40045 69.3097 8.01556 69.5539C7.62618 69.7936 7.33975 69.7448 7.10255 69.9401C6.85192 70.1354 6.61024 69.9889 6.56996 70.3707C6.52073 70.7525 6.66842 70.9434 6.61919 71.2808C6.57443 71.6226 6.42674 71.2319 6.57443 71.6226C6.71317 72 6.95933 71.9067 7.20548 71.9556C7.44269 72 7.7336 71.9556 7.97975 72.142C8.21696 72.3374 8.60633 72.2353 8.60633 72.4306C8.60633 72.6259 9.04493 72.6703 9.04493 72.91C9.04493 73.1498 9.28661 73.4428 9.38955 73.6736C9.47906 73.9178 10.2086 74.2996 10.2086 74.2996C10.2086 74.2996 10.9873 74.3439 11.0276 74.5348C11.0858 74.7257 11.8063 74.6769 11.8063 74.6769L13.064 74.526C13.064 74.526 13.789 74.4372 14.2276 74.6725C14.6662 74.9078 15.9238 74.4283 15.9238 74.4283L16.6892 74.0909L17.271 73.5626L17.8036 72.9855L18.8195 72.6925L20.1219 72.0754L20.5605 71.5383L20.9006 71.1565C20.9006 71.1565 22.0106 70.859 22.297 70.9612C22.5924 71.0588 23.125 71.0011 23.1742 71.1032C23.2145 71.1964 24.1857 70.6637 24.1857 70.6637C24.1857 70.6637 24.7183 70.7125 24.8615 70.6637C25.0092 70.6149 25.5865 70.6149 25.5865 70.6149C25.5865 70.6149 25.873 70.4728 26.0251 70.6149C26.1684 70.7569 26.41 70.5172 26.5577 70.7569C26.7054 70.9922 27.7214 70.9478 27.7214 70.9478L28.7418 70.8502L29.4176 70.7969C29.4176 70.7969 29.8025 70.6016 29.9457 70.6992C30.0889 70.7969 30.5231 70.6504 30.5231 70.6504C30.5231 70.6504 31.0556 70.4995 31.2078 70.4551C31.351 70.4107 31.9821 69.7803 31.9821 69.7803C31.9821 69.7803 32.5102 69.3985 32.5549 69.252C32.6087 69.1055 32.4117 69.252 33.0428 68.4795C33.6694 67.7115 34.2019 67.5206 34.3944 67.4718C34.5824 67.4274 35.3611 67.1388 35.5043 67.0856C35.6475 67.0323 36.4666 66.5573 36.4666 66.5573L37.2408 65.8825C37.2408 65.8825 37.7287 65.4519 37.7734 65.5939C37.8271 65.7404 38.5969 65.6472 38.5969 65.6472L40.9153 65.6383C40.9153 65.6383 41.6 65.6383 41.8327 65.5895C42.0789 65.5407 43.1441 65.2033 43.1441 65.2033L43.9183 65.1101L44.4957 64.6706C44.4957 64.6706 44.9746 64.4797 45.2252 64.2355C45.4579 63.9958 45.5653 63.8537 45.8025 63.796C46.0442 63.7472 46.2859 63.6539 46.5276 63.6451H47.4495C47.4495 63.6451 47.9821 63.5563 48.2238 63.6939C48.4655 63.8404 49.1905 63.4053 49.3338 63.4986C49.477 63.5962 49.5307 63.3609 50.3005 63.4986C51.0747 63.6406 51.6029 63.21 51.7998 63.4009C51.9922 63.5918 52.6188 63.3476 52.6188 63.3476C52.6188 63.3476 53.4423 63.0591 53.684 63.2056C53.9212 63.3476 54.6015 63.6362 54.6015 63.6362C54.6015 63.6362 55.0848 64.1156 55.3757 64.2533C55.6711 64.3953 55.3802 64.9236 55.5682 64.968C55.7651 65.0213 56.2485 65.1589 56.2485 65.1589H57.0675C57.0675 65.1589 57.797 64.968 57.9402 64.8215C58.0879 64.6839 58.4728 64.9636 58.4728 64.9636C58.719 65.443 59.1531 65.5895 59.1531 65.5895C59.7886 65.3942 59.6902 65.3009 59.9766 65.3942C60.272 65.4918 60.4062 65.5229 60.5629 65.7271C60.9523 66.2554 61.1402 66.3042 61.2924 66.3442C61.4401 66.3975 61.825 66.2998 61.8697 66.6816C61.919 67.0634 62.2591 66.5395 61.919 67.0634C61.5788 67.5961 61.2521 67.4496 61.3864 67.6449C61.919 68.4129 62.3083 68.4129 62.3621 68.6527C62.4113 68.8924 63.2795 69.0345 63.2795 69.0345C63.4765 69.4695 63.4586 69.5672 63.5212 69.7048C63.7629 70.2331 63.9598 70.3308 63.9643 70.4728C63.9643 70.6149 64.4969 70.7125 64.3984 70.9523C64.3 71.1964 64.3447 71.2364 64.3984 71.4317C64.4476 71.6226 64.5372 71.8757 64.5909 72.0088C64.8415 72.586 64.7565 72.6969 64.8415 72.8701C65.1324 73.5005 65.5665 73.9311 65.5665 73.9311C65.5665 73.9311 66.2423 74.0243 66.2916 74.1619C66.3408 74.3084 66.7257 74.1619 66.7257 74.1619C66.7257 74.1619 67.1151 73.6825 66.9674 73.6825C66.8197 73.6825 66.9182 73.3007 67.0121 73.1098C67.1106 72.9189 67.4463 72.4794 67.4463 72.4794L68.2116 71.7602L68.8382 71.1831C68.8382 71.1831 69.4692 70.8502 69.3752 70.8013C69.2768 70.7481 69.7601 70.3174 69.7601 70.3174C69.7601 70.3174 70.0958 70.1754 70.239 70.0733C70.3912 69.98 70.6776 69.6427 70.6776 69.6427C71.1565 69.2564 71.2057 68.9723 71.255 68.8303C71.3042 68.6882 71.5459 68.3464 71.5459 68.3464L71.8323 67.9646C71.8323 67.9646 71.7338 67.6272 71.8771 67.3386C72.0203 67.0501 72.6021 68.1066 72.4589 68.1066C72.3157 68.1066 72.3694 68.6394 72.2217 68.7326C72.0785 68.8303 72.1724 69.0167 72.0785 69.2609C71.98 69.4962 72.2261 69.7448 72.0785 69.8868C71.9352 70.0289 71.6936 70.3663 71.6443 70.5128C71.604 70.6548 71.4564 71.1343 71.4116 71.2763C71.3579 71.4184 71.5101 71.6137 71.3176 71.9511C71.1252 72.2841 71.1252 72.2397 71.1744 72.475C71.2147 72.7191 71.5593 72.6703 71.3176 73.243C71.0804 73.8245 71.3176 73.6292 71.0804 73.8245C70.8387 74.0154 70.7403 74.0554 70.4046 74.1087C70.0645 74.1575 70.3554 73.678 70.0645 74.1575C69.7691 74.637 69.7243 74.8767 69.7243 74.8767L70.1629 75.3117L70.5523 74.6325L71.1252 74.5792C71.1252 74.5792 71.3713 74.4816 71.5682 74.5304C71.7607 74.5748 72.0471 74.4327 72.1008 74.2907C72.1456 74.1442 72.338 73.7624 72.3873 73.4738C72.4365 73.1808 72.5797 72.7058 72.5797 72.7058C73.26 72.799 74.079 73.1808 73.9358 73.2785C73.7926 73.3717 74.1283 73.5182 74.079 73.7136C74.0343 73.9 74.182 74.2862 74.0387 74.6236C73.891 74.9521 73.8418 75.1519 73.7971 75.294C73.7478 75.436 73.8418 75.436 73.7031 75.7202C73.5599 76.0043 73.5778 76.0132 73.7971 76.1064C74.3789 76.3461 75.0547 76.0531 75.0547 76.0531C75.0547 76.0531 76.1199 75.8089 76.0751 76.0975C76.0259 76.3816 76.4153 76.3372 76.366 76.5237C76.3213 76.719 76.1736 77.2917 76.1736 77.2917C76.1736 77.2917 76.7062 77.709 76.8091 77.82C77.1985 78.2506 77.3551 78.2906 77.3417 78.4415C77.2969 79.0674 77.4446 79.3516 77.4446 79.3516C77.4446 79.3516 77.4446 79.5957 77.3909 79.7866C77.3462 79.9775 77.6863 80.0752 77.5386 80.2616C77.3954 80.4614 77.561 80.3682 77.6371 80.6479C77.834 81.3626 77.9056 81.3981 77.9369 81.7C77.9817 82.2283 78.0667 82.2372 78.1741 82.3703C78.6127 82.9031 78.8544 83.0895 78.9529 83.2316C79.293 83.7155 79.387 83.8575 79.5347 84.0928C79.6779 84.3325 80.2642 84.1861 80.3134 84.3326C80.3134 84.3326 81.1325 84.2349 81.1325 84.3769C81.1325 84.3769 82.2961 84.9008 82.2469 85.0428C82.2469 85.0428 82.8735 85.287 83.0211 85.287C83.1688 85.287 83.2628 85.1405 83.5045 85.2382C83.7462 85.3314 83.7417 85.1405 84.0863 85.287C84.4265 85.4291 85.147 85.5179 85.147 85.5179C85.147 85.5179 85.975 85.3714 85.9258 85.6111C85.881 85.8508 86.4136 85.944 86.4136 85.944L86.8925 86.0905C86.8925 86.0905 87.2729 86.1926 87.3311 86.3747C87.3803 86.5656 87.9129 86.7564 87.9129 86.7564C87.9129 86.7564 88.3426 86.6099 88.3963 86.7076L88.45 86.8053L89.3182 86.3214L90.0433 85.8375L90.3834 85.4069L90.916 85.0695L91.1577 85.2604L91.5471 85.0207C91.5471 84.6389 91.8335 84.297 91.8335 84.297L92.3168 83.9641C92.3168 83.9641 92.9479 84.1994 92.751 84.3414C92.563 84.4879 92.6078 84.9185 92.469 85.0162L92.9031 85.2959L93.6774 84.772C93.6774 84.772 94.3085 85.2515 93.9683 85.4424C93.6282 85.6333 93.3865 85.5401 93.3462 85.6777C93.2925 85.8197 93.5387 85.8197 93.7311 85.9174C93.9191 86.0151 94.4562 86.1083 94.4562 86.1083H95.132L95.5661 86.4901C95.5661 86.4901 95.8615 86.7786 95.8615 86.9207C95.8615 87.0628 96.3448 87.3513 96.3448 87.3513C96.3448 87.3513 96.4881 87.6399 96.5865 87.8308C96.5865 87.8308 96.9267 87.4445 96.9267 87.298C96.9267 87.1516 97.3608 86.6277 97.3608 86.6277L97.8441 86.53L98.2783 86.4324C98.8556 85.6599 99.3882 85.3758 99.4867 85.1849C99.5851 84.994 100.113 84.5545 100.113 84.5545C100.113 84.5545 100.113 84.4125 100.597 84.0795C101.075 83.7377 101.465 83.3115 101.469 83.5024C101.469 83.6933 102.002 83.4491 102.002 83.6C102.002 83.6 103.063 82.9652 103.157 83.2094C103.246 83.4491 103.935 83.5423 103.935 83.5423C103.935 83.5423 104.419 83.4003 104.562 83.4447C104.705 83.4891 105.287 83.347 105.287 83.347C105.287 83.347 105.77 83.2049 105.914 83.2493C106.057 83.3026 106.446 83.1561 106.446 83.1561C106.683 82.6234 106.836 82.246 106.836 82.246C107.068 81.6645 107.364 81.1806 107.364 81.1806C107.364 81.1806 107.525 80.8698 107.408 80.7011C107.117 80.275 107.261 79.507 107.261 79.507C107.261 79.507 107.498 79.1651 107.498 78.9254C107.498 78.6857 107.592 78.6857 107.641 78.4459C107.695 78.2062 107.641 78.0686 107.641 77.8688C107.641 77.6824 107.69 77.1541 107.69 77.1541C108.075 76.6702 108.075 76.6214 108.169 76.3328C108.268 76.0442 108.505 75.5692 108.505 75.5692L109.275 74.6503C109.275 74.6503 109.467 74.1708 109.516 74.0199C109.566 73.8778 109.566 73.5937 109.615 73.4472C109.66 73.3051 109.758 73.0166 109.803 72.7769C109.852 72.5327 109.803 72.2486 109.95 72.1553C110.098 72.0621 110.241 71.5782 110.241 71.5782C110.241 71.5782 110.483 71.0988 110.528 70.9523C110.573 70.8102 111.105 70.1354 111.105 70.1354C111.105 70.1354 111.204 70.0866 111.248 69.7448C111.298 69.4118 111.298 69.1721 111.298 69.1721C111.298 69.1721 111.392 68.8835 111.683 68.6438C111.969 68.3996 112.166 68.0667 112.314 67.969C112.461 67.8758 112.461 67.969 112.842 67.5828C113.222 67.2054 113.325 67.1033 113.567 66.8592C113.804 66.6239 113.611 66.7659 113.996 66.3353C114.381 65.9003 114.771 65.4652 114.771 65.4652C114.771 65.4652 114.914 64.7505 114.771 64.7505C114.627 64.7505 114.717 64.3687 114.717 64.3687C114.717 64.3687 115.102 63.9825 115.102 63.7427C115.102 63.503 115.2 63.1656 115.2 63.1656C115.2 63.1656 115.487 62.7794 115.487 62.5885C115.487 62.3976 115.733 61.9181 115.733 61.7716C115.724 61.6251 115.916 60.8616 115.916 60.8616C115.916 60.8616 116.203 60.2356 116.163 60.0403C116.109 59.8494 116.346 59.512 116.301 59.2234C116.257 58.9349 116.346 58.6952 116.301 58.4554C116.257 58.2201 116.257 58.0736 116.301 57.8295C116.346 57.5942 116.588 57.3012 116.686 57.0615C116.78 56.8262 117.071 56.4843 117.071 56.3467C117.071 56.2091 117.17 55.9161 117.264 55.7252C117.362 55.5299 117.505 55.4367 117.505 55.0504C117.505 54.6642 117.46 54.4245 117.46 54.4245C117.46 54.4245 117.653 53.7541 117.505 53.5632L117.469 53.5854Z" fill="#001336"/>
</svg>
