<svg width="85" height="60" viewBox="0 0 85 60" fill="none" xmlns="http://www.w3.org/2000/svg">
<g clip-path="url(#clip0_86_1663)">
<rect width="85" height="60" rx="10" fill="white"/>
<rect width="85" height="60" rx="10" fill="#000066"/>
<path d="M0 0V2.37581L37.7483 21.25H42.4998V18.8742L4.75148 7.08331e-05L0 0ZM42.4998 0V2.37574L4.75148 21.2499H0V18.8742L37.7483 0H42.4998Z" fill="white"/>
<path d="M17.7083 0V21.2499H24.7916V0H17.7083ZM0 7.0833V14.1666H42.4998V7.0833H0Z" fill="white"/>
<path d="M0 8.49997V12.7499H42.4998V8.49997H0ZM19.1249 0V21.2499H23.3749V0H19.1249Z" fill="#CC0000"/>
<path d="M0 21.2499L14.1666 14.1666H17.3343L3.16765 21.2499H0ZM0 0L14.1666 7.0833H10.999L0 1.5839L0 0ZM25.1656 7.0833L39.3322 0H42.4998L28.3332 7.0833H25.1656ZM42.4998 21.2499L28.3332 14.1666H31.5009L42.4998 19.6661V21.2499Z" fill="#CC0000"/>
<path fill-rule="evenodd" clip-rule="evenodd" d="M23.2149 32.4523L24.4446 36.2744L28.1987 34.8528L25.9774 38.1968L29.4298 40.246L25.4298 40.5938L25.9809 44.5711L23.2149 41.6606L20.4489 44.5711L20.9999 40.5938L17 40.246L20.4524 38.1968L18.2311 34.8528L21.9852 36.2744L23.2149 32.4523Z" fill="white"/>
<path fill-rule="evenodd" clip-rule="evenodd" d="M65.7148 39.333L66.2999 41.1534L68.0884 40.4763L67.0301 42.0686L68.6742 43.0447L66.7695 43.2104L67.0323 45.1038L65.7148 43.7183L64.3973 45.1038L64.6601 43.2104L62.7554 43.0447L64.3994 42.0686L63.3412 40.4763L65.1297 41.1534L65.7148 39.333Z" fill="white"/>
<path fill-rule="evenodd" clip-rule="evenodd" d="M65.7148 11L66.2999 12.8201L68.0884 12.143L67.0301 13.7355L68.6742 14.7114L66.7695 14.8772L67.0323 16.7706L65.7148 15.3851L64.3973 16.7706L64.6601 14.8772L62.7554 14.7114L64.3994 13.7355L63.3412 12.143L65.1297 12.8201L65.7148 11Z" fill="white"/>
<path fill-rule="evenodd" clip-rule="evenodd" d="M55.0898 22.5101L55.6749 24.3305L57.4634 23.6534L56.4051 25.2457L58.0492 26.2218L56.1445 26.3875L56.4073 28.2809L55.0898 26.8954L53.7723 28.2809L54.0351 26.3875L52.1304 26.2218L53.7744 25.2457L52.7162 23.6534L54.5047 24.3305L55.0898 22.5101Z" fill="white"/>
<path fill-rule="evenodd" clip-rule="evenodd" d="M75.1567 19.6769L75.7447 21.4973L77.5297 20.8201L76.4742 22.4125L78.1176 23.3885L76.2122 23.5543L76.4742 25.4476L75.1567 24.0622L73.8392 25.4476L74.1013 23.5543L72.1995 23.3885L73.8463 22.4125L72.786 20.8201L74.5759 21.4973L75.1567 19.6769Z" fill="white"/>
<path fill-rule="evenodd" clip-rule="evenodd" d="M69.9647 28.2023L70.4272 29.3363L71.6491 29.4263L70.7134 30.2161L71.0059 31.4053L69.9647 30.7601L68.9234 31.4053L69.216 30.2161L68.2803 29.4263L69.5021 29.3363L69.9647 28.2023Z" fill="white"/>
</g>
<defs>
<clipPath id="clip0_86_1663">
<rect width="85" height="60" rx="10" fill="white"/>
</clipPath>
</defs>
</svg>
