<svg width="38" height="35" viewBox="0 0 38 35" fill="none" xmlns="http://www.w3.org/2000/svg">
<g id="flag-for-flag-china_svgrepo.com" clip-path="url(#clip0_2_11565)">
<path id="Vector" d="M38 26.2483C38 27.2797 37.5552 28.2688 36.7633 28.9981C35.9715 29.7274 34.8976 30.1372 33.7778 30.1372H4.22222C3.10242 30.1372 2.02848 29.7274 1.23666 28.9981C0.44484 28.2688 0 27.2797 0 26.2483V8.74826C0 7.71687 0.44484 6.72771 1.23666 5.9984C2.02848 5.2691 3.10242 4.85938 4.22222 4.85938H33.7778C34.8976 4.85938 35.9715 5.2691 36.7633 5.9984C37.5552 6.72771 38 7.71687 38 8.74826V26.2483Z" fill="#DE2910"/>
<path id="Vector_2" d="M11.7552 8.7276L12.5321 9.07372L13.1538 8.52344L13.0366 9.31094L13.7966 9.68622L12.9479 9.82622L12.7959 10.6079L12.3885 9.90788L11.5335 10.0158L12.1309 9.44316L11.7552 8.7276ZM16.6793 11.5869L16.3036 12.3015L16.901 12.8751L16.0471 12.7662L15.6396 13.4672L15.4876 12.6845L14.6379 12.5445L15.3989 12.1693L15.2807 11.3827L15.9035 11.933L16.6793 11.5869ZM15.6692 15.2609L15.9521 16.0115L16.8144 16.028L16.1273 16.5073L16.3774 17.2686L15.6692 16.8145L14.9609 17.2686L15.21 16.5073L14.5228 16.028L15.3852 16.0115L15.6692 15.2609ZM11.7552 18.4498L12.5321 18.7959L13.1538 18.2457L13.0366 19.0332L13.7966 19.4084L12.9479 19.5484L12.7959 20.3301L12.3885 19.6301L11.5335 19.738L12.1309 19.1654L11.7552 18.4498ZM7.38939 10.6468L8.37 13.2436L11.353 13.3L8.97484 14.9605L9.83934 17.5914L7.38939 16.0212L4.93945 17.5914L5.80395 14.9605L3.42578 13.3L6.40878 13.2436L7.38939 10.6468Z" fill="#FFDE02"/>
</g>
<defs>
<clipPath id="clip0_2_11565">
<rect width="38" height="35" fill="white"/>
</clipPath>
</defs>
</svg>
