<svg width="124" height="88" viewBox="0 0 124 88" fill="none" xmlns="http://www.w3.org/2000/svg">
<path d="M45.8873 75.7095C46.4583 76.4468 45.3692 77.0565 45.3919 77.224C45.324 76.7342 44.9115 76.6192 44.4638 76.7092C44.665 76.3293 45.2686 75.822 45.6836 75.9119L45.8899 75.707L45.8873 75.7095ZM26.8911 46.7218C26.9615 46.8442 27.1577 46.9642 27.2256 47.1241C27.4821 46.9067 27.633 46.7143 27.628 46.3419C28.4504 46.002 29.5696 46.2569 30.0751 45.5122C30.4926 44.8974 30.4775 43.5453 30.4926 42.7981C30.3769 42.5482 30.382 42.2033 30.4926 41.8809C30.1984 41.1511 31.217 41.0437 31.3855 40.5413C31.4534 40.3364 31.217 39.1493 31.0057 39.0194C30.3065 38.587 29.8362 38.8369 29.1546 38.722C28.6944 38.6445 28.5661 38.2071 27.9952 38.3321C27.633 38.4121 27.7889 38.9969 27.1199 38.8919C26.8483 39.0344 26.4006 39.1593 26.2824 39.4917C25.9706 40.3564 27.0571 39.5342 27.0797 40.3639C26.7326 40.4864 26.2271 40.4489 25.7895 40.4464C25.7392 40.5588 25.6889 40.6538 25.6436 40.7688C25.0651 40.7488 24.4364 40.7713 23.8353 40.7513C23.6366 41.3761 24.132 41.7135 24.6174 41.9534C24.6677 42.4357 24.2754 42.5057 23.8353 42.3832C23.7271 43.0455 25.875 43.9302 24.7583 44.2201C24.6828 45.1123 25.9303 44.1551 25.7442 45.2623C25.4701 45.2198 24.9696 45.0173 24.7432 45.0423C24.3282 45.0923 24.2855 45.5372 23.7246 45.4472C23.9334 45.6146 23.9811 45.907 24.1044 46.0745C23.6994 46.1095 23.6668 46.2769 23.5209 46.6018C23.8252 46.8142 24.039 46.9142 24.4137 46.7418C23.6768 47.0816 25.0978 47.2691 24.9972 47.2466C25.6411 47.389 26.3805 47.0766 26.8961 46.7193L26.8911 46.7218ZM42.9145 79.0634C42.9648 78.776 43.0453 78.4836 42.9271 78.1762C43.0931 78.1187 43.2566 77.9887 43.4226 77.9537C43.4125 77.8688 43.4226 77.7788 43.4276 77.6938C42.6002 77.164 41.9085 78.9959 42.9145 79.0634ZM30.8146 33.8461C31.4106 34.4034 30.6561 34.5958 30.8749 35.2631C30.6913 35.2131 30.4876 35.2831 30.299 35.2406C30.1204 36.0604 31.0183 36.0429 31.1164 35.3156C32.1853 35.3381 31.3679 36.4477 31.2874 36.975C31.2195 36.9526 31.1289 36.9576 31.0686 36.9925C30.807 36.8126 30.5027 36.7701 30.1959 36.8751C30.138 37.19 30.1783 37.26 30.382 37.4574C30.5429 37.2849 30.8422 37.2325 30.9982 37.03C31.2824 37.3049 30.8624 38.8519 31.4911 38.6545C32.0293 38.487 31.7351 37.1525 31.9413 36.8526C32.0796 36.8751 32.2959 36.98 32.4167 37.0575C32.97 37.4099 32.6229 38.9094 31.9338 39.0244C32.1802 39.2318 32.4292 39.5492 32.6204 39.7816C32.3789 39.4867 35.1153 39.4917 35.1103 39.3243C35.1229 39.6866 35.0575 40.009 34.9166 40.3089C35.0474 40.8263 35.4901 41.0712 35.9302 41.3686C35.9126 41.3936 35.9076 41.576 35.9076 41.6135C35.6913 41.6435 35.5404 41.8134 35.3266 41.8534C35.2864 42.0283 35.2763 42.2858 35.3291 42.4607C35.5077 42.4732 35.6108 42.6281 35.8095 42.6406C35.5127 44.1476 33.7798 42.8731 33.4805 43.2804C33.4227 43.3604 33.3975 43.4529 33.3321 43.5328C33.2466 43.2254 33.0957 43.053 33.1586 42.6906C33.1234 42.7031 33.0002 42.7156 32.97 42.6906C32.6254 43.2729 33.4554 44.1526 33.4378 44.8149C33.4101 45.7921 33.1259 45.6896 32.5147 46.167C32.3186 46.3194 32.1375 46.4469 32.0193 46.6568C32.809 47.1991 33.2743 47.1116 34.1797 47.2666C34.5846 47.3366 34.7783 47.5765 35.1807 47.6065C35.4247 47.624 36.1264 46.6243 36.1113 47.7139C35.4272 47.7014 35.2813 48.1663 34.8211 48.3137C33.8779 48.6161 33.7094 48.2488 33.1335 49.006C32.7612 49.4983 32.6682 50.0631 32.2255 50.4655C32.3437 50.3181 30.7643 51.0428 31.3805 51.0378C31.642 51.0378 32.0495 51.0878 32.3236 51.0153C32.6556 50.9253 32.97 50.3156 33.3623 50.3256C33.5535 50.3306 33.8201 50.7029 33.9584 50.6829C34.6777 50.5805 35.0726 49.8282 35.9 49.7707C36.7728 49.7083 37.3059 49.6533 38.156 49.3609C39.489 48.901 41.7048 49.4583 42.7083 48.0063C42.6404 47.9888 42.6077 47.9489 42.5725 47.8739C42.2204 47.9688 41.9638 47.8639 41.6922 47.7614C41.8708 47.474 42.1097 47.0716 42.0217 46.7593C42.7737 46.8442 43.6338 45.8696 43.6313 45.1473C43.068 44.5925 43.0956 44.3925 42.316 44.2426C41.8255 44.1476 41.4608 44.3176 40.9276 44.3476C40.6233 43.153 40.6535 42.5532 40.0599 41.531C39.5569 40.6638 38.9307 40.3864 38.395 39.8066C37.7134 39.0693 38.0856 37.9072 37.1802 37.245C36.7803 36.9526 35.6862 36.5927 35.1832 36.8926C35.148 36.9001 35.1103 36.9001 35.0751 36.8926C34.982 36.8126 34.8915 36.7251 34.811 36.6427C35.0147 35.8854 35.9352 36.5727 36.0333 35.758C35.8724 35.723 35.6913 35.5655 35.558 35.538C36.0057 35.0207 36.5892 35.0982 36.9513 34.4809C37.2607 33.9536 36.974 33.1963 37.653 32.9389C37.5952 32.2117 34.5117 32.634 33.8452 32.8139C33.7572 32.4291 33.7698 32.2966 34.1722 32.0867C33.8377 31.3719 35.3568 31.3145 35.5278 30.5597C35.2059 29.785 34.4513 30.4822 33.8477 30.4572C33.3271 30.4347 32.804 30.1174 32.145 30.1124C32.0947 30.8321 31.7678 31.4119 31.8005 31.9967C31.5465 32.0117 31.4609 32.1592 31.2245 32.1792C30.9378 32.684 30.8447 33.1588 31.0007 33.7361C30.89 33.5812 30.8598 33.4662 30.7919 33.3038C30.5731 33.0664 30.2537 32.709 29.7834 32.794C29.1773 33.7161 30.4197 33.4812 30.8121 33.8486L30.8146 33.8461ZM17.862 13.233C17.6734 13.0181 16.5365 13.0431 16.2247 12.9331C16.4485 12.6882 16.3102 12.5533 16.4007 12.2609C16.1719 12.2609 15.9732 12.0809 15.7091 12.1184C15.7795 11.9985 15.8097 11.7785 15.8952 11.6486C15.4903 11.6561 15.1809 11.7635 14.7936 11.8185C14.6779 11.5736 14.3283 10.9888 14.0341 10.9388C13.2368 10.8039 13.7096 11.2987 13.3122 11.6061C12.9601 11.8785 12.6835 11.7985 12.4194 11.9335C12.0723 12.1084 11.7403 12.1434 11.441 12.1509C11.4134 12.0934 11.3882 12.0284 11.3706 11.956C11.0814 11.901 10.6689 11.9035 10.3746 11.956C10.3998 12.0909 10.4375 12.2184 10.4702 12.3433C10.3671 12.4483 10.2942 12.6133 10.2589 12.8732C9.98481 12.4808 9.54215 12.0509 9.02405 12.1684C8.51601 12.2859 8.3978 12.9481 7.89479 13.2805C7.36411 12.1759 6.61713 12.1734 6.54168 13.4555C6.21724 13.498 5.90789 13.473 5.54823 13.388C5.54069 13.6079 5.41996 13.7729 5.41242 13.9728C4.54472 13.6554 5.44008 12.5933 4.81886 12.0409C4.57742 11.8285 2.85963 11.2612 2.67603 11.3487C2.90238 12.7807 0.938119 10.9338 1.30532 12.6432C1.19214 12.6307 1.14184 12.5883 1.03872 12.5658C0.847577 12.8532 0.686612 13.0406 0.588525 13.353C0.399895 13.3055 0.201205 13.363 0 13.2755C0.19366 15.1699 2.86214 12.6507 3.87571 13.7754C3.75248 13.8628 3.68708 14.0128 3.49594 14.1003C3.52863 14.2652 3.43306 14.5101 3.46324 14.6801C2.671 14.6051 2.04978 15.0624 1.2349 15.0174C1.21478 15.2998 1.2349 15.3773 1.39586 15.5673C1.54425 15.4523 1.62473 15.4398 1.75551 15.2499C2.60561 14.9 3.63678 15.5698 4.20267 16.372C4.20267 16.3845 4.20267 16.397 4.2077 16.4095C4.20267 16.4295 4.19764 16.447 4.1901 16.4645C4.18758 16.4695 4.18507 16.4745 4.18255 16.4819L2.66094 17.2467C2.91496 17.3542 3.16144 17.3442 3.4054 17.2817C2.87472 18.2089 3.44061 17.9614 4.53215 17.804C5.32188 17.689 6.04118 18.2514 6.55929 17.799C7.19308 18.8362 9.55221 18.8786 10.6488 18.5313C10.7066 17.6116 11.6749 18.0589 12.3364 17.9115C12.9727 17.769 13.6316 17.3167 14.0768 16.8593C14.1824 16.8493 14.3308 16.8868 14.444 16.9018C14.4616 16.8543 14.4742 16.8068 14.4868 16.7569C15.4425 16.8418 16.0034 16.7918 16.2347 15.8672C17.2181 16.1146 17.2282 14.965 18.0707 14.8075C17.6658 14.3252 18.2569 13.6904 17.862 13.2405V13.233ZM71.3499 32.9489C71.5611 32.4916 71.9837 32.4091 71.956 31.8493C71.2945 31.6743 70.9625 32.3316 70.3463 32.4641C70.3665 32.8539 70.1728 33.3238 70.2306 33.6862C70.2759 33.9686 70.628 34.2984 70.6582 34.6833C71.1663 34.1285 71.0682 33.5612 71.3524 32.9489H71.3499ZM122.081 59.9398C121.568 59.8698 121.151 59.6224 120.617 59.8548C120.472 59.7799 120.542 59.7749 120.411 59.7524C120.14 59.0376 120.992 59.1276 121.163 58.6128C120.562 57.963 120.112 56.5759 119.234 56.266C119.229 56.266 118.832 56.556 118.605 56.4885C118.243 56.381 118.311 55.7787 118.15 55.5238C117.881 55.0989 116.777 54.2792 117.856 53.8544C117.899 53.6244 117.926 53.2346 117.879 52.9997C117.549 52.6223 118.226 50.9778 118.563 50.5805C119.82 49.091 119.684 51.5251 120.542 51.6276C121.176 51.7026 121.291 51.1053 121.362 50.608C121.45 49.9907 121.07 50.1031 121.563 49.4633C121.981 48.921 122.884 48.0388 123.588 47.7189V6.79271C123.424 6.77022 123.283 6.69275 123.11 7.03763C122.803 7.64992 122.287 7.64992 122.287 7.64992L121.364 7.85485L120.851 7.64992C120.851 7.64992 120.748 7.75239 120.748 8.05729C120.748 8.36218 119.722 8.56712 119.722 8.56712L119.209 10.3015C119.209 10.3015 117.36 10.6064 116.641 10.404C115.922 10.1991 115.512 9.58677 115.512 9.58677C115.512 9.58677 113.356 8.46465 115.922 8.05729L117.257 7.85236C117.257 7.85236 117.77 8.05729 117.667 7.74989C117.564 7.44499 116.128 6.2204 116.128 6.2204C116.128 6.2204 112.944 6.11794 112.227 5.91301C111.508 5.70808 113.766 6.32037 113.356 7.64742C112.947 8.97448 112.33 9.27937 112.637 9.48431C112.944 9.68924 113.663 9.27937 113.56 9.99413C113.457 10.7089 113.766 9.38184 113.457 10.7089L113.148 12.0359L112.122 11.5261C112.122 11.5261 111.402 11.1188 110.786 11.3212C110.17 11.5261 109.76 11.2187 109.76 11.2187C109.76 11.2187 109.041 12.4433 108.014 12.3408L107.398 12.8507L106.269 13.1581C106.269 13.1581 105.96 13.8728 106.679 14.5876L107.192 15.4048L106.576 15.5073L105.96 16.1196L105.24 15.7122L104.317 15.3048C104.317 15.3048 104.111 15.5098 103.804 15.5098H103.497L102.675 14.795L102.162 14.1827L101.546 14.3877L101.136 14.5926L100.726 14.8975C100.726 14.8975 100.932 15.5098 101.136 15.8147C101.342 16.1221 102.059 16.3245 102.059 16.3245L102.778 16.427C102.778 16.427 103.394 16.6319 103.188 17.1417C102.982 17.6516 102.366 17.4466 102.366 17.4466L101.956 17.854L101.339 17.3442C101.339 17.3442 101.133 17.6516 100.723 17.5491C100.313 17.4466 100.313 16.9368 99.8003 16.7319C99.2872 16.5269 99.3903 16.427 98.7741 16.3245C98.1579 16.222 98.3642 17.2417 98.1579 16.222L97.9517 15.2024C97.9517 15.2024 97.4386 14.6926 97.3355 14.3852L97.2324 14.0803L97.8486 12.8557C97.8486 12.8557 97.8486 12.4483 97.5417 12.3458C97.2324 12.2434 97.0287 11.7335 97.0287 11.7335H96.0025L95.5926 11.6311L95.3863 11.1213L94.667 10.8139L93.8446 9.7942L94.667 9.69174C94.667 9.69174 95.077 10.2016 95.3863 10.304C95.6957 10.4065 95.8994 9.99663 96.1056 10.304C96.3119 10.6089 96.7218 10.304 97.0287 10.509C97.338 10.7139 96.8224 10.304 97.338 10.7139C97.8511 11.1213 99.0835 11.3262 99.0835 11.3262C99.0835 11.3262 100.419 11.4287 101.138 11.5311C101.858 11.6336 102.061 11.9385 102.371 12.0409C102.677 12.1434 102.987 12.3483 103.603 12.3483C104.219 12.3483 104.425 12.3483 105.452 11.941C106.478 11.5336 108.223 10.9213 108.223 10.9213C108.533 10.514 108.736 9.69673 108.736 9.69673C108.736 9.69673 108.326 9.59427 108.429 9.28937C108.533 8.98447 108.326 8.26971 108.326 8.26971L107.607 8.06478L106.991 7.55496C106.991 7.55496 106.478 6.8402 106.375 7.24756C106.272 7.65492 106.888 7.75739 106.272 7.65492L105.655 7.55246L104.732 6.94016C104.732 6.94016 104.322 6.73523 104.013 6.63526C103.706 6.5328 103.5 6.73773 103.294 6.43033C103.087 6.12294 102.268 5.81804 102.268 5.81804C102.268 5.81804 101.754 5.71557 101.445 5.51064C101.138 5.30571 100.726 4.69342 100.213 4.59345C99.6997 4.49099 99.2897 4.49099 99.2897 4.49099H98.4673L96.3119 4.18359L95.3888 3.97866C95.3888 3.97866 95.082 4.18359 94.6695 4.08113L94.2596 3.97866L93.8496 3.87619C94.672 3.67126 93.9527 3.36637 94.672 3.67126C95.3914 3.97616 94.5689 2.85404 94.159 2.9565C93.749 3.05897 93.3365 2.65161 92.9266 2.9565C92.5166 3.2639 91.6942 3.67126 91.6942 3.67126L90.8718 3.2639L90.0494 3.05897C90.0494 3.05897 89.8431 3.2639 89.4332 3.05897C89.0232 2.85404 88.3039 2.75407 88.6107 2.65161C88.9201 2.54914 90.4593 2.14178 90.4593 2.14178L91.1786 1.83688L90.0494 0.91969C89.2269 1.02216 88.7139 0.714759 88.7139 0.714759C88.2008 0.817225 88.7139 0.817225 88.2008 0.817225C87.6877 0.817225 87.2752 1.12212 87.2752 1.12212L87.1721 0.204931L86.146 0H85.6329V0.509828C85.3261 1.01966 84.4005 1.83688 84.4005 1.83688L84.2974 0.407363C83.9227 0.714759 81.307 3.18143 81.4151 1.93185C81.4403 1.62945 82.1722 1.02465 82.3533 0.762243C82.303 0.734753 82.2627 0.732253 82.2426 0.657279C81.556 0.524823 80.3488 0.222425 79.7703 0.702263C79.8533 0.827221 79.8457 0.912193 79.9715 1.04715C79.9262 1.14212 79.8382 1.25958 79.8608 1.38703C79.7929 1.00966 78.9177 3.02898 79.046 2.98399C78.5932 3.14644 78.0072 2.0768 77.6249 1.96184C77.298 1.86437 75.9348 2.0643 75.6053 2.19426C76.1385 2.35671 76.9333 2.52415 76.5762 3.12645C76.3674 2.93401 76.1134 2.81905 75.9549 2.56913C75.7512 2.73658 75.6053 2.65411 75.4444 2.91652C74.876 2.79406 73.2538 2.94151 72.9796 3.43384C72.3483 2.70659 72.6099 2.20426 71.7447 2.54164C71.3901 2.6791 70.6607 3.31888 70.452 3.61878C70.8368 3.80372 71.3272 3.98866 71.0279 4.4485C70.7513 4.18359 70.3866 4.1461 70.1049 4.35103C70.2332 3.80872 69.8081 3.61628 69.2246 3.68876C69.0209 3.8537 68.9228 3.91118 68.7141 4.02115C68.533 4.27856 68.3821 4.57346 68.2941 4.85586C68.5908 4.54847 69.0058 4.39602 69.3931 4.60845C69.3806 4.60095 68.0727 7.35252 67.1195 5.24323C66.9334 5.30321 66.6567 5.40818 66.5285 5.56563C66.4203 5.22824 66.4681 4.85836 66.6391 4.53347C66.6341 4.54347 65.2282 5.6331 65.1905 5.6506C64.7528 5.84553 64.2699 5.50315 63.8927 5.933C64.275 6.26539 64.8006 6.28038 65.2835 6.13793C65.1024 6.99015 63.8072 6.13793 63.6739 7.1226C64.6095 7.60994 66.2518 6.72523 67.2402 6.65026C67.0994 6.93017 66.0707 7.30254 65.7362 7.49248C65.7186 7.61494 65.6306 7.80487 65.5878 7.91983C65.3917 7.81487 65.1351 7.88484 64.9138 7.80237C64.5944 8.18224 64.8157 8.6096 64.5567 8.94949C64.4209 9.12943 64.1165 8.99697 63.9908 9.12943C63.8348 9.29187 63.855 9.63675 63.6865 9.74172C63.269 10.0041 63.0351 9.7917 62.6578 10.0516C62.2881 10.304 62.0542 10.8838 61.8002 11.2287C62.2705 11.8135 62.0894 12.3184 61.4732 12.6158C61.4933 12.4308 61.3525 12.1234 61.4028 11.881C61.4154 11.821 60.9375 12.021 60.8771 12.1009C60.7489 12.2684 61.0482 12.5658 60.9828 12.7207C60.8394 13.0481 60.1251 13.9153 60.6633 14.2077C60.6432 14.2677 60.5602 14.4701 60.5527 14.5526C59.8485 14.5901 59.3203 15.2024 58.7519 15.0499C58.3143 15.8022 58.3595 15.9521 57.6729 16.4944C57.6 16.472 57.6377 16.377 57.5748 16.372C57.3963 16.357 55.5276 20.0532 55.2333 18.0039C55.0321 17.9889 54.7001 18.0339 54.5367 18.1114C54.2323 18.4138 54.3732 18.8487 54.4964 19.251C54.094 19.431 53.3546 19.1461 52.8465 19.3435C52.3737 19.5259 52.1423 19.9833 51.7449 20.2457C51.4381 20.4481 50.9929 20.4381 50.7238 20.6955C50.8219 20.7355 50.9099 20.7005 51.008 20.7355C51.0432 20.813 51.0407 20.888 51.003 20.9629C50.8294 21.0104 50.8144 21.0129 50.6911 21.0829C50.3113 20.8855 49.9064 21.0304 49.6021 21.2828C49.6625 21.3953 49.6801 21.5502 49.7228 21.6477C49.3456 21.6252 49.1821 21.7352 48.9784 22.0326C49.2248 22.0376 49.3984 22.1175 49.5971 22.0951C49.5644 22.0926 49.5292 22.0926 49.4965 22.0951C49.7807 22.235 50.1453 22.325 50.4975 22.3775C49.9567 22.6724 49.3456 22.2175 48.84 22.6074C47.9296 23.3121 49.831 23.627 48.6514 24.2868C48.8954 24.4918 49.2072 24.5117 49.5694 24.4068C49.5518 24.4643 49.5644 24.6917 49.5644 24.7592C49.4311 24.7717 49.3204 24.8041 49.1947 24.8391C49.0588 25.3365 49.3053 25.9338 49.2802 26.3286C49.25 26.781 49.1368 27.3008 48.9406 27.6182C48.8199 27.5857 49.1393 27.6732 49.167 27.6807C49.079 27.7731 48.9859 27.9806 48.913 28.093C49.2198 28.0905 49.1217 28.2955 49.4889 28.098C49.4512 28.5654 49.3179 28.8203 49.3003 29.2751C49.416 29.2152 49.6826 29.0452 49.7756 28.9627C49.8788 27.9806 50.6886 28.7478 50.4924 29.4476C49.9542 29.3151 49.5241 29.5975 49.3732 29.9974C49.2022 30.4522 51.4532 31.4694 51.8103 31.6318C52.2756 31.8443 52.7082 32.1592 53.3495 32.0267C54.3983 31.8093 55.2836 30.7446 55.9853 30.0049C56.1211 29.8624 56.1941 29.5775 56.3726 29.4776C56.6895 29.3026 56.8807 29.4701 57.0693 29.3826C57.4994 29.1827 58.0276 29.3001 58.0301 28.5829C58.9556 29.3676 58.8777 29.5376 59.0135 30.6372C59.0839 31.212 59.3128 31.3869 59.524 31.8643C59.7227 32.3116 59.6875 32.609 59.778 33.0114C59.9566 33.8036 60.6307 34.3984 60.9903 35.1032C61.4078 35.9204 61.3449 36.8251 61.9863 37.5449C61.101 38.552 65.0848 38.482 64.3102 36.3553C64.7679 36.3378 65.2584 36.6027 65.6834 36.7226C65.94 36.4152 66.1009 36.2928 66.5134 36.3128C66.7423 35.8654 66.9384 35.3781 67.2252 35.0207C67.2905 35.2581 67.4565 35.4356 67.4767 35.7105C67.8766 35.2956 68.0501 34.7433 67.9746 34.126C67.0089 34.026 68.0928 32.3291 68.0778 31.6768C67.5622 31.6468 67.5647 31.062 67.7734 30.6647C67.4188 30.5747 67.112 30.3973 67.0617 30.0199C68.1608 29.9624 68.8474 29.6325 69.8182 29.3926C70.2558 29.2851 70.8871 29.6475 70.8494 28.9328C70.8393 28.7403 70.2533 28.4679 70.115 28.3704C70.5777 27.7507 72.2679 28.1755 71.3599 26.9409C71.0103 26.4661 69.876 26.5011 70.2105 25.6314C69.3906 25.4339 68.6386 25.1165 68.7971 24.1294C68.8071 23.9944 68.7342 23.6745 68.7971 23.4096C67.7357 23.2197 69.5139 21.6827 69.617 21.0679C69.4686 21.0054 69.3001 20.7655 69.1919 20.7155C69.5893 20.2557 70.3916 20.0757 70.9248 19.5884C71.536 19.0311 71.9183 18.9461 72.5923 18.5762C72.9042 18.4063 73.1129 18.0289 73.4348 17.8815C73.7593 17.7315 73.963 17.9939 74.3352 17.759C74.6949 17.5316 75.5249 16.5794 75.5752 16.277C75.4846 16.0496 75.2734 15.5498 75.3287 15.2824C75.3136 15.3523 75.9046 14.2727 75.8946 14.2877C76.4605 13.488 77.22 13.7154 77.7482 13.0806C78.7291 14.0178 80.1274 12.4608 81.1536 12.9107C81.8653 13.223 82.3633 14.7675 81.3875 15.0599C81.2315 14.9075 81.0857 14.94 80.9272 14.845C80.3513 15.2174 80.389 16.0046 79.8005 16.5594C79.3176 17.0143 78.7995 17.3017 78.2613 17.7315C77.801 18.0989 76.9836 18.2514 76.7145 18.5687C76.2844 19.0736 76.6189 19.8483 75.5877 19.7384C75.3035 20.1432 75.3337 20.6755 75.5525 21.1079C75.3714 21.1379 75.2306 21.2528 75.0721 21.2703C74.9917 21.4328 75.0596 21.4278 74.9389 21.5277C75.379 21.9926 75.5098 22.245 75.5651 22.7548C75.5903 22.9848 75.3865 23.1997 75.384 23.4721C75.3815 23.8045 75.6707 24.1344 75.6682 24.4918C75.6632 25.1065 75.125 25.0816 75.6682 25.6164C75.711 25.6589 76.4429 25.7863 76.5711 25.8413C76.5762 25.8413 76.9685 26.3911 77.0062 26.4411C77.5847 25.9163 78.2361 27.1983 78.9579 27.2483C79.7527 27.3033 80.5977 26.9684 81.2969 26.716C82.557 26.2587 84.9966 26.581 85.9674 25.5289C86.5107 25.8413 90.1701 26.3436 89.5162 27.4058C88.7466 27.5482 87.4463 26.5111 87.5645 28.0281C87.3331 27.8256 87.0112 27.7057 86.7823 27.4907C86.4604 27.7756 86.4126 28.1605 86.1208 28.5104C85.6203 27.9281 84.4206 28.168 83.8095 28.118C83.2034 28.068 81.7195 27.3508 81.9156 28.5329C81.0605 28.4304 80.2482 28.2505 79.964 29.2476C79.7175 29.2052 79.6118 29.3201 79.388 29.3276C79.2119 29.8075 79.4635 30.1348 79.139 30.4697C78.9504 30.3023 77.9293 29.3376 77.9016 29.3351C77.5595 29.3076 77.3357 29.4626 77.3709 29.805C77.464 30.6897 80.394 30.7097 80.7134 31.8418C80.4116 31.9792 80.3689 32.2092 80.2054 32.4166C80.9348 33.0264 80.3965 33.6787 80.2733 34.3484C78.9906 34.4484 78.802 33.2588 77.9569 32.9089C77.6979 32.8015 76.9132 32.8464 76.6214 32.9089C75.6154 33.1263 76.0731 33.4362 75.7537 34.086C75.5299 34.5409 75.0847 34.7133 74.9539 35.2056C74.7754 35.8704 75.1199 36.9551 75.1828 37.6548C75.3186 39.1943 74.8483 39.0818 73.4374 39.3318C73.2311 39.6641 73.1481 39.9865 73.0852 40.3664C72.8815 40.4589 71.9987 40.8837 71.9032 40.8737C70.9575 40.7713 71.4152 39.9715 70.8242 39.5367C70.0496 38.9669 68.6336 40.0015 67.8891 40.019C67.8363 40.134 67.786 40.2464 67.7458 40.3664C67.2604 40.4714 66.3952 40.9262 65.789 41.1736C64.9264 41.5285 64.6874 41.8709 64.2549 42.7131C63.855 42.5982 63.6311 42.2808 63.5557 41.8759C62.8012 41.9609 62.3258 40.9612 62.4314 40.2489C61.9863 40.0815 61.5512 40.3664 61.0079 40.3439C60.8369 40.8787 60.3716 40.9212 59.934 41.1536C59.6649 41.1261 59.436 41.3661 59.2147 41.691C58.7947 41.4211 58.2866 41.0462 58.8424 40.5563C58.7066 40.4289 58.4098 40.2864 58.2388 40.2439C57.439 41.666 56.8606 39.9291 56.5789 39.3293C56.4104 39.2618 56.1991 39.0419 56.0708 38.9994C56.3752 38.8919 56.4909 38.7969 56.4959 38.5545C56.9888 38.5745 57.5849 38.6795 57.3032 39.2593C57.7006 39.2843 58.1106 39.2868 58.5105 39.2668C58.5155 39.1743 58.5205 39.0793 58.5205 38.9844C58.4124 38.9694 58.3344 38.9569 58.1936 39.0419C58.098 38.717 58.108 38.3271 58.0955 37.9697C57.8842 37.9197 57.4667 37.8148 57.273 37.7923C56.3752 38.1996 56.7424 37.2849 57.1146 36.8551C57.5748 36.3203 58.5859 36.4002 58.4325 35.648C56.8908 36.0329 57.7383 33.5912 57.8163 32.8939C57.5447 32.9639 57.4742 32.9464 57.2756 33.1138C57.2504 33.1063 57.0366 33.0039 57.0693 32.9964C56.1387 33.9036 55.5125 34.1685 54.1368 34.3259C54.0663 34.4059 53.9682 34.5809 53.9205 34.6683C54.2172 34.7783 54.3128 35.0157 54.5341 35.2031C53.669 35.593 53.7696 36.7376 53.8224 37.6323C54.8561 37.8148 54.343 38.4221 54.8158 39.0344C54.5995 38.9794 54.3531 39.0668 54.1342 39.0194C54.094 39.8816 55.261 39.6541 55.2258 40.4689C55.1277 40.4664 55.0598 40.4239 54.9567 40.4514C54.5291 41.1236 55.4043 42.6781 53.933 42.6531C53.8853 42.6531 53.4552 42.2233 53.1659 42.1933C52.8289 42.1558 52.5372 42.3507 52.2882 42.4882C52.2756 42.7856 52.0945 43.0905 52.0392 43.3229C51.4959 43.0155 51.1036 42.8481 50.4421 42.8981C49.9919 43.8177 48.9683 43.8827 48.2917 44.44C47.5221 45.0723 47.1424 46.3394 46.5941 47.1116C46.2872 47.544 46.003 48.0088 45.6233 48.2887C44.997 48.7536 43.9684 48.891 43.2516 49.2259C43.0956 50.6904 43.4226 50.6904 42.1248 51.2677C41.2219 51.6701 40.9981 52.1374 40.5454 53.0221C40.153 52.9022 39.7707 53.0821 39.2501 52.9797C38.81 52.8947 38.4226 52.1649 38.073 52.09C36.5741 51.7701 38.0529 54.1118 37.6656 54.9615C37.3386 54.6241 36.8884 54.5391 36.3754 54.5291C36.3251 54.6841 36.1616 54.8365 36.1188 54.9565C35.6913 54.5216 34.6576 53.1971 34.6903 54.6516C34.6551 54.6516 34.6199 54.6516 34.5846 54.6516C34.5167 54.5841 34.4614 54.4916 34.3985 54.4267C33.8477 54.4067 32.384 54.7516 33.3598 55.3264C33.3548 55.3364 33.2542 55.6238 33.2491 55.6713C33.1687 55.6912 33.0655 55.6438 32.9851 55.6513C32.897 55.8162 32.8819 56.0286 32.8794 56.2086C33.8502 56.3235 34.3055 56.9033 35.2008 57.1657C35.6686 57.3032 36.0384 57.1782 36.4609 57.3207C36.9413 57.4831 36.7753 57.998 37.4694 57.8705C37.5097 58.2729 37.1249 58.7702 37.1726 58.9751C37.2909 59.485 37.8995 59.6349 38.2315 59.9698C39.0338 60.777 38.9357 62.6714 38.7722 63.7135C38.6414 64.5508 38.5182 65.5629 38.1963 66.3427C37.7763 67.3648 36.9262 67.5472 35.7391 67.5472C35.0097 67.5472 34.3935 67.0149 33.6666 67.6897C33.5786 67.5372 33.3824 67.4423 33.2994 67.2823C31.8457 67.6847 31.6018 66.68 30.3216 66.5726C29.7054 67.8047 28.551 66.4176 27.8569 66.2677C27.5953 66.78 26.1768 68.3145 25.5732 67.5847C25.3141 68.4744 26.0133 69.0742 26.1064 69.904C26.212 70.8361 25.8322 71.7858 26.0938 72.748C26.3604 73.7277 26.3252 73.9151 26.0083 74.7173C25.7341 75.4121 25.4751 76.1244 25.3066 76.8516C24.9997 78.1737 25.3996 77.8963 25.8825 78.8709C26.4031 79.9206 25.0802 81.665 26.0586 82.4772C26.2422 82.6297 26.9389 82.5297 27.1401 82.5247C27.296 82.5197 27.4041 82.7871 27.5198 82.7596C27.7311 82.7096 27.8443 82.4547 28.0153 82.4272C28.3247 82.3747 28.4253 82.1473 28.9635 82.2623C29.0842 82.2898 29.8412 82.7371 29.9117 82.8321C30.3744 83.4344 30.1606 83.8792 30.7819 84.509C30.8523 84.5815 31.3779 85.1713 31.4433 85.1788C32.2859 85.2763 31.8181 84.714 32.1375 84.3766C33.1335 83.3244 34.8814 83.5843 36.2546 83.3619C36.3276 83.3494 36.3703 83.2994 36.4282 83.2744C36.5212 83.3944 36.6747 83.4744 36.7627 83.5744C37.1903 83.242 37.1148 82.8296 37.3764 82.4372C37.6857 81.9774 38.1409 81.8974 38.405 81.705C38.9256 81.3276 38.9206 81.5075 39.2023 80.7078C39.3934 80.168 39.4211 79.7756 39.7556 79.2958C41.1364 79.3308 40.2008 77.7163 40.0524 77.1815C39.5695 76.3418 40.988 75.0622 41.3175 74.3924C41.4256 74.175 41.5916 73.2703 41.6822 73.1704C42.1424 72.678 43.0705 72.8105 43.6414 72.4831C44.2123 72.1557 45.0121 70.8511 45.7792 70.9986C45.8697 70.5762 45.9024 70.1489 46.0106 69.734C45.7515 69.5366 45.6031 69.2392 45.5956 68.9168C45.3919 68.277 45.9854 67.9946 46.4331 67.6722C47.1675 67.1399 47.0267 67.3948 47.7435 67.4448C48.254 67.4823 48.8174 67.2648 49.2877 67.3373C49.7782 67.4148 50.0297 67.8272 50.6207 67.8496C52.4265 67.9146 53.7243 64.5608 55.4421 64.9981C56.9939 65.3955 57.6377 66.5201 58.1583 67.8696C58.8676 69.7115 60.1302 70.5112 61.5336 71.8033C61.8404 72.0857 61.8127 72.4656 62.1472 72.723C62.4943 72.9904 62.9269 73.0054 63.3293 73.1828C63.6487 73.3228 64.2599 73.7352 64.5868 73.9726C64.9314 74.225 65.3917 74.3674 65.0194 74.7298C65.1829 75.3996 66.2443 75.9569 66.5612 76.7267C66.9083 77.5664 66.4807 78.4636 66.4153 79.4207C66.1487 79.3133 65.8293 79.3808 65.535 79.3208C65.3942 80.203 63.9103 79.8881 63.3268 80.4354C62.7609 80.1105 61.9586 79.5932 61.5864 80.3554C61.2343 80.173 60.9048 80.253 60.7036 80.5479C60.9425 81.3051 61.4631 81.1527 62.024 81.5C62.5974 81.8574 62.6704 82.2873 63.1759 82.7196C63.4048 82.9146 64.119 83.3219 64.3831 83.3569C65.3439 83.4894 65.11 83.247 65.2282 82.3598C65.4168 80.9127 65.8343 80.9627 66.873 80.3229C67.7609 79.7781 67.3207 78.0312 68.4751 77.9362C68.6487 76.6367 67.0642 76.1369 67.6879 74.6024C68.3972 74.5074 68.46 74.205 69.1341 74.4574C69.5264 74.6049 69.788 75.0622 70.2206 75.2147C70.2256 75.4671 70.3765 75.6345 70.3589 75.8994C70.7563 75.782 70.9198 75.3796 70.8594 74.9373C70.7035 74.5224 70.2885 74.285 69.9062 74.0176C69.4007 73.6652 69.0838 73.2353 68.6185 72.843C67.7659 72.1232 66.37 72.3581 66.8529 70.8536C66.2569 70.4063 65.3363 70.5962 64.7101 70.2388C64.0461 69.8565 63.7041 68.9143 63.2312 68.292C62.8112 67.7372 62.7232 67.2049 62.4365 66.6775C62.1799 66.2077 61.9158 66.1927 61.5864 65.8628C60.7136 64.9881 60.7388 64.4358 60.8947 63.2037C60.8218 63.0163 60.7438 62.5539 60.7237 62.3465C61.184 61.9391 61.7624 61.6192 62.2504 61.2344C62.3459 61.2494 62.5094 61.3019 62.6176 61.3368C63.0501 62.1816 61.8907 62.479 62.8162 63.2837C63.1759 63.5961 63.44 63.3587 63.8424 63.5886C64.1467 63.761 64.3203 64.1934 64.5592 64.4108C64.856 64.6782 65.1376 64.6682 65.4093 65.0006C65.6281 65.2705 65.5929 65.6929 65.8393 66.0178C66.3851 66.7375 67.1723 66.8725 67.9319 67.0374C67.6502 67.1874 67.6175 67.4148 67.449 67.5422C67.7785 68.0496 68.0249 67.6122 68.4902 67.8546C68.8222 68.0271 69.114 68.4294 69.3806 68.6994C70.1904 69.5166 71.1889 70.1189 71.961 70.9886C72.3131 71.3835 72.9293 72.0032 72.9293 72.5781C72.9293 72.8305 72.879 72.9579 72.801 73.1878C72.7357 73.3803 72.4037 73.4478 72.3332 73.6227C72.5168 73.1529 73.0173 73.1729 72.8891 72.4981C72.8136 72.0957 72.1119 71.8133 71.9786 71.3135C72.0038 73.8876 73.2009 76.6717 75.1677 78.3686C75.0621 78.4111 74.9766 78.4586 74.8659 78.5061C75.0847 78.9784 75.5777 79.4207 76.0681 79.5007C76.0983 79.6532 76.0907 79.8081 76.0631 79.9556C75.8468 79.9006 75.6028 79.9956 75.3865 79.9406C75.2658 80.098 75.0973 80.4654 75.0721 80.6653C75.2734 80.9977 75.2935 81.0852 75.6456 81.0327C76.1662 81.7125 75.8443 83.1995 76.7799 83.5544C76.8528 83.4944 76.9383 83.4119 77.0062 83.3544C77.0993 83.5244 77.2628 83.6243 77.3307 83.8567C77.303 83.8792 77.63 83.8767 77.6048 83.8593C77.5973 83.7018 77.5998 83.5619 77.6576 83.4169C77.889 83.5768 78.2939 83.6718 78.5077 83.7968C78.465 83.2495 77.6828 81.4626 78.8372 81.615C78.8221 81.5425 78.8422 81.3476 78.8573 81.2676C78.8573 81.2551 78.6913 81.1527 78.6637 81.1252C78.7089 81.0077 78.7693 80.9052 78.7542 80.7578C78.2814 80.4429 76.9107 80.1755 76.9157 79.6057C77.8261 79.3933 78.1556 79.5832 78.7467 80.103C79.1969 80.5004 80.0017 81.3101 79.9866 80.043C79.7451 79.8481 79.4257 79.6457 79.0963 79.5182C79.4785 79.4857 79.8206 79.3108 79.886 78.9209C79.0736 78.3611 77.4514 79.3583 77.718 77.9287C77.7557 77.7263 78.2185 77.6039 78.2386 77.1315C78.2487 76.8916 77.8991 76.2668 77.8287 76.0094C77.6375 75.3046 77.4816 74.6299 77.9469 73.8926C78.7794 73.7527 78.1179 74.6823 78.8523 74.7923C79.3075 74.8623 79.6445 74.28 79.6797 73.9201C79.6672 73.9001 79.5439 73.7627 79.5138 73.7227C79.891 73.2553 81.0329 73.5502 81.6289 73.3653C82.3507 73.1404 82.9971 72.813 83.3719 73.7302C83.5001 73.5252 83.7592 73.3453 83.8698 73.1803C83.6108 73.6627 84.0987 74.0351 84.5112 74.2875C84.2999 74.4074 84.2848 74.4774 84.0082 74.5024C83.5831 74.9173 83.6158 76.1443 83.9076 76.8141C83.973 76.9641 84.3452 76.8691 84.4282 77.0291C84.5288 77.2215 84.5665 77.5489 84.6093 77.7463C84.7023 78.1687 84.6294 78.8184 84.5816 79.2358C84.5439 79.5582 84.1943 79.2758 84.4005 79.9756C84.4508 80.1455 84.9161 80.8203 85.0142 81.0177C85.6027 82.2048 85.5398 83.1145 87.0589 83.082C86.6641 83.2894 86.8603 83.222 86.9709 83.5793C87.9996 82.8446 88.2687 83.8118 88.9201 84.2816C89.7375 84.8714 90.2908 84.4066 91.161 84.1616C91.0981 83.9892 91.1761 83.6593 91.0881 83.4819C92.4387 82.6696 93.4774 84.5465 94.5664 84.8889C95.9296 85.3188 96.9809 84.0217 97.7505 83.147C98.4622 84.459 98.7339 83.7443 99.6242 83.172C99.7701 83.222 100.183 83.3969 100.301 83.4769C100.223 83.8243 99.0835 84.4616 99.7147 85.0014C100.369 85.5612 100.816 84.2591 100.726 83.8043C101.571 83.7618 102.383 83.4144 103.221 83.3819C103.794 83.3594 104.257 83.6118 104.805 83.6618C105.542 83.7268 105.879 83.5219 106.553 83.242C107.504 82.8471 108.148 82.7946 109.169 82.8296C110.024 82.8571 110.497 82.4297 111.302 82.3423C112.106 82.2548 112.864 82.8896 113.663 82.6497C115.062 82.2273 113.002 79.4108 113.128 78.1612C113.261 76.8366 114.674 76.3168 113.15 75.2472C112.753 74.9697 112.501 75.0297 112.305 74.5449C112.044 73.8926 112.305 72.9929 112.124 72.2807C112.074 72.0907 109.551 71.6634 109.282 71.7133C108.512 71.8533 107.992 72.818 107.112 72.7705C106.86 72.9679 106.812 73.0104 106.392 72.9754C105.965 73.3153 105.997 72.7305 105.575 72.803C105.107 72.883 104.823 73.1279 104.342 73.2153C103.648 73.3403 103.105 73.1504 102.388 72.9029C101.498 72.5955 98.8948 71.8858 98.5679 70.8561C97.416 70.4063 96.9608 70.8086 95.7862 70.9961C94.7877 71.156 94.1489 71.0061 93.1479 71.4834C92.3909 71.8458 91.7068 72.6455 90.8391 72.7055C90.0896 72.758 88.9503 72.4206 88.2234 72.1982C87.2627 71.9033 86.0655 70.8361 86.2491 69.6365C86.1208 69.6165 86.0856 69.5566 85.907 69.5491C85.6581 68.9918 86.0378 68.7293 86.2717 68.262C86.3824 68.0421 86.3925 67.7347 86.5509 67.5472C86.6867 67.3898 87.0866 67.3548 87.1671 67.2174C87.4513 66.735 87.1596 66.1527 87.3708 65.6054C87.5569 65.1206 88.1656 65.313 88.0977 64.5258C87.1319 63.9685 88.3492 64.0659 88.5026 63.9785C89.0056 63.691 89.2043 63.816 89.3351 63.1087C88.4473 62.5039 90.1625 61.3118 90.6605 60.7096C91.6967 59.4575 92.001 59.27 93.6233 59.295C93.5956 59.6499 93.334 59.7824 92.9417 59.7324C92.8587 60.9845 96.5357 59.8873 95.7736 61.4818C95.4341 61.5868 95.1097 61.7092 94.6896 61.6667C94.5262 61.8567 94.3979 62.1866 94.3728 62.419C94.9688 62.8088 95.492 62.9663 95.6982 63.6586C95.9195 64.3983 95.4341 65.273 96.664 65.0331H96.6665C97.4763 64.8731 97.7631 64.0234 98.3868 63.5986C99.1941 63.0488 99.9486 63.3862 100.811 62.9388C100.869 62.7064 100.836 62.4815 100.723 62.279C100.009 61.8342 98.837 62.7889 98.6735 61.8742C98.3214 61.5243 98.1755 60.947 98.2787 60.4197C98.8546 60.1972 99.428 59.8224 100.006 59.5674C100.645 59.2875 101.317 59.0326 101.936 58.7677C102.205 58.6527 105.613 56.8359 105.024 58.3678C104.878 58.7477 104.083 58.6153 103.885 58.7177C103.115 59.1101 103.462 59.0176 103.5 59.5849C103.55 60.3522 103.505 60.0823 103.216 60.6496C103.009 61.0519 102.901 61.5843 102.758 61.9866C102.255 62.0641 101.757 62.1941 101.262 62.2765C101.128 63.776 102.313 63.7435 103.266 64.5058C103.857 64.9781 104.614 65.1955 105.208 65.6579C105.799 66.1177 106.053 67.0324 106.89 67.0099C107.144 67.0024 107.232 66.7175 107.504 66.72C108.145 66.725 108.251 67.0199 108.761 67.2074C109.669 67.5397 110.663 67.6147 111.606 68.0571C112.449 68.4519 112.964 68.9043 113.87 68.9768C114.654 69.0392 116.007 69.2542 116.254 70.2863C116.52 70.1764 117.539 70.9936 117.871 71.2435C118.364 71.6159 118.786 72.5781 119.408 72.653C120.444 72.778 120.499 71.4359 120.343 70.7087C120.195 70.0114 119.337 69.7065 119.42 69.0192C119.118 68.3045 119.322 67.1974 119.01 66.4676C118.726 66.0453 118.213 65.5804 117.977 65.0381C117.567 64.1084 118.163 63.4761 118.595 62.6464C119.151 61.5793 119.362 62.0191 120.368 61.4468C120.889 61.1519 121.87 60.4646 122.199 60.0448C122.144 60.0248 122.104 60.0073 122.086 59.9373L122.081 59.9398ZM56.1589 72.6705C55.5804 72.4231 55.1805 73.0104 55.0346 73.4578C54.6574 73.0829 54.2348 73.0629 54.1292 73.6102C53.8752 74.2 54.3229 74.7748 54.4109 75.4046C54.5065 76.0944 54.2399 76.9691 54.4159 77.4914C54.3354 77.9712 54.67 78.2611 55.1126 78.4286C55.2333 78.1112 55.344 77.8088 55.4622 77.4864C55.8042 77.5764 56.1111 77.5839 56.4481 77.5064C56.7675 76.3318 56.5713 75.2447 56.4657 74.0776C56.433 73.7052 56.7751 72.9329 56.1589 72.668V72.6705ZM59.5215 39.7541C59.2926 39.5017 59.0512 39.2468 58.7997 38.9969C58.679 39.0094 58.596 38.9994 58.5255 38.9894C58.6387 39.5317 59.3656 40.4789 59.7579 39.8441C59.7353 39.8966 59.6397 39.7516 59.6347 39.7366C60.1503 39.8366 60.5879 39.2818 60.6105 38.9044C61.0356 38.9519 61.2418 38.7519 61.194 38.3121C60.8847 37.9472 60.9853 37.3824 60.9878 36.8826C60.9652 36.8451 60.8319 36.6477 60.7816 36.5752C60.2333 36.4577 59.846 36.7476 59.8334 37.2849C59.519 37.15 59.5265 37.3624 59.3153 36.9526C58.8877 37.2025 58.7796 37.7348 58.5306 38.0597C59.4108 38.3096 60.0346 38.8669 59.6297 39.7566C59.5944 39.7566 59.5592 39.7566 59.524 39.7566L59.5215 39.7541ZM83.7768 86.9807C83.3341 87.1381 83.1656 86.8532 82.6199 86.8957C82.5947 86.8108 82.5796 86.6583 82.5494 86.5683C82.3734 86.5758 82.2225 86.5583 82.0515 86.5458C81.4755 87.3481 80.1551 86.0685 79.5867 86.2659C79.5339 86.2834 79.5741 86.4384 79.5464 86.4884C79.4081 86.4134 79.3402 86.3984 79.1793 86.3659C78.6762 87.1981 79.5716 86.9057 79.9765 87.0632C80.467 87.2531 80.8694 87.8829 81.2894 87.9879C81.5962 88.0653 82.1747 87.7504 82.5444 87.653C83.0877 87.5105 83.7039 87.7255 83.8849 87.0857C83.817 87.0857 83.8045 87.0382 83.7768 86.9832V86.9807ZM55.8696 70.5063C55.9828 69.8415 56.5965 68.7743 56.0985 68.252C55.7992 68.6144 55.1579 68.8218 54.9441 69.2217C54.5568 69.9414 54.7605 70.8136 54.9441 71.6109C55.8545 71.9033 55.7816 71.0461 55.8721 70.5063H55.8696ZM56.4732 38.3696C56.4707 38.3446 56.4682 38.3221 56.4632 38.2921C56.4657 38.3046 56.4707 38.3346 56.4732 38.3696Z" fill="#008BE8"/>
</svg>
