<svg width="79" height="69" viewBox="0 0 79 69" fill="none" xmlns="http://www.w3.org/2000/svg">
<g id="rooster_svgrepo.com" clip-path="url(#clip0_2_8274)">
<path id="Vector" d="M3.23415 15.941C3.34769 15.8333 3.46707 15.7199 3.57411 15.616C3.08941 15.7771 2.7282 15.8503 2.43223 15.8503C1.33931 15.8503 1.33932 14.8161 1.33932 14.4762C1.33932 12.7194 7.50721 10.8502 16.0055 10.0321C16.5636 9.97832 17.128 9.95106 17.683 9.95106C25.4376 9.95106 30.8044 15.2237 32.8247 17.2087C32.9998 17.3806 33.1517 17.5297 33.2797 17.651C34.3497 18.6637 36.3884 21.9869 38.0264 24.6572C38.886 26.0584 39.7739 27.5063 39.9902 27.7109C40.0142 27.7149 40.068 27.7206 40.1724 27.7206C41.3827 27.7206 45.8978 26.9823 49.3761 25.2382C51.7305 24.0576 53.0603 21.4288 54.6 18.3849C55.5544 16.4975 56.6363 14.3587 58.1004 12.3422C60.6909 8.77451 64.4301 7.08357 66.2272 6.27075C66.6172 6.09437 67.0181 5.91307 67.1921 5.80179C65.7278 5.0253 63.342 3.56147 62.9896 2.11145C62.9266 1.85123 62.9613 1.64741 63.0932 1.50509C63.2172 1.37167 63.4137 1.30392 63.678 1.30392C64.3192 1.30392 65.33 1.70418 66.1421 2.02572C66.3418 2.10482 66.5685 2.19453 66.7507 2.26038C66.6484 2.14002 66.5199 1.9996 66.412 1.8817C65.7843 1.19586 65.3464 0.68243 65.4312 0.320398C65.4589 0.20155 65.5397 0.107493 65.6652 0.0484476C65.7338 0.0164646 65.8119 0 65.8968 0C66.4133 0 67.1693 0.629251 68.1812 1.51815C68.4757 1.77723 68.8236 2.08268 69.044 2.24146C69.0115 2.10728 68.9515 1.93128 68.9058 1.79748C68.7264 1.27137 68.5407 0.727093 68.8087 0.413129C68.8891 0.319073 69.047 0.207038 69.3439 0.207038C69.9514 0.207038 70.484 1.10086 71.1705 2.36352C71.341 2.67749 71.5451 3.05333 71.6734 3.22782C71.7306 3.07832 71.7813 2.79634 71.8175 2.59441C71.9342 1.94339 72.0447 1.32834 72.5401 1.32834C72.9921 1.32834 73.2488 1.98124 73.6297 3.0469C73.773 3.44754 73.9857 4.04197 74.1175 4.18145C74.2592 4.12543 74.561 3.7914 74.746 3.58664C75.1313 3.16045 75.4639 2.79236 75.813 2.79236C75.834 2.79236 75.8548 2.79388 75.8751 2.79634C76.2875 2.85065 76.2795 3.3531 76.2691 3.98955C76.2645 4.27929 76.2535 4.95774 76.3923 5.01395C76.4359 5.0183 76.4758 5.02038 76.5124 5.02038C76.7167 5.02038 76.7824 4.95755 76.9018 4.84325C76.9852 4.7632 77.0892 4.66384 77.2523 4.58928C77.4935 4.47951 77.723 4.50714 77.88 4.65684C78.2733 5.03079 78.1955 6.14944 78.0207 7.94749C77.981 8.354 77.9437 8.73836 77.9197 9.08771C77.8675 9.85019 77.5596 10.3831 77.0055 10.6816C77.1429 11.0461 77.3026 11.5267 77.3925 11.9932C77.5002 12.5525 77.4911 13.2858 77.2885 13.4953C77.2346 13.5511 77.1622 13.582 77.0846 13.582C77.0205 13.582 76.9015 13.5602 76.8212 13.4143C76.5052 12.8405 76.1157 12.6055 75.7085 12.4825C75.9674 12.8237 75.8972 13.3532 75.7796 14.1995C75.717 14.6505 75.6392 15.2116 75.5924 15.8849C75.4372 18.1232 73.8824 18.802 73.2185 19.0918C73.1663 19.1147 73.1361 19.1372 73.1292 19.1588C73.0854 19.2977 73.3972 19.7239 73.7584 20.2176C74.197 20.8166 74.7976 21.6372 75.4704 22.8126C76.9767 25.4437 77.4335 30.0443 76.6918 35.1188C76.1196 39.0333 66.9253 47.0419 61.986 51.3444C61.1746 52.0511 60.4738 52.6614 59.9391 53.1419C59.6323 53.4177 59.3252 53.6669 59.018 53.8929C61.2205 57.2802 63.8683 61.3052 64.1109 61.5376C64.1155 61.541 64.13 61.5446 64.1558 61.5446C64.3001 61.5446 64.5649 61.4399 64.821 61.339C65.1161 61.2225 65.4507 61.0905 65.7876 61.0307C65.9544 61.0014 66.0838 60.987 66.183 60.987C66.4471 60.987 66.5234 61.1046 66.5455 61.1746C66.5951 61.3335 66.5479 61.502 65.5261 62.0478C65.9159 62.1543 66.716 62.2902 67.3362 62.3956C68.3457 62.5671 69.3894 62.7446 69.9538 62.9414C71.5652 63.5035 71.7193 63.6645 71.6729 63.8761C71.6237 64.0996 71.286 64.0996 71.1237 64.0996C70.8498 64.0996 70.4314 64.065 69.8438 63.9936C67.5975 63.7213 67.0445 63.7156 66.3503 63.7264C66.2625 63.7277 66.172 63.729 66.0738 63.73C66.1139 63.7552 66.1551 63.7807 66.1949 63.8053C66.83 64.2001 67.8928 64.8608 68.2066 65.8645C68.2544 66.018 68.2698 66.1388 68.1897 66.2307C68.142 66.285 68.069 66.3163 67.9894 66.3163C67.835 66.3163 67.7002 66.208 67.4051 65.9703C67.1587 65.772 66.8523 65.5254 66.5297 65.3517C65.889 65.007 62.7988 63.6687 62.0023 63.5695C61.9373 63.5614 61.8688 63.5574 61.7986 63.5574C61.4114 63.5574 61.0107 63.6768 60.6233 63.7924C60.2795 63.895 59.9549 63.9919 59.6669 63.9919C59.4622 63.9919 59.3852 63.8973 59.3577 63.8407C59.2641 63.649 59.4607 63.4703 59.8522 63.1142C60.252 62.7506 60.8563 62.2011 60.8563 61.8078C60.8563 61.6596 60.6086 61.2066 60.2023 60.5641C59.5666 60.4965 58.7987 60.3084 58.0568 59.8561C57.222 59.347 57.1097 59.1824 57.1732 59.0062C57.1966 58.9409 57.2718 58.8317 57.5119 58.8317C57.7435 58.8317 58.1563 58.9269 58.5929 59.0277L58.8397 59.0845C58.9677 59.1135 59.1062 59.128 59.2507 59.1286C58.4434 57.949 57.4315 56.5365 56.453 55.2004C55.8534 55.3741 55.2467 55.4625 54.6288 55.4625C53.8253 55.4625 53.0741 55.3158 52.3834 55.1109C52.4516 58.9638 52.6382 64.4684 52.9069 65.4588C52.9771 65.4162 53.0618 65.3624 53.1365 65.3149C53.5851 65.0298 54.1993 64.6395 54.6853 64.6147C54.7846 64.6147 54.8691 64.6622 54.9057 64.7383C54.9729 64.878 54.866 64.9726 54.6728 65.1444C54.5889 65.219 54.3868 65.3986 54.3207 65.5027C54.4008 65.515 54.6078 65.5121 54.8704 65.4764C55.1642 65.4364 55.5052 65.4162 55.8833 65.4162C57.4701 65.4162 59.3894 65.7699 60.1118 65.9031C60.1991 65.9192 60.2697 65.9321 60.3211 65.941C60.5293 65.9773 60.6303 66.0606 60.6212 66.1885C60.6075 66.3751 60.6014 66.4599 58.4139 66.6649C57.3598 66.7636 56.0649 66.8583 55.2493 66.9092C54.751 66.9404 54.496 66.9841 54.3681 67.0186C54.4832 67.075 54.7148 67.1605 55.1722 67.2746C56.4948 67.6049 57.5574 68.226 58.0239 68.7029C58.1229 68.8041 58.0902 68.8811 58.0715 68.9165L57.9996 68.9991H57.8609C57.7699 68.9991 57.6601 68.9913 57.293 68.8531C56.9054 68.707 56.3748 68.5392 55.8502 68.4042C54.9833 68.1817 53.8758 67.9309 52.2336 67.7589C51.2255 67.6531 50.9089 67.429 50.6779 67.2655C50.5568 67.1798 50.4959 67.1367 50.3536 67.1228C50.1252 67.1018 49.6905 67.2754 49.3077 67.426C48.855 67.6037 48.4249 67.7674 48.137 67.7368C47.9957 67.7214 47.8895 67.6522 47.8464 67.547C47.7387 67.2848 47.9823 66.8761 49.6125 65.3683C49.775 65.2179 49.8745 64.7042 49.9265 63.9527C49.3493 63.7298 48.6667 63.3541 48.0993 62.7196C47.501 62.051 47.436 61.8615 47.5203 61.7103C47.5665 61.6278 47.6614 61.5788 47.7749 61.5788C47.984 61.5788 48.3177 61.7546 48.8893 62.065L49.1072 62.1829C49.3432 62.3097 49.6346 62.3839 49.9718 62.409C49.9737 59.9607 49.7362 56.4727 49.4767 53.7227C49.0208 53.298 48.6405 52.7776 48.2683 52.2668C47.5337 51.2593 46.8402 50.3074 45.6946 50.3074C45.5002 50.3074 45.292 50.3344 45.0758 50.388C44.5161 50.5267 43.9651 50.5912 43.3419 50.5912C42.9491 50.5912 42.5686 50.567 42.1654 50.5413C41.7314 50.5136 41.2829 50.4853 40.7843 50.4853C39.6119 50.4853 38.4529 50.6544 37.137 51.0172C36.4029 51.2197 35.7797 51.3225 35.285 51.3225C34.4036 51.3225 34.0539 50.9947 33.9161 50.7195C33.478 49.8469 34.51 48.409 35.622 47.3545C36.9472 46.0975 37.9296 45.28 38.5796 44.7389C38.8983 44.4738 39.1846 44.2355 39.3241 44.094C39.1982 44.0896 38.9664 44.0945 38.6856 44.103C38.3816 44.1121 38.0033 44.1235 37.5495 44.1235C35.3756 44.1235 33.1374 43.8483 30.7067 43.2821C29.1895 42.9289 28.897 42.5493 28.029 41.4227C27.9116 41.2702 27.7829 41.1033 27.6381 40.9195C27.2873 40.4738 27.0854 40.1909 26.9517 40.0037C26.7456 39.7149 26.7456 39.7149 26.5498 39.6606C26.4666 39.6377 26.3591 39.6078 26.2131 39.5601C25.8969 39.4564 25.4794 39.3932 25.0372 39.3264C24.2868 39.2127 23.4363 39.0842 22.6871 38.7159C22.19 38.4716 21.7768 38.4405 21.4119 38.4129C20.9513 38.3783 20.5162 38.3455 20.1453 37.8998C19.8692 37.5685 19.8241 37.1868 19.7841 36.8501C19.7269 36.3667 19.6768 36.1096 19.2428 36.0015C18.9427 35.9266 18.7499 35.8105 18.6526 35.6468C18.4951 35.3811 18.6209 35.067 18.7804 34.6692C18.8927 34.3893 19.0196 34.0721 19.0883 33.6936C19.2012 33.0687 19.0515 32.9896 18.5559 32.7275C18.2431 32.5619 17.8143 32.3352 17.3265 31.884C16.4665 31.0888 16.7833 30.5341 16.9928 30.1672C17.1326 29.9225 17.1768 29.8188 17.0856 29.6991C15.2711 27.322 14.5693 26.0868 14.2998 25.4691C13.9873 24.7526 14.1204 24.2883 14.261 23.7967C14.396 23.3253 14.5355 22.8377 14.2926 22.0189C13.9756 20.9511 14.1436 20.5692 14.3756 20.0405C14.5321 19.6849 14.7089 19.2816 14.7957 18.5223C14.9017 17.5963 15.7348 17.2494 16.2685 17.0908C16.005 17.0218 15.6299 16.9298 15.1712 16.8178C14.9086 16.7536 14.6085 16.7209 14.2801 16.7209C12.4424 16.7209 9.85294 17.7352 7.56831 18.6304C5.51054 19.4366 3.56674 20.1981 2.2981 20.1981C1.96767 20.1981 1.6847 20.1461 1.45697 20.0435C1.11506 19.8894 0.911377 19.6622 0.852013 19.3684C0.65332 18.3876 2.20645 16.9154 3.23415 15.941Z" fill="url(#paint0_linear_2_8274)"/>
</g>
<defs>
<linearGradient id="paint0_linear_2_8274" x1="39.4994" y1="0" x2="39.4994" y2="68.9991" gradientUnits="userSpaceOnUse">
<stop stop-color="#1C43FF"/>
<stop offset="0.6875" stop-color="#F1F1F1"/>
<stop offset="1" stop-color="#FF7A7A" stop-opacity="0.62"/>
</linearGradient>
<clipPath id="clip0_2_8274">
<rect width="79" height="69" fill="white" transform="matrix(-1 0 0 1 79 0)"/>
</clipPath>
</defs>
</svg>
