<svg width="114" height="68" viewBox="0 0 114 68" fill="none" xmlns="http://www.w3.org/2000/svg">
<g id="objects" clip-path="url(#clip0_2_8279)">
<path id="Vector" d="M42.3283 58.5042C42.855 59.0739 41.8504 59.5451 41.8713 59.6745C41.8087 59.296 41.4282 59.2072 41.0152 59.2767C41.2008 58.9832 41.7576 58.5911 42.1404 58.6606L42.3307 58.5023L42.3283 58.5042ZM24.8054 36.1041C24.8704 36.1987 25.0513 36.2914 25.114 36.415C25.3506 36.247 25.4898 36.0983 25.4852 35.8105C26.2438 35.5479 27.2762 35.7449 27.7425 35.1694C28.1276 34.6943 28.1137 33.6495 28.1276 33.0721C28.0209 32.8789 28.0256 32.6124 28.1276 32.3633C27.8562 31.7994 28.7958 31.7163 28.9512 31.3282C29.0139 31.1698 28.7958 30.2525 28.6009 30.1521C27.956 29.818 27.5221 30.0111 26.8934 29.9222C26.4688 29.8624 26.3505 29.5244 25.8239 29.621C25.4898 29.6828 25.6336 30.1347 25.0165 30.0536C24.766 30.1636 24.353 30.2602 24.244 30.5171C23.9563 31.1853 24.9585 30.5499 24.9794 31.1911C24.6592 31.2857 24.1929 31.2567 23.7892 31.2548C23.7428 31.3417 23.6964 31.4151 23.6547 31.5039C23.1211 31.4885 22.5411 31.5058 21.9866 31.4904C21.8033 31.9732 22.2604 32.2339 22.7081 32.4193C22.7545 32.792 22.3926 32.8461 21.9866 32.7515C21.8868 33.2632 23.8681 33.9469 22.838 34.1709C22.7684 34.8604 23.9192 34.1207 23.7475 34.9762C23.4946 34.9434 23.0329 34.787 22.8241 34.8063C22.4413 34.8449 22.4019 35.1887 21.8845 35.1191C22.0771 35.2485 22.1212 35.4745 22.2348 35.6039C21.8613 35.6309 21.8312 35.7603 21.6966 36.0114C21.9773 36.1755 22.1745 36.2528 22.5202 36.1195C21.8404 36.3822 23.1512 36.527 23.0584 36.5096C23.6524 36.6197 24.3344 36.3783 24.81 36.1021L24.8054 36.1041ZM39.5861 61.0959C39.6325 60.8738 39.7067 60.6479 39.5977 60.4103C39.7508 60.3659 39.9016 60.2655 40.0547 60.2384C40.0455 60.1728 40.0547 60.1033 40.0594 60.0376C39.2961 59.6282 38.6581 61.0438 39.5861 61.0959ZM28.4246 26.1544C28.9744 26.5851 28.2784 26.7338 28.4803 27.2494C28.3109 27.2108 28.123 27.2649 27.949 27.2321C27.7843 27.8655 28.6125 27.852 28.703 27.29C29.689 27.3074 28.935 28.1648 28.8608 28.5723C28.7981 28.5549 28.7146 28.5588 28.6589 28.5858C28.4176 28.4468 28.1369 28.414 27.8539 28.4951C27.8005 28.7384 27.8376 28.7925 28.0256 28.945C28.174 28.8118 28.4501 28.7712 28.594 28.6148C28.8561 28.8272 28.4687 30.0227 29.0487 29.8701C29.5452 29.7407 29.2737 28.7094 29.464 28.4777C29.5916 28.4951 29.7911 28.5762 29.9024 28.6361C30.4128 28.9084 30.0927 30.0671 29.457 30.1559C29.6844 30.3162 29.914 30.5615 30.0904 30.7411C29.8676 30.5132 32.3918 30.5171 32.3872 30.3877C32.3988 30.6677 32.3384 30.9168 32.2085 31.1486C32.3292 31.5483 32.7375 31.7376 33.1435 31.9674C33.1272 31.9867 33.1226 32.1277 33.1226 32.1567C32.9231 32.1798 32.7839 32.3112 32.5867 32.3421C32.5496 32.4772 32.5403 32.6762 32.589 32.8113C32.7537 32.821 32.8488 32.9407 33.0321 32.9504C32.7584 34.1149 31.1599 33.13 30.8838 33.4448C30.8304 33.5066 30.8072 33.578 30.7469 33.6398C30.668 33.4023 30.5288 33.269 30.5868 32.989C30.5544 32.9987 30.4407 33.0083 30.4128 32.989C30.095 33.439 30.8606 34.1188 30.8444 34.6305C30.8188 35.3857 30.5567 35.3065 29.9929 35.6753C29.812 35.7931 29.6449 35.8916 29.5359 36.0538C30.2644 36.4729 30.6936 36.4053 31.5288 36.5251C31.9023 36.5791 32.0809 36.7645 32.4521 36.7877C32.6772 36.8012 33.3244 36.0287 33.3105 36.8708C32.6795 36.8611 32.5449 37.2203 32.1204 37.3342C31.2504 37.5679 31.0949 37.284 30.5636 37.8692C30.2203 38.2496 30.1344 38.6861 29.7261 38.997C29.8352 38.8831 28.3782 39.4431 28.9466 39.4393C29.1879 39.4393 29.5637 39.4779 29.8166 39.4219C30.1228 39.3524 30.4128 38.8811 30.7748 38.8889C30.9511 38.8927 31.197 39.1805 31.3246 39.165C31.9881 39.0859 32.3524 38.5046 33.1156 38.4601C33.9207 38.4119 34.4125 38.3694 35.1967 38.1434C36.4263 37.7881 38.4702 38.2187 39.3959 37.0967C39.3332 37.0832 39.3031 37.0523 39.2706 36.9944C38.9458 37.0677 38.7091 36.9866 38.4586 36.9074C38.6233 36.6854 38.8437 36.3744 38.7625 36.133C39.4562 36.1987 40.2496 35.4455 40.2473 34.8874C39.7276 34.4587 39.7531 34.3042 39.0339 34.1883C38.5815 34.1149 38.2451 34.2462 37.7533 34.2694C37.4726 33.3463 37.5004 32.8828 36.9529 32.0929C36.4889 31.4228 35.9112 31.2084 35.4171 30.7604C34.7883 30.1907 35.1317 29.2927 34.2965 28.7809C33.9276 28.5549 32.9184 28.2768 32.4544 28.5086C32.422 28.5144 32.3872 28.5144 32.3547 28.5086C32.2688 28.4468 32.1853 28.3792 32.1111 28.3155C32.299 27.7303 33.1481 28.2614 33.2386 27.6318C33.0901 27.6048 32.9231 27.4831 32.8001 27.4619C33.2131 27.0621 33.7513 27.122 34.0854 26.645C34.3708 26.2375 34.1063 25.6523 34.7327 25.4534C34.6793 24.8914 31.835 25.2178 31.2202 25.3569C31.139 25.0594 31.1506 24.9571 31.5218 24.7949C31.2132 24.2425 32.6145 24.1981 32.7723 23.6149C32.4753 23.0162 31.7793 23.555 31.2225 23.5357C30.7423 23.5183 30.2597 23.2731 29.6519 23.2692C29.6055 23.8254 29.3039 24.2734 29.334 24.7253C29.0997 24.7369 29.0208 24.8509 28.8028 24.8663C28.5383 25.2564 28.4524 25.6234 28.5963 26.0695C28.4942 25.9497 28.4664 25.8609 28.4037 25.7354C28.2019 25.5519 27.9072 25.2757 27.4734 25.3414C26.9143 26.054 28.0604 25.8725 28.4223 26.1564L28.4246 26.1544ZM16.4766 10.2258C16.3026 10.0597 15.254 10.079 14.9663 9.99404C15.1728 9.80478 15.0452 9.70049 15.1287 9.47454C14.9176 9.47454 14.7343 9.33549 14.4907 9.36446C14.5557 9.27176 14.5835 9.10182 14.6624 9.00139C14.2889 9.00719 14.0035 9.09023 13.6462 9.13272C13.5395 8.94346 13.217 8.49155 12.9456 8.45293C12.2101 8.34864 12.6463 8.73102 12.2797 8.96856C11.9549 9.17906 11.6997 9.11726 11.4561 9.22155C11.136 9.35674 10.8297 9.38377 10.5537 9.38957C10.5281 9.34515 10.5049 9.29494 10.4887 9.23893C10.2219 9.19644 9.84143 9.19838 9.56999 9.23893C9.59319 9.34322 9.62799 9.44171 9.65815 9.53827C9.56303 9.61938 9.49575 9.74684 9.46327 9.94769C9.21039 9.64449 8.80207 9.31232 8.32415 9.40309C7.85551 9.49385 7.74647 10.0056 7.28247 10.2625C6.79295 9.40888 6.10391 9.40695 6.03431 10.3977C5.73503 10.4305 5.44967 10.4112 5.11791 10.3455C5.11095 10.5155 4.99959 10.6429 4.99263 10.7974C4.19223 10.5522 5.01815 9.73139 4.44511 9.30459C4.22239 9.14044 2.63784 8.70205 2.46848 8.76965C2.67728 9.87623 0.865359 8.44906 1.20408 9.77002C1.09968 9.76036 1.05328 9.72753 0.958159 9.71015C0.781839 9.93224 0.633359 10.0771 0.542879 10.3185C0.368879 10.2818 0.1856 10.3262 0 10.2586C0.17864 11.7225 2.64016 9.77581 3.57511 10.6449C3.46144 10.7124 3.40111 10.8283 3.2248 10.8959C3.25496 11.0234 3.1668 11.2126 3.19464 11.344C2.46384 11.286 1.8908 11.6394 1.13912 11.6047C1.12056 11.8229 1.13912 11.8828 1.2876 12.0295C1.42448 11.9407 1.49872 11.931 1.61936 11.7843C2.40352 11.5139 3.35471 12.0315 3.87671 12.6514C3.87671 12.661 3.87671 12.6707 3.88135 12.6804C3.87671 12.6958 3.87207 12.7093 3.86511 12.7228C3.86279 12.7267 3.86047 12.7306 3.85815 12.7364L2.45456 13.3273C2.68888 13.4104 2.91624 13.4026 3.14128 13.3544C2.65176 14.0708 3.17376 13.8796 4.18063 13.758C4.90911 13.6691 5.57263 14.1037 6.05055 13.7541C6.63519 14.5556 8.81135 14.5884 9.82287 14.32C9.87623 13.6093 10.7694 13.955 11.3796 13.841C11.9665 13.7309 12.5744 13.3814 12.985 13.028C13.0825 13.0203 13.2193 13.0492 13.3237 13.0608C13.34 13.0241 13.3516 12.9874 13.3632 12.9488C14.2448 13.0145 14.7621 12.9758 14.9756 12.2613C15.8827 12.4525 15.892 11.5641 16.6692 11.4424C16.2957 11.0697 16.8409 10.5792 16.4766 10.2316V10.2258ZM65.816 25.4611C66.0109 25.1077 66.4006 25.044 66.3751 24.6114C65.7649 24.4762 65.4587 24.9841 64.8903 25.0865C64.9089 25.3878 64.7302 25.7508 64.7836 26.0308C64.8253 26.2491 65.1501 26.504 65.178 26.8014C65.6466 26.3727 65.5561 25.9343 65.8183 25.4611H65.816ZM112.613 46.3183C112.139 46.2642 111.754 46.073 111.262 46.2526C111.128 46.1947 111.193 46.1908 111.072 46.1734C110.822 45.6211 111.608 45.6906 111.766 45.2928C111.211 44.7907 110.796 43.7188 109.986 43.4794C109.982 43.4794 109.615 43.7034 109.406 43.6512C109.072 43.5682 109.135 43.1028 108.986 42.9058C108.738 42.5775 107.72 41.9441 108.715 41.6157C108.754 41.4381 108.78 41.1368 108.736 40.9553C108.432 40.6637 109.056 39.3929 109.367 39.0859C110.527 37.9349 110.402 39.8159 111.193 39.895C111.777 39.953 111.884 39.4914 111.949 39.1071C112.03 38.6301 111.68 38.717 112.135 38.2226C112.52 37.8035 113.353 37.1218 114.002 36.8746V5.24904C113.852 5.23166 113.722 5.17179 113.562 5.4383C113.278 5.91145 112.803 5.91145 112.803 5.91145L111.951 6.06981L111.478 5.91145C111.478 5.91145 111.383 5.99063 111.383 6.22624C111.383 6.46184 110.436 6.6202 110.436 6.6202L109.963 7.96047C109.963 7.96047 108.258 8.19608 107.594 8.03965C106.931 7.88129 106.553 7.40814 106.553 7.40814C106.553 7.40814 104.565 6.54102 106.931 6.22624L108.163 6.06788C108.163 6.06788 108.636 6.22624 108.541 5.9887C108.446 5.75309 107.121 4.80679 107.121 4.80679C107.121 4.80679 104.184 4.72761 103.523 4.56925C102.859 4.41089 104.943 4.88404 104.565 5.90952C104.186 6.93499 103.618 7.1706 103.901 7.32896C104.184 7.48732 104.848 7.1706 104.752 7.72293C104.657 8.27526 104.943 7.24978 104.657 8.27526L104.372 9.30073L103.425 8.90676C103.425 8.90676 102.762 8.59198 102.194 8.7484C101.625 8.90676 101.247 8.66922 101.247 8.66922C101.247 8.66922 100.583 9.61552 99.6369 9.53634L99.0685 9.93031L98.0268 10.1678C98.0268 10.1678 97.7415 10.7202 98.405 11.2725L98.8783 11.904L98.3099 11.9832L97.7415 12.4563L97.0779 12.1415L96.2265 11.8268C96.2265 11.8268 96.0363 11.9851 95.7532 11.9851H95.4702L94.7115 11.4328L94.2383 10.9596L93.6699 11.118L93.2917 11.2764L92.9135 11.512C92.9135 11.512 93.1038 11.9851 93.2917 12.2207C93.4819 12.4583 94.1431 12.6147 94.1431 12.6147L94.8067 12.6939C94.8067 12.6939 95.3751 12.8522 95.1848 13.2462C94.9946 13.6402 94.4262 13.4818 94.4262 13.4818L94.048 13.7966L93.4796 13.4026C93.4796 13.4026 93.2894 13.6402 92.9112 13.561C92.5331 13.4818 92.5331 13.0878 92.0598 12.9295C91.5865 12.7711 91.6816 12.6939 91.1132 12.6147C90.5448 12.5355 90.7351 13.3235 90.5448 12.5355L90.3546 11.7476C90.3546 11.7476 89.8813 11.3536 89.7862 11.1161L89.6911 10.8805L90.2595 9.93417C90.2595 9.93417 90.2595 9.61938 89.9764 9.5402C89.6911 9.46102 89.5032 9.06705 89.5032 9.06705H88.5566L88.1784 8.98787L87.9882 8.59391L87.3247 8.35637L86.566 7.56843L87.3247 7.48925C87.3247 7.48925 87.7028 7.88322 87.9882 7.9624C88.2736 8.04158 88.4615 7.72486 88.6517 7.9624C88.8419 8.19801 89.2201 7.9624 89.5032 8.12076C89.7885 8.27912 89.3129 7.9624 89.7885 8.27912C90.2618 8.59391 91.3986 8.75227 91.3986 8.75227C91.3986 8.75227 92.6305 8.83145 93.294 8.91063C93.9575 8.98981 94.1455 9.22541 94.4308 9.30459C94.7139 9.38377 94.9992 9.54213 95.5676 9.54213C96.136 9.54213 96.3263 9.54213 97.2728 9.22734C98.2194 8.91256 99.8295 8.43941 99.8295 8.43941C100.115 8.12462 100.303 7.49311 100.303 7.49311C100.303 7.49311 99.9246 7.41393 100.02 7.17833C100.115 6.94272 99.9246 6.39039 99.9246 6.39039L99.2611 6.23203L98.6927 5.83806C98.6927 5.83806 98.2194 5.28573 98.1243 5.60052C98.0291 5.91531 98.5975 5.99449 98.0291 5.91531L97.4607 5.83613L96.6093 5.36298C96.6093 5.36298 96.2311 5.20462 95.9458 5.12738C95.6627 5.0482 95.4725 5.20655 95.2823 4.96902C95.092 4.73148 94.3357 4.49587 94.3357 4.49587C94.3357 4.49587 93.8624 4.41669 93.5771 4.25833C93.294 4.09997 92.9136 3.62682 92.4403 3.54957C91.967 3.47039 91.5888 3.47039 91.5888 3.47039H90.8302L88.8419 3.23285L87.9905 3.07449C87.9905 3.07449 87.7075 3.23285 87.327 3.15367L86.9488 3.07449L86.5707 2.99531C87.3293 2.83695 86.6658 2.60135 87.3293 2.83695C87.9928 3.07256 87.2342 2.20545 86.856 2.28463C86.4779 2.36381 86.0974 2.04902 85.7192 2.28463C85.3411 2.52217 84.5824 2.83695 84.5824 2.83695L83.8238 2.52217L83.0652 2.36381C83.0652 2.36381 82.8749 2.52217 82.4968 2.36381C82.1186 2.20545 81.4551 2.1282 81.7381 2.04902C82.0235 1.96984 83.4433 1.65505 83.4433 1.65505L84.1068 1.41944L83.0652 0.710687C82.3065 0.789867 81.8332 0.552327 81.8332 0.552327C81.36 0.631507 81.8332 0.631507 81.36 0.631507C80.8867 0.631507 80.5062 0.867115 80.5062 0.867115L80.4111 0.15836L79.4645 0H78.9912V0.393968C78.7082 0.787936 77.8544 1.41944 77.8544 1.41944L77.7593 0.314788C77.4137 0.552327 75.0008 2.45844 75.1006 1.49283C75.1238 1.25915 75.7989 0.791798 75.966 0.58902C75.9196 0.567777 75.8825 0.565846 75.8639 0.50791C75.2305 0.405555 74.1169 0.171878 73.5833 0.542671C73.6599 0.639232 73.6529 0.704893 73.7689 0.809179C73.7272 0.882565 73.646 0.973332 73.6669 1.07182C73.6042 0.780211 72.7969 2.34063 72.9152 2.30587C72.4976 2.4314 71.957 1.60484 71.6044 1.516C71.3028 1.44069 70.0453 1.59518 69.7414 1.69561C70.2333 1.82114 70.9664 1.95053 70.6369 2.41595C70.4444 2.26725 70.2101 2.17841 70.0639 1.98529C69.876 2.11468 69.7414 2.05095 69.5929 2.25373C69.0686 2.1591 67.5722 2.27304 67.3193 2.65349C66.737 2.09151 66.9783 1.70333 66.1802 1.96405C65.8531 2.07026 65.1803 2.56465 64.9877 2.7964C65.3427 2.93931 65.7951 3.08222 65.519 3.43756C65.2638 3.23285 64.9274 3.20389 64.6676 3.36224C64.7859 2.94317 64.3938 2.79447 63.8556 2.85047C63.6677 2.97793 63.5772 3.02235 63.3846 3.10732C63.2176 3.30624 63.0784 3.53412 62.9972 3.75235C63.271 3.51481 63.6537 3.39701 64.011 3.56116C63.9994 3.55537 62.793 5.68163 61.9137 4.05169C61.7421 4.09804 61.4869 4.17915 61.3685 4.30082C61.2688 4.0401 61.3129 3.75428 61.4706 3.50322C61.466 3.51095 60.1691 4.35296 60.1343 4.36648C59.7306 4.51711 59.2852 4.25253 58.9372 4.5847C59.2898 4.84156 59.7747 4.85314 60.2202 4.74306C60.0531 5.40161 58.8583 4.74306 58.7354 5.50396C59.5984 5.88055 61.1134 5.1969 62.0251 5.13896C61.8952 5.35526 60.9463 5.64301 60.6378 5.78978C60.6215 5.88441 60.5403 6.03118 60.5009 6.12002C60.3199 6.03891 60.0833 6.09298 59.8791 6.02925C59.5845 6.3228 59.7886 6.65304 59.5497 6.91568C59.4244 7.05473 59.1437 6.95237 59.0277 7.05473C58.8838 7.18026 58.9024 7.44676 58.747 7.52788C58.3618 7.73065 58.1461 7.5665 57.7981 7.76735C57.457 7.9624 57.2413 8.41044 57.007 8.67695C57.4408 9.12885 57.2738 9.51896 56.7054 9.74877C56.7239 9.60586 56.594 9.36832 56.6404 9.18099C56.652 9.13465 56.2112 9.28914 56.1555 9.35094C56.0372 9.48033 56.3133 9.71015 56.253 9.82988C56.1207 10.0829 55.4618 10.753 55.9583 10.979C55.9398 11.0253 55.8632 11.1817 55.8562 11.2455C55.2066 11.2744 54.7194 11.7476 54.1951 11.6298C53.7914 12.2111 53.8332 12.3269 53.1998 12.746C53.1326 12.7286 53.1674 12.6552 53.1094 12.6514C52.9446 12.6398 51.2209 15.4961 50.9494 13.9125C50.7638 13.9009 50.4576 13.9356 50.3068 13.9955C50.0261 14.2292 50.156 14.5652 50.2697 14.8761C49.8985 15.0152 49.2164 14.795 48.7478 14.9476C48.3116 15.0886 48.0982 15.442 47.7316 15.6448C47.4486 15.8012 47.0379 15.7935 46.7897 15.9924C46.8802 16.0233 46.9614 15.9963 47.0519 16.0233C47.0843 16.0832 47.082 16.1411 47.0472 16.199C46.8871 16.2357 46.8732 16.2377 46.7595 16.2917C46.4092 16.1392 46.0357 16.2512 45.755 16.4462C45.8107 16.5331 45.8269 16.6529 45.8663 16.7282C45.5183 16.7108 45.3675 16.7958 45.1796 17.0256C45.407 17.0295 45.5671 17.0912 45.7503 17.0739C45.7202 17.0719 45.6877 17.0719 45.6575 17.0739C45.9197 17.182 46.2561 17.2515 46.5809 17.2921C46.0821 17.52 45.5183 17.1685 45.052 17.4698C44.2122 18.0144 45.9661 18.2577 44.878 18.7675C45.1031 18.9259 45.3907 18.9414 45.7248 18.8602C45.7086 18.9047 45.7202 19.0804 45.7202 19.1325C45.5972 19.1422 45.4951 19.1673 45.3791 19.1943C45.2539 19.5787 45.4812 20.0402 45.458 20.3453C45.4302 20.6949 45.3258 21.0966 45.1448 21.3419C45.0335 21.3167 45.3281 21.3843 45.3536 21.3901C45.2724 21.4616 45.1866 21.6219 45.1193 21.7088C45.4023 21.7069 45.3119 21.8652 45.6506 21.7126C45.6158 22.0738 45.4928 22.2708 45.4766 22.6222C45.5833 22.5759 45.8292 22.4446 45.9151 22.3808C46.0102 21.6219 46.7572 22.2148 46.5763 22.7555C46.0798 22.6531 45.6831 22.8714 45.5439 23.1804C45.3861 23.5319 47.4625 24.3179 47.7919 24.4434C48.2211 24.6075 48.6202 24.8509 49.2118 24.7485C50.1792 24.5805 50.9958 23.7578 51.6431 23.1862C51.7684 23.0761 51.8357 22.8559 52.0004 22.7787C52.2927 22.6435 52.469 22.7729 52.643 22.7053C53.0398 22.5508 53.527 22.6416 53.5293 22.0873C54.383 22.6937 54.3111 22.825 54.4364 23.6748C54.5014 24.1189 54.7125 24.2541 54.9074 24.623C55.0906 24.9687 55.0582 25.1985 55.1417 25.5094C55.3064 26.1216 55.9282 26.5812 56.2599 27.1258C56.645 27.7574 56.587 28.4565 57.1786 29.0126C56.362 29.7909 60.0369 29.7368 59.3223 28.0934C59.7446 28.0799 60.197 28.2846 60.589 28.3773C60.8257 28.1397 60.9742 28.0451 61.3546 28.0606C61.5658 27.7149 61.7467 27.3383 62.0112 27.0621C62.0715 27.2456 62.2246 27.3827 62.2432 27.5951C62.6121 27.2745 62.7721 26.8477 62.7025 26.3707C61.8117 26.2935 62.8116 24.9822 62.7977 24.4781C62.3221 24.455 62.3244 24.0031 62.5169 23.696C62.1898 23.6265 61.9068 23.4894 61.8604 23.1978C62.8742 23.1533 63.5076 22.8984 64.4031 22.713C64.8068 22.63 65.3891 22.91 65.3543 22.3577C65.345 22.209 64.8045 21.9985 64.6769 21.9231C65.1037 21.4442 66.6628 21.7725 65.8253 20.8185C65.5028 20.4516 64.4565 20.4786 64.765 19.8065C64.0087 19.654 63.315 19.4087 63.4612 18.6459C63.4705 18.5416 63.4032 18.2944 63.4612 18.0897C62.4822 17.9429 64.1224 16.7552 64.2175 16.2801C64.0806 16.2319 63.9252 16.0465 63.8254 16.0078C64.192 15.6525 64.9321 15.5134 65.4239 15.1369C65.9877 14.7062 66.3403 14.6405 66.9621 14.3547C67.2497 14.2234 67.4423 13.9318 67.7393 13.8178C68.0385 13.702 68.2265 13.9047 68.5698 13.7232C68.9016 13.5475 69.6672 12.8117 69.7136 12.578C69.6301 12.4023 69.4352 12.016 69.4862 11.8094C69.4723 11.8635 70.0175 11.0292 70.0082 11.0408C70.5302 10.4228 71.2309 10.5985 71.7181 10.108C72.6229 10.8322 73.9128 9.62904 74.8593 9.97666C75.5159 10.2181 75.9753 11.4115 75.0751 11.6375C74.9313 11.5197 74.7967 11.5448 74.6505 11.4714C74.1192 11.7592 74.1541 12.3675 73.6112 12.7962C73.1657 13.1477 72.6878 13.3698 72.1913 13.702C71.7668 13.9859 71.0128 14.1037 70.7645 14.3489C70.3678 14.739 70.6764 15.3377 69.7252 15.2527C69.463 15.5656 69.4909 15.9769 69.6927 16.311C69.5257 16.3342 69.3957 16.423 69.2496 16.4366C69.1753 16.5621 69.238 16.5582 69.1266 16.6355C69.5326 16.9947 69.6533 17.1897 69.7043 17.5837C69.7275 17.7614 69.5396 17.9275 69.5373 18.138C69.5349 18.3948 69.8017 18.6497 69.7994 18.9259C69.7948 19.401 69.2983 19.3817 69.7994 19.795C69.8389 19.8278 70.514 19.9263 70.6323 19.9688C70.6369 19.9688 70.9989 20.3936 71.0337 20.4323C71.5673 20.0267 72.1681 21.0174 72.834 21.056C73.5671 21.0985 74.3466 20.8397 74.9916 20.6447C76.1539 20.2913 78.4043 20.5404 79.2998 19.7274C79.8009 19.9688 83.1765 20.3569 82.5733 21.1777C81.8634 21.2878 80.664 20.4863 80.773 21.6586C80.5596 21.5021 80.2626 21.4094 80.0515 21.2434C79.7545 21.4635 79.7104 21.7609 79.4413 22.0313C78.9797 21.5813 77.873 21.7667 77.3092 21.7281C76.7501 21.6895 75.3813 21.1352 75.5623 22.0487C74.7735 21.9695 74.0241 21.8305 73.762 22.601C73.5346 22.5682 73.4372 22.657 73.2307 22.6628C73.0683 23.0336 73.3003 23.2866 73.001 23.5454C72.827 23.416 71.8851 22.6705 71.8596 22.6686C71.5441 22.6474 71.3376 22.7671 71.3701 23.0317C71.4559 23.7153 74.1587 23.7308 74.4533 24.6056C74.1749 24.7118 74.1355 24.8895 73.9847 25.0498C74.6575 25.521 74.161 26.0251 74.0473 26.5426C72.8641 26.6199 72.6901 25.7006 71.9106 25.4302C71.6717 25.3472 70.9478 25.382 70.6787 25.4302C69.7507 25.5983 70.1729 25.8377 69.8783 26.3398C69.6718 26.6913 69.2612 26.8246 69.1405 27.205C68.9758 27.7187 69.2937 28.5569 69.3517 29.0976C69.4769 30.2872 69.0431 30.2003 67.7416 30.3935C67.5513 30.6503 67.4748 30.8994 67.4168 31.193C67.2289 31.2644 66.4146 31.5927 66.3264 31.585C65.4541 31.5058 65.8763 30.8879 65.3311 30.5518C64.6165 30.1115 63.3104 30.911 62.6237 30.9245C62.5749 31.0134 62.5285 31.1003 62.4914 31.193C62.0437 31.2741 61.2456 31.6256 60.6865 31.8168C59.8907 32.091 59.6703 32.3556 59.2713 33.0064C58.9024 32.9176 58.6959 32.6723 58.6263 32.3594C57.9303 32.4251 57.4918 31.6526 57.5893 31.1022C57.1786 30.9728 56.7773 31.193 56.2762 31.1756C56.1184 31.5889 55.6892 31.6217 55.2855 31.8013C55.0373 31.7801 54.8262 31.9655 54.622 32.2165C54.2346 32.008 53.7659 31.7183 54.2786 31.3398C54.1534 31.2413 53.8796 31.1312 53.7218 31.0984C52.9841 32.1972 52.4505 30.855 52.1906 30.3915C52.0352 30.3394 51.8403 30.1694 51.722 30.1366C52.0027 30.0536 52.1094 29.9802 52.1141 29.7929C52.5688 29.8083 53.1186 29.8894 52.8588 30.3375C53.2254 30.3568 53.6035 30.3587 53.9724 30.3432C53.977 30.2718 53.9817 30.1984 53.9817 30.125C53.8819 30.1134 53.81 30.1038 53.6801 30.1694C53.5919 29.9184 53.6012 29.6171 53.5896 29.3409C53.3947 29.3023 53.0096 29.2212 52.831 29.2038C52.0027 29.5186 52.3414 28.8118 52.6848 28.4796C53.1094 28.0663 54.042 28.1281 53.9005 27.5468C52.4783 27.8443 53.2602 25.9575 53.3321 25.4187C53.0815 25.4727 53.0166 25.4592 52.8333 25.5886C52.8101 25.5828 52.6129 25.5036 52.643 25.4978C51.7846 26.1989 51.207 26.4036 49.9379 26.5252C49.873 26.587 49.7825 26.7222 49.7384 26.7898C50.0122 26.8748 50.1003 27.0583 50.3045 27.2031C49.5064 27.5044 49.5992 28.3889 49.6479 29.0802C50.6014 29.2212 50.1282 29.6905 50.5643 30.1636C50.3648 30.1212 50.1374 30.1888 49.9356 30.1521C49.8985 30.8183 50.975 30.6426 50.9425 31.2722C50.852 31.2702 50.7894 31.2374 50.6942 31.2586C50.2998 31.7781 51.1072 32.9794 49.75 32.96C49.7059 32.96 49.3092 32.6279 49.0424 32.6047C48.7315 32.5757 48.4624 32.7264 48.2327 32.8326C48.2211 33.0624 48.0541 33.298 48.0031 33.4776C47.5019 33.2401 47.14 33.1107 46.5299 33.1493C46.1146 33.86 45.1703 33.9102 44.5463 34.3409C43.8363 34.8295 43.486 35.8086 42.9803 36.4053C42.6972 36.7394 42.4351 37.0986 42.0847 37.3149C41.5071 37.6741 40.5582 37.7804 39.897 38.0391C39.7531 39.1708 40.0547 39.1708 38.8576 39.6169C38.0247 39.9279 37.8183 40.289 37.4007 40.9727C37.0387 40.88 36.6861 41.019 36.2059 40.9398C35.7999 40.8742 35.4426 40.3102 35.1201 40.2523C33.7374 40.0051 35.1015 41.8147 34.7443 42.4713C34.4427 42.2106 34.0274 42.1449 33.5541 42.1372C33.5077 42.2569 33.3569 42.3747 33.3175 42.4674C32.9231 42.1314 31.9696 41.1078 31.9997 42.2318C31.9672 42.2318 31.9348 42.2318 31.9023 42.2318C31.8396 42.1797 31.7886 42.1082 31.7306 42.058C31.2225 42.0425 29.8723 42.3091 30.7724 42.7532C30.7678 42.761 30.675 42.983 30.6704 43.0197C30.5961 43.0352 30.501 42.9985 30.4268 43.0043C30.3456 43.1318 30.3316 43.2959 30.3293 43.435C31.2248 43.5238 31.6448 43.9718 32.4707 44.1746C32.9022 44.2808 33.2432 44.1843 33.633 44.2943C34.0761 44.4199 33.923 44.8177 34.5633 44.7192C34.6004 45.0301 34.2455 45.4144 34.2896 45.5728C34.3986 45.9668 34.96 46.0826 35.2663 46.3414C36.0063 46.9652 35.9159 48.4291 35.7651 49.2344C35.6444 49.8813 35.5307 50.6635 35.2338 51.266C34.8463 52.0559 34.0622 52.1969 32.9672 52.1969C32.2944 52.1969 31.726 51.7855 31.0555 52.3069C30.9743 52.1891 30.7933 52.1158 30.7168 51.9922C29.3758 52.3031 29.1508 51.5267 27.9699 51.4437C27.4015 52.3958 26.3366 51.324 25.6963 51.2081C25.455 51.604 24.1465 52.7898 23.5897 52.2258C23.3508 52.9134 23.9957 53.3768 24.0816 54.018C24.179 54.7383 23.8287 55.4722 24.07 56.2157C24.3159 56.9728 24.2834 57.1176 23.9911 57.7375C23.7382 58.2744 23.4992 58.8248 23.3438 59.3868C23.0608 60.4084 23.4296 60.194 23.8751 60.9472C24.3553 61.7583 23.135 63.1063 24.0375 63.7339C24.2068 63.8518 24.8495 63.7745 25.0351 63.7706C25.1789 63.7668 25.2787 63.9734 25.3854 63.9522C25.5803 63.9136 25.6847 63.7166 25.8424 63.6953C26.1278 63.6548 26.2206 63.479 26.7171 63.5679C26.8284 63.5891 27.5268 63.9348 27.5917 64.0082C28.0186 64.4736 27.8214 64.8174 28.3944 65.304C28.4594 65.36 28.9443 65.8158 29.0046 65.8216C29.7818 65.8969 29.3503 65.4624 29.6449 65.2017C30.5636 64.3886 32.176 64.5895 33.4427 64.4176C33.51 64.4079 33.5495 64.3693 33.6028 64.35C33.6887 64.4427 33.8302 64.5045 33.9114 64.5818C34.3058 64.3249 34.2362 64.0062 34.4775 63.703C34.7628 63.3477 35.1827 63.2859 35.4263 63.1372C35.9066 62.8456 35.9019 62.9846 36.1618 62.3666C36.3381 61.9495 36.3636 61.6463 36.6722 61.2755C37.9459 61.3025 37.0828 60.055 36.9459 59.6417C36.5005 58.9928 37.809 58.004 38.1129 57.4865C38.2127 57.3185 38.3658 56.6194 38.4493 56.5421C38.8739 56.1617 39.7299 56.264 40.2566 56.011C40.7832 55.758 41.521 54.7499 42.2286 54.8639C42.3121 54.5375 42.3423 54.2073 42.442 53.8867C42.2031 53.7341 42.0662 53.5043 42.0592 53.2552C41.8713 52.7608 42.4188 52.5426 42.8318 52.2934C43.5092 51.8821 43.3793 52.0791 44.0405 52.1177C44.5115 52.1467 45.0311 51.9786 45.465 52.0347C45.9174 52.0945 46.1494 52.4132 46.6946 52.4305C48.3603 52.4808 49.5574 49.8891 51.142 50.227C52.5734 50.5341 53.1674 51.4031 53.6476 52.446C54.3018 53.8693 55.4665 54.4873 56.761 55.4857C57.0441 55.704 57.0186 55.9975 57.3271 56.1964C57.6473 56.4031 58.0463 56.4146 58.4175 56.5518C58.7122 56.6599 59.2759 56.9786 59.5775 57.162C59.8954 57.3571 60.3199 57.4672 59.9766 57.7472C60.1273 58.2647 61.1064 58.6954 61.3987 59.2902C61.7189 59.9391 61.3245 60.6324 61.2642 61.3721C61.0182 61.289 60.7236 61.3412 60.4522 61.2948C60.3222 61.9765 58.9534 61.7332 58.4152 62.1561C57.8932 61.9051 57.1531 61.5053 56.8098 62.0943C56.485 61.9534 56.181 62.0152 55.9954 62.243C56.2158 62.8282 56.6961 62.7104 57.2134 62.9788C57.7424 63.255 57.8097 63.5872 58.276 63.9213C58.4871 64.0719 59.146 64.3867 59.3896 64.4137C60.2758 64.5161 60.0601 64.3288 60.1691 63.6432C60.3431 62.525 60.7282 62.5636 61.6864 62.0692C62.5054 61.6482 62.0994 60.2983 63.1642 60.2249C63.3243 59.2207 61.8627 58.8345 62.4381 57.6487C63.0923 57.5753 63.1503 57.3416 63.7721 57.5367C64.134 57.6506 64.3753 58.004 64.7743 58.1218C64.7789 58.3169 64.9181 58.4463 64.9019 58.651C65.2685 58.5602 65.4193 58.2493 65.3636 57.9075C65.2197 57.5869 64.837 57.4034 64.4843 57.1968C64.018 56.9245 63.7257 56.5923 63.2965 56.2891C62.51 55.7329 61.2224 55.9145 61.6678 54.7519C61.118 54.4062 60.2689 54.553 59.6912 54.2768C59.0787 53.9813 58.7632 53.2532 58.327 52.7724C57.9396 52.3436 57.8584 51.9323 57.5939 51.5248C57.3573 51.1617 57.1137 51.1502 56.8098 50.8952C56.0047 50.2193 56.0279 49.7925 56.1718 48.8404C56.1045 48.6956 56.0326 48.3383 56.014 48.178C56.4386 47.8632 56.9722 47.616 57.4222 47.3186C57.5104 47.3302 57.6612 47.3708 57.761 47.3978C58.16 48.0506 57.0905 48.2804 57.9442 48.9022C58.276 49.1436 58.5196 48.9602 58.8908 49.1378C59.1715 49.2711 59.3316 49.6052 59.552 49.7732C59.8258 49.9798 60.0856 49.9721 60.3362 50.229C60.538 50.4375 60.5055 50.7639 60.7329 51.015C61.2363 51.5712 61.9625 51.6754 62.6631 51.8029C62.4033 51.9188 62.3731 52.0945 62.2177 52.193C62.5216 52.585 62.749 52.2471 63.1782 52.4344C63.4844 52.5677 63.7535 52.8786 63.9994 53.0872C64.7465 53.7187 65.6675 54.1841 66.3797 54.8562C66.7045 55.1613 67.2729 55.6402 67.2729 56.0844C67.2729 56.2795 67.2265 56.3779 67.1546 56.5556C67.0943 56.7043 66.7881 56.7565 66.7231 56.8917C66.8925 56.5286 67.3541 56.544 67.2358 56.0226C67.1662 55.7117 66.5189 55.4935 66.396 55.1072C66.4192 57.0964 67.5235 59.2477 69.3377 60.559C69.2403 60.5919 69.1614 60.6286 69.0593 60.6653C69.2612 61.0303 69.7159 61.3721 70.1683 61.4339C70.1961 61.5517 70.1892 61.6714 70.1637 61.7854C69.9641 61.7429 69.7391 61.8163 69.5396 61.7738C69.4282 61.8954 69.2728 62.1793 69.2496 62.3338C69.4352 62.5907 69.4537 62.6583 69.7785 62.6177C70.2588 63.143 69.9618 64.2921 70.8249 64.5663C70.8921 64.52 70.971 64.4562 71.0337 64.4118C71.1195 64.5431 71.2703 64.6204 71.3329 64.8C71.3074 64.8174 71.609 64.8154 71.5858 64.8019C71.5789 64.6802 71.5812 64.5721 71.6345 64.4601C71.848 64.5837 72.2215 64.6571 72.4187 64.7536C72.3793 64.3307 71.6577 62.9499 72.7226 63.0677C72.7087 63.0117 72.7273 62.861 72.7412 62.7992C72.7412 62.7896 72.5881 62.7104 72.5625 62.6892C72.6043 62.5984 72.66 62.5192 72.6461 62.4053C72.2099 62.1619 70.9455 61.9553 70.9501 61.515C71.79 61.3508 72.0939 61.4976 72.6391 61.8993C73.0544 62.2064 73.7968 62.8321 73.7829 61.8529C73.5601 61.7023 73.2655 61.5459 72.9616 61.4474C73.3142 61.4223 73.6297 61.2871 73.6901 60.9858C72.9407 60.5532 71.4443 61.3238 71.6902 60.2191C71.725 60.0627 72.1519 59.9681 72.1705 59.6031C72.1797 59.4177 71.8573 58.9349 71.7923 58.736C71.616 58.1914 71.4721 57.6699 71.9013 57.1002C72.6693 56.9921 72.0591 57.7105 72.7365 57.7955C73.1564 57.8495 73.4673 57.3996 73.4998 57.1215C73.4882 57.106 73.3745 56.9998 73.3467 56.9689C73.6947 56.6078 74.748 56.8357 75.2978 56.6927C75.9637 56.5189 76.5599 56.2659 76.9056 56.9747C77.0239 56.8163 77.2628 56.6773 77.3649 56.5498C77.126 56.9226 77.576 57.2103 77.9565 57.4054C77.7616 57.4981 77.7477 57.5521 77.4925 57.5714C77.1004 57.892 77.1306 58.8402 77.3997 59.3578C77.46 59.4737 77.8034 59.4003 77.88 59.5239C77.9728 59.6726 78.0076 59.9256 78.047 60.0782C78.1329 60.4045 78.0656 60.9067 78.0215 61.2292C77.9867 61.4783 77.6642 61.2601 77.8544 61.8008C77.9008 61.9321 78.33 62.4536 78.4205 62.6061C78.9634 63.5234 78.9054 64.2264 80.3067 64.2013C79.9424 64.3616 80.1234 64.3094 80.2255 64.5856C81.1744 64.0178 81.4226 64.7652 82.0235 65.1283C82.7775 65.5841 83.2879 65.2248 84.0906 65.0356C84.0326 64.9023 84.1045 64.6474 84.0233 64.5103C85.2692 63.8826 86.2273 65.333 87.2319 65.5976C88.4893 65.9297 89.4591 64.9274 90.169 64.2515C90.8255 65.2654 91.0761 64.7131 91.8974 64.2708C92.0319 64.3094 92.4124 64.4446 92.5215 64.5064C92.4495 64.7749 91.3986 65.2673 91.9809 65.6845C92.5841 66.1171 92.9971 65.1109 92.9135 64.7594C93.6931 64.7266 94.4424 64.4582 95.215 64.433C95.7439 64.4157 96.1708 64.6107 96.6766 64.6493C97.3563 64.6996 97.6672 64.5412 98.289 64.3249C99.1659 64.0198 99.7599 63.9792 100.702 64.0062C101.491 64.0275 101.927 63.6973 102.669 63.6297C103.412 63.5621 104.11 64.0526 104.848 63.8672C106.138 63.5408 104.237 61.3643 104.353 60.3987C104.476 59.3752 105.78 58.9735 104.374 58.1469C104.008 57.9326 103.776 57.9789 103.595 57.6043C103.354 57.1002 103.595 56.405 103.428 55.8546C103.381 55.7078 101.054 55.3776 100.806 55.4162C100.096 55.5244 99.616 56.2698 98.804 56.2331C98.572 56.3857 98.5279 56.4185 98.1405 56.3915C97.7461 56.6541 97.7763 56.2022 97.3865 56.2582C96.955 56.32 96.6928 56.5093 96.2497 56.5769C95.6094 56.6734 95.1083 56.5267 94.4471 56.3355C93.6258 56.0979 91.2246 55.5495 90.923 54.7538C89.8604 54.4062 89.4405 54.7171 88.3571 54.8619C87.436 54.9855 86.8467 54.8697 85.9234 55.2385C85.2251 55.5186 84.594 56.1365 83.7936 56.1829C83.1023 56.2235 82.0513 55.9627 81.3808 55.7909C80.4946 55.563 79.3903 54.7383 79.5596 53.8114C79.4413 53.7959 79.4088 53.7496 79.2441 53.7438C79.0145 53.3131 79.3648 53.1103 79.5805 52.7492C79.6826 52.5793 79.6919 52.3417 79.838 52.1969C79.9633 52.0752 80.3322 52.0482 80.4064 51.942C80.6686 51.5692 80.3995 51.1193 80.5944 50.6963C80.766 50.3217 81.3275 50.4704 81.2648 49.862C80.374 49.4314 81.4968 49.5067 81.6384 49.4391C82.1024 49.217 82.2856 49.3136 82.4063 48.767C81.5873 48.2997 83.1696 47.3785 83.6289 46.9131C84.5848 45.9455 84.8655 45.8007 86.3619 45.82C86.3364 46.0942 86.0951 46.1966 85.7332 46.158C85.6566 47.1255 89.0484 46.2777 88.3455 47.5098C88.0323 47.5909 87.733 47.6856 87.3456 47.6527C87.1948 47.7995 87.0764 48.0544 87.0532 48.234C87.6031 48.5353 88.0856 48.657 88.2759 49.1919C88.48 49.7635 88.0323 50.4395 89.1667 50.2541H89.1691C89.9161 50.1305 90.1806 49.4739 90.756 49.1456C91.5007 48.7207 92.1967 48.9814 92.9924 48.6357C93.0458 48.4561 93.0156 48.2823 92.9112 48.1259C92.2523 47.7821 91.1712 48.5198 91.0204 47.813C90.6956 47.5426 90.5611 47.0965 90.6562 46.689C91.1875 46.5172 91.7164 46.2275 92.25 46.0305C92.8393 45.8142 93.4587 45.6172 94.0295 45.4125C94.2777 45.3237 97.4213 43.9197 96.8784 45.1035C96.7439 45.3971 96.0107 45.2947 95.8275 45.3739C95.1175 45.6771 95.4377 45.6056 95.4725 46.044C95.5189 46.6369 95.4771 46.4283 95.2103 46.8667C95.0201 47.1776 94.9203 47.589 94.7881 47.8999C94.3241 47.9598 93.8647 48.0602 93.4077 48.1239C93.2847 49.2827 94.3775 49.2576 95.2567 49.8466C95.8019 50.2116 96.5003 50.3796 97.0478 50.7369C97.593 51.0922 97.8273 51.799 98.5999 51.7817C98.8342 51.7759 98.9154 51.5557 99.1659 51.5576C99.7575 51.5615 99.855 51.7894 100.326 51.9342C101.163 52.1911 102.08 52.249 102.95 52.5908C103.727 52.896 104.203 53.2455 105.038 53.3015C105.762 53.3498 107.01 53.5159 107.237 54.3135C107.483 54.2285 108.423 54.86 108.729 55.0531C109.184 55.3409 109.573 56.0844 110.146 56.1423C111.102 56.2389 111.153 55.2018 111.01 54.6399C110.873 54.1011 110.082 53.8654 110.158 53.3344C109.88 52.782 110.068 51.9265 109.78 51.3626C109.518 51.0362 109.044 50.677 108.826 50.2579C108.448 49.5395 108.998 49.0509 109.397 48.4098C109.91 47.5851 110.105 47.925 111.033 47.4828C111.513 47.2549 112.418 46.7238 112.722 46.3994C112.671 46.3839 112.634 46.3704 112.617 46.3163L112.613 46.3183ZM51.8032 56.1559C51.2696 55.9647 50.9007 56.4185 50.7662 56.7642C50.4182 56.4745 50.0284 56.4591 49.931 56.882C49.6966 57.3378 50.1096 57.7819 50.1908 58.2686C50.279 58.8016 50.033 59.4775 50.1954 59.8812C50.1212 60.252 50.4298 60.476 50.8381 60.6054C50.9494 60.3601 51.0515 60.1264 51.1606 59.8773C51.4761 59.9468 51.7591 59.9526 52.07 59.8928C52.3646 58.9851 52.1837 58.145 52.0862 57.2431C52.0561 56.9554 52.3716 56.3586 51.8032 56.1539V56.1559ZM54.905 30.7198C54.6939 30.5248 54.4712 30.3278 54.2392 30.1347C54.1278 30.1443 54.0513 30.1366 53.9863 30.1289C54.0907 30.548 54.7612 31.2799 55.1231 30.7894C55.1022 30.8299 55.0141 30.7179 55.0094 30.7063C55.485 30.7836 55.8887 30.3548 55.9096 30.0632C56.3017 30.0999 56.4919 29.9454 56.4478 29.6055C56.1625 29.3236 56.2553 28.8871 56.2576 28.5009C56.2367 28.4719 56.1138 28.3193 56.0674 28.2633C55.5616 28.1726 55.2043 28.3966 55.1927 28.8118C54.9027 28.7075 54.9097 28.8717 54.7148 28.5549C54.3204 28.7481 54.2206 29.1594 53.991 29.4105C54.803 29.6036 55.3783 30.0343 55.0048 30.7218C54.9723 30.7218 54.9398 30.7218 54.9074 30.7218L54.905 30.7198ZM77.2791 67.214C76.8708 67.3357 76.7153 67.1155 76.2119 67.1483C76.1887 67.0827 76.1748 66.9649 76.1469 66.8953C75.9845 66.9011 75.8453 66.8876 75.6876 66.878C75.1563 67.4979 73.9383 66.5091 73.414 66.6617C73.3653 66.6752 73.4024 66.7949 73.3769 66.8335C73.2493 66.7756 73.1866 66.764 73.0381 66.7389C72.5741 67.382 73.4001 67.1561 73.7736 67.2777C74.226 67.4245 74.5972 67.9112 74.9846 67.9923C75.2676 68.0521 75.8013 67.8088 76.1423 67.7335C76.6434 67.6234 77.2118 67.7895 77.3788 67.2951C77.3162 67.2951 77.3046 67.2584 77.2791 67.2159V67.214ZM51.5364 54.4834C51.6408 53.9697 52.2069 53.1451 51.7475 52.7415C51.4714 53.0215 50.8798 53.1818 50.6826 53.4908C50.3254 54.047 50.5133 54.721 50.6826 55.337C51.5225 55.563 51.4552 54.9006 51.5387 54.4834H51.5364ZM52.0932 29.6499C52.0909 29.6306 52.0886 29.6132 52.0839 29.5901C52.0862 29.5997 52.0909 29.6229 52.0932 29.6499Z" fill="url(#paint0_linear_2_8279)"/>
</g>
<defs>
<linearGradient id="paint0_linear_2_8279" x1="57.0012" y1="0" x2="57.0012" y2="68.0017" gradientUnits="userSpaceOnUse">
<stop stop-color="#1C43FF"/>
<stop offset="0.6875" stop-color="#F1F1F1"/>
<stop offset="1" stop-color="#FF7A7A" stop-opacity="0.62"/>
</linearGradient>
<clipPath id="clip0_2_8279">
<rect width="114" height="68" fill="white"/>
</clipPath>
</defs>
</svg>
