<svg width="206" height="86" viewBox="0 0 206 86" fill="none" xmlns="http://www.w3.org/2000/svg">
<g id="Group 194">
<rect id="Rectangle 13" width="206" height="86" rx="10" fill="none" fill-opacity="0.1"/>
<g id="Group 195">
<path id="Vector" d="M134.347 76.7572H134.336L134.281 76.7631V76.7991L134.308 76.8111L134.343 76.8291V76.8171L134.357 76.8111L134.367 76.8051L134.381 76.7871L134.34 76.7931V76.7572H134.347ZM134.294 76.949L134.267 76.94L134.253 76.976L134.312 77.018V76.991L134.298 76.97V76.949H134.294ZM136 70.8119L135.976 70.686L135.878 70.4342L135.854 70.2992V70.1763L135.865 70.0714L135.896 69.9844L135.924 69.9005L135.858 69.7626L135.847 69.5647L135.858 69.1869L135.83 69.061L135.774 68.9471L135.611 68.7402L135.708 68.9081L135.722 68.9531L135.733 69.049L135.587 68.9921L135.545 68.9591L135.517 68.9081L135.489 68.8542L135.475 68.8122L135.437 68.7792L135.462 68.7252V68.6923L135.448 68.6563L135.437 68.5963H135.427L135.396 68.5873L135.368 68.5723L135.354 68.5573V68.5274L135.368 68.5064L135.396 68.4884V68.2845L135.409 68.1916L135.396 68.1136L135.576 67.502L135.587 67.3041L135.475 66.7075L135.507 66.5846L135.448 66.5216L135.427 66.4467V66.3747L135.475 66.3208V66.2728L135.368 66.2188L135.316 66.1828L135.246 66.0929L135.139 66.1319H134.906L134.812 66.1858L134.784 66.2698L134.798 66.3837L134.836 66.4887L134.895 66.5426L134.881 66.5966L134.868 66.6236L134.881 66.6446L134.895 66.6745L134.756 66.7945L134.732 66.8394L134.704 66.9024V66.9563L134.746 67.0193V67.0793L134.593 67.2592L134.677 67.3611L134.756 67.466L134.784 67.583L134.749 67.7089L134.802 67.8498L134.718 68.0417L134.513 68.3355H134.475L134.416 68.2096L134.388 68.1556L134.36 68.1136L134.322 68.0806L134.201 68.0267L133.919 67.9547L133.86 67.9607L133.805 67.9427H133.669L133.534 67.9637L133.482 68.0057L133.179 68.2935L133.152 68.4194L132.974 68.4974L132.353 68.6143L131.998 68.7732L131.793 68.7822L131.835 68.8272L131.793 68.9201L131.755 69.0071L131.689 69.07L131.606 69.097L131.54 69.073L131.484 69.025L131.432 69.0011L131.331 69.046L131.321 68.9891L131.307 68.9771H131.297L131.258 68.9561V69.0041L131.297 69.067L131.272 69.2109L131.297 69.2709L131.185 69.2949L131.092 69.3339L131.022 69.4088L130.987 69.5737L130.974 69.6007L130.987 69.6187L131.053 69.6247L131.081 69.6487L131.053 69.7026L130.987 69.7866V69.9305L130.932 69.9725L130.751 69.9964L130.73 70.0174L130.717 70.0444L130.689 70.0744L130.675 70.1194L130.664 70.1733L130.633 70.2003L130.571 70.1673L130.543 70.2123L130.484 70.2393H130.432L130.376 70.2093L130.362 70.2723V70.3472L130.39 70.4192L130.421 70.4731L130.38 70.5241L130.609 70.4431L130.72 70.4342L130.842 70.5241L130.678 70.611L130.651 70.632L130.664 70.68L130.675 70.707H130.717L130.779 70.653L130.81 70.677L130.821 70.719L130.835 70.743L131.05 70.8329L131.06 70.8419L131.147 70.8989L131.133 70.9498L131.123 70.9588L131.092 70.9528L131.064 70.9678L131.012 71.0038L130.928 71.0338L130.713 71.0728L130.657 71.0997L130.616 71.1267L130.564 71.1447L130.428 71.1387L130.359 71.1507L130.348 71.2137L130.376 71.2376L130.459 71.2586L130.498 71.2976L130.459 71.3696L130.525 71.3995L130.553 71.4625L130.525 71.5255L130.459 71.5465V71.5914H130.605V71.6394L130.525 71.6934L130.484 71.7143L130.421 71.7233H130.473H130.529L130.571 71.7413L130.605 71.7743L130.595 71.7983L130.567 71.8583H130.689L130.81 71.8792L130.918 71.9332L130.96 72.0172L130.987 72.0411L131.151 72.0052L131.203 72.0172L131.245 72.0741L131.335 72.257L131.422 72.314L131.456 72.3559L131.446 72.4369H131.422L131.272 72.5058L131.245 72.5238L131.123 72.5568L131.012 72.6288L130.956 72.7037L131.019 72.7457L130.956 72.8596L130.849 72.9016L130.564 72.9226L130.727 73.0845L130.748 73.1714L130.685 73.2794L130.727 73.3633L130.807 73.3093L130.915 73.2884L131.147 73.2764L131.255 73.2434L131.456 73.1534L131.568 73.1444L131.62 73.1564L131.661 73.1774L131.689 73.2164L131.713 73.2764L131.783 73.3153H131.793L131.783 73.3633L131.724 73.4173L131.713 73.4502H131.703L131.634 73.5402L131.661 73.5342L131.675 73.5702L131.703 73.6151L131.713 73.6301L131.675 73.6631L131.484 73.7171L131.554 73.7261L131.606 73.7531L131.644 73.795L131.675 73.855L131.495 73.9509L131.373 73.9839H131.251V74.0319L131.317 74.0649V74.1248L131.29 74.1908L131.251 74.2448L131.182 74.2777L131.019 74.2987L130.956 74.3317L131.019 74.3467L131.078 74.3677L131.147 74.3797H131.21L131.182 74.4366L131.172 74.4606L131.304 74.4516L131.536 74.3737H131.672L131.63 74.5056L131.7 74.5685L131.832 74.5895H131.953L132.307 74.6795L132.443 74.6855L132.38 74.7544L132.297 74.7934L132.245 74.8384L132.217 74.9253L132.158 74.9673L131.859 75.0872L131.766 75.0452L131.71 75.1352L131.672 75.2671L131.63 75.351L131.72 75.378L131.734 75.423L131.707 75.5459L131.734 75.5729L131.804 75.6029L131.884 75.6179H131.943L131.977 75.6359L132.047 75.6569V75.6958L131.977 75.7408L132.019 75.7708L132.075 75.7768H132.116L132.169 75.7888L132.196 75.8158L132.21 75.8427L132.221 75.8637L132.342 75.8907L132.394 75.9267L132.453 75.9687L132.509 76.0076L132.603 75.9896L132.738 76.0076L132.874 76.0466L132.929 76.0886L132.967 76.1365L133.009 76.1156L133.02 76.1036L133.086 76.0886L133.075 76.1096L133.061 76.1186V76.1246L133.047 76.1365L133.086 76.1785L133.249 76.0646L133.318 76.0466V76.0856L133.231 76.1785L133.318 76.2355L133.454 76.2835L133.548 76.3554L133.495 76.3674L133.468 76.3884L133.398 76.5533L133.548 76.6072L133.725 76.6282L133.805 76.6612L133.957 76.7691L134.027 76.7901L134.117 76.7482L134.149 76.6942L134.197 76.5983L134.239 76.4903L134.27 76.3944L134.197 76.4274L134.107 76.5023L134.041 76.5263V76.4843L134.093 76.4424L134.121 76.3944L134.093 76.3434L134.041 76.3074V76.2595L134.149 76.2475L134.298 76.1605L134.378 76.1276L134.35 76.0796L134.406 76.0376L134.433 75.9806L134.406 75.9297L134.35 75.9087L134.36 75.8637L134.374 75.8187L134.36 75.7738L134.35 75.7288L134.447 75.7138L134.499 75.6508L134.541 75.5879L134.597 75.5549L134.69 75.5339L134.77 75.483L134.826 75.405L134.84 75.3151L134.798 75.2551L134.677 75.2731L134.499 75.3391L134.419 75.2971L134.461 75.2371L134.51 75.1742L134.499 75.1172L134.569 75.1082H134.649L134.736 75.1292L134.798 75.1592L134.788 75.0632L134.798 75.0272H134.84H134.892L134.947 74.9943L134.979 74.9193L134.989 74.8054H134.92L134.947 74.7424L135.007 74.6855L135.059 74.6435L135.1 74.6285L135.114 74.5955L135.128 74.1248L135.069 73.6811L135.128 73.2374V73.0065L135.156 72.9436L135.236 72.8716L135.614 72.3919L135.712 72.233L135.764 72.1491L135.913 72.0291L135.955 71.9692L135.965 71.9182L135.979 71.8043L135.99 71.7503L135.951 71.5974L135.99 70.7909L136 70.8119ZM72.4557 25.6005L72.4696 25.6185L72.4557 25.5705L72.4418 25.5585L72.414 25.5375L72.4002 25.5285V25.5675L72.414 25.5975H72.4418H72.4557V25.6005ZM118.864 65.856L118.77 65.871L118.715 65.916L118.68 65.991L118.569 66.0269L118.541 66.0779L118.555 66.1439L118.593 66.1499L118.635 66.1109L118.743 66.0809L118.83 65.955L118.864 65.916L118.962 65.904V65.871L118.934 65.8411L118.864 65.8591V65.856ZM69.8261 40.9778L69.6108 40.8998L69.4996 40.8818L69.4058 40.8968L69.3503 40.9598L69.4197 41.0887H69.8678L69.9894 41.1367L69.9338 41.0467L69.8261 40.9778ZM70.6807 39.3108L70.6251 39.2569L70.4375 39.1699L70.3819 39.113L70.368 39.011L70.3958 38.9181L70.3819 38.8371L70.2604 38.7742L70.1666 38.7592L69.84 38.7742L69.9338 38.8821L70.0311 39.1519L70.111 39.2599L70.2604 39.1939L70.4097 39.2779L70.5174 39.4368L70.5973 39.5957L70.6946 39.6436L70.7224 39.5507L70.7085 39.4068L70.6807 39.3078V39.3108ZM54.4898 28.4757L54.462 28.4427L54.3682 28.3977L54.2327 28.4307L54 28.5446V28.5926L54.1494 28.5566L54.2049 28.5716L54.2327 28.6436H54.2188L54.1772 28.6406H54.1633V28.6945L54.2605 28.6766L54.5454 28.5476V28.4937H54.5037L54.4898 28.4847V28.4757ZM74.4218 44.3387L74.4635 44.2997V44.2577L74.4357 44.2217L74.3941 44.1917L74.2864 44.1738L73.9737 44.2457V44.2877L74.0293 44.3297L74.2586 44.5545L74.3385 44.5815L74.6511 44.5305L75.193 44.8333L75.4501 44.8753L75.4778 44.8843L75.5056 44.9113L75.5612 44.8813L75.5994 44.8693H75.655L75.5855 44.7374L75.4778 44.6295L75.3563 44.5575L74.7866 44.4796L74.6928 44.4406V44.3896H74.7727V44.3417L74.6372 44.3716L74.4739 44.4346H74.3385L74.2308 44.2877L74.3003 44.2937L74.4218 44.3417V44.3387ZM117.444 66.0539L117.402 66.0899L117.374 66.1019H117.346H117.332L117.322 66.1229L117.266 66.1439H117.114L117.051 66.1649L117.061 66.2008L117.197 66.2638L117.266 66.2818L117.346 66.2608L117.416 66.2278L117.478 66.1559V66.0629L117.468 66.0269L117.444 66.0509V66.0539ZM65.3347 36.6965L65.2687 36.6665L65.0776 36.4986L65.0637 36.4776L64.9282 36.3817L64.6712 36.2648L64.6052 36.2528L64.5496 36.2108H64.5218L64.4975 36.2558L64.4419 36.2947L64.4836 36.3997L64.5322 36.5136L64.5739 36.6305L64.56 36.7445L64.6538 36.8044L64.9526 36.8794L65.3868 36.9153L65.5361 36.8764L65.55 36.7445L65.4945 36.6875L65.3312 36.6965H65.3347ZM75.7627 46.0476L75.6967 45.9756L75.6133 45.9846L75.5473 46.0056L75.4778 45.9756L75.3424 45.8497L75.1791 45.7268L74.9915 45.6428L74.8144 45.6218L74.9359 45.8587L75.0054 46.0206L74.9915 46.0925L74.9637 46.1555L75.0575 46.2874L75.1791 46.4133L75.2903 46.4883L75.6133 46.8091L75.6828 46.905L75.721 46.995L75.8078 47.2348L75.9016 47.2738L75.9815 47.1659L76.0545 46.986L76.0962 46.6922L76.0823 46.6322L76.0406 46.5722L75.8773 46.4883L75.8252 46.4403L75.853 46.3774V46.3294L75.7974 46.2784L75.7835 46.2095L75.7974 46.1315L75.7696 46.0476H75.7627ZM127.802 24.794L126.92 24.3863L126.812 24.3743L126.499 24.4043L126.044 24.2873L125.975 24.3023L125.839 24.3653L125.77 24.3833L125.735 24.3743L125.614 24.3383L125.544 24.3293L125.478 24.3413L125.409 24.3653L125.346 24.3803L125.277 24.3653L125.225 24.3263L125.166 24.2304L125.124 24.1854L125.002 24.1284L124.763 24.0925L124.641 24.0265L124.554 23.9485L124.433 23.7687L124.353 23.6967L124.363 23.6727L124.377 23.6577L124.412 23.6367L124.377 23.5288L124.28 23.4958L124.037 23.4808L124.009 23.3969L123.901 23.3879L123.78 23.4239L123.689 23.4689L123.658 23.5048L123.62 23.6098L123.589 23.6517L123.554 23.6697L123.429 23.6817L123.39 23.6967L123.349 23.7357L123.293 23.8376L123.258 23.8676H123.227L123.078 23.8046H122.592L122.508 23.7747L122.414 23.7357L122.196 23.6008H122.171L122.116 23.6397L122.126 23.6817L122.14 23.7237L122.126 23.7597L121.966 23.8526L121.845 23.7687L121.775 23.5678V23.307H121.654L121.317 23.1331L121.247 23.1241L121.084 23.1391L120.855 23.0941L120.796 23.1061L120.757 23.208L120.796 23.3279L120.827 23.4479L120.733 23.5588L120.664 23.5738L120.448 23.5018H120.191L120.122 23.4748L120.056 23.3729L120.07 23.283L120.097 23.19L120.07 23.0701H120.038L119.969 23.1151H119.948L119.934 23.0911L119.92 23.0311L119.91 23.0161L119.896 22.9862L119.854 22.8482L119.833 22.8273L119.747 22.8033L119.719 22.7823V22.7523L119.729 22.6804L119.719 22.6474L119.354 22.3386L119.26 22.2396L119.219 22.1557L119.25 22.0867H119.358L119.371 22.0238L119.358 21.9788L119.087 21.7299L119.045 21.682H119.059V21.637L119.045 21.577L119.01 21.5141L118.909 21.4361L118.395 21.2143L118.34 21.2053L118.288 21.2203L118.19 21.2832L118.124 21.2952L118.083 21.2892L117.975 21.2802L117.826 21.2083L117.541 21.0314L117.391 20.9774L117.228 20.9624L116.922 20.9924L116.943 21.0614L116.794 21.0734L116.756 21.0854L116.728 21.1303V21.1783L116.714 21.2173L116.652 21.2383L116.592 21.3102L116.513 21.3372L116.037 21.3612L115.929 21.3882L115.86 21.1783L115.752 21.0854L115.401 21.0134L115.266 20.9564L115.154 20.8785L114.981 20.6776L114.925 20.6656L114.804 20.5997L114.734 20.5907L114.682 20.6207L114.599 20.7016L114.546 20.7256H114.533L114.411 20.7076L114.303 20.6566L114.168 20.6326L114.029 20.6926L113.963 20.7706L113.949 20.8245V20.8335L113.935 20.8545H113.893L113.855 20.8635L113.8 20.8515L113.622 20.7796L113.556 20.8095L113.529 20.8215L113.463 20.8665L113.379 20.9175L113.272 20.9714L113.244 20.9894L113.122 20.9624L113.094 20.9115L113.081 20.8965L113.094 20.8335L113.108 20.7616V20.6836L113.081 20.6177L112.824 20.1949L112.716 20.114L112.539 20.06L112.511 20.045L112.476 20.027L112.448 20.021L112.421 20.042L112.407 20.084L112.368 20.12L112.327 20.129L112.243 20.114L112.219 20.087L112.205 20.054V20.018L112.219 19.9131L112.257 19.8891L112.271 19.8771L112.285 19.8621L112.243 19.7512L112.136 19.6373L112.028 19.5353H111.959L111.91 19.5383L111.816 19.5593L111.653 19.5983L111.531 19.5683L111.42 19.5024L111.396 19.4784L111.34 19.4304L111.205 19.2595L111.111 19.1336L111.042 19.0796L110.989 19.0676L110.84 19.0287L110.729 18.9747L110.527 18.7948L110.434 18.7528H110.42H110.364H110.298L110.187 18.7888L110.065 18.8278L109.972 18.8398H109.93L109.85 18.8308L109.794 18.8248L109.742 18.7678V18.489L109.728 18.447L109.673 18.3691L109.659 18.3301L109.673 18.2851L109.715 18.2342L109.728 18.2252L109.742 18.1952V18.1742L109.767 18.1052L109.781 18.0753L109.794 18.0423L109.808 17.9793V17.9344L109.794 17.8804L109.715 17.7455L109.565 17.6885L109.458 17.6495L109.374 17.5446L109.402 17.4247L109.551 17.0979L109.617 16.966V16.885L109.607 16.8221L109.617 16.7711V16.7531L109.645 16.6961L109.728 16.5552L109.753 16.5462L109.808 16.6002H109.822V16.5252L109.836 16.4713L109.864 16.3154V16.1865L109.808 16.1265L109.645 16.1565L109.579 16.1355L109.551 16.0306L109.402 16.0875L108.804 16.6062L108.777 16.6632L108.766 16.7411V16.7711L108.777 16.7831V16.7951L108.791 16.8161V16.84L108.804 16.867L108.777 16.945L108.752 17.1039L108.711 17.2238V17.2388L108.669 17.3107L108.631 17.3347L108.603 17.3467L108.37 17.3767L108.183 17.4606L107.599 17.7125L107.422 17.7395L106.692 17.5626L106.557 17.5296L106.394 17.5506L106.123 17.5866L106.067 17.5716H106.053L105.741 17.4217H105.782V17.3557L105.768 17.3167L105.755 17.2568L105.741 17.1998L105.716 17.1908L105.741 17.1009L105.768 17.0529V17.0439L105.81 17.0019L105.866 16.951L105.904 16.918L106.001 16.861L106.039 16.837L106.109 16.8041L106.175 16.7801V16.7291L106.137 16.6692L106.123 16.6302L106.109 16.6002L106.015 16.2764L105.96 16.2494L105.89 16.2584L105.782 16.3034L105.741 16.2884L105.702 16.2674L105.716 16.1535V16.1325L105.782 15.9436L105.824 15.8327L105.852 15.6948L105.88 15.6408V15.6348L105.946 15.5628L106.067 15.4729L106.081 15.4639L106.123 15.4159L106.137 15.377V15.335L106.109 15.287L106.039 15.2331L105.987 15.2091L105.96 15.1941L105.904 15.1761L105.838 15.2031V15.278L105.852 15.305L105.824 15.317L105.81 15.338L105.73 15.311L105.702 15.296L105.581 15.0802L105.553 15.0142L105.432 14.9243L105.359 14.8853L105.31 14.8643L105.133 14.6874H105.119L105.025 14.6424L104.97 14.6484L104.903 14.6544L104.671 14.7384L104.549 14.7803H104.469H104.428L104.4 14.7714L104.32 14.7414L104.264 14.7084L104.223 14.6844L104.115 14.6334L103.886 14.6065L103.643 14.6244L103.601 14.6334L103.559 14.6454L103.521 14.6904L103.41 14.8373L103.396 14.8853L103.385 14.9003V14.9093L103.358 14.9392L103.344 14.9332H103.33L103.316 14.9872L103.115 14.8283L103.073 14.5195L103.059 14.1657L103.017 13.8749L102.923 13.734L102.816 13.6411L102.694 13.5871L102.569 13.5631H102.232H102.204L102.138 13.5211L102.191 13.4432V13.4372L102.204 13.3742L102.163 13.3353L102.138 13.3293L102.083 13.3143L102.027 13.3203H102.003L101.961 13.3443L101.947 13.3502L101.933 13.3682L101.892 13.3982L101.867 13.4102L101.812 13.4492L101.621 13.5091L101.569 13.5271L101.527 13.5331L101.433 13.5421L101.336 13.5181L101.093 13.4102L101.027 13.3592L100.943 13.2753L100.93 13.2633L100.902 13.1764V12.9335L100.756 12.5078L100.7 12.2889L100.742 12.223L100.78 12.16L100.756 12.091L100.714 11.9831L100.673 11.9172V11.9112L100.607 11.8902L100.52 11.8812L100.485 11.8362L100.398 11.6923L100.349 11.5964L100.322 11.5544L100.238 11.4285L100.145 11.3505L100.023 11.3205L99.9952 11.3145L99.7242 11.3895L99.561 11.4345L99.5089 11.4495L99.2622 11.5124L99.1962 11.5514L99.1406 11.5844L99.0885 11.6293L99.033 11.6773L98.967 11.7822L98.8697 11.9291L98.7898 11.9801L98.762 11.9741L98.7203 11.9651H98.7064L98.6821 11.9561L98.2861 11.7972L98.234 11.7762L98.2062 11.7553L98.1263 11.7013V11.6833L98.0985 11.6563L98.0291 11.5034L97.9909 11.4524L97.977 11.4315L97.7859 11.2816L97.7442 11.2246L97.7303 11.1706L97.706 11.1257L97.6365 11.0927H97.5844L97.4733 11.1017H97.4351L97.3517 11.0867L97.31 11.0747V11.0687L97.2718 11.0267L97.2579 10.9817L97.2301 10.9278L97.2023 10.9038L97.1884 10.8948L97.1363 10.8738L97.1224 10.8528V10.8109L97.1641 10.7269L97.1745 10.6789L97.1224 10.514L97.0669 10.3461L97.0946 10.2742L97.1363 10.2352L97.2162 10.1633L97.244 10.1333L97.2579 10.1183L97.244 9.96539L97.1502 9.85146L96.9453 9.65958L96.8932 9.51268V9.45271L96.8376 9.17389L96.8237 9.1529L96.7542 9L96.6743 9.05397L96.4451 9.14391L95.997 9.24884L95.6565 9.21287L95.6044 9.21886L95.5488 9.24584L94.6005 9.51567L93.7078 9.61161L93.5028 9.71055L93.409 9.69256L92.3357 10.0973L92.1794 10.2382L92.0161 10.4331L91.9223 10.517L91.8112 10.55L91.6896 10.559L91.6479 10.577L91.5124 10.6699V10.7089L91.5263 10.8139L91.6097 11.0987L91.6479 11.2726L91.6236 11.4165L91.5541 11.5274L91.4325 11.8272L91.4047 11.9621L91.4186 12.121L91.4742 12.4418L91.502 12.7986L91.5263 12.9035L91.6757 13.1044L91.502 13.2183L91.4742 13.5241V13.8809L91.3665 14.1328V14.1867L91.6757 14.3966V14.4446L91.4603 14.4056L91.3526 14.6065L91.297 14.9033V15.1461L91.3526 15.2061L91.5819 15.308L91.6375 15.404L91.6757 15.4879L91.759 15.5449L91.8806 15.5778H91.9883V15.6348H91.8667L91.8945 15.6918L91.9223 15.7247L91.9605 15.7367H92.0335V15.7847L91.9779 15.8267H91.9258L91.37 15.5958L91.1789 15.6168L90.9879 15.8387L90.8663 16.2374L90.8142 16.3004L90.7586 16.3484L90.4599 16.6602L89.7269 17.1698L89.5116 17.3797L89.3761 17.4217L89.2406 17.5146L86.9376 18.1562L86.4617 18.1502L86.0275 18.2881L85.8121 18.417L85.6037 18.468L84.9124 18.8278L84.8638 18.8997L84.1308 19.1906L84.0752 19.2385H84.0092L83.7383 19.4364L83.6549 19.5203L83.4257 20.1739L83.1408 20.6296L83.1269 20.6836L83.113 20.7646L83.1269 20.8275L83.2138 20.8755L83.2381 20.9205L83.2798 20.9924L83.3874 21.0494L83.5229 21.0854L83.6202 21.0944H83.7279L84.1343 21.2113L84.5963 21.2652L85.0548 21.2083L85.4473 20.9924L85.3536 21.1033L85.2459 21.1873L84.9888 21.3012L83.6063 21.574L83.2381 21.8079L83.1026 21.9878L83.0505 22.0208L82.9289 22.0507L82.7657 22.1677L82.5086 22.2756L81.6089 22.4585L81.4734 22.5694L80.9454 22.2936L80.6745 22.2366L80.4973 22.1407L80.4035 22.1047H80.0249L79.7783 22.0148L79.6428 21.9848L79.4413 22.0807L79.3059 22.0687L79.0627 22.0088L78.1109 21.9548L77.4474 21.7359L76.7145 21.703L76.6207 21.7449L76.5269 21.8319L76.4852 21.9338L76.5408 22.0088V22.0567L76.4331 22.0837L76.3775 22.0537L76.322 21.9998L76.2698 21.9548L76.2004 21.9638L76.1517 21.9968L76.1101 22.0028L76.0823 21.9278L76.0962 21.9068L76.124 21.8679L76.1517 21.8079L76.1656 21.727L76.1378 21.5651L76.0823 21.4541L75.662 20.9894L75.5821 20.7855L75.4848 20.6566L75.4049 20.5097L75.4327 20.3328L75.4744 20.2969L75.5265 20.2819H75.6481L75.662 20.2489L75.6758 20.1799L75.7036 20.111L75.853 20.021L75.8252 19.8951L75.7036 19.6703L75.6758 19.5473L75.6481 19.4964L75.6098 19.4754L74.9255 19.3674L74.8317 19.3794L74.5747 19.4484L74.4948 19.5024L74.3454 19.6703L74.2621 19.7422L74.1683 19.7812H74.0988L73.9911 19.7392L73.9251 19.7272L73.8556 19.7452L73.7896 19.8172L73.7341 19.8322L73.6924 19.8172L73.6785 19.7812V19.7452L73.6681 19.7272L73.5847 19.7332L73.1644 19.6103L72.7996 19.5623L72.678 19.5263H72.6503L72.5808 19.5323L72.5565 19.5263L72.5426 19.4934L72.5148 19.4034L72.487 19.3704L72.4349 19.3495L72.2716 19.3704L72.216 19.3555L72.1084 19.2865L72.0528 19.2685L71.9034 19.2865L71.8791 19.3435L71.8895 19.4514L71.8409 19.6283L72.084 19.7182L72.2751 19.7482L72.3133 19.8022L72.355 19.8741L72.3967 19.9581L72.4384 20.063V20.1859L72.4106 20.4198L72.3828 20.4947L72.2195 20.6207L72.1778 20.7226L72.2195 20.7676L72.355 20.9175L72.4106 20.9984L72.4384 21.0554V21.0944L72.4488 21.1303L72.5356 21.2592L72.5495 21.3042L72.5634 21.3552L72.5738 21.4601L72.5495 21.712L72.5634 21.8079L72.6155 21.8589H72.685L72.7649 21.8259L72.8344 21.8079L72.8205 21.8349L72.8066 21.8559L72.7927 21.9068L72.9004 21.9638L73.0358 22.0867L73.1296 22.1437L73.1852 22.0178H73.2269L73.2929 22.1677V22.2126H73.1852L73.2269 22.3296L73.2929 22.4135L73.4562 22.5214L73.4284 22.5304L73.4145 22.5424L73.3797 22.5754L73.4596 22.6624L73.5534 22.9352L73.6403 23.0221L73.6924 22.8842H73.8035L73.9529 22.9472L74.0745 22.9802V23.0251L73.8661 22.9742L73.7584 22.9802L73.7167 23.0491L73.7306 23.184L73.7584 23.3249L73.7862 23.4629L73.8383 23.5798L73.8661 23.5468L73.8799 23.5348L73.9494 23.5798L73.8383 23.6457L73.8001 23.6907L73.7584 23.7866L73.7306 23.8826V23.9635L73.7584 24.0205L73.8383 24.0325L73.8139 24.1074L73.8001 24.1854V24.3623L73.8139 24.4252L73.8487 24.4972L73.8904 24.5392L73.9043 24.5092L73.9564 24.3953L74.0536 24.3413H74.1891L74.2829 24.3863V24.4312L74.1474 24.3743L74.0814 24.4073L74.0397 24.5182L73.9842 24.9409L73.9981 24.9829L74.0675 24.9979L74.0953 25.0369V25.1028L74.0675 25.1868L74.0119 25.1238L73.9703 25.1958L73.9321 25.5465L73.8904 25.6305L73.8348 25.6964L73.7549 25.7264V25.7804L73.8904 25.8104L73.9564 25.9273L73.9842 26.0982V26.2991L74.0397 26.473L74.2412 26.6319L74.2829 26.8027L74.3246 26.8477L74.3906 26.8897L74.5816 26.9377L74.6094 26.9646L74.6233 27.0066L74.6372 27.0516L74.6476 27.0846L74.6754 27.0726L74.7032 27.0456V27.0276L74.9221 27.0456L75.0436 27.0996L75.1374 27.2255L74.9325 27.1595L74.3246 27.2764L73.8904 27.2255L73.7966 27.2435L73.5256 27.3694L73.0914 27.4293L72.685 27.4234L72.4418 27.3664L72.3168 27.2405V27.0696L72.4523 26.8747L72.4175 26.8237L72.4036 26.7848V26.7518L72.4175 26.7218L71.8478 26.8207L71.8895 26.8747H71.6707L71.629 26.8987L71.6151 26.9496V27.0036L71.6047 27.0246L71.5074 27.0456L71.4414 27.0996L71.3997 27.1655L71.3858 27.2225L71.4414 27.3124L71.5491 27.5283L71.6047 27.5703H71.6568L71.7263 27.5912L71.7645 27.6362L71.8062 27.7202L71.7402 27.6752L71.7263 27.6542L71.6985 27.6212H71.6568L71.6846 27.7382L71.7645 27.8671L71.7263 27.924L71.8895 28.02L71.7124 28.1159L71.6568 28.1699L71.6846 28.008L71.6429 27.912L71.5074 27.7232L71.5213 27.6932L71.5491 27.6212L71.4692 27.6002L71.4275 27.5463L71.3997 27.4743L71.3858 27.3964L71.2643 27.2075L71.2504 27.1745L70.9933 27.1985L70.7363 27.2734L70.7884 27.3784L70.8162 27.4293L70.8578 27.4743L70.7884 27.4084L70.7085 27.4024L70.6529 27.4443L70.5869 27.5253L70.6425 27.5643L70.6529 27.5733V27.6212L70.573 27.6632L70.5313 27.6212L70.4931 27.5313L70.4792 27.4234V27.5133L70.4514 27.5882L70.4097 27.6452L70.3576 27.6722L70.3437 27.5972L70.3298 27.5133L70.2881 27.4503L70.2221 27.4234L70.2083 27.3814L70.1805 27.2135L70.1527 27.1745L70.0172 27.2285L69.9095 27.3274L69.8018 27.3904L69.7046 27.3214L69.8539 27.1715L69.8817 27.1295L69.9095 27.0876L69.9373 27.0486L69.972 27.0186V26.9646L69.8921 26.9736L69.8366 26.9526L69.7984 26.8987L69.7845 26.8147L69.7011 26.9496L69.5517 27.0756L69.3919 27.1715L69.2426 27.2195L69.2009 27.1205L69.0793 27.1056L68.8222 27.1685L68.9299 27.2135H68.9855V27.2674L68.8987 27.3454L68.52 27.5493L68.4228 27.5763L68.3707 27.6152L68.3151 27.6602L68.1935 27.8401L68.0858 27.942L67.992 27.975L67.7732 27.966L67.7454 28.02V28.1219L67.735 28.1909L67.6516 28.1369L67.6099 28.0799L67.5578 28.038L67.5022 28.014L67.4536 28.008L67.4884 27.975L67.5161 27.933L67.5439 27.8821L67.5578 27.8161L67.2452 27.6842L67.1097 27.5942L67.0298 27.5613L67.002 27.5403L66.9881 27.4983L67.002 27.4623L67.0159 27.4293L67.002 27.3934L66.9881 27.3364L66.9187 27.1175L66.5678 26.8477L66.5261 26.7728L66.4462 26.6858L66.3386 26.6109L66.2552 26.5659V26.5209L66.283 26.5089L66.3386 26.467L66.3247 26.422V26.377L66.3386 26.3141L66.2274 26.2811L65.9426 26.2691L65.7967 26.2211V26.1671H65.7272V26.1222L65.821 26.0592L65.8627 26.0382L65.9182 26.0262V25.9903L65.9043 25.9813H65.8905L65.8766 25.9753L65.9182 25.9243L65.8627 25.8853L65.7967 25.8703L65.7411 25.8823L65.6855 25.9243L65.5917 25.9063L65.484 26.0442L65.3069 26.374H65.2652V26.317L65.3763 26.1821L65.4146 26.1222L65.4875 25.9333L65.5361 25.8733L65.4562 25.8194V25.7744L65.4979 25.7024V25.6245L65.4562 25.5615L65.3868 25.5226L65.3069 25.5405L65.2131 25.6485L65.1436 25.6275L65.1054 25.6815L64.9699 25.7834L64.7928 25.9603L64.7511 26.0322L64.7372 26.1252L64.6955 26.0802V26.0592L64.6851 26.0262L64.765 25.9513L64.8067 25.8194V25.6755L64.765 25.5705L64.6851 25.5525L64.5079 25.7324L64.4662 25.7204H64.4246L64.3586 25.7624L63.8827 25.9153L63.8444 25.9393L63.7889 25.9993L63.7472 26.0262L63.6812 26.0322L63.5457 26.0232L63.5596 25.9873L63.5735 25.9663L63.5874 25.9453L63.6256 25.9243H63.5457L63.3547 25.8194L63.1775 25.8104L63.1254 25.7744H63.0837L63.0559 25.8344L62.9343 26.0262L62.7711 26.0892L62.719 26.1522L62.7468 26.2721L62.9343 26.4789L63.0212 26.5239L62.7224 26.5689L62.7085 26.6169L62.7224 26.7308L62.7745 26.8987L62.7085 26.9377H62.5453L62.3959 26.9017L62.4098 26.7788L62.2049 26.8267H62.1389L62.0729 26.7967L61.9478 26.6948L61.8818 26.6738L61.6248 26.6888L61.5171 26.6618L61.4476 26.5719V26.6558L61.4337 26.6918L61.4059 26.7248L61.3399 26.6798L61.2982 26.7608L61.2704 26.8987L61.2982 27.0246L61.2427 26.9856L61.2322 26.9646L61.2183 26.9227H61.1767L61.2044 27.0696L61.2322 27.1295L61.2565 27.1745L61.2183 27.2225L61.2565 27.2734L61.2183 27.3244L61.135 27.2405L60.9717 27.1475L60.9057 27.0696V27.0246L60.9335 27.0156L60.9856 26.9706L60.8779 26.9496L60.798 26.9856L60.6348 27.1205L60.6625 27.0336V26.9616L60.6209 26.9077L60.5653 26.8777V26.8237H60.607V26.7788L60.541 26.7578L60.5271 26.7218L60.5514 26.6678L60.5653 26.5959L60.5271 26.5749L60.336 26.6259L60.2144 26.6888L60.1415 26.7098L60.0616 26.7218L60.0894 26.7878V26.8417L60.0616 26.8867L60.0199 26.9197H59.9956L59.9678 26.8657L59.94 26.8327H59.9122L59.8705 26.8747L59.7768 26.8237L59.6552 26.8147L59.5197 26.8357L59.412 26.8717L59.3148 26.9287L59.221 27.0126L59.1932 27.0876L59.3043 27.1145V27.1685H59.221L59.0994 27.1265L59.0299 27.1145L58.9778 27.1265L58.8006 27.2165L58.6791 27.2315L58.7207 27.0696L58.6131 26.9646H58.4637L58.3143 27.0096L58.165 27.0876L58.0017 27.1115V27.1655L58.0434 27.1745L58.1094 27.2165H57.9878L57.7967 27.2974L57.6752 27.3184H57.241V27.3634L57.2826 27.3904L57.2965 27.4114L57.2826 27.4353L57.2687 27.4683L57.4181 27.5223H57.3243L57.0673 27.4683L56.9978 27.5103L57.0256 27.6092L57.1611 27.7621L57.0916 27.7801L56.9075 27.6902L56.7998 27.6632L56.6226 27.6782L56.5288 27.7082L56.4316 27.7591L56.4733 27.8131L56.4177 27.7921L56.3517 27.7591L56.2579 27.8851L56.1224 28.1069L56.0668 28.3168L56.2023 28.4067V28.4517L56.1085 28.4817L56.0391 28.5806L56.0113 28.7185V28.8534L56.1085 29.0483L56.1224 29.1413L56.0113 29.1503L56.053 29.3032L56.0946 29.3751L56.1745 29.4021H56.4594L56.5011 29.3811L56.515 29.3271V29.2732L56.5288 29.2492L56.6365 29.2642L56.838 29.3331L56.9353 29.3511L57.043 29.3391L57.2062 29.2642L57.4772 29.2072L57.828 29.0153L58.0052 28.9524L58.3838 28.8984L58.4915 28.8624L58.6686 28.7755L58.7624 28.7485L58.2344 29.0243L58.1684 29.0663L57.8558 29.4021V29.4471L57.9357 29.4411L58.0052 29.4231L58.0712 29.3931L58.1129 29.3511L58.1545 29.4021L58.1406 29.4171H58.1267L58.1129 29.4471L58.2483 29.4291L58.4255 29.3241L58.5054 29.3541L58.5193 29.3241L58.561 29.2882L58.5749 29.2522H58.6165V29.3062H58.5749V29.3541L58.6547 29.3331L58.7902 29.2552H58.8875L58.7763 29.3571L58.7242 29.3901L58.6964 29.4201V29.4501L58.6409 29.4651L58.6165 29.483L58.5749 29.549L58.818 29.534L58.8458 29.525L58.8736 29.6L58.9535 29.624L59.023 29.606L59.0751 29.552L59.1029 29.636L59.1689 29.6659L59.3321 29.6569V29.7109L58.8875 29.7948L58.7624 29.7529H58.8458L58.8875 29.7379L58.9257 29.7079L58.5471 29.7289L58.29 29.7919L58.2205 29.7978L58.1406 29.7859L58.099 29.7619L58.0573 29.7289L58.0052 29.7049L57.505 29.7349L57.3556 29.6719L57.4216 29.4051L57.3417 29.3661L57.2583 29.4261L57.1645 29.6509L57.1784 29.6779L57.1923 29.7289L57.1784 29.7799L57.109 29.8008L57.043 29.7919L57.0013 29.7769L56.9492 29.7709L56.8936 29.8008L56.9075 29.8728L56.8936 29.9508L57.234 29.9627L57.3 29.9777L57.3278 30.0527L57.3139 30.0797L57.2722 30.1127L57.2444 30.1966L57.2583 30.2506L57.2861 30.3105L57.3556 30.3915L57.3278 30.4394L57.2722 30.5923L57.4216 30.5504L57.5154 30.4125L57.5987 30.2506L57.6786 30.1216L57.828 30.0797L58.1267 30.2416L58.2761 30.1966L58.29 30.2446L58.3039 30.2865L58.3421 30.3195L58.3838 30.3435L58.627 30.3915L58.6999 30.4574L58.7277 30.6163L58.7555 30.6673L58.8215 30.7572L58.8493 30.8382L58.7937 31.0421L58.7659 31.093L58.686 31.123L58.3734 31.0391L56.5705 31.3868L56.5462 31.3778L56.5045 31.3329H56.4767L56.4628 31.3599L56.449 31.3838V31.4108L56.4073 31.4648L56.3968 31.5098L56.3691 31.5517L56.3274 31.5787L56.7477 31.6837L56.9387 31.6747L57.0325 31.6867L57.1958 31.8276L57.2757 31.7946L57.3452 31.7226L57.4112 31.6807L57.4667 31.7076L57.967 32.0464L58.224 32.3432L58.3213 32.4722L58.3734 32.667L58.4567 32.8499L58.4706 32.9788L58.4567 33.0238L58.4012 33.0358H58.3456L58.3213 33.0538L58.3074 33.0958L58.3213 33.1947V33.2487L59.1341 33.2816L59.2696 33.2487L59.3495 33.2037L59.5405 33.0538V32.9998H59.3912V32.9579L59.4051 32.9369L59.419 32.9099L59.3356 32.8589L59.3495 32.772L59.4329 32.751L59.5405 32.9099L59.5926 32.8619L59.6482 32.8319L59.7038 32.8139H59.7698V32.766L59.7038 32.709L59.6204 32.6131L59.5926 32.5051L59.6482 32.4212L59.676 32.5381L59.7281 32.652L59.7976 32.736L59.8636 32.769L59.947 32.778L60.0269 32.8019L60.1901 32.9159L60.2179 32.8529L60.2596 32.8379H60.3117L60.3812 32.8139L60.3534 32.8769L60.3256 32.9099L60.2839 32.9189H60.2318L60.3395 32.9399L60.4611 32.8199L60.5028 32.712L60.4472 32.5651L60.5965 32.5891L60.7459 32.676L60.8536 32.781L60.8675 32.8589L60.937 32.8979L60.9752 32.9129H61.0308L61.003 32.9968L61.0169 33.0418L61.0585 33.0688L61.1002 33.1048L61.2079 33.2757L61.2218 33.2996L61.3156 33.3086L61.4372 33.2876H61.5588L61.6421 33.3536L61.9374 33.2127L61.9791 33.2337L62.0347 33.3296L62.1423 33.3626L62.3473 33.3536L62.3716 33.3656L62.4411 33.4256L62.4828 33.4465L62.521 33.4525L62.6703 33.4465L62.8753 33.4885H62.9552L63.0247 33.4465L63.0386 33.5005L63.0629 33.5335L63.1323 33.5935L63.2122 33.7404L63.3755 33.9262L63.4033 33.9652L63.4832 33.9862L63.9313 33.8903V33.8453L63.9035 33.8093L63.8757 33.7793L63.8375 33.7553L63.9452 33.7344L64.1223 33.6444L64.2717 33.5215L64.3933 33.3956V33.4465L64.3238 33.4975L64.2717 33.5815L64.2022 33.7404L64.1606 33.7493L64.0668 33.7374L64.0529 33.7643V33.8303L64.039 33.8663L64.0251 33.8783L63.9764 33.8843V33.9382L64.2057 33.9592L64.2995 33.9892L64.3968 34.0372V34.0821L64.1779 34.0102L64.0702 34.0012L63.9764 34.0342H64.1258L64.369 34.0971L64.5044 34.1331L64.6816 34.301L64.7198 34.331L64.7754 34.301L64.7893 34.235L64.8171 34.1691L64.897 34.1361L64.831 34.0582L64.8171 34.0372L64.897 34.0192L64.9387 33.9712L64.9803 33.9472L65.0463 33.9892V33.9502L65.0602 33.9442H65.088L65.0602 33.8423L65.0186 33.7643L64.9803 33.7104L64.897 33.6834L64.9803 33.6714L65.0602 33.7044L65.1158 33.7194L65.154 33.6414H65.1957V33.8423L65.2235 33.8273L65.2895 33.8063L65.3173 33.7913V33.9112L65.3312 33.9532L65.3451 33.9922L64.9387 34.1601L64.8692 34.358L64.8553 34.4509L64.8692 34.4959L64.9248 34.5229L64.9908 34.5438L65.0463 34.5738L65.1262 34.6518L65.1818 34.7447L65.2235 34.8706L65.2374 35.0355L65.2235 35.1315L65.1679 35.2514L65.154 35.3264L65.1679 35.3923L65.2374 35.5962H65.2756L65.3034 35.5662L65.425 35.5932H65.4979L65.3763 35.4733L65.2895 35.3084L65.2513 35.1045L65.3173 34.8646L65.2895 34.8497L65.2617 34.8287L65.2374 34.8167L65.2895 34.7417H65.3451L65.4111 34.7747L65.4667 34.8167L65.425 34.8437L65.3972 34.8646L65.4667 34.9066L65.5605 34.8976L65.7376 34.8167L65.7793 34.8497L65.8071 34.8586H65.887L65.8453 34.7687L65.8731 34.6908L65.9009 34.6818L65.9287 34.7897L65.953 34.8856L66.0086 34.9036L66.0363 34.8586L66.0086 34.7627L66.078 34.8227L66.144 34.8946L66.1857 34.9396L66.2378 34.9126L66.2934 34.9846L66.3073 35.0116L66.3212 34.9816L66.3351 34.9606L66.349 34.9126L66.2934 34.8616L66.2274 34.7867L66.1718 34.7087L66.1579 34.6368V34.4659L66.144 34.4149L66.1162 34.325V34.271H66.1579L66.1718 34.358L66.2135 34.4239L66.2656 34.4599H66.349L66.2934 34.4959L66.2795 34.5498V34.6218L66.3073 34.7087H66.349L66.3733 34.6788L66.3872 34.6668L66.4567 34.6548V34.7087H66.415V34.7537L66.606 34.7147L66.7137 34.6698L66.7693 34.5858L66.8179 34.5349L67.1028 34.5079L67.2243 34.4599L67.1445 34.4149L67.3216 34.4419L67.3876 34.4809L67.4606 34.5618L67.332 34.5289L67.2243 34.5139L67.4953 34.6698L67.5231 34.7117H67.596L67.6204 34.6938L67.6481 34.6608L67.5682 34.6098L67.6342 34.5918L67.6759 34.5588L67.662 34.5139L67.6099 34.4659V34.4209L67.7315 34.5618L67.7037 34.6938L67.4849 34.9576L67.5266 35.0056L67.4189 35.0715L67.2556 35.0835L67.1201 35.0445L67.0402 34.9546L66.9986 35.0565V35.1045L66.943 35.0625L66.9082 35.0535L66.8805 35.0685L66.8527 35.1075H66.811L66.7311 34.9636H66.5678L66.4879 35.0205L66.5817 35.0535V35.0865L66.5678 35.0955L66.5956 35.1045L66.6477 35.1135L66.7033 35.1345L66.7311 35.1735L66.745 35.1824L66.8388 35.3204L66.8527 35.3473L66.9221 35.4103L67.002 35.4433L67.0819 35.4523L67.1931 35.4403L67.4745 35.3533L67.5717 35.3473L67.7593 35.4073L67.8288 35.3683L67.8427 35.2004L67.8948 35.2364L67.9642 35.2514H68.1136L68.0997 35.2004L68.0719 35.1735L68.0441 35.1585L67.992 35.1495L68.0858 35.1315L68.1657 35.1375L68.2526 35.1255L68.3325 35.0535L68.2977 35.1495L68.2109 35.2304L68.1171 35.2814L68.0337 35.2964L68.0893 35.3443L68.131 35.3383L68.1588 35.3144L68.2109 35.2964H68.4158L68.5895 35.2424L68.6729 35.2334L68.7528 35.2454L69.187 35.3923H69.2808L69.4301 35.3713L69.5274 35.3923L69.4163 35.3833L69.2148 35.4313L68.8605 35.4493L68.7945 35.4942L68.8744 35.5872L68.8361 35.7221L68.9021 35.7611L69.0098 35.7701L69.1071 35.824L69.0515 35.923L69.1453 35.956H69.2808L69.378 35.9739L69.3503 36.0219L69.1592 36.1119L69.1071 36.1658L69.0654 36.1238L69.0932 36.1089L69.1071 36.0699L69.0098 36.0519L68.9577 36.0309H68.9021L68.454 36.2558L68.6868 36.3847L68.7528 36.4926V36.6995H68.7945L68.8361 36.6275L68.8222 36.6005L68.7945 36.5466L68.8222 36.5316L68.8361 36.5196L68.8744 36.5016L68.9577 36.6035L69.0793 36.6995L69.121 36.7954L69.0237 36.8914L68.9021 36.9124L68.659 36.8134L68.5374 36.7984V36.8434L69.0515 37.0802L69.2148 37.0862L69.2287 37.0653V37.0233L69.2565 36.9753L69.2947 36.9423L69.3364 36.9333H69.3919L69.4857 36.9423L69.5795 36.9873L69.715 37.1252L69.7984 37.1882L69.8921 37.2212H69.9998L70.1075 37.1882L70.243 37.0742L70.4063 37.0323L70.4618 36.9843L70.4896 36.9393L70.5139 36.8974L70.5556 36.8434L70.7328 36.7535L71.5039 36.7055L71.7089 36.7594L71.7888 36.8284L71.8444 36.8434L71.9659 36.8554L72.0875 36.8884L72.2786 36.9903L72.4662 37.1312L72.6433 37.3051L72.7371 37.3741L72.9698 37.416L73.0775 37.479L72.7788 37.47L72.6572 37.419L72.5217 37.3051L72.4662 37.2721L72.2369 37.2302L72.0076 37.0862V37.0323H72.1292L72.0736 36.9843L72.0215 36.9543L71.9659 36.9393H71.8999L71.9382 36.9873H71.8444L71.5595 36.9243L71.5178 36.8914L71.4796 36.8434L71.4379 36.8494L71.3963 36.8644L71.3546 36.8914L70.8405 36.9363L70.705 36.9873L70.6633 37.0473L70.6251 37.1312L70.6112 37.2242L70.5973 37.3021L70.6112 37.407L70.6772 37.521L70.6633 37.6169L70.6529 37.7218L70.639 37.7788L70.5973 37.8058L70.4063 37.8268L70.3541 37.8687L70.2847 37.9137L70.2187 37.9617L70.4063 38.0576L71.0593 38.1536L71.3963 38.3155L71.4831 38.3904L71.5317 38.4744L71.6047 38.6003L71.6186 38.7172L71.5213 38.7802L71.4553 38.9061L71.358 39.1609L71.292 39.2659L71.0732 39.3798L70.9933 39.4577L71.0211 39.5537L70.8856 39.6466L70.8439 39.7216L70.83 39.8715V39.9914L70.8578 40.1263L70.8995 40.2372L70.9655 40.2852L71.101 40.3272L71.2782 40.4321L71.5908 40.7139L71.754 41.0078L71.8062 41.0497L71.9034 41.0587L71.9972 41.0887L72.0632 41.1427L72.1188 41.3196L72.1848 41.3885L72.2682 41.4515L72.3619 41.5354L72.3897 41.6194L72.4175 41.7153L72.4592 41.7903L72.553 41.8232L72.5252 41.9432L72.6468 42.4558L72.7024 42.5188L72.7545 42.5458L72.7823 42.5128L72.7684 42.4528L72.7406 42.3359V42.249L72.7962 42.3239L72.8517 42.4768L72.8899 42.5338L72.9594 42.5728L73.1227 42.6087L73.3103 42.7527L73.609 42.7976L73.6924 42.8726L73.6507 42.9595L73.8001 43.0015L74.1787 43.0165L74.3281 43.0435L74.4496 43.1214L74.5434 43.2473L74.5712 43.4242L74.6407 43.5741L74.7762 43.5831L75.0749 43.4992L75.1548 43.5262L75.2764 43.6221L75.4535 43.7121L75.5056 43.721L75.589 43.742L75.6967 43.8769L75.8044 43.9879L75.9537 44.0239L75.9398 43.802L76.1587 43.6971L76.4018 43.7121L76.5234 43.859L76.5373 43.9549L76.5651 44.0149V44.0718L76.5234 44.1588L76.1448 44.3686L76.0753 44.4586L76.1031 44.5905L76.0475 44.6235L75.9989 44.6804L75.9711 44.7464V44.8064L76.0267 44.8543L76.0788 44.8633H76.1205L76.19 44.8753L76.2698 44.8693L76.2976 44.8753L76.3115 44.8963L76.2976 44.9293V44.9593L76.3254 44.9743L76.3602 44.9832L76.4817 45.0702L76.4157 45.1272V45.1571L76.4574 45.1781L76.4817 45.2111L76.5095 45.2201L76.579 45.2411L76.6068 45.2501V45.343L76.645 45.439V45.5079L76.6728 45.5649L76.7805 45.6009L76.8083 45.6248L76.85 45.6578L76.8638 45.6878V45.7298L76.8083 45.8467L76.7284 45.9037L76.645 45.8977L76.5234 45.8287L76.6068 46.0566L76.6589 46.1495L76.7527 46.2035L76.7284 46.2245L76.6728 46.2784L76.645 46.2994L76.6728 46.3354L76.7145 46.3954L76.7388 46.4673L76.7527 46.5393L76.7284 46.6202L76.7006 46.6352L76.645 46.6262L76.6068 46.6322L76.5095 46.6772L76.4574 46.7281L76.4296 46.7581L76.4018 46.7971L76.3602 46.8391L76.2942 46.8691L76.3463 46.941L76.3741 47.0429L76.4018 47.1449L76.4157 47.2258L76.4435 47.2858L76.5929 47.4327L77.0931 47.7835L77.2147 47.9064L76.8222 47.7475L76.7527 47.6935L76.6867 47.6576L76.3324 47.2948L76.2247 47.2888L75.86 47.3907V47.4777L75.7662 47.9574L75.86 47.9933L76.0614 47.9544L76.1587 48.0233L76.2247 48.0983L76.3115 48.1702L76.4053 48.2182L76.513 48.2362L76.6763 48.2932L76.975 48.554L77.1626 48.614L77.1904 48.6409L77.2182 48.7699L77.2321 48.7998L78.031 49.2975L78.2881 49.5524L78.4096 49.7233L78.5208 49.9151L78.7084 50.3469L78.7779 50.6107L78.9932 51.9149L79.0627 52.1337L79.1704 52.3106L79.3614 52.4425L79.6046 52.5115L79.8339 52.6074L79.9693 52.8203L79.8478 52.7303L79.7123 52.6734L79.5629 52.6434L79.3996 52.6344L79.5212 52.7064L79.6567 52.8173L79.7123 52.9642L79.6567 53.1441L79.6984 53.228L79.7123 53.4199L79.7401 53.5159L79.6671 53.4649L79.6185 53.354L79.5907 53.213V53.0691L79.6046 52.9612L79.5907 52.8982L79.549 52.8113L79.4969 52.7633L79.3198 52.6734L79.1009 52.4935L78.9133 52.2806L78.7223 51.8849L78.7084 51.8069L78.6007 51.1743L78.5347 50.9195L78.5208 50.7816L78.4513 50.5747L78.2881 50.3738L77.6107 49.7203L77.5308 49.6993L77.2981 49.5853L76.9194 49.3335L76.8673 49.2795L76.8117 49.1956L76.7978 49.1596V49.1236L76.8117 49.0877L76.8256 49.0667V48.9377L76.8117 48.9078L76.7562 48.8808L76.6624 48.9108L76.5964 49.0157L76.3914 49.3515L76.3636 49.4534L76.2698 50.8955L76.0267 51.9748L75.6863 55.3207L75.728 55.2458L75.7801 55.0839L75.8356 54.787L76.0927 54.4543L76.1344 54.3943L76.1483 54.3823V54.3553L76.1622 54.3253L76.19 54.3044H76.2143L76.2421 54.3163L76.2698 54.3373L76.2976 54.3523L76.3636 54.3733L76.784 54.7121L76.8395 54.808H76.7562L76.8916 54.934V55.0389L76.784 55.1078L76.5825 55.1348L76.2421 55.0599L76.1066 55.0659L75.9989 55.1858L75.8912 55.4946L75.8773 55.5756L75.8634 55.6205L75.7141 55.8064L75.7002 55.8634L75.7557 56.0552L75.7696 56.1512L75.728 56.5709L75.5786 57.5123L75.2138 59.4071L75.0228 60.2736L74.8873 60.6543L74.6581 61.7457L74.5226 62.1234L74.4809 62.3303L74.3941 62.5791L74.3454 62.6541L74.0606 62.852L74.005 62.9059L73.9772 62.9809L73.8556 63.1877L73.8174 63.2447L73.7063 63.3107L73.5847 63.3706L73.4492 63.4126L72.9629 63.4815L72.8552 63.5175L72.8135 63.5655L72.7336 63.5115L72.6919 63.6944V63.9133L72.8552 63.9822L72.9212 64.0632L72.949 64.1921L72.9768 64.2461L73.0289 64.2371L73.0984 64.2101L73.2199 64.1951L73.3276 64.1531H73.3832L73.4909 64.2011L73.5465 64.2341V64.2641L73.5326 64.306V64.366L73.5708 64.4799L73.5986 64.5099L73.6681 64.5369L73.7341 64.5459L73.8035 64.5369L73.8556 64.5069L73.8973 64.4499L73.939 64.336L74.0189 64.294H74.1266L74.3037 64.342L74.5365 64.4469L74.6025 64.4379L74.6581 64.42H74.7241L74.8873 64.5639L74.9151 64.8067L74.8456 65.0675L74.7657 65.2774L74.6963 65.3614L74.467 65.5742L74.4114 65.6312L74.4948 65.7751L74.5886 65.874L74.7102 65.937L74.8456 65.967L75.0089 65.979L75.1027 65.952L75.1444 65.862L75.1583 65.6912L75.1999 65.5592L75.2937 65.4633L75.4153 65.4243L75.5508 65.4513L75.4292 65.5382L75.3875 65.6252L75.4014 65.7121L75.4987 65.8081L75.6064 65.862L75.9294 65.913L76.1205 66.003L76.3115 66.1319L76.513 66.1169L76.5686 66.1319L76.6485 66.1828L76.6902 66.2128L76.8916 66.2338L76.9889 66.2548L77.0549 66.3237L77.246 66.4497L77.4613 66.5096L77.8955 66.5426L78.3297 66.4767L78.4791 66.5216L78.5868 66.7525V66.8005L78.559 66.8304V66.8634L78.5868 66.9264L78.6424 66.9713L78.6945 66.9773L78.7501 66.9683L78.8161 66.9773L79.0071 67.0793L79.1009 67.1512L79.3198 67.4031L79.3336 67.4331L79.3198 67.46V67.487L79.3475 67.502H79.4413L79.4691 67.508L79.4969 67.55V67.6309L79.549 67.6639L79.5907 67.6579L79.6845 67.6009L79.7262 67.589L79.7401 67.4331H79.8894L80.1882 67.559L80.348 67.547L80.4834 67.475L80.7613 67.2951L80.81 67.3371L80.8517 67.3221L80.8899 67.2742L80.9176 67.2112L81.001 67.2801L81.338 67.46L81.4074 67.58L81.5568 67.5949L81.7201 67.556L81.8139 67.52V67.6339L81.8417 67.7479L81.9076 67.8438L82.0014 67.9067L82.0292 67.9427L82.0431 67.9877L82.057 68.0297L82.1126 68.0537L82.1786 68.0686L82.2203 68.0986L82.2481 68.1316L82.2863 68.1616L82.5051 68.2365L82.6927 68.2215L83.1269 68.0836L83.4673 68.0387L83.575 67.9787L83.6688 67.9667L83.9537 68.0327L84.0509 68.0716L84.1725 68.2545L84.2524 68.3415L84.3358 68.3325L84.4921 68.1406L84.5893 68.0567L84.697 68.0237L84.8464 68.1406L84.8603 68.1616V68.2156L84.8881 68.2365L84.9958 68.2545H85.1034L85.3188 68.2006L85.4161 68.2335L86.1073 68.2156L86.3088 68.2395L86.3783 68.2156L86.4304 68.1466V68.0417L86.3922 67.9427L86.3227 67.8708L86.2567 67.8438L86.2845 67.7808L86.3088 67.7538L86.3505 67.7239L86.2845 67.6489L86.3644 67.466L86.3505 67.3251L86.3783 67.2322L86.5138 67.1872L86.6631 67.1782L86.7569 67.1872L86.948 67.2502L87.0418 67.2682L87.1495 67.2592L87.2571 67.2742L87.4899 67.3971L87.6601 67.454L87.7018 67.487L87.799 67.565L87.8477 67.586L87.9032 67.565L87.9553 67.526L88.0109 67.511L88.0665 67.526L88.1464 67.592L88.1881 67.6129L88.6744 67.6399L88.7821 67.6729L88.8794 67.7509L88.928 67.8438L88.9836 67.9457L89.0391 68.0357L89.1329 68.0956L89.1816 68.1046L89.3726 68.0507H90.0639L90.1994 68.0836L90.1716 68.1736L90.1994 68.2036H90.2549L90.2931 68.2276L90.3904 68.3805L90.4981 68.5064L90.5919 68.7282L90.6753 68.8212L90.7968 68.7762L90.8906 68.5184L91.0678 68.5274L91.231 68.4734H91.3109L91.6097 68.6503L91.6757 68.6743L92.3148 68.7282L92.2593 68.8631L92.3531 68.9111L92.4781 68.9471L92.5441 69.034L92.4086 69.046L92.3148 69.13L92.2454 69.2649L92.2315 69.4268L92.2454 69.4358L92.2593 69.4478V69.4838L92.3531 69.5197L92.7074 69.5617L92.815 69.6037L93.1416 69.7896L93.2632 69.8165L93.3708 69.8225L93.4577 69.8525L93.5376 69.9605L93.6036 70.2033L93.6592 70.3022L93.7668 70.3862L93.8363 70.4222L93.9162 70.4312L94.0656 70.4192L94.1489 70.4012L94.2149 70.3652L94.3087 70.2783L94.4442 70.1883L94.472 70.1493L94.5137 70.0534L94.5415 70.0204L94.6353 69.9844L94.8923 70.0144L95.2327 69.9215L95.403 69.9065L95.5662 69.9814L95.6357 70.0294L95.9587 70.1613L96.1359 70.1943H96.2193L96.2575 70.3022L96.3547 70.4012L96.4624 70.4761L96.5562 70.5001L96.6639 70.5571L96.7334 70.5751H96.7855L96.8272 70.5421L96.8827 70.4372L96.921 70.4042H97.0321L97.2892 70.4761L97.4107 70.4971L97.5601 70.4881V70.4611L97.4767 70.3922L97.4385 70.2663L97.4767 70.2123L97.7095 70.0504L97.8172 70.0084L97.9249 69.9994L98.1437 70.0294L98.2653 70.0144L98.3452 69.9634L98.5223 69.8225L98.6022 69.7776L98.6995 69.7686H98.7933L98.8871 69.7596L99.0642 69.6337L99.2553 69.6966L99.3491 69.6397L99.3977 69.6516H99.561L99.6026 69.6636L99.6443 69.7386L99.6825 69.7986L99.7381 69.8465L99.8076 69.8855L99.9153 69.9185L100.065 69.9305L100.2 69.9215L100.593 69.8645V69.6636L100.415 69.4508L100.023 69.112L99.9674 68.9831L99.9014 68.4884V68.4104L99.8875 68.3745L99.8597 68.3565L99.7798 68.3625L99.752 68.3535L99.7242 68.3025L99.6964 68.2515V68.1946L99.752 68.1286L99.8319 68.2215L99.8597 68.2455L99.8736 68.2006L99.9431 67.8678L99.9535 67.7509L99.9431 67.6339L99.9153 67.52L99.8875 67.466L99.818 67.439L99.6721 67.3971L99.5749 67.3881L99.5228 67.3641L99.495 67.3251L99.4533 67.2322L99.4116 67.1902L99.6304 66.9893L99.6964 66.9594L99.7242 66.9234L99.7103 66.7735L99.7381 66.7405L99.7937 66.7495L99.8597 66.7855L99.9014 66.7795L99.9952 66.7045L99.9674 66.6416L99.818 66.5306L99.752 66.4347L99.7381 66.3297L99.7798 66.2548L99.9014 66.2398L99.8319 66.3567L99.8076 66.4167L99.8319 66.4707L99.9014 66.4916L99.9292 66.4377L99.9535 66.3657L99.9952 66.3297L100.023 66.2938L100.037 66.2068L100.065 66.0389L100.079 65.97L100.186 65.868L100.214 65.7901L100.172 65.7301L100.079 65.6792L99.9813 65.5892L99.9431 65.4093L99.9674 65.3614L100.037 65.3404H100.186L100.214 65.3614L100.158 65.4093L100.065 65.4783V65.5203L100.131 65.5592L100.172 65.6012L100.2 65.6252L100.252 65.6132L100.402 65.4063L100.429 65.3284L100.509 65.2594L100.634 65.1605L100.673 65.0975L100.728 64.9716L100.77 64.9116L100.864 64.8127L101.635 64.306L101.826 64.2191L101.961 64.1981L102.191 64.294L102.298 64.2491L102.76 63.7634L102.951 63.6285L103.573 63.3346L104.685 62.5401V62.4922L104.497 62.5461L104.334 62.6691L104.035 62.9479L103.75 63.1637L103.573 63.2477L103.385 63.2597V63.2177L103.844 63.0438L103.931 62.9659L103.945 62.8639L103.983 62.801L104.351 62.5371L104.501 62.4592L104.838 62.3693L105.095 62.2104L105.258 62.1624L105.57 62.1234L105.515 62.2223L105.449 62.2883L105.352 62.3273L105.23 62.3543L104.959 62.3752L104.838 62.4082L104.772 62.4892L104.959 62.4142L105.299 62.3842L105.612 62.4112L105.758 62.5162L105.772 62.5371L105.883 62.8909L105.907 62.9479L105.949 62.9899L106.071 63.0438L106.206 63.0708L107.929 63.1188L108.172 63.1637L108.322 63.2657L108.336 63.3826L108.294 63.5175L108.245 63.6315L108.231 63.6794L108.381 63.7454L108.61 63.7993L109.423 63.8323L109.628 63.7634L109.492 63.6375L109.315 63.5325L109.166 63.3976L109.096 63.1757V62.699L109.072 62.6301L108.909 62.3992V62.3573L109.002 62.4052L109.075 62.5042L109.141 62.6181L109.169 62.72L109.183 62.834L109.169 63.2237L109.263 63.3976L109.454 63.5505L109.683 63.6644L109.902 63.7184L109.86 63.6105L109.805 63.5685L109.777 63.5355L109.819 63.4426L109.874 63.4036L110.01 63.3766L110.062 63.3346L110.211 63.2807L110.51 63.4336L110.618 63.4006L110.767 63.4336L110.889 63.3496L110.958 63.2027L110.889 63.0378L110.809 62.9749L110.743 62.9449L110.687 62.8909L110.659 62.765L110.673 62.717L110.701 62.6271L110.729 62.5371L110.767 62.4952L110.809 62.5162L110.889 62.6121L110.903 62.6331H111.038H111.08L111.201 62.6661L111.229 62.699V62.756L111.271 62.8579L111.392 62.9779L111.528 62.9989L111.691 62.9479L111.851 62.8549L111.865 63.0138L111.799 63.1637L111.691 63.2837L111.58 63.3556L111.42 63.3976H110.93L110.753 63.4815L110.673 63.6165L110.701 63.7634L110.85 63.8983L111 63.9313H111.351L111.438 63.8983L111.681 63.9283L112.424 63.7814L112.573 63.8743V64.2161L112.601 64.2551L112.643 64.291L112.671 64.312L112.695 64.306L112.681 64.357L112.671 64.399L112.629 64.5069L112.587 64.5759L112.573 64.6418L112.615 64.7078L112.681 64.7318L112.844 64.7228L112.914 64.7557L113.008 64.7288L113.143 64.7198L113.279 64.7348L113.348 64.7767L113.372 64.8097L113.442 64.7947L113.511 64.7617L113.605 64.6988L113.657 64.7228L113.793 64.8817L113.834 64.9176L113.921 64.9446L113.946 64.9656L113.973 64.9776L114.015 64.9866L114.043 64.9716L114.057 64.9416L114.067 64.9086L114.095 64.8937L114.38 64.9027L114.487 64.9536L114.449 65.0705L114.665 65.1695L114.772 65.2025L114.897 65.2115L114.949 65.2324L114.963 65.3224L115.005 65.3434L115.113 65.3494L115.14 65.3614L115.179 65.3853L115.008 65.4633L114.967 65.5233L114.995 65.6132L115.043 65.6462L115.314 65.7451L115.439 65.7541L115.505 65.7211L115.519 65.6312L115.561 65.5832H115.655L115.832 65.6132V65.5682L115.734 65.5353L115.613 65.4183L115.519 65.3853L115.682 65.3134L115.776 65.2924H115.87L115.846 65.3254V65.3913L115.832 65.4303L115.967 65.3823H116.13L116.287 65.4153L116.398 65.4783L116.433 65.4993L116.839 65.5203L116.881 65.5502V65.6162L116.853 65.7241L116.822 65.7451H116.62V65.7901L116.731 65.8081H117.1L117.193 65.7901V65.7481H117.152L117.11 65.7361L117.044 65.7031L117.103 65.5682L117.114 65.4543L117.155 65.3614L117.277 65.2954L117.346 65.2864L117.725 65.2954L117.767 65.3014L117.846 65.3314L117.916 65.3404L117.968 65.3704L117.996 65.4333L118.01 65.4933L118.024 65.5233L118.225 65.5293L118.281 65.4933L118.201 65.3883L118.225 65.3374V65.2474L118.267 65.1635L118.322 65.1305L118.496 65.1185L118.607 65.0675L118.729 65.0286H118.791L118.927 65.0376L118.996 65.0286L119.076 64.9716L119.163 64.8907L119.271 64.8367L119.42 64.8487L119.472 64.8877L119.5 64.9446L119.514 64.9956L119.542 65.0286L119.594 65.0406L119.705 64.9986L119.757 64.9866L119.733 64.8937L119.962 64.7348L119.993 64.6928L119.979 64.6718L119.952 64.6478L119.924 64.6178V64.5789L119.934 64.5159L119.948 64.4919L119.976 64.4739L119.99 64.4409L120.042 64.33L120.028 64.294L119.5 64.315L119.458 64.306L119.472 64.2491L119.559 64.1891L119.708 64.1231L119.83 64.1052L119.882 64.0572L119.91 63.9852L119.965 63.8983L120.049 63.8323L120.146 63.8023L120.198 63.7634L120.24 63.5655L120.278 63.4456L120.344 63.3316L120.414 63.2627L120.521 63.3376L120.674 63.3676L120.955 63.3556V63.3316L120.98 63.2807L121.008 63.2507L121.021 63.2867L121.049 63.3077L121.077 63.3167H121.119L121.143 63.3107L121.171 63.2777L121.185 63.1907L121.195 63.1698H121.237L121.261 63.1637L121.272 63.1518L121.476 62.846V62.828H121.49V62.717H121.476L121.556 62.6121L121.643 62.5521L121.734 62.5042L121.817 62.4412L121.952 62.4862L122.088 62.4502L122.237 62.3842L122.387 62.3513L122.4 62.3723V62.4172L122.428 62.4502L122.484 62.4382L122.508 62.4112V61.9855L122.536 61.9375L122.578 61.9075L122.619 61.8446L122.671 61.7846L122.769 61.7546L122.849 61.7486L122.908 61.7307L122.956 61.7007L123.015 61.6617L123.123 61.5238L123.192 61.4758L123.272 61.5028L123.314 61.5118L123.599 61.4788L123.571 61.5448L123.557 61.5658L123.665 61.5568L123.675 61.4938L123.689 61.4129L123.741 61.3469L123.839 61.3259L123.853 61.239L123.932 61.158L124.04 61.122L124.162 61.185L124.203 61.137L124.259 61.116L124.311 61.122L124.353 61.134H124.381L124.433 61.116V61.0921L124.422 61.0081L124.433 60.9841L124.446 60.9751H124.474H124.502L124.572 60.9302L124.46 60.6094L124.433 60.4385L124.519 60.3006L124.763 60.0697L124.87 59.9138L125.169 59.7039L125.291 59.584L125.332 59.5091L125.391 59.3562L125.412 59.2752L125.482 59.2153L125.562 59.1613L125.621 59.0893L125.635 58.9724L125.548 58.8105L125.412 58.7026L125.35 58.5766L125.43 58.3578L125.256 58.3308L125.023 58.4597L124.874 58.4717L123.898 58.7146L123.668 58.7086L123.609 58.6996L123.571 58.6546L123.529 58.5976L123.502 58.5497L123.422 58.5257L123.269 58.5047L123.179 58.4657L122.581 58.1509L122.352 58.079L122.022 57.9291L121.952 57.9111L121.872 57.9171L121.817 57.9351L121.751 57.944L121.664 57.9171L121.612 57.8661L121.584 57.8061L121.574 57.7432L121.532 57.6802L121.497 57.6263L121.386 57.5573L121.331 57.5093L121.299 57.4584L121.237 57.3204L121.181 57.2575L121.06 57.1316L121.046 57.1016L121.018 57.0416V57.0086L121.028 56.9667L121.087 56.7568L121.126 56.6968L121.303 56.6069L121.167 56.502L120.99 56.3461L120.869 56.1572L120.855 55.9473L120.91 55.8574L121.195 55.6685L121.386 55.3837L121.466 55.3327L121.397 55.1858L121.438 55.0509L121.546 54.943L121.668 54.88H121.779L121.98 54.931H122.081L122.05 54.841L121.872 54.5652L121.845 54.5052L121.817 54.3373L121.765 54.1904V54.1814L121.793 54.0735L121.803 54.0675V53.9925L121.793 53.9536L121.779 53.9206L121.668 53.8247L121.397 53.7257L121.289 53.7167L121.018 53.7647L120.907 53.7407L120.528 53.5488L120.337 53.4109L120.243 53.267L120.257 52.8862L120.216 52.6914L120.08 52.6014L119.875 52.5864L119.823 52.5445L119.754 52.4425L119.74 52.3796V52.2776L119.646 52.2117L119.556 52.0828L119.618 52.0048L119.719 51.9329L119.903 51.8369L119.958 51.8279H120.052L120.111 51.8249L120.15 51.8039L120.261 51.738L120.299 51.717L120.49 51.744L120.698 51.8399L120.9 51.8999L121.077 51.8249L121.091 51.7829L121.063 51.753L121.032 51.717L121.063 51.657L121.101 51.639H121.237L121.289 51.627L121.376 51.5641L121.466 51.4172L121.532 51.3602L121.737 51.2823L121.928 51.2343L121.98 51.2523L122.05 51.3242L122.081 51.3332L122.116 51.3003L122.223 51.1324L122.373 51.0244V50.9195L122.31 50.7816L122.282 50.5837L122.31 50.5417L122.501 50.3559L122.609 50.176L122.661 50.071V49.9871L122.626 49.9601L122.394 49.8702L122.314 49.8222L122.272 49.7442L122.23 49.6603L122.178 49.5853L121.935 49.4294L121.674 49.3065L121.636 49.2046L121.608 48.9228L121.581 48.8688L121.529 48.7878L121.515 48.7339L121.529 48.6769L121.591 48.557L121.605 48.518L121.563 48.4131L121.501 48.3711L121.32 48.3321L121.24 48.2812L121.119 48.1732L121.032 48.1522L120.896 48.1253L120.747 48.0293L120.625 47.8824L120.566 47.5976L120.556 47.4747V47.3518L120.58 47.2378L120.65 47.1359L120.744 47.0909L120.903 47.0699V47.0579L120.917 47.031L120.945 46.998L120.969 46.98H120.983L121.039 47.007L121.053 47.013L121.091 47.007H121.226L121.348 46.977L121.47 46.923L121.591 46.8391L121.654 46.7281L121.695 46.6352L121.737 46.5513L121.793 46.4883L121.876 46.4553L121.834 46.4013L121.806 46.3294L121.768 46.2005L121.713 46.0566L121.685 45.9846L121.654 45.9696L121.275 45.5979L121.153 45.5529L121.112 45.5679L121.074 45.6009L121.014 45.6308L120.976 45.6248L120.924 45.5919V45.4869L120.935 45.4809V45.409L120.924 45.34L120.91 45.349L120.938 45.313L120.976 45.2651L121.014 45.2111V45.1571L120.935 45.0852L120.486 45.0012L120.445 44.8873L120.5 44.6505L120.594 44.4016L120.785 44.0688L120.664 43.8799L120.455 43.7001L120.348 43.5412L120.389 43.4602L120.539 43.3103L120.563 43.1964V43.0615L120.511 42.9925L120.424 42.9565L119.583 42.7706L119.219 42.7587L118.854 42.8186L118.378 43.1004L118.201 43.1424L118.013 43.1484L117.85 43.1964L117.662 43.3343L117.51 43.5142L117.388 43.6521L117.36 43.748L117.374 43.817L117.43 43.9369V43.9669L117.489 44.0808L117.51 44.1108L117.569 44.1378L117.662 44.1018L117.701 44.1168L117.732 44.2757L117.596 44.4106L117.228 44.6145L116.947 44.9023L116.77 44.9802L116.579 44.9083L116.322 44.9173L116.078 44.9713L115.943 45.0432L116.009 44.8933L116.051 44.8213L116.078 44.7614L115.971 44.6565L115.915 44.5605L115.943 44.4766L116.078 44.4016L116.401 44.2607H116.412H116.426L116.481 44.2727L116.509 44.2787L116.533 44.2727L116.669 44.2397L116.679 44.1947V44.0538L116.721 43.856L116.735 43.802L116.926 43.4542L116.912 43.3763L116.843 43.2713L116.763 43.1964L116.464 43.0375L116.526 42.9835V42.8366L116.516 42.8156L116.502 42.7856L116.492 42.7527V42.7167L116.52 42.6747L116.586 42.6147L116.777 42.3269L116.978 42.1141L116.843 41.9821L116.815 41.8922L116.902 41.8053L117.645 41.2146L118.051 41.0228L118.107 40.9808L118.256 40.8369L118.437 40.7529L118.5 40.711L118.559 40.645L118.586 40.588V40.4681L118.545 40.4291L118.503 40.3961L118.493 40.3542L118.503 40.3212L118.59 40.0933L118.628 40.0334L118.67 39.9674V39.8685L118.656 39.7935L118.576 39.6706L118.566 39.6076L118.645 39.3588L118.916 39.2239L119.514 39.059L119.892 38.8161L120.014 38.6572L119.948 38.5283L120.031 38.4144L120.07 38.3694L120.222 38.3275L120.233 38.2825L120.261 38.2705L120.344 38.2345L120.33 38.1146L120.507 38.0636L120.872 37.7728L120.966 37.6199L121.129 37.476L121.511 37.2361L121.497 37.0623L121.522 36.9153L121.633 36.8224L121.685 36.8164L121.713 36.8074L121.796 36.7115L121.848 36.6815L121.907 36.6695L121.959 36.6395L122.001 36.5646L121.942 36.4926L121.862 36.4267L121.782 36.3697L121.671 36.4117L121.008 36.4656L121.035 36.3757L121.115 36.2648L121.202 36.1688L121.334 36.0969L121.348 35.965L121.497 35.935L121.577 35.89L121.657 35.827L121.716 35.7671L121.688 35.6801L121.622 35.5842L121.608 35.5062L121.72 35.4793L121.775 35.4463L121.813 35.4343L121.869 35.4463L121.925 35.4793L122.06 35.4972L122.345 35.4553L122.48 35.4793L122.546 35.5152L122.616 35.5242L122.772 35.5122L122.664 35.7131L122.706 35.83L122.814 35.893L122.991 35.938L123.005 35.953L123.019 35.9799L123.04 36.0039L123.081 36.0219L123.123 36.0129L123.338 35.935L123.47 35.908L123.87 35.923L124.026 35.869L124.137 35.7431L124.148 35.6771L124.137 35.6382L124.11 35.6052L124.096 35.5872L124.068 35.5452V35.5002L124.137 35.4853L124.217 35.5092L124.283 35.5512L124.367 35.5602L124.446 35.4942L124.46 35.4823V35.4253L124.419 35.3773L124.408 35.3473L124.419 35.3264L124.446 35.3114L124.506 35.3204L124.561 35.3084L124.572 35.2664V35.1944H124.561L124.464 35.1345L124.45 35.1285L124.7 34.9576L124.832 34.8916L125.02 34.8317H125.006L125.02 34.8287L125.047 34.7567L125.061 34.7297L125.047 34.6608L125.02 34.6248L124.978 34.5978L124.954 34.5618L124.832 34.343L124.749 34.253L124.669 34.2171L124.638 34.1841L124.627 34.1061L124.613 33.9532L124.627 33.9112L124.717 33.8273L124.759 33.7793V33.6624L124.697 33.4106L124.707 33.3116L124.794 33.0778L124.822 33.0448L124.902 33.0088V32.9309L124.874 32.799V32.7L124.902 32.67L124.929 32.6371L124.957 32.6041L124.995 32.5291V32.3822L125.023 32.2863L125.173 32.1484L125.228 32.0614L125.218 31.8396L124.975 31.4708L124.961 31.174L124.999 31.0331L125.027 30.9251L125.068 30.8592L125.106 30.8172L125.131 30.7602L125.145 30.6553L125.186 30.5684L125.537 30.1396L125.593 30.0377L125.635 29.9148L125.648 29.7679L125.669 29.615L125.77 29.552L125.878 29.507L125.947 29.3991L125.958 29.3002L125.933 29.2042L125.895 29.1113L125.881 29.0243V28.9284L125.923 28.7365L125.951 28.6526L125.989 28.5836L126.031 28.5356L126.058 28.4637L126.072 28.3258L126.097 28.2598L126.166 28.2029L126.301 28.1069V28.056L126.232 27.9V27.6482L126.291 27.4114L126.52 27.0936L126.59 27.0516L126.684 27.0276L126.767 26.9646L126.92 26.8057L126.982 26.7698L127.062 26.7068L127.121 26.6378L127.149 26.5779V26.44L127.191 26.377L127.243 26.359H127.406L127.444 26.344L127.476 26.32L127.486 26.2781L127.496 26.2091L127.524 26.1701L127.555 26.1492L127.566 26.1312H127.608L127.823 26.0352L127.851 26.0112L127.917 25.9093L128.174 25.3067L128.351 25.0219L128.462 24.9049L128.41 24.851L127.854 24.755L127.802 24.794ZM93.7981 69.8435L93.7286 69.8525H93.7147L93.5932 69.8345L93.5272 69.7866L93.5133 69.7026L93.5654 69.5857L93.6348 69.5617L93.6869 69.6307L93.7425 69.7386L93.812 69.8345L93.7981 69.8405V69.8435Z" fill="url(#paint0_linear_2_8281)"/>
</g>
</g>
<defs>
<linearGradient id="paint0_linear_2_8281" x1="95" y1="9" x2="95" y2="77.018" gradientUnits="userSpaceOnUse">
<stop stop-color="#1C43FF"/>
<stop offset="0.6875" stop-color="#F1F1F1"/>
<stop offset="1" stop-color="#FF7A7A" stop-opacity="0.62"/>
</linearGradient>
</defs>
</svg>
