<svg width="65" height="80" viewBox="0 0 65 80" fill="none" xmlns="http://www.w3.org/2000/svg">
<rect width="65" height="80" rx="10" fill="#4CA3E0"/>
<path d="M53 32.3375C53 21.1069 43.8212 12 32.4982 12C21.1752 12 12 21.1069 12 32.3375C12 42.712 19.8314 51.2725 29.9465 52.5183V57.7675H24.2703V62.8309H29.9465V67.9927H35.0499V62.8309H40.7261V57.7675H35.0499V52.5183C45.165 51.2725 52.9963 42.712 52.9963 32.3375H53ZM17.5771 32.3375C17.5771 24.1595 24.2592 17.5297 32.5018 17.5297C40.7444 17.5297 47.4266 24.1595 47.4266 32.3375C47.4266 40.5155 40.7444 47.1453 32.5018 47.1453C24.2592 47.1453 17.5771 40.5155 17.5771 32.3375Z" fill="#092342"/>
</svg>
