<svg width="24" height="24" viewBox="0 0 24 24" fill="none" xmlns="http://www.w3.org/2000/svg">
<g id="flag-for-flag-italy_svgrepo.com">
<path id="Vector" d="M24 17.6859C24 18.3592 23.719 19.0049 23.219 19.481C22.7189 19.9571 22.0406 20.2246 21.3333 20.2246H16V3.72266H21.3333C22.0406 3.72266 22.7189 3.99013 23.219 4.46624C23.719 4.94235 24 5.5881 24 6.26142V17.6859Z" fill="#CE2B37"/>
<path id="Vector_2" d="M2.66667 3.72266C1.95942 3.72266 1.28115 3.99013 0.781049 4.46624C0.280952 4.94235 0 5.5881 0 6.26142L0 17.6859C0 18.3592 0.280952 19.0049 0.781049 19.481C1.28115 19.9571 1.95942 20.2246 2.66667 20.2246H8V3.72266H2.66667Z" fill="#009246"/>
<path id="Vector_3" d="M8 3.72266H16V20.2246H8V3.72266Z" fill="#EEEEEE"/>
</g>
</svg>
