<svg width="27" height="24" viewBox="0 0 27 24" fill="none" xmlns="http://www.w3.org/2000/svg">
<g id="&#240;&#159;&#166;&#134; icon &#34;folder open&#34;">
<g id="Group">
<path id="Vector" d="M26.0837 11.3862L25.8614 11.1311C25.4724 10.7369 25.014 10.4238 24.4862 10.1919C23.7777 9.85566 22.972 9.68174 22.1385 9.68174H4.84388C4.0104 9.68174 3.2186 9.85566 2.49626 10.1919C1.9545 10.4354 1.4683 10.7716 1.06545 11.1891C0.27365 12.0355 -0.101415 13.079 0.0236069 14.1225L0.537585 19.5373C0.718171 21.1721 0.954323 23.1896 5.35786 23.1896H21.6384C26.042 23.1896 26.2642 21.1721 26.4587 19.5257L26.9727 14.1341C27.0977 13.1602 26.7921 12.1862 26.0837 11.3862ZM16.8182 17.7865H10.1642C9.62248 17.7865 9.19185 17.4154 9.19185 16.9748C9.19185 16.5342 9.62248 16.1632 10.1642 16.1632H16.8182C17.3599 16.1632 17.7906 16.5342 17.7906 16.9748C17.7906 17.427 17.3599 17.7865 16.8182 17.7865Z" fill="#292D32"/>
<path id="Vector_2" opacity="0.4" d="M1.52466 10.7947C1.83027 10.5628 2.13587 10.3541 2.49705 10.1918C3.2055 9.85555 4.0112 9.68163 4.84467 9.68163H22.1533C22.9867 9.68163 23.7785 9.85555 24.5009 10.1918C24.8621 10.3541 25.1816 10.5628 25.4733 10.8063V10.1918V9.0671C25.4733 4.92777 23.9591 3.66394 18.9999 3.66394H15.6938C15.0826 3.66394 15.0687 3.65235 14.7075 3.25813L13.0406 1.39137C12.2488 0.533359 11.6237 0 9.63717 0H7.998C3.03881 0 1.52466 1.26383 1.52466 5.40316V10.2034V10.7947Z" fill="#292D32"/>
</g>
</g>
</svg>
