<svg width="71" height="80" viewBox="0 0 71 80" fill="none" xmlns="http://www.w3.org/2000/svg">
<rect x="-0.000976562" width="65" height="80" rx="10" fill="#4CA3E0"/>
<path d="M46.3984 33.0624L51.5903 27.8705L51.5813 30.3149L56.3138 30.2975L56.3361 24.2307L56.3535 19.4983L51.621 19.5157L45.5517 19.5406L45.5343 24.2731L47.9787 24.2641L42.7868 29.456C34.7366 23.1948 23.0545 23.8007 15.6028 31.2524C7.53638 39.3188 7.49108 52.3461 15.4958 60.3508C23.5005 68.3555 36.5304 68.3076 44.5942 60.2438C52.0433 52.7947 52.6518 41.11 46.3932 33.0624L46.3984 33.0624ZM19.4714 56.3804C13.6425 50.5515 13.6774 41.0657 19.5493 35.1938C25.4213 29.3218 34.9071 29.2869 40.736 35.1158C46.5649 40.9447 46.53 50.4305 40.658 56.3025C34.7861 62.1744 25.3003 62.2093 19.4714 56.3804Z" fill="#092342"/>
</svg>
