<svg width="75" height="80" viewBox="0 0 75 80" fill="none" xmlns="http://www.w3.org/2000/svg">
<rect x="1" width="65" height="80" rx="10" fill="#0F2140"/>
<path d="M48.7158 30.113L54.2871 24.5417L54.2774 27.1648L59.3557 27.1461L59.3796 20.636L59.3983 15.5577L54.32 15.5764L47.8072 15.6032L47.7885 20.6815L50.4115 20.6718L44.8402 26.2431C36.2018 19.5244 23.666 20.1745 15.6698 28.1708C7.0139 36.8267 6.96528 50.8059 15.5549 59.3956C24.1445 67.9852 38.1266 67.9338 46.7797 59.2807C54.7731 51.2873 55.4261 38.7487 48.7102 30.113L48.7158 30.113ZM19.8211 55.135C13.5662 48.8801 13.6037 38.7012 19.9047 32.4001C26.2057 26.0991 36.3847 26.0617 42.6395 32.3165C48.8944 38.5714 48.8569 48.7503 42.5559 55.0514C36.2549 61.3524 26.0759 61.3898 19.8211 55.135Z" fill="#2C5B94"/>
</svg>
