<svg width="26" height="22" viewBox="0 0 26 22" fill="none" xmlns="http://www.w3.org/2000/svg">
<path id="Vector" d="M19.5 0H6.5C2.6 0 0 1.94118 0 6.47059V15.5294C0 20.0588 2.6 22 6.5 22H19.5C23.4 22 26 20.0588 26 15.5294V6.47059C26 1.94118 23.4 0 19.5 0ZM20.111 7.88118L16.042 11.1165C15.184 11.8024 14.092 12.1388 13 12.1388C11.908 12.1388 10.803 11.8024 9.958 11.1165L5.889 7.88118C5.473 7.54471 5.408 6.92353 5.733 6.50941C6.071 6.09529 6.682 6.01765 7.098 6.35412L11.167 9.58941C12.155 10.3788 13.832 10.3788 14.82 9.58941L18.889 6.35412C19.305 6.01765 19.929 6.08235 20.254 6.50941C20.592 6.92353 20.527 7.54471 20.111 7.88118Z" fill="#46CAF4"/>
</svg>
