<svg width="215" height="215" viewBox="0 0 215 215" fill="none" xmlns="http://www.w3.org/2000/svg">
<rect x="0.5" y="0.5" width="214" height="214" rx="9.5" fill="#0F2140" stroke="#1E3762"/>
<g clip-path="url(#clip0_58_1276)">
<path d="M134.035 119.393H82.9698C60.061 119.393 41.5 138.57 41.5 162.211V183H175.5V162.211C175.5 138.565 156.929 119.387 134.035 119.387V119.393ZM124.928 175.643H92.0672L82.5579 124.071C83.4885 123.993 84.4241 123.924 85.37 123.924H131.63C132.576 123.924 133.512 123.993 134.432 124.071L124.923 175.643H124.928Z" fill="#5D7AAE"/>
<path d="M103.3 140.975L98.1948 175.643L103.3 140.975Z" fill="#616E7D"/>
<path d="M113.689 140.975H113.7L118.805 175.643H124.923L134.432 124.071C133.512 123.993 132.576 123.924 131.63 123.924H85.37C84.4241 123.924 83.4885 123.993 82.5579 124.071L92.0672 175.643H98.1999L103.305 140.975H103.489L98.4644 131.455H118.541L113.506 140.975H113.689Z" fill="white"/>
<path d="M98.1948 175.643H118.805L113.7 140.975H113.689H113.501L118.541 131.455H98.4593L103.483 140.975H103.3L98.1948 175.643Z" fill="#AAD4C8"/>
<path d="M152.611 69.5433C152.611 44.3955 132.855 24 108.497 24C84.1393 24 64.3833 44.3955 64.3833 69.5433C64.3833 94.6912 84.124 115.108 108.497 115.108C132.871 115.108 152.611 94.7122 152.611 69.5433Z" fill="#5D7AAE"/>
</g>
<defs>
<clipPath id="clip0_58_1276">
<rect width="134" height="159" fill="white" transform="translate(41.5 24)"/>
</clipPath>
</defs>
</svg>
