<svg width="30" height="31" viewBox="0 0 30 31" fill="none" xmlns="http://www.w3.org/2000/svg">
<g id="gas-station_svgrepo.com">
<path id="Vector" d="M20.4375 5.83203L19.5625 6.70703L22.5 9.64453V12.5195C22.5 12.8945 22.75 13.1445 23.125 13.1445H24.375C24.75 13.1445 25 12.8945 25 12.5195V10.8945C25 10.582 24.875 10.2695 24.625 10.0195L20.4375 5.83203Z" fill="#42A5F5"/>
<path id="Vector_2" d="M20.625 27.5195H5.625V6.26953C5.625 4.89453 6.75 3.76953 8.125 3.76953H18.125C19.5 3.76953 20.625 4.89453 20.625 6.26953V27.5195Z" fill="#FFC107"/>
<path id="Vector_3" d="M25.6875 17.5195C25.0625 16.3945 24.375 15.2695 24.375 13.1445H23.125C23.125 15.6445 23.875 16.957 24.625 18.1445C25.1875 19.082 25.625 19.957 25.625 21.2695C25.625 21.957 25.0625 22.5195 24.375 22.5195C23.6875 22.5195 23.125 21.957 23.125 21.2695V18.1445C23.125 17.457 22.5625 16.8945 21.875 16.8945H20.625V18.1445H21.875V21.2695C21.875 22.6445 23 23.7695 24.375 23.7695C25.75 23.7695 26.875 22.6445 26.875 21.2695C26.875 19.6445 26.25 18.582 25.6875 17.5195ZM3.125 25.0195H26.875V27.5195H3.125V25.0195Z" fill="#607D8B"/>
<path id="Vector_4" d="M18.125 5.64453H8.125C7.75 5.64453 7.5 5.89453 7.5 6.26953V12.5195C7.5 12.8945 7.75 13.1445 8.125 13.1445H18.125C18.5 13.1445 18.75 12.8945 18.75 12.5195V6.26953C18.75 5.89453 18.5 5.64453 18.125 5.64453Z" fill="#B2EBF2"/>
<path id="Vector_5" d="M18.125 5.64453H8.125C7.75 5.64453 7.5 5.89453 7.5 6.26953V12.5195C7.5 12.8945 7.75 13.1445 8.125 13.1445H18.125C18.5 13.1445 18.75 12.8945 18.75 12.5195V6.26953C18.75 5.89453 18.5 5.64453 18.125 5.64453Z" fill="#B2EBF2"/>
<path id="Vector_6" d="M13.75 13.1445L16.6875 9.58203L12.3125 13.1445H13.75Z" fill="#F44336"/>
<path id="Vector_7" d="M8.75 9.26953L7.875 8.39453C8.0625 8.20703 8.1875 8.08203 8.375 7.95703L9.1875 8.95703C9 9.01953 8.875 9.14453 8.75 9.26953ZM17.5 9.26953C17.375 9.14453 17.25 9.01953 17.0625 8.89453L17.8125 7.89453C18 8.01953 18.1875 8.20703 18.3125 8.33203L17.5 9.26953ZM10.625 8.01953L10.125 6.89453C10.3125 6.83203 10.5625 6.70703 10.75 6.64453L11.125 7.83203C10.9375 7.89453 10.8125 7.95703 10.625 8.01953ZM15.5625 8.01953L15 7.83203L15.375 6.64453C15.5625 6.70703 15.8125 6.76953 16 6.89453L15.5625 8.01953ZM12.8125 7.51953L12.75 6.26953H13.4375L13.375 7.51953H12.8125ZM14.375 13.1445H11.875C11.875 12.457 12.4375 11.8945 13.125 11.8945C13.8125 11.8945 14.375 12.457 14.375 13.1445Z" fill="#455A64"/>
</g>
</svg>
