<svg width="30" height="31" viewBox="0 0 30 31" fill="none" xmlns="http://www.w3.org/2000/svg">
<g id="coal_svgrepo.com" clip-path="url(#clip0_2_9646)">
<path id="Vector" d="M26.7397 16.2957H20.8701C20.6106 16.2957 20.3619 16.1925 20.1785 16.009L17.2437 13.0743C17.06 12.8906 16.9568 12.6415 16.957 12.3816C16.9573 12.1218 17.0609 11.8727 17.2449 11.6893L18.797 10.1436C19.3467 9.58922 20.0841 9.2816 20.8697 9.28125C21.655 9.28125 22.3928 9.58922 22.9472 10.148L27.431 14.625C27.7109 14.9046 27.7949 15.3255 27.6437 15.6915C27.4921 16.0572 27.1355 16.2957 26.7397 16.2957Z" fill="#485566"/>
<path id="Vector_2" d="M9.13108 16.2956H3.26151C2.86571 16.2956 2.50905 16.0571 2.35746 15.6915C2.20623 15.3257 2.29032 14.9047 2.57022 14.625L7.05709 10.1445C7.60764 9.5891 8.34522 9.28154 9.13078 9.28125C9.91606 9.28125 10.6539 9.58922 11.2083 10.148L12.7562 11.6893C12.9403 11.8728 13.0437 12.1218 13.0441 12.3816C13.0444 12.6414 12.9413 12.8905 12.7574 13.0743L9.82266 16.009C9.63932 16.1925 9.39059 16.2956 9.13108 16.2956Z" fill="#576573"/>
<path id="Vector_3" d="M21.5605 14.629L17.0801 10.1486C16.5192 9.59426 15.7822 9.28125 14.9997 9.28125C14.2105 9.28775 13.4736 9.59432 12.9257 10.1486L12.0649 11.003L8.43881 14.629C8.15838 14.9095 8.07359 15.3269 8.22359 15.6921C8.3801 16.0573 8.73231 16.2986 9.1301 16.2986H20.8692C21.2671 16.2986 21.6192 16.0573 21.7757 15.6921C21.9257 15.3268 21.841 14.9095 21.5605 14.629Z" fill="#607080"/>
<path id="Vector_4" d="M21.7761 15.6921C21.6196 16.0573 21.2674 16.2986 20.8696 16.2986H15V9.28125C15.7826 9.28125 16.5196 9.59432 17.0804 10.1486L21.5609 14.629C21.8413 14.9095 21.9261 15.3269 21.7761 15.6921Z" fill="#576573"/>
<path id="Vector_5" d="M23.1269 28.6892H21.8487C21.3083 28.6892 20.8704 28.2513 20.8704 27.7109C20.8704 27.1715 20.4316 26.7326 19.8922 26.7326C19.3527 26.7326 18.9139 27.1715 18.9139 27.7109C18.9139 28.2513 18.476 28.6892 17.9356 28.6892H12.0661C11.5257 28.6892 11.0878 28.2513 11.0878 27.7109C11.0878 27.1715 10.6489 26.7326 10.1095 26.7326C9.57011 26.7326 9.13124 27.1715 9.13124 27.7109C9.13124 28.2513 8.69337 28.6892 8.15296 28.6892H6.87468C5.4331 28.6892 4.2154 27.6597 3.97933 26.2413L3.21491 21.3398C3.17062 21.0577 3.25247 20.7702 3.43816 20.5529C3.62413 20.3358 3.89577 20.2109 4.18136 20.2109H25.8203C26.1059 20.2109 26.3776 20.3357 26.5635 20.5529C26.7492 20.7701 26.831 21.0577 26.7867 21.3398L26.0237 26.2311C25.7863 27.6596 24.5685 28.6892 23.1269 28.6892Z" fill="#B8C9D9"/>
<path id="Vector_6" d="M25.8195 20.2109H15V28.6892H17.9348C18.4752 28.6892 18.9131 28.2513 18.9131 27.7109C18.9131 27.1715 19.3519 26.7327 19.8913 26.7327C20.4308 26.7327 20.8696 27.1715 20.8696 27.7109C20.8696 28.2513 21.3075 28.6892 21.8479 28.6892H23.1262C24.5678 28.6892 25.7855 27.6597 26.0231 26.2312L26.7861 21.3399C26.8304 21.0577 26.7485 20.7702 26.5628 20.553C26.3767 20.3357 26.1051 20.2109 25.8195 20.2109Z" fill="#9EACBA"/>
<path id="Vector_7" d="M19.8918 30.643C18.2735 30.643 16.957 29.3265 16.957 27.7082C16.957 26.0899 18.2735 24.7734 19.8918 24.7734C21.5101 24.7734 22.8266 26.0899 22.8266 27.7082C22.8266 29.3265 21.5101 30.643 19.8918 30.643Z" fill="#576573"/>
<path id="Vector_8" d="M22.8254 27.7082C22.8254 26.0899 21.5089 24.7734 19.8906 24.7734V30.643C21.5089 30.643 22.8254 29.3265 22.8254 27.7082Z" fill="#485566"/>
<path id="Vector_9" d="M10.1086 30.643C8.49031 30.643 7.17383 29.3265 7.17383 27.7082C7.17383 26.0899 8.49031 24.7734 10.1086 24.7734C11.7269 24.7734 13.0434 26.0899 13.0434 27.7082C13.0434 29.3265 11.7269 30.643 10.1086 30.643Z" fill="#576573"/>
<path id="Vector_10" d="M13.0442 27.7082C13.0442 26.0899 11.7277 24.7734 10.1094 24.7734V30.643C11.7277 30.643 13.0442 29.3265 13.0442 27.7082Z" fill="#485566"/>
<path id="Vector_11" d="M10.1091 28.687C9.56973 28.687 9.13086 28.2482 9.13086 27.7087C9.13086 27.1693 9.56973 26.7305 10.1091 26.7305C10.6486 26.7305 11.0874 27.1693 11.0874 27.7087C11.0874 28.2482 10.6486 28.687 10.1091 28.687Z" fill="#D7EBFF"/>
<path id="Vector_12" d="M11.0877 27.7087C11.0877 27.1693 10.6488 26.7305 10.1094 26.7305V28.687C10.6488 28.687 11.0877 28.2482 11.0877 27.7087Z" fill="#BDDEFF"/>
<path id="Vector_13" d="M19.8904 28.687C19.351 28.687 18.9121 28.2482 18.9121 27.7087C18.9121 27.1693 19.351 26.7305 19.8904 26.7305C20.4298 26.7305 20.8687 27.1693 20.8687 27.7087C20.8687 28.2482 20.4298 28.687 19.8904 28.687Z" fill="#D7EBFF"/>
<path id="Vector_14" d="M20.8689 27.7087C20.8689 27.1693 20.43 26.7305 19.8906 26.7305V28.687C20.43 28.687 20.8689 28.2482 20.8689 27.7087Z" fill="#BDDEFF"/>
<path id="Vector_15" d="M27.7061 15.4688L26.6569 22.165H3.3441L2.29492 15.4688H27.7061Z" fill="#FFD15D"/>
<path id="Vector_16" d="M15 15.4688V22.165H26.6564L27.7056 15.4688H15Z" fill="#F9B54C"/>
<path id="Vector_17" d="M28.6957 16.2964H1.30445C0.764219 16.2964 0.326172 15.8584 0.326172 15.3181C0.326172 14.7779 0.76416 14.3398 1.30445 14.3398H28.6957C29.236 14.3398 29.674 14.7778 29.674 15.3181C29.674 15.8584 29.236 16.2964 28.6957 16.2964Z" fill="#B8C9D9"/>
<path id="Vector_18" d="M28.6956 14.3398H15V16.2963H28.6956C29.2359 16.2963 29.6739 15.8584 29.6739 15.3181C29.6739 14.7778 29.2359 14.3398 28.6956 14.3398Z" fill="#9EACBA"/>
<path id="Vector_19" d="M13.0447 7.19094C13.585 7.19094 14.023 6.75295 14.023 6.21266C14.023 5.67237 13.585 5.23438 13.0447 5.23438C12.5044 5.23438 12.0664 5.67237 12.0664 6.21266C12.0664 6.75295 12.5044 7.19094 13.0447 7.19094Z" fill="#607080"/>
<path id="Vector_20" d="M22.8279 7.19094C23.3682 7.19094 23.8062 6.75295 23.8062 6.21266C23.8062 5.67237 23.3682 5.23438 22.8279 5.23438C22.2876 5.23438 21.8496 5.67237 21.8496 6.21266C21.8496 6.75295 22.2876 7.19094 22.8279 7.19094Z" fill="#485566"/>
<path id="Vector_21" d="M20.4721 3.5076L18.1634 5.80975C18.1047 5.87496 18.0199 5.9076 17.9351 5.9076C17.8503 5.9076 17.7721 5.87496 17.7068 5.81631C17.1851 5.29459 15.9198 4.02281 15.3981 3.5076C15.2677 3.37717 15.2742 3.17496 15.3981 3.04453L17.7068 0.742383C17.7656 0.677168 17.8504 0.644531 17.9352 0.644531C18.02 0.644531 18.1048 0.677168 18.17 0.742383L20.4721 3.04453C20.6025 3.17496 20.6025 3.37717 20.4721 3.5076Z" fill="#607080"/>
<path id="Vector_22" d="M20.4725 3.5076L18.1638 5.80975C18.1051 5.87496 18.0203 5.9076 17.9355 5.9076V0.644531C18.0203 0.644531 18.1051 0.677168 18.1703 0.742383L20.4725 3.04453C20.603 3.17496 20.603 3.37717 20.4725 3.5076Z" fill="#576573"/>
<path id="Vector_23" d="M10.6889 3.5076L8.3802 5.80975C8.32149 5.87496 8.23671 5.9076 8.15192 5.9076C8.06714 5.9076 7.98886 5.87496 7.92364 5.81631C7.40192 5.29459 6.13665 4.02281 5.61493 3.5076C5.4845 3.37717 5.491 3.17496 5.61493 3.04453L7.92364 0.742383C7.98241 0.677168 8.06714 0.644531 8.15192 0.644531C8.23671 0.644531 8.32149 0.677168 8.38671 0.742383L10.6889 3.04453C10.8193 3.17496 10.8193 3.37717 10.6889 3.5076Z" fill="#607080"/>
<path id="Vector_24" d="M10.6893 3.5076L8.38062 5.80975C8.32191 5.87496 8.23713 5.9076 8.15234 5.9076V0.644531C8.23713 0.644531 8.32191 0.677168 8.38713 0.742383L10.6893 3.04453C10.8198 3.17496 10.8198 3.37717 10.6893 3.5076Z" fill="#576573"/>
</g>
<defs>
<clipPath id="clip0_2_9646">
<rect width="30" height="30" fill="white" transform="translate(0 0.644531)"/>
</clipPath>
</defs>
</svg>
