<svg width="30" height="31" viewBox="0 0 30 31" fill="none" xmlns="http://www.w3.org/2000/svg">
<g id="oil-platform-gas_svgrepo.com" clip-path="url(#clip0_2_9588)">
<g id="Group">
<path id="Vector" d="M19.7478 16.313C19.6534 16.313 19.5582 16.2852 19.4747 16.2276L14.0066 12.4507C13.8819 12.3646 13.805 12.2248 13.7992 12.0732C13.7933 11.9218 13.8592 11.7765 13.977 11.6809L18.2135 8.24337L14.7559 4.84405C14.5664 4.65772 14.5638 4.35298 14.7501 4.16337C14.9364 3.97388 15.2411 3.9713 15.4308 4.15751L19.2724 7.9344C19.3701 8.03044 19.4222 8.16362 19.4158 8.30056C19.4092 8.43743 19.3447 8.56499 19.2382 8.65136L15.0821 12.0236L20.0217 15.4355C20.2403 15.5866 20.2953 15.8863 20.1442 16.1051C20.0508 16.2403 19.9006 16.3129 19.7478 16.313Z" fill="#7C7A75"/>
<path id="Vector_2" d="M13.8743 16.3129C13.7215 16.3129 13.5713 16.2403 13.4779 16.1051C13.3269 15.8865 13.3816 15.5866 13.6004 15.4356L18.5399 12.0237L14.3838 8.65142C14.2774 8.56505 14.2128 8.43749 14.2063 8.30062C14.1997 8.16369 14.2519 8.0305 14.3496 7.93447L18.1913 4.15757C18.3808 3.9713 18.6855 3.97382 18.8719 4.16343C19.0582 4.35293 19.0556 4.65767 18.8661 4.84412L15.4084 8.24332L19.6451 11.6809C19.7628 11.7764 19.8285 11.9218 19.8228 12.0732C19.8169 12.2246 19.7401 12.3645 19.6154 12.4506L14.1473 16.2275C14.064 16.2852 13.9686 16.3129 13.8743 16.3129Z" fill="#7C7A75"/>
</g>
<g id="Group_2">
<path id="Vector_3" d="M16.7539 5.45764L15.593 4.31641L15.4537 5.52947L16.1246 6.18895L15.283 7.01629L15.0348 9.17922L16.0473 10.0008L14.8267 10.9912L14.6113 12.8677L15.8083 13.6945L15.9327 12.6106L15.0824 12.0233L16.0943 11.2022L16.2166 10.1381L16.3467 9.0042L15.4084 8.24289L16.5646 7.10629L16.7393 5.58461L16.7539 5.45764Z" fill="#6B6861"/>
<path id="Vector_4" d="M14.2324 16.1695L15.6355 15.2002L15.7814 13.9297L14.3783 14.8988L14.2324 16.1695Z" fill="#6B6861"/>
</g>
<path id="Vector_5" d="M7.80941 10.3463C7.54363 10.3463 7.32812 10.1309 7.32812 9.86502V7.91098C7.32812 7.64514 7.54363 7.42969 7.80941 7.42969C8.0752 7.42969 8.2907 7.64514 8.2907 7.91098V9.86502C8.29064 10.1308 8.07514 10.3463 7.80941 10.3463Z" fill="#7C7A75"/>
<path id="Vector_6" d="M11.1683 12.5352C11.1683 12.9605 10.8235 13.3052 10.3983 13.3052H5.14504C4.71977 13.3052 4.375 12.9605 4.375 12.5352V10.6372C4.375 10.212 4.71977 9.86719 5.14504 9.86719H10.3983C10.8235 9.86719 11.1683 10.212 11.1683 10.6372V12.5352Z" fill="#CCC3A8"/>
<path id="Vector_7" d="M5.605 12.5352V10.6372C5.605 10.212 5.94977 9.86719 6.37504 9.86719H5.14504C4.71977 9.86719 4.375 10.212 4.375 10.6372V12.5352C4.375 12.9605 4.71977 13.3052 5.14504 13.3052H6.37504C5.94977 13.3053 5.605 12.9605 5.605 12.5352Z" fill="#C9B585"/>
<path id="Vector_8" d="M28.9889 24.4961H1.01027C0.585 24.4961 0.240234 24.8409 0.240234 25.2661V25.2662V29.8776V29.8776C0.240234 30.3029 0.585 30.6477 1.01027 30.6477H28.9888C29.4141 30.6477 29.7589 30.3029 29.7589 29.8776V29.8776V25.2662V25.2661C29.7589 24.8409 29.4142 24.4961 28.9889 24.4961Z" fill="#36A1CB"/>
<path id="Vector_9" d="M28.9886 24.4961H27.5479H14.05H12.6094C13.574 27.1028 15.4304 29.277 17.8087 30.6477H19.2493H27.5479H28.9886C29.4138 30.6477 29.7586 30.3029 29.7586 29.8776V29.8776V25.2662V25.2661C29.7586 24.8409 29.4138 24.4961 28.9886 24.4961Z" fill="#43B4D6"/>
<path id="Vector_10" d="M21.2411 18.8023L21.0064 17.2873C20.9821 17.131 20.8475 17.0156 20.6893 17.0156H11.4888C11.3116 17.0156 11.168 17.1592 11.168 17.3365V18.8514C11.168 19.0287 11.3116 19.1723 11.4888 19.1723H20.924C21.0177 19.1723 21.1067 19.1313 21.1676 19.0603C21.2286 18.9891 21.2554 18.8948 21.2411 18.8023Z" fill="#FFB92E"/>
<path id="Vector_11" d="M13.1903 18.8514V17.3365C13.1903 17.1592 13.3339 17.0156 13.5111 17.0156H11.4888C11.3116 17.0156 11.168 17.1592 11.168 17.3365V18.8514C11.168 19.0287 11.3116 19.1723 11.4888 19.1723H13.5111C13.3339 19.1722 13.1903 19.0286 13.1903 18.8514Z" fill="#EF9A1D"/>
<g id="Group_3">
<path id="Vector_12" d="M20.4642 22.1211H18.5391V27.5712H20.4642V22.1211Z" fill="#CCC3A8"/>
<path id="Vector_13" d="M6.32744 22.1211H4.40234V27.5712H6.32744V22.1211Z" fill="#CCC3A8"/>
</g>
<path id="Vector_14" d="M16.8114 3.56512C16.5455 3.56512 16.3301 3.34967 16.3301 3.08383V1.12973C16.3301 0.863887 16.5455 0.648438 16.8114 0.648438C17.0771 0.648438 17.2927 0.863887 17.2927 1.12973V3.08383C17.2926 3.34973 17.0771 3.56512 16.8114 3.56512Z" fill="#7C7A75"/>
<g id="Group_4">
<path id="Vector_15" d="M28.5798 19.2215C28.4026 19.2215 28.2321 19.1232 28.1482 18.9537L27.1067 16.8513C26.9888 16.6131 27.0863 16.3244 27.3245 16.2063C27.5626 16.0884 27.8514 16.1858 27.9694 16.424L29.0108 18.5264C29.1288 18.7646 29.0313 19.0534 28.7931 19.1714C28.7244 19.2053 28.6515 19.2215 28.5798 19.2215Z" fill="#CCC3A8"/>
<path id="Vector_16" d="M25.6587 19.1309C25.5837 19.1309 25.5075 19.1132 25.4363 19.076C25.2007 18.9529 25.1094 18.6623 25.2325 18.4266L26.2589 16.4616C26.382 16.226 26.6728 16.1349 26.9083 16.2579C27.144 16.381 27.2352 16.6717 27.1121 16.9073L26.0857 18.8723C25.9999 19.0368 25.8322 19.1309 25.6587 19.1309Z" fill="#CCC3A8"/>
<path id="Vector_17" d="M27.1043 15.5078C26.8386 15.5078 26.623 15.2923 26.623 15.0265V7.68441C26.623 7.41857 26.8386 7.20312 27.1043 7.20312C27.3701 7.20312 27.5856 7.41857 27.5856 7.68441V15.0265C27.5856 15.2923 27.3701 15.5078 27.1043 15.5078Z" fill="#CCC3A8"/>
</g>
<path id="Vector_18" d="M28.4961 18.3633H25.6489C25.2236 18.3633 24.8789 18.708 24.8789 19.1333V20.9975H29.2662V19.1333C29.2662 18.708 28.9214 18.3633 28.4961 18.3633Z" fill="#E35F46"/>
<path id="Vector_19" d="M24.879 21.6503C24.879 22.0756 25.2237 22.4203 25.649 22.4203H28.4962C28.9215 22.4203 29.2662 22.0756 29.2662 21.6503V20.9961H24.8789V21.6503H24.879Z" fill="#D64330"/>
<g id="Group_5">
<path id="Vector_20" d="M11.1388 12.0547H4.4048C3.97953 12.0547 3.63477 12.3994 3.63477 12.8247V17.952V18.722H4.40416C4.40439 18.722 4.40469 18.7221 4.4048 18.7221H11.1388C11.139 18.7221 11.1392 18.722 11.1395 18.722H11.9088V17.952V15.1712V13.6311V12.8247C11.9089 12.3994 11.5641 12.0547 11.1388 12.0547Z" fill="#7C7A75"/>
<path id="Vector_21" d="M17.7363 21.611C17.7363 21.0795 18.1673 20.6484 18.6989 20.6484H20.3042C20.8359 20.6484 21.2668 21.0794 21.2668 21.611C21.2668 22.1426 20.8359 22.5736 20.3042 22.5736H18.6989C18.1673 22.5736 17.7363 22.1426 17.7363 21.611Z" fill="#7C7A75"/>
<path id="Vector_22" d="M3.59961 21.611C3.59961 21.0795 4.03057 20.6484 4.56219 20.6484H6.16748C6.69916 20.6484 7.13006 21.0794 7.13006 21.611C7.13006 22.1426 6.69916 22.5736 6.16748 22.5736H4.56219C4.03057 22.5736 3.59961 22.1426 3.59961 21.611Z" fill="#7C7A75"/>
</g>
<path id="Vector_23" d="M16.017 20.6478H22.1095C22.641 20.6478 23.072 20.2169 23.072 19.6852C23.072 19.1536 22.641 18.7227 22.1095 18.7227H16.0456H15.853H15.1793H9.78918H9.11547H8.92305H2.85906C2.3275 18.7227 1.89648 19.1536 1.89648 19.6852C1.89648 20.2168 2.32744 20.6478 2.85906 20.6478H8.92299H9.11541H9.78912H14.4126" fill="#CCC3A8"/>
<path id="Vector_24" d="M27.3253 4.5H28.0527H29.0713C29.4509 4.5 29.7586 4.80779 29.7586 5.18736C29.7586 5.56699 29.4509 5.87467 29.0713 5.87467H26.3842H21.3625H18.6754L18.5273 4.5H25.7851" fill="#FFB92E"/>
<path id="Vector_25" d="M18.5273 4.5L18.6754 5.87467H20.4568L20.3087 4.5H18.5273Z" fill="#EF9A1D"/>
<g id="Group_6">
<path id="Vector_26" d="M22.0042 28.0524H16.5711C16.3053 28.0524 16.0898 27.837 16.0898 27.5711C16.0898 27.3053 16.3053 27.0898 16.5711 27.0898H22.0042C22.27 27.0898 22.4855 27.3053 22.4855 27.5711C22.4855 27.837 22.27 28.0524 22.0042 28.0524Z" fill="#8BD8F7"/>
<path id="Vector_27" d="M7.85469 28.0524H3.26645C3.00066 28.0524 2.78516 27.837 2.78516 27.5711C2.78516 27.3053 3.00066 27.0898 3.26645 27.0898H7.85469C8.12047 27.0898 8.33598 27.3053 8.33598 27.5711C8.33598 27.837 8.12047 28.0524 7.85469 28.0524Z" fill="#8BD8F7"/>
<path id="Vector_28" d="M24.1211 28.0524H23.5223C23.2565 28.0524 23.041 27.837 23.041 27.5711C23.041 27.3053 23.2565 27.0898 23.5223 27.0898H24.1211C24.387 27.0898 24.6024 27.3053 24.6024 27.5711C24.6024 27.837 24.3869 28.0524 24.1211 28.0524Z" fill="#8BD8F7"/>
</g>
<path id="Vector_29" d="M20.3011 16.4764L19.8224 12.0289C19.8213 12.0075 19.8194 11.9863 19.8156 11.9657L19.7638 11.4857L18.8536 3.03129C18.8273 2.78678 18.621 2.60156 18.3751 2.60156H15.2449C14.999 2.60156 14.7927 2.78689 14.7664 3.03129L13.3153 16.5122C13.3006 16.648 13.3444 16.7837 13.4358 16.8853C13.527 16.987 13.6572 17.045 13.7938 17.045H19.8265C19.8269 17.045 19.8273 17.045 19.8278 17.045C20.0937 17.045 20.3091 16.8295 20.3091 16.5637C20.309 16.5339 20.3063 16.5047 20.3011 16.4764ZM15.6771 3.56408H17.9429L18.3984 7.79479H15.2218L15.6771 3.56408ZM15.1182 8.75736H18.5019L18.8049 11.5717H14.8152L15.1182 8.75736ZM14.3296 16.0825L14.7116 12.5343H18.9085L19.2905 16.0825H14.3296Z" fill="#CCC3A8"/>
<path id="Vector_30" d="M26.2012 5.88678V6.43076V7.17297V7.71695C26.2012 8.16115 26.5612 8.52121 27.0054 8.52121H27.2031C27.6473 8.52121 28.0073 8.16115 28.0073 7.71695V7.17297V6.4307V5.88672L26.2012 5.88678Z" fill="#7C7A75"/>
<path id="Vector_31" d="M27.1059 17.0478C26.4336 17.0478 25.8867 16.5009 25.8867 15.8286C25.8867 15.1563 26.4336 14.6094 27.1059 14.6094C27.7782 14.6094 28.3252 15.1563 28.3252 15.8286C28.3252 16.5009 27.7782 17.0478 27.1059 17.0478ZM27.1059 15.5719C26.9644 15.5719 26.8492 15.687 26.8492 15.8286C26.8492 15.9702 26.9644 16.0853 27.1059 16.0853C27.2475 16.0853 27.3626 15.9702 27.3626 15.8286C27.3626 15.687 27.2475 15.5719 27.1059 15.5719Z" fill="#FFB92E"/>
<path id="Vector_32" d="M26.8789 18.3633H25.6489C25.2236 18.3633 24.8789 18.708 24.8789 19.1333V20.9975H26.1088V19.1333C26.1088 18.708 26.4536 18.3633 26.8789 18.3633Z" fill="#D8422E"/>
<path id="Vector_33" d="M26.1088 21.6503V20.9961H24.8789V21.6503C24.8789 22.0756 25.2236 22.4203 25.6489 22.4203H26.8789C26.4536 22.4203 26.1088 22.0755 26.1088 21.6503Z" fill="#B22B20"/>
<g id="Group_7">
<path id="Vector_34" d="M4.86471 18.722V17.952V12.8247C4.86471 12.3994 5.20947 12.0547 5.63475 12.0547H4.4048C3.97953 12.0547 3.63477 12.3994 3.63477 12.8247V17.952V18.722H4.40416C4.40439 18.722 4.40469 18.7221 4.4048 18.7221H5.63475C5.63463 18.7221 5.63434 18.722 5.6341 18.722H4.86471Z" fill="#6B6861"/>
<path id="Vector_35" d="M18.9663 21.611C18.9663 21.0795 19.3973 20.6484 19.9289 20.6484H18.6989C18.1674 20.6484 17.7363 21.0794 17.7363 21.611C17.7363 22.1426 18.1673 22.5736 18.6989 22.5736H19.9289C19.3973 22.5736 18.9663 22.1426 18.9663 21.611Z" fill="#6B6861"/>
<path id="Vector_36" d="M4.82961 21.611C4.82961 21.0795 5.26057 20.6484 5.79219 20.6484H4.56219C4.03063 20.6484 3.59961 21.0794 3.59961 21.611C3.59961 22.1426 4.03057 22.5736 4.56219 22.5736H5.79213C5.26051 22.5736 4.82961 22.1426 4.82961 21.611Z" fill="#6B6861"/>
</g>
<path id="Vector_37" d="M3.12648 19.6852C3.12648 19.1536 3.5575 18.7227 4.08906 18.7227H2.85906C2.3275 18.7227 1.89648 19.1536 1.89648 19.6852C1.89648 20.2168 2.32744 20.6478 2.85906 20.6478H4.089C3.5575 20.6478 3.12648 20.2168 3.12648 19.6852Z" fill="#C9B585"/>
<path id="Vector_38" d="M27.4312 7.71684V7.17285V6.4307V5.88672H26.2012V6.4307V7.17291V7.71689C26.2012 8.16109 26.5612 8.52115 27.0054 8.52115H27.2031C27.3996 8.52115 27.5795 8.45043 27.7193 8.3333C27.5432 8.18576 27.4312 7.96451 27.4312 7.71684Z" fill="#6B6861"/>
<path id="Vector_39" d="M27.1434 16.0815C27.1311 16.0833 27.1187 16.0853 27.1059 16.0853C26.9643 16.0853 26.8492 15.9702 26.8492 15.8286C26.8492 15.687 26.9643 15.5719 27.1059 15.5719C27.1187 15.5719 27.131 15.5738 27.1434 15.5757C27.2154 15.2357 27.43 14.9486 27.7209 14.7777C27.5402 14.6714 27.3304 14.6094 27.1059 14.6094C26.4336 14.6094 25.8867 15.1563 25.8867 15.8286C25.8867 16.5009 26.4336 17.0478 27.1059 17.0478C27.3304 17.0478 27.5402 16.9858 27.7209 16.8795C27.43 16.7086 27.2154 16.4214 27.1434 16.0815Z" fill="#EF9A1D"/>
<g id="Group_8">
<path id="Vector_40" d="M9.96072 14.2634H5.42855C5.16272 14.2634 4.94727 14.0479 4.94727 13.7821C4.94727 13.5162 5.16272 13.3008 5.42855 13.3008H9.96066C10.2264 13.3008 10.442 13.5162 10.442 13.7821C10.442 14.0479 10.2265 14.2634 9.96072 14.2634Z" fill="#96948F"/>
<path id="Vector_41" d="M9.96072 15.8688H5.42855C5.16272 15.8688 4.94727 15.6534 4.94727 15.3875C4.94727 15.1217 5.16272 14.9062 5.42855 14.9062H9.96066C10.2264 14.9062 10.442 15.1217 10.442 15.3875C10.442 15.6533 10.2265 15.8688 9.96072 15.8688Z" fill="#96948F"/>
<path id="Vector_42" d="M9.96072 17.4704H5.42855C5.16272 17.4704 4.94727 17.2549 4.94727 16.9891C4.94727 16.7233 5.16272 16.5078 5.42855 16.5078H9.96066C10.2264 16.5078 10.442 16.7233 10.442 16.9891C10.442 17.2549 10.2265 17.4704 9.96072 17.4704Z" fill="#96948F"/>
</g>
</g>
<defs>
<clipPath id="clip0_2_9588">
<rect width="30" height="30" fill="white" transform="translate(0 0.648438)"/>
</clipPath>
</defs>
</svg>
