<svg width="30" height="30" viewBox="0 0 30 30" fill="none" xmlns="http://www.w3.org/2000/svg">
<g id="collect_svgrepo.com" clip-path="url(#clip0_2_9461)">
<g id="Group">
<g id="Group_2">
<path id="Vector" d="M15 3.81641C8.52797 3.81641 3.28125 8.88823 3.28125 15.1445H26.7188C26.7188 8.88823 21.472 3.81641 15 3.81641Z" fill="#FFC865"/>
<path id="Vector_2" d="M15 26.4727C21.472 26.4727 26.7188 21.4008 26.7188 15.1445H3.28125C3.28125 21.4008 8.52797 26.4727 15 26.4727Z" fill="#BE9148"/>
</g>
<g id="Group_3">
<path id="Vector_3" d="M4.1251 19.5757L8.52479 20.4547C8.76854 20.5032 9.00995 20.3596 9.09479 20.1656L10.8446 16.1654C10.9037 16.03 10.8971 15.8763 10.8264 15.7463C10.8226 15.7395 7.81182 10.2526 7.81463 10.2454C7.74901 10.1896 7.67448 10.1457 7.58682 10.128L3.18713 9.24939C2.98885 9.20997 2.69307 9.33549 2.60026 9.5471L0.850416 13.5473C0.791822 13.6814 0.816197 13.8704 0.868697 13.9664L3.7787 19.3233C3.7787 19.3233 3.90479 19.5317 4.1251 19.5757Z" fill="#6BC4D2"/>
<path id="Vector_4" d="M10.8449 16.1661L9.09503 20.1663C9.01018 20.3603 8.76878 20.5043 8.52503 20.4554L4.12534 19.5763C4.03721 19.5587 3.96175 19.5138 3.89565 19.4572L5.02159 16.6637C5.02159 16.6637 5.14018 16.7846 5.28315 16.8132L6.70065 17.0964C6.8305 17.1222 6.958 17.0941 7.06487 17.0316C7.15346 16.9795 7.228 16.9047 7.27065 16.8073L7.83456 15.5186C7.89362 15.3831 7.88706 15.2295 7.81628 15.0995L6.75925 13.1533C6.73862 13.1152 6.70487 13.089 6.67534 13.0581L7.80831 10.242L10.8271 15.7474C10.8974 15.877 10.9039 16.0311 10.8449 16.1661ZM0.821121 13.7958L3.84222 14.481C3.82253 14.3853 3.82112 14.2875 3.86143 14.1959L4.42534 12.9073C4.47081 12.8035 4.5505 12.7233 4.64659 12.6716L2.82643 9.32031C2.72987 9.37061 2.64643 9.44447 2.60097 9.54823L0.851121 13.5484C0.815965 13.6273 0.810809 13.712 0.821121 13.7958Z" fill="#508D9B"/>
<path id="Vector_5" d="M20.1503 17.0544L15.9869 18.6865C15.8472 18.7413 15.7263 18.8918 15.693 18.9951L13.8316 24.7724C13.7993 24.8735 13.8091 25.0656 13.8921 25.1879L16.3605 28.817C16.4974 29.0182 16.6558 29.0354 16.8761 29.0277L21.1385 27.3697C21.2791 27.3145 21.3869 27.2012 21.4324 27.0612C21.4347 27.0539 23.3196 21.1157 23.3266 21.113C23.321 21.0287 23.3003 20.9462 23.2511 20.8742L20.7827 17.2456C20.6341 17.0702 20.3683 16.9687 20.1503 17.0544Z" fill="#00B3AA"/>
<path id="Vector_6" d="M21.1378 27.3692L16.9744 29.0014C16.7723 29.0807 16.4963 29.0172 16.3598 28.8165L13.8914 25.1874C13.8417 25.1144 13.8216 25.0311 13.8164 24.9459L16.6561 23.7401C16.6561 23.7401 16.6514 23.9069 16.7316 24.0247L17.527 25.1937C17.5997 25.3007 17.7108 25.3682 17.8322 25.3967C17.9325 25.4203 18.0403 25.4185 18.142 25.3786L19.4836 24.8525C19.6242 24.7973 19.732 24.684 19.7775 24.544L20.4534 22.4455C20.4666 22.4048 20.4619 22.3626 20.4637 22.3209L23.325 21.1038L21.4322 27.0602C21.3863 27.2011 21.2784 27.3144 21.1378 27.3692ZM15.7838 18.8418L17.4187 21.3911C17.4745 21.31 17.5453 21.2402 17.6409 21.2026L18.9825 20.6765C19.0903 20.6344 19.2056 20.6321 19.3116 20.6611L20.4759 17.047C20.3709 17.0167 20.258 17.0121 20.1497 17.0543L15.9862 18.6864C15.9033 18.719 15.8377 18.7757 15.7838 18.8418Z" fill="#018273"/>
<path id="Vector_7" d="M24.835 5.32021C24.8289 5.22506 24.8054 5.13171 24.7497 5.05015L21.9573 0.944836C21.8336 0.763133 21.4956 0.629914 21.2415 0.729149L16.5315 2.57609C16.3736 2.63816 16.2367 2.80809 16.1992 2.92545L14.0936 9.46087C14.057 9.57506 14.0683 9.79255 14.162 9.93076L16.9543 14.0361C17.109 14.2635 17.4212 14.3351 17.65 14.2454L22.3595 12.3989C22.5189 12.3364 22.6408 12.2082 22.6918 12.0496C22.6947 12.041 24.8265 5.32338 24.835 5.32021Z" fill="#FF786E"/>
<path id="Vector_8" d="M22.3605 12.3992L17.6509 14.2457C17.4227 14.3354 17.11 14.2638 16.9553 14.0363L14.163 9.93103C14.1067 9.84856 14.0838 9.75431 14.0781 9.65825L17.2905 8.29434C17.2905 8.29434 17.2848 8.48284 17.3758 8.61606L18.2753 9.93873C18.3578 10.0597 18.483 10.1358 18.6203 10.1685C18.7342 10.1952 18.8556 10.1934 18.9705 10.1481L20.4878 9.55312C20.6472 9.49059 20.7691 9.36236 20.8202 9.20376L21.5852 6.82984C21.6002 6.78362 21.595 6.73604 21.5969 6.68892L24.8336 5.31187L22.6923 12.0498C22.6417 12.2084 22.5198 12.3367 22.3605 12.3992ZM16.3037 2.75217L18.1534 5.63586C18.2167 5.54432 18.2969 5.46503 18.4047 5.42289L19.922 4.82793C20.0444 4.7799 20.1747 4.77764 20.2942 4.81072L21.6114 0.722169C21.4923 0.687731 21.3644 0.682294 21.2425 0.730325L16.5325 2.57681C16.4392 2.61351 16.3647 2.6774 16.3037 2.75217Z" fill="#BE5652"/>
</g>
</g>
</g>
<defs>
<clipPath id="clip0_2_9461">
<rect width="30" height="29" fill="white" transform="translate(0 0.644531)"/>
</clipPath>
</defs>
</svg>
