<svg width="36" height="36" viewBox="0 0 36 36" fill="none" xmlns="http://www.w3.org/2000/svg">
<path id="Star 1" d="M14.2325 6.85267C15.6616 3.15538 16.3761 1.30674 17.537 1.05053C17.8423 0.983158 18.1577 0.983158 18.463 1.05053C19.6239 1.30674 20.3384 3.15538 21.7675 6.85267C22.5802 8.95524 22.9866 10.0065 23.7469 10.7216C23.9602 10.9221 24.1917 11.1008 24.4382 11.2549C25.317 11.8046 26.4141 11.9066 28.6082 12.1105C32.3224 12.4557 34.1795 12.6283 34.7466 13.7272C34.8641 13.9548 34.944 14.2012 34.9829 14.4562C35.1709 15.6874 33.8056 16.9764 31.0751 19.5544L30.3169 20.2703C29.0403 21.4756 28.402 22.0782 28.0328 22.8303C27.8114 23.2815 27.6629 23.7673 27.5933 24.2685C27.4773 25.1039 27.6642 25.9781 28.038 27.7266L28.1716 28.3513C28.842 31.487 29.1772 33.0548 28.7588 33.8254C28.3829 34.5177 27.6906 34.9608 26.9258 34.9987C26.0744 35.0409 24.8748 34.0265 22.4755 31.9975C20.8947 30.6608 20.1044 29.9925 19.227 29.7314C18.4251 29.4928 17.5749 29.4928 16.773 29.7314C15.8956 29.9925 15.1053 30.6608 13.5245 31.9975C11.1252 34.0265 9.92556 35.0409 9.07417 34.9987C8.3094 34.9608 7.61709 34.5177 7.24124 33.8254C6.82282 33.0548 7.15801 31.487 7.82839 28.3513L7.96196 27.7266C8.33578 25.9781 8.52269 25.1039 8.4067 24.2685C8.33712 23.7673 8.18863 23.2815 7.96716 22.8303C7.59797 22.0782 6.95969 21.4756 5.68312 20.2703L4.92487 19.5544C2.19435 16.9764 0.829094 15.6874 1.01711 14.4562C1.05605 14.2012 1.13591 13.9548 1.25336 13.7272C1.82048 12.6283 3.6776 12.4557 7.39184 12.1105C9.58595 11.9066 10.683 11.8046 11.5618 11.2549C11.8083 11.1008 12.0398 10.9221 12.2531 10.7216C13.0134 10.0065 13.4198 8.95524 14.2325 6.85267Z" fill="#DDD623" stroke="#3F3E33"/>
</svg>
