<svg width="85" height="64" viewBox="0 0 85 64" fill="none" xmlns="http://www.w3.org/2000/svg">
<g clip-path="url(#clip0_78_1322)">
<path d="M0 0H85V64H0V0Z" fill="#E70013"/>
<path d="M42 48C50.8366 48 58 40.8366 58 32C58 23.1634 50.8366 16 42 16C33.1634 16 26 23.1634 26 32C26 40.8366 33.1634 48 42 48Z" fill="white"/>
<path d="M42 44C48.6274 44 54 38.6274 54 32C54 25.3726 48.6274 20 42 20C35.3726 20 30 25.3726 30 32C30 38.6274 35.3726 44 42 44Z" fill="#E70013"/>
<path d="M45.2001 41.6C50.502 41.6 54.8001 37.302 54.8001 32C54.8001 26.6981 50.502 22.4 45.2001 22.4C39.8982 22.4 35.6001 26.6981 35.6001 32C35.6001 37.302 39.8982 41.6 45.2001 41.6Z" fill="white"/>
<path d="M38 32L51.0248 27.768L42.976 38.848V25.152L51.024 36.232L38 32Z" fill="#E70013"/>
</g>
<defs>
<clipPath id="clip0_78_1322">
<rect width="85" height="64" rx="10" fill="white"/>
</clipPath>
</defs>
</svg>
