<svg width="85" height="64" viewBox="0 0 85 64" fill="none" xmlns="http://www.w3.org/2000/svg">
<g clip-path="url(#clip0_62_1330)">
<mask id="mask0_62_1330" style="mask-type:luminance" maskUnits="userSpaceOnUse" x="0" y="0" width="85" height="64">
<rect width="85" height="64" fill="white"/>
</mask>
<g mask="url(#mask0_62_1330)">
<path fill-rule="evenodd" clip-rule="evenodd" d="M0 0V64H85V0H0Z" fill="#2E42A5"/>
<mask id="mask1_62_1330" style="mask-type:luminance" maskUnits="userSpaceOnUse" x="0" y="0" width="85" height="64">
<path fill-rule="evenodd" clip-rule="evenodd" d="M0 0V64H85V0H0Z" fill="white"/>
</mask>
<g mask="url(#mask1_62_1330)">
<mask id="mask2_62_1330" style="mask-type:luminance" maskUnits="userSpaceOnUse" x="0" y="0" width="85" height="64">
<rect width="85" height="64" fill="white"/>
</mask>
<g mask="url(#mask2_62_1330)">
<path d="M-9.4646 59.4278L9.23989 67.3693L85.4244 8.63428L95.2906 -3.16701L75.2889 -5.82129L44.215 19.4893L19.2037 36.5427L-9.4646 59.4278Z" fill="white"/>
<path d="M-6.90381 64.9918L2.62526 69.6003L91.7479 -4.2635H78.3679L-6.90381 64.9918Z" fill="#F50100"/>
<path d="M94.4646 59.4278L75.7601 67.3693L-0.424425 8.63428L-10.2906 -3.16701L9.71114 -5.82129L40.785 19.4893L65.7963 36.5427L94.4646 59.4278Z" fill="white"/>
<path d="M93.8264 63.421L84.2973 68.0295L46.348 36.4046L35.0969 32.8712L-11.2399 -3.12665H2.14L48.4508 32.0168L60.7519 36.2537L93.8264 63.421Z" fill="#F50100"/>
<mask id="path-10-inside-1_62_1330" fill="white">
<path fill-rule="evenodd" clip-rule="evenodd" d="M52.5348 -5.33325H32.4654V21.3334H-5.23926V42.6667H32.4654V69.3334H52.5348V42.6667H90.3857V21.3334H52.5348V-5.33325Z"/>
</mask>
<path fill-rule="evenodd" clip-rule="evenodd" d="M52.5348 -5.33325H32.4654V21.3334H-5.23926V42.6667H32.4654V69.3334H52.5348V42.6667H90.3857V21.3334H52.5348V-5.33325Z" fill="#F50100"/>
<path d="M32.4654 -5.33325V-7.33325H30.4654V-5.33325H32.4654ZM52.5348 -5.33325H54.5348V-7.33325H52.5348V-5.33325ZM32.4654 21.3334V23.3334H34.4654V21.3334H32.4654ZM-5.23926 21.3334V19.3334H-7.23926V21.3334H-5.23926ZM-5.23926 42.6667H-7.23926V44.6667H-5.23926V42.6667ZM32.4654 42.6667H34.4654V40.6667H32.4654V42.6667ZM32.4654 69.3334H30.4654V71.3334H32.4654V69.3334ZM52.5348 69.3334V71.3334H54.5348V69.3334H52.5348ZM52.5348 42.6667V40.6667H50.5348V42.6667H52.5348ZM90.3857 42.6667V44.6667H92.3857V42.6667H90.3857ZM90.3857 21.3334H92.3857V19.3334H90.3857V21.3334ZM52.5348 21.3334H50.5348V23.3334H52.5348V21.3334ZM32.4654 -3.33325H52.5348V-7.33325H32.4654V-3.33325ZM34.4654 21.3334V-5.33325H30.4654V21.3334H34.4654ZM-5.23926 23.3334H32.4654V19.3334H-5.23926V23.3334ZM-3.23926 42.6667V21.3334H-7.23926V42.6667H-3.23926ZM32.4654 40.6667H-5.23926V44.6667H32.4654V40.6667ZM34.4654 69.3334V42.6667H30.4654V69.3334H34.4654ZM52.5348 67.3334H32.4654V71.3334H52.5348V67.3334ZM50.5348 42.6667V69.3334H54.5348V42.6667H50.5348ZM90.3857 40.6667H52.5348V44.6667H90.3857V40.6667ZM88.3857 21.3334V42.6667H92.3857V21.3334H88.3857ZM52.5348 23.3334H90.3857V19.3334H52.5348V23.3334ZM50.5348 -5.33325V21.3334H54.5348V-5.33325H50.5348Z" fill="white" mask="url(#path-10-inside-1_62_1330)"/>
</g>
</g>
</g>
</g>
<defs>
<clipPath id="clip0_62_1330">
<rect width="85" height="64" rx="10" fill="white"/>
</clipPath>
</defs>
</svg>
