<svg width="85" height="60" viewBox="0 0 85 60" fill="none" xmlns="http://www.w3.org/2000/svg">
<g clip-path="url(#clip0_86_1544)">
<path d="M85 0H0V60H85V0Z" fill="#B22234"/>
<path d="M0 6.9231H85ZM85 16.1539H0ZM0 25.3846H85ZM85 34.6154H0ZM0 43.8462H85ZM85 53.0769H0Z" fill="black"/>
<path d="M0 6.9231H85M85 16.1539H0M0 25.3846H85M85 34.6154H0M0 43.8462H85M85 53.0769H0" stroke="white" stroke-width="3.46963"/>
<path d="M34 0H0V32.3077H34V0Z" fill="#3C3B6E"/>
<path d="M2.83332 1.38464L3.64241 4.72437L1.52417 2.6603H4.14246L2.02422 4.72437L2.83332 1.38464Z" fill="white"/>
<path d="M2.83332 7.84619L3.64241 11.1859L1.52417 9.12185H4.14246L2.02422 11.1859L2.83332 7.84619Z" fill="white"/>
<path d="M2.83332 14.3077L3.64241 17.6475L1.52417 15.5834H4.14246L2.02422 17.6475L2.83332 14.3077Z" fill="white"/>
<path d="M2.83332 20.7693L3.64241 24.109L1.52417 22.0449H4.14246L2.02422 24.109L2.83332 20.7693Z" fill="white"/>
<path d="M2.83332 27.2308L3.64241 30.5706L1.52417 28.5065H4.14246L2.02422 30.5706L2.83332 27.2308Z" fill="white"/>
<path d="M5.66657 4.61548L6.47567 7.9552L4.35742 5.89114H6.97571L4.85747 7.9552L5.66657 4.61548Z" fill="white"/>
<path d="M5.66657 11.077L6.47567 14.4168L4.35742 12.3527H6.97571L4.85747 14.4168L5.66657 11.077Z" fill="white"/>
<path d="M5.66657 17.5386L6.47567 20.8783L4.35742 18.8142H6.97571L4.85747 20.8783L5.66657 17.5386Z" fill="white"/>
<path d="M5.66657 24.0001L6.47567 27.3398L4.35742 25.2758H6.97571L4.85747 27.3398L5.66657 24.0001Z" fill="white"/>
<path d="M8.50006 1.38464L9.30916 4.72437L7.19092 2.6603H9.80921L7.69097 4.72437L8.50006 1.38464Z" fill="white"/>
<path d="M8.50006 7.84619L9.30916 11.1859L7.19092 9.12185H9.80921L7.69097 11.1859L8.50006 7.84619Z" fill="white"/>
<path d="M8.50006 14.3077L9.30916 17.6475L7.19092 15.5834H9.80921L7.69097 17.6475L8.50006 14.3077Z" fill="white"/>
<path d="M8.50006 20.7693L9.30916 24.109L7.19092 22.0449H9.80921L7.69097 24.109L8.50006 20.7693Z" fill="white"/>
<path d="M8.50006 27.2308L9.30916 30.5706L7.19092 28.5065H9.80921L7.69097 30.5706L8.50006 27.2308Z" fill="white"/>
<path d="M11.3331 4.61548L12.1422 7.9552L10.0239 5.89114H12.6422L10.524 7.9552L11.3331 4.61548Z" fill="white"/>
<path d="M11.3331 11.077L12.1422 14.4168L10.0239 12.3527H12.6422L10.524 14.4168L11.3331 11.077Z" fill="white"/>
<path d="M11.3331 17.5386L12.1422 20.8783L10.0239 18.8142H12.6422L10.524 20.8783L11.3331 17.5386Z" fill="white"/>
<path d="M11.3331 24.0001L12.1422 27.3398L10.0239 25.2758H12.6422L10.524 27.3398L11.3331 24.0001Z" fill="white"/>
<path d="M14.1666 1.38464L14.9757 4.72437L12.8574 2.6603H15.4757L13.3575 4.72437L14.1666 1.38464Z" fill="white"/>
<path d="M14.1666 7.84619L14.9757 11.1859L12.8574 9.12185H15.4757L13.3575 11.1859L14.1666 7.84619Z" fill="white"/>
<path d="M14.1666 14.3077L14.9757 17.6475L12.8574 15.5834H15.4757L13.3575 17.6475L14.1666 14.3077Z" fill="white"/>
<path d="M14.1666 20.7693L14.9757 24.109L12.8574 22.0449H15.4757L13.3575 24.109L14.1666 20.7693Z" fill="white"/>
<path d="M14.1666 27.2308L14.9757 30.5706L12.8574 28.5065H15.4757L13.3575 30.5706L14.1666 27.2308Z" fill="white"/>
<path d="M16.9998 4.61548L17.8089 7.9552L15.6907 5.89114H18.309L16.1907 7.9552L16.9998 4.61548Z" fill="white"/>
<path d="M16.9998 11.077L17.8089 14.4168L15.6907 12.3527H18.309L16.1907 14.4168L16.9998 11.077Z" fill="white"/>
<path d="M16.9998 17.5386L17.8089 20.8783L15.6907 18.8142H18.309L16.1907 20.8783L16.9998 17.5386Z" fill="white"/>
<path d="M16.9998 24.0001L17.8089 27.3398L15.6907 25.2758H18.309L16.1907 27.3398L16.9998 24.0001Z" fill="white"/>
<path d="M19.8333 1.38464L20.6424 4.72437L18.5242 2.6603H21.1425L19.0242 4.72437L19.8333 1.38464Z" fill="white"/>
<path d="M19.8333 7.84619L20.6424 11.1859L18.5242 9.12185H21.1425L19.0242 11.1859L19.8333 7.84619Z" fill="white"/>
<path d="M19.8333 14.3077L20.6424 17.6475L18.5242 15.5834H21.1425L19.0242 17.6475L19.8333 14.3077Z" fill="white"/>
<path d="M19.8333 20.7693L20.6424 24.109L18.5242 22.0449H21.1425L19.0242 24.109L19.8333 20.7693Z" fill="white"/>
<path d="M19.8333 27.2308L20.6424 30.5706L18.5242 28.5065H21.1425L19.0242 30.5706L19.8333 27.2308Z" fill="white"/>
<path d="M22.6666 4.61548L23.4757 7.9552L21.3574 5.89114H23.9757L21.8575 7.9552L22.6666 4.61548Z" fill="white"/>
<path d="M22.6666 11.077L23.4757 14.4168L21.3574 12.3527H23.9757L21.8575 14.4168L22.6666 11.077Z" fill="white"/>
<path d="M22.6666 17.5386L23.4757 20.8783L21.3574 18.8142H23.9757L21.8575 20.8783L22.6666 17.5386Z" fill="white"/>
<path d="M22.6666 24.0001L23.4757 27.3398L21.3574 25.2758H23.9757L21.8575 27.3398L22.6666 24.0001Z" fill="white"/>
<path d="M25.4998 1.38464L26.3089 4.72437L24.1907 2.6603H26.809L24.6907 4.72437L25.4998 1.38464Z" fill="white"/>
<path d="M25.4998 7.84619L26.3089 11.1859L24.1907 9.12185H26.809L24.6907 11.1859L25.4998 7.84619Z" fill="white"/>
<path d="M25.4998 14.3077L26.3089 17.6475L24.1907 15.5834H26.809L24.6907 17.6475L25.4998 14.3077Z" fill="white"/>
<path d="M25.4998 20.7693L26.3089 24.109L24.1907 22.0449H26.809L24.6907 24.109L25.4998 20.7693Z" fill="white"/>
<path d="M25.4998 27.2308L26.3089 30.5706L24.1907 28.5065H26.809L24.6907 30.5706L25.4998 27.2308Z" fill="white"/>
<path d="M28.3331 4.61548L29.1422 7.9552L27.0239 5.89114H29.6422L27.524 7.9552L28.3331 4.61548Z" fill="white"/>
<path d="M28.3331 11.077L29.1422 14.4168L27.0239 12.3527H29.6422L27.524 14.4168L28.3331 11.077Z" fill="white"/>
<path d="M28.3331 17.5386L29.1422 20.8783L27.0239 18.8142H29.6422L27.524 20.8783L28.3331 17.5386Z" fill="white"/>
<path d="M28.3331 24.0001L29.1422 27.3398L27.0239 25.2758H29.6422L27.524 27.3398L28.3331 24.0001Z" fill="white"/>
<path d="M31.1663 1.38464L31.9754 4.72437L29.8572 2.6603H32.4755L30.3572 4.72437L31.1663 1.38464Z" fill="white"/>
<path d="M31.1663 7.84619L31.9754 11.1859L29.8572 9.12185H32.4755L30.3572 11.1859L31.1663 7.84619Z" fill="white"/>
<path d="M31.1663 14.3077L31.9754 17.6475L29.8572 15.5834H32.4755L30.3572 17.6475L31.1663 14.3077Z" fill="white"/>
<path d="M31.1663 20.7693L31.9754 24.109L29.8572 22.0449H32.4755L30.3572 24.109L31.1663 20.7693Z" fill="white"/>
<path d="M31.1663 27.2308L31.9754 30.5706L29.8572 28.5065H32.4755L30.3572 30.5706L31.1663 27.2308Z" fill="white"/>
</g>
<defs>
<clipPath id="clip0_86_1544">
<rect width="85" height="60" rx="10" fill="white"/>
</clipPath>
</defs>
</svg>
