<svg width="40" height="42" viewBox="0 0 40 42" fill="none" xmlns="http://www.w3.org/2000/svg">
<g id="profile-2user">
<path id="Vector" d="M14.9385 3.8125C10.6481 3.8125 7.16016 7.48597 7.16016 12.0045C7.16016 16.4368 10.4516 20.024 14.742 20.1793C14.873 20.162 15.004 20.162 15.1023 20.1793C15.135 20.1793 15.1514 20.1793 15.1841 20.1793C15.2005 20.1793 15.2005 20.1793 15.2169 20.1793C19.409 20.024 22.7005 16.4368 22.7169 12.0045C22.7169 7.48597 19.2289 3.8125 14.9385 3.8125Z" fill="#BFD6FF"/>
<path id="Vector_2" d="M23.2572 24.7691C18.6885 21.5613 11.2376 21.5613 6.63613 24.7691C4.55644 26.2351 3.41016 28.2184 3.41016 30.3397C3.41016 32.461 4.55644 34.4271 6.61975 35.8758C8.91232 37.4969 11.9254 38.3075 14.9385 38.3075C17.9516 38.3075 20.9647 37.4969 23.2572 35.8758C25.3206 34.4098 26.4668 32.4438 26.4668 30.3052C26.4505 28.1839 25.3206 26.2178 23.2572 24.7691Z" fill="#BFD6FF"/>
<path id="Vector_3" d="M32.9335 13.0221C33.1955 16.3679 30.9357 19.2998 27.8079 19.6965C27.7916 19.6965 27.7916 19.6965 27.7752 19.6965H27.7261C27.6278 19.6965 27.5296 19.6965 27.4477 19.731C25.8593 19.8172 24.4018 19.2825 23.3047 18.2995C24.9914 16.7128 25.9575 14.3329 25.761 11.7459C25.6464 10.349 25.1879 9.07273 24.5001 7.98621C25.1224 7.65853 25.8429 7.45157 26.5798 7.38259C29.7894 7.0894 32.6551 9.60736 32.9335 13.0221Z" fill="#BFD6FF"/>
<path id="Vector_4" d="M36.2098 28.9763C36.0788 30.6492 35.0635 32.0979 33.3604 33.0809C31.7229 34.0295 29.6596 34.4779 27.6126 34.4261C28.7917 33.3051 29.4794 31.9082 29.6104 30.425C29.7742 28.2865 28.808 26.2341 26.8757 24.5957C25.7786 23.6817 24.5013 22.9573 23.1094 22.4227C26.7284 21.3189 31.2807 22.0605 34.081 24.4405C35.5875 25.7167 36.3571 27.3207 36.2098 28.9763Z" fill="#BFD6FF"/>
</g>
</svg>
