<svg width="86" height="86" viewBox="0 0 86 86" fill="none" xmlns="http://www.w3.org/2000/svg">
<path d="M43 7.16663C23.22 7.16663 7.16669 23.22 7.16669 43C7.16669 62.78 23.22 78.8333 43 78.8333C62.78 78.8333 78.8334 62.78 78.8334 43C78.8334 23.22 62.78 7.16663 43 7.16663ZM57.4409 44.8991L46.6909 55.6491C46.1534 56.1866 45.4725 56.4375 44.7917 56.4375C44.1109 56.4375 43.43 56.1866 42.8925 55.6491C41.8534 54.61 41.8534 52.89 42.8925 51.8508L49.0559 45.6875H30.4584C28.9892 45.6875 27.7709 44.4691 27.7709 43C27.7709 41.5308 28.9892 40.3125 30.4584 40.3125H49.0559L42.8925 34.1491C41.8534 33.11 41.8534 31.39 42.8925 30.3508C43.9317 29.3116 45.6517 29.3116 46.6909 30.3508L57.4409 41.1008C58.48 42.14 58.48 43.86 57.4409 44.8991Z" fill="#46CAF4"/>
</svg>
