<svg width="30" height="29" viewBox="0 0 30 29" fill="none" xmlns="http://www.w3.org/2000/svg">
<g id="bank_svgrepo.com">
<path id="Vector" fill-rule="evenodd" clip-rule="evenodd" d="M13.5401 1.50672C14.4724 1.10713 15.5276 1.10713 16.4599 1.50672L27.2494 6.13147C29.7189 7.18998 28.9629 10.8737 26.2761 10.8737H3.72383C1.03709 10.8737 0.281114 7.18997 2.75059 6.13147L13.5401 1.50672ZM15.4866 3.77794C15.1759 3.64475 14.8241 3.64475 14.5134 3.77794L4.26345 8.17128C4.13998 8.22421 4.17905 8.40258 4.31411 8.40258H25.6859C25.821 8.40258 25.86 8.22421 25.7365 8.17128L15.4866 3.77794Z" fill="#436BAB"/>
<path id="Vector_2" d="M2.5 26.5833C2.5 25.916 3.05965 25.375 3.75 25.375H26.25C26.9404 25.375 27.5 25.916 27.5 26.5833C27.5 27.2507 26.9404 27.7917 26.25 27.7917H3.75C3.05965 27.7917 2.5 27.2507 2.5 26.5833Z" fill="#436BAB"/>
<path id="Vector_3" d="M13.75 22.957C13.75 23.6244 14.3096 24.1654 15 24.1654C15.6904 24.1654 16.25 23.6244 16.25 22.957V13.2904C16.25 12.623 15.6904 12.082 15 12.082C14.3096 12.082 13.75 12.623 13.75 13.2904V22.957Z" fill="#436BAB"/>
<path id="Vector_4" d="M7.5 24.1654C6.80965 24.1654 6.25 23.6244 6.25 22.957V13.2904C6.25 12.623 6.80964 12.082 7.5 12.082C8.19035 12.082 8.75 12.623 8.75 13.2904V22.957C8.75 23.6244 8.19036 24.1654 7.5 24.1654Z" fill="#436BAB"/>
<path id="Vector_5" d="M21.25 22.957C21.25 23.6244 21.8096 24.1654 22.5 24.1654C23.1904 24.1654 23.75 23.6244 23.75 22.957V13.2904C23.75 12.623 23.1904 12.082 22.5 12.082C21.8096 12.082 21.25 12.623 21.25 13.2904V22.957Z" fill="#436BAB"/>
</g>
</svg>
