<svg width="24" height="25" viewBox="0 0 24 25" fill="none" xmlns="http://www.w3.org/2000/svg">
<path d="M16.75 4.06V2.5C16.75 2.09 16.41 1.75 16 1.75C15.59 1.75 15.25 2.09 15.25 2.5V4H8.75V2.5C8.75 2.09 8.41 1.75 8 1.75C7.59 1.75 7.25 2.09 7.25 2.5V4.06C4.55 4.31 3.24 5.92 3.04 8.31C3.02 8.6 3.26 8.84 3.54 8.84H20.46C20.75 8.84 20.99 8.59 20.96 8.31C20.76 5.92 19.45 4.31 16.75 4.06Z" fill="#BFD6FF"/>
<path d="M20 10.34H4C3.45 10.34 3 10.79 3 11.34V17.5C3 20.5 4.5 22.5 8 22.5H16C19.5 22.5 21 20.5 21 17.5V11.34C21 10.79 20.55 10.34 20 10.34ZM9.21 18.71C9.11 18.8 9 18.87 8.88 18.92C8.76 18.97 8.63 19 8.5 19C8.37 19 8.24 18.97 8.12 18.92C8 18.87 7.89 18.8 7.79 18.71C7.61 18.52 7.5 18.26 7.5 18C7.5 17.74 7.61 17.48 7.79 17.29C7.89 17.2 8 17.13 8.12 17.08C8.36 16.98 8.64 16.98 8.88 17.08C9 17.13 9.11 17.2 9.21 17.29C9.39 17.48 9.5 17.74 9.5 18C9.5 18.26 9.39 18.52 9.21 18.71ZM9.42 14.88C9.37 15 9.3 15.11 9.21 15.21C9.11 15.3 9 15.37 8.88 15.42C8.76 15.47 8.63 15.5 8.5 15.5C8.37 15.5 8.24 15.47 8.12 15.42C8 15.37 7.89 15.3 7.79 15.21C7.7 15.11 7.63 15 7.58 14.88C7.53 14.76 7.5 14.63 7.5 14.5C7.5 14.37 7.53 14.24 7.58 14.12C7.63 14 7.7 13.89 7.79 13.79C7.89 13.7 8 13.63 8.12 13.58C8.36 13.48 8.64 13.48 8.88 13.58C9 13.63 9.11 13.7 9.21 13.79C9.3 13.89 9.37 14 9.42 14.12C9.47 14.24 9.5 14.37 9.5 14.5C9.5 14.63 9.47 14.76 9.42 14.88ZM12.71 15.21C12.61 15.3 12.5 15.37 12.38 15.42C12.26 15.47 12.13 15.5 12 15.5C11.87 15.5 11.74 15.47 11.62 15.42C11.5 15.37 11.39 15.3 11.29 15.21C11.11 15.02 11 14.76 11 14.5C11 14.24 11.11 13.98 11.29 13.79C11.39 13.7 11.5 13.63 11.62 13.58C11.86 13.47 12.14 13.47 12.38 13.58C12.5 13.63 12.61 13.7 12.71 13.79C12.89 13.98 13 14.24 13 14.5C13 14.76 12.89 15.02 12.71 15.21Z" fill="#BFD6FF"/>
</svg>
