<svg width="52" height="52" viewBox="0 0 52 52" fill="none" xmlns="http://www.w3.org/2000/svg">
<path d="M47.6667 46.0417H44.9583V23.8333C44.9583 18.59 42.0767 15.7083 36.8333 15.7083H27.625V13.0433C28.8817 13.3467 30.1383 13.52 31.4167 13.52C33.4533 13.52 35.49 13.13 37.44 12.35C38.0467 12.1117 38.4583 11.505 38.4583 10.8333V4.33333C38.4583 3.79167 38.1983 3.29333 37.7433 2.99C37.2883 2.68667 36.725 2.62167 36.2267 2.81667C33.1283 4.05167 29.705 4.05167 26.6067 2.81667C26.1083 2.62167 25.545 2.68667 25.09 2.99C24.635 3.29333 24.375 3.79167 24.375 4.33333V10.8333V15.7083H15.1667C9.92333 15.7083 7.04166 18.59 7.04166 23.8333V46.0417H4.33333C3.44499 46.0417 2.70833 46.7783 2.70833 47.6667C2.70833 48.555 3.44499 49.2917 4.33333 49.2917H8.66666H43.3333H47.6667C48.555 49.2917 49.2917 48.555 49.2917 47.6667C49.2917 46.7783 48.555 46.0417 47.6667 46.0417ZM15.6867 46.0417H10.2917V27.625H15.6867V46.0417ZM24.3533 46.0417H18.9367V27.625H24.3533V46.0417ZM33.02 46.0417H27.6033V27.625H33.02V46.0417ZM41.7083 46.0417H36.27V27.625H41.7083V46.0417Z" fill="#BFD6FF"/>
</svg>
