<svg xmlns="http://www.w3.org/2000/svg" width="20" height="21" viewBox="0 0 20 21" fill="none">
  <path d="M3.2832 2.00151C3.92773 2.00151 4.44531 1.55854 4.44531 1.02534C4.44531 0.492139 3.92773 0.057373 3.2832 0.057373C2.63867 0.057373 2.13086 0.492139 2.13086 1.02534C2.13086 1.55854 2.64844 2.00151 3.2832 2.00151ZM4.66016 2.19839H2.07227C1.24219 2.19839 0.734375 2.7644 0.734375 3.46167V5.74214C0.734375 6.31636 1.65234 6.31636 1.65234 5.74214V3.5437H1.94531V9.3269C1.94531 9.62222 2.23828 9.86831 2.58984 9.86831C2.94141 9.86831 3.23437 9.62222 3.23437 9.3269V6.14409H3.52734V9.3187C3.52734 9.61401 3.82031 9.86011 4.17188 9.86011C4.52344 9.86011 4.81641 9.61401 4.81641 9.3187V3.5355H5.10938V5.73394C5.10938 6.32456 6.02734 6.32456 6.00781 5.73394V3.46987C6.00781 2.83003 5.55859 2.19839 4.66016 2.19839ZM10.1973 2.00151C10.832 2.00151 11.3496 1.56675 11.3496 1.03354C11.3496 0.500342 10.832 0.0655762 10.1973 0.0655762C9.5625 0.0655762 9.03516 0.492139 9.03516 1.02534C9.03516 1.55854 9.5625 2.00151 10.1973 2.00151ZM8.54688 5.74214V3.5437H8.83984V9.3269C8.83984 9.62222 9.13281 9.86831 9.48438 9.86831C9.83594 9.86831 10.1289 9.62222 10.1289 9.3269V6.14409H10.4219V9.3187C10.4219 9.61401 10.7148 9.86011 11.0664 9.86011C11.418 9.86011 11.7109 9.61401 11.7109 9.3187V3.5355H12.0039V5.73394C12.0039 6.32456 12.9219 6.32456 12.9023 5.73394V3.46987C12.9023 2.82183 12.4531 2.19019 11.5547 2.19019H8.9668C8.13672 2.19019 7.62891 2.7562 7.62891 3.45347V5.73394C7.62891 6.31636 8.54688 6.31636 8.54688 5.74214ZM17.1016 2.00151C17.7363 2.00151 18.2539 1.56675 18.2539 1.03354C18.2539 0.500342 17.7363 0.0655762 17.1016 0.0655762C16.4668 0.0655762 15.9492 0.492139 15.9492 1.02534C15.9492 1.55854 16.457 2.00151 17.1016 2.00151ZM15.4414 5.74214V3.5437H15.7344V9.3269C15.7344 9.62222 16.0273 9.86831 16.3789 9.86831C16.7305 9.86831 17.0234 9.62222 17.0234 9.3269V6.14409H17.3164V9.3187C17.3164 9.61401 17.6094 9.86011 17.9609 9.86011C18.3125 9.86011 18.6055 9.61401 18.6055 9.3187V3.5355H18.8984V5.73394C18.8984 6.32456 19.8164 6.32456 19.7969 5.73394V3.46987C19.7969 2.82183 19.3477 2.19019 18.4492 2.19019H15.8711C15.041 2.19019 14.5332 2.7562 14.5332 3.45347V5.73394C14.5332 6.31636 15.4414 6.31636 15.4414 5.74214ZM4.45508 11.8699C4.45508 11.3367 3.9375 10.9019 3.30273 10.9019C2.66797 10.9019 2.15039 11.3367 2.15039 11.8699C2.15039 12.4031 2.66797 12.8378 3.30273 12.8378C3.9375 12.8378 4.45508 12.4113 4.45508 11.8699ZM4.66016 13.0429H2.07227C1.24219 13.0429 0.734375 13.6089 0.734375 14.3062V16.5867C0.734375 17.1609 1.65234 17.1609 1.65234 16.5867V14.3882H1.94531V20.1714C1.94531 20.4667 2.23828 20.7128 2.58984 20.7128C2.94141 20.7128 3.23437 20.4667 3.23437 20.1714V16.9968H3.52734V20.1714C3.52734 20.4667 3.82031 20.7128 4.17188 20.7128C4.52344 20.7128 4.81641 20.4667 4.81641 20.1714V14.38H5.10938V16.5703C5.10938 17.1609 6.02734 17.1609 6.00781 16.5703V14.3062C6.00781 13.6828 5.55859 13.0429 4.66016 13.0429ZM13.0586 14.3226V16.5867C13.0586 16.8 12.9414 16.9804 12.7559 17.0789C12.5801 17.1609 12.3652 17.1609 12.1797 17.0789C11.9844 16.9804 11.877 16.8082 11.877 16.5867L11.8672 14.5113V20.1796C11.8672 20.5406 11.5156 20.8441 11.0762 20.8441C10.6367 20.8441 10.2852 20.5488 10.2852 20.1796V17.1199H10.2754V20.1796C10.2754 20.5406 9.92383 20.8441 9.48438 20.8441C9.05469 20.8441 8.69336 20.5488 8.69336 20.1796V14.5113H8.68359V16.5867C8.68359 17.3085 7.50195 17.3085 7.50195 16.5867V14.3062C7.50195 13.5023 8.12695 12.9281 8.97656 12.9281H9.91406C9.33789 12.8214 8.9082 12.3867 8.9082 11.8699C8.9082 11.271 9.49414 10.7789 10.207 10.7789C10.9199 10.7789 11.5059 11.271 11.5059 11.8699C11.5059 12.3785 11.0762 12.8214 10.5 12.9281H11.584C12.5801 12.9199 13.0586 13.65 13.0586 14.3226ZM10.1973 12.7312C10.7539 12.7312 11.2129 12.3457 11.2129 11.8781C11.2129 11.4105 10.7539 11.025 10.1973 11.025C9.64062 11.025 9.18164 11.4105 9.18164 11.8781C9.18164 12.3457 9.64062 12.7312 10.1973 12.7312ZM12.7754 14.3226C12.7754 13.7648 12.3945 13.1578 11.5547 13.1578H8.9668C8.26367 13.1578 7.77539 13.6253 7.77539 14.298V16.5785C7.77539 16.8 7.94141 16.8984 8.09766 16.8984C8.25391 16.8984 8.41992 16.8 8.41992 16.5785V14.2652H8.99609V20.1632C8.99609 20.4011 9.2207 20.5898 9.50391 20.5898C9.78711 20.5898 10.0117 20.4011 10.0117 20.1632V16.8656H10.5684V20.1632C10.5684 20.4011 10.793 20.5898 11.0762 20.5898C11.3594 20.5898 11.584 20.4011 11.584 20.1632V14.2652H12.1406V16.5785C12.1406 16.7179 12.209 16.8164 12.3066 16.8656C12.3945 16.9066 12.5117 16.9066 12.6094 16.8656C12.707 16.8082 12.7754 16.7179 12.7754 16.5785V14.3144V14.3226ZM19.9531 14.3226V16.5867C19.9531 16.8 19.8359 16.9804 19.6504 17.0789C19.4746 17.1609 19.2598 17.1609 19.0742 17.0789C18.8789 16.9804 18.7715 16.8082 18.7715 16.5867L18.7617 14.5113V20.1796C18.7617 20.5406 18.4102 20.8441 17.9707 20.8441C17.5312 20.8441 17.1797 20.5488 17.1797 20.1796V17.1199H17.1699V20.1796C17.1699 20.5406 16.8184 20.8441 16.3789 20.8441C15.9492 20.8441 15.5879 20.5488 15.5879 20.1796V14.5113H15.5781V16.5867C15.5781 17.3085 14.3965 17.3085 14.3965 16.5867V14.3062C14.3965 13.5023 15.0215 12.9281 15.8711 12.9281H16.8086C16.2324 12.8214 15.8027 12.3867 15.8027 11.8699C15.8027 11.271 16.3887 10.7789 17.1016 10.7789C17.8145 10.7789 18.4004 11.271 18.4004 11.8699C18.4004 12.3785 17.9707 12.8214 17.3945 12.9281H18.4785C19.4746 12.9199 19.9531 13.65 19.9531 14.3226ZM17.1016 12.7312C17.6582 12.7312 18.1172 12.3457 18.1172 11.8781C18.1172 11.4105 17.6582 11.025 17.1016 11.025C16.5449 11.025 16.0859 11.4105 16.0859 11.8781C16.0762 12.3457 16.5352 12.7312 17.1016 12.7312ZM19.6699 14.3226C19.6699 13.7648 19.2891 13.1578 18.4492 13.1578H15.8613C15.1582 13.1578 14.6699 13.6253 14.6699 14.298V16.5785C14.6699 16.8 14.8359 16.8984 14.9922 16.8984C15.1484 16.8984 15.3145 16.8 15.3145 16.5785V14.2652H15.8906V20.1632C15.8906 20.4011 16.1152 20.5898 16.3984 20.5898C16.6816 20.5898 16.9062 20.4011 16.9062 20.1632V16.8656H17.4629V20.1632C17.4629 20.4011 17.6875 20.5898 17.9707 20.5898C18.2539 20.5898 18.4785 20.4011 18.4785 20.1632V14.2652H19.0352V16.5785C19.0352 16.7179 19.1035 16.8164 19.2012 16.8656C19.2891 16.9066 19.4062 16.9066 19.5039 16.8656C19.6016 16.8082 19.6699 16.7179 19.6699 16.5785V14.3144V14.3226Z" fill="#436BAB"/>
</svg>