<svg width="31" height="37" viewBox="0 0 31 37" fill="none" xmlns="http://www.w3.org/2000/svg">
<g id="Group">
<path id="Vector" d="M2.01685 36.034C1.18764 36.034 0.5 35.4215 0.5 34.6828V1.35128C0.5 0.612579 1.18764 0 2.01685 0C2.84606 0 3.53369 0.612579 3.53369 1.35128V34.6828C3.53369 35.4215 2.84606 36.034 2.01685 36.034Z" fill="#BFD6FF"/>
<path id="Vector_2" opacity="0.4" d="M28.0442 18.6122L25.5767 16.4141C24.9902 15.9637 24.6464 15.2971 24.6262 14.5584C24.5857 13.7476 24.9498 12.9368 25.6172 12.3423L28.0442 10.1802C30.1475 8.30647 30.9363 6.50477 30.2689 5.08143C29.6217 3.6761 27.6194 2.90137 24.6666 2.90137H2.01512C1.5904 2.91938 1.24658 3.22567 1.24658 3.60403V25.2244C1.24658 25.6028 1.5904 25.9091 2.01512 25.9091H24.6666C27.579 25.9091 29.5408 25.1163 30.2082 23.693C30.8756 22.2516 30.1071 20.4679 28.0442 18.6122Z" fill="#BFD6FF"/>
</g>
</svg>
