<svg width="23" height="21" viewBox="0 0 23 21" fill="none" xmlns="http://www.w3.org/2000/svg">
<g id="vuesax/bold/graph">
<g id="graph">
<path id="Vector" d="M20.3633 6.08074C19.7767 4.18199 18.1175 2.59824 16.1283 2.03824C14.6158 1.61824 13.5708 1.65324 12.8467 2.16949C11.9758 2.79074 11.875 3.91074 11.875 4.70699V6.88574C11.875 9.03824 12.9017 10.132 14.9183 10.132H17.5492C18.3742 10.132 19.5567 10.0357 20.2075 9.20449C20.7667 8.52199 20.8125 7.52449 20.3633 6.08074Z" fill="#BFD6FF"/>
<path id="Vector_2" d="M17.8344 11.689C17.5961 11.4265 17.2478 11.2778 16.8903 11.2778H13.6086C11.9953 11.2778 10.6844 10.0265 10.6844 8.48653V5.35403C10.6844 5.01278 10.5286 4.68028 10.2536 4.45278C9.98777 4.22528 9.62111 4.12028 9.27277 4.16403C7.11861 4.42653 5.13861 5.55528 3.84611 7.25278C2.54444 8.95903 2.06777 11.0415 2.48027 13.124C3.07611 16.134 5.59694 18.5403 8.75944 19.109C9.26361 19.2053 9.76777 19.249 10.2719 19.249C11.9311 19.249 13.5353 18.759 14.9011 17.8053C16.6794 16.5715 17.8619 14.6815 18.1369 12.6253C18.1828 12.284 18.0728 11.9428 17.8344 11.689Z" fill="#BFD6FF"/>
</g>
</g>
</svg>
