<svg width="46" height="46" viewBox="0 0 46 46" fill="none" xmlns="http://www.w3.org/2000/svg">
<path d="M31.7598 29.7254C33.016 28.9004 34.666 29.8004 34.666 31.3004V33.7192C34.666 36.1004 32.8098 38.6504 30.5785 39.4004L24.5973 41.3879C23.5473 41.7442 21.841 41.7442 20.8098 41.3879L14.8285 39.4004C12.5785 38.6504 10.741 36.1004 10.741 33.7192V31.2817C10.741 29.8004 12.391 28.9004 13.6285 29.7067L17.491 32.2192C18.9723 33.2129 20.8473 33.7004 22.7223 33.7004C24.5973 33.7004 26.4723 33.2129 27.9535 32.2192L31.7598 29.7254Z" fill="#BFD6FF"/>
<path d="M37.666 12.5129L26.4348 5.14419C24.4098 3.81294 21.0723 3.81294 19.0473 5.14419L7.75979 12.5129C4.14104 14.8567 4.14104 20.1629 7.75979 22.5254L10.7598 24.4754L19.0473 29.8754C21.0723 31.2067 24.4098 31.2067 26.4348 29.8754L34.666 24.4754L37.2348 22.7879V28.5254C37.2348 29.2942 37.8723 29.9317 38.641 29.9317C39.4098 29.9317 40.0473 29.2942 40.0473 28.5254V19.3004C40.7973 16.8817 40.0285 14.0692 37.666 12.5129Z" fill="#BFD6FF"/>
</svg>
