<svg width="55" height="55" viewBox="0 0 55 55" fill="none" xmlns="http://www.w3.org/2000/svg">
<path d="M18.0583 27.6605C18.0583 26.7209 18.8375 25.9417 19.7771 25.9417H32.3354V6.55421C32.3125 5.45421 31.4417 4.58337 30.3417 4.58337C16.8437 4.58337 7.42499 14.0021 7.42499 27.5C7.42499 40.998 16.8437 50.4167 30.3417 50.4167C31.4187 50.4167 32.3125 49.5459 32.3125 48.4459V29.3563H19.7771C18.8146 29.3792 18.0583 28.6 18.0583 27.6605Z" fill="#436BAB"/>
<path d="M47.0708 26.4458L40.5624 19.9146C39.8979 19.25 38.7979 19.25 38.1333 19.9146C37.4687 20.5792 37.4687 21.6792 38.1333 22.3437L41.7083 25.9187H32.3124V29.3562H41.6854L38.1104 32.9312C37.4458 33.5958 37.4458 34.6958 38.1104 35.3604C38.4541 35.7042 38.8895 35.8646 39.3249 35.8646C39.7604 35.8646 40.1958 35.7042 40.5395 35.3604L47.0479 28.8292C47.7354 28.1875 47.7354 27.1104 47.0708 26.4458Z" fill="#436BAB"/>
</svg>
