<svg width="31" height="20" viewBox="0 0 31 20" fill="none" xmlns="http://www.w3.org/2000/svg">
<g id="Property 1=out">
<path id="Vector" d="M22.5234 0H7.52344C3.02344 0 0.0234375 1.76471 0.0234375 5.88235V14.1176C0.0234375 18.2353 3.02344 20 7.52344 20H22.5234C27.0234 20 30.0234 18.2353 30.0234 14.1176V5.88235C30.0234 1.76471 27.0234 0 22.5234 0ZM23.2284 7.16471L18.5334 10.1059C17.5434 10.7294 16.2834 11.0353 15.0234 11.0353C13.7634 11.0353 12.4884 10.7294 11.5134 10.1059L6.81844 7.16471C6.33844 6.85882 6.26344 6.29412 6.63844 5.91765C7.02844 5.54118 7.73344 5.47059 8.21344 5.77647L12.9084 8.71765C14.0484 9.43529 15.9834 9.43529 17.1234 8.71765L21.8184 5.77647C22.2984 5.47059 23.0184 5.52941 23.3934 5.91765C23.7834 6.29412 23.7084 6.85882 23.2284 7.16471Z" fill="#436BAB"/>
</g>
</svg>
