<svg width="45" height="47" viewBox="0 0 45 47" fill="none" xmlns="http://www.w3.org/2000/svg">
<path d="M8.77021 26.7691L22.2039 39.9622C22.5347 40.2871 22.7001 40.4495 22.9046 40.4495C23.1091 40.4495 23.2745 40.2871 23.6053 39.9622L37.039 26.7691C37.4538 26.3617 37.6612 26.158 37.8322 25.9699C40.5973 22.9291 40.9512 18.4014 38.692 14.968C38.5523 14.7556 38.3791 14.5222 38.0327 14.0554L38.0326 14.0553L37.2478 12.9978C33.6855 8.19776 26.28 8.97888 23.7976 14.4165C23.4482 15.1818 22.361 15.1818 22.0116 14.4165C19.5292 8.97888 12.1237 8.19776 8.56141 12.9978L7.77661 14.0553C7.43013 14.5222 7.25689 14.7556 7.11715 14.968C4.85802 18.4014 5.21187 22.9291 7.97698 25.9699C8.14802 26.158 8.35542 26.3617 8.77021 26.7691Z" fill="#BFD6FF" stroke="#BFD6FF" stroke-width="2"/>
</svg>
