<svg width="27" height="29" viewBox="0 0 27 29" fill="none" xmlns="http://www.w3.org/2000/svg">
<g id="news_svgrepo.com" clip-path="url(#clip0_2_7719)">
<g id="Group">
<path id="Vector" d="M1.34766 13.293V20.543V24.168C1.34766 25.5032 2.31767 26.5846 3.51432 26.5846H24.0977C25.2947 26.5846 26.2643 25.5032 26.2643 24.168V20.543V13.293H1.34766Z" fill="#26467B"/>
<path id="Vector_2" d="M0.263672 2.41797V13.293V21.7513V25.3763C0.263672 26.7115 1.23372 27.793 2.43034 27.793H23.0137C24.2108 27.793 25.1803 26.7115 25.1803 25.3763V21.7513V13.293V2.41797H0.263672Z" fill="#436BAB"/>
<path id="Vector_3" d="M2.42969 4.83594V10.8776H3.51302V7.2526L5.67969 10.8776H6.76302V4.83594H5.67969V8.46094L3.51302 4.83594H2.42969ZM7.84635 4.83594V10.8776H12.1797V9.66927H8.92969V8.46094H11.0964V7.2526H8.92969V6.04427H12.1797V4.83594H7.84635ZM13.263 4.83594V10.8776H14.3464L15.4297 8.46094L16.513 10.8776H17.5964V4.83594H16.513V8.46094L15.4297 6.04427L14.3464 8.46094V4.83594H13.263ZM20.3047 4.83594C19.4077 4.83594 18.6797 5.64745 18.6797 6.64844C18.6797 7.64942 19.4077 8.46094 20.3047 8.46094H21.388C21.687 8.46094 21.9297 8.73148 21.9297 9.0651C21.9297 9.39872 21.687 9.66927 21.388 9.66927H20.3383H18.6797V10.8776H20.3383H21.388C22.285 10.8776 23.013 10.0661 23.013 9.0651C23.013 8.06412 22.285 7.2526 21.388 7.2526H20.8464H20.3047C20.0057 7.2526 19.763 6.98206 19.763 6.64844C19.763 6.31482 20.0057 6.04427 20.3047 6.04427H20.8464H21.388H23.013V4.83594H21.388H20.3047Z" fill="#26467B"/>
</g>
<g id="Group_2">
<path id="Vector_4" d="M12.1797 13.293H2.42969V21.7513H12.1797V13.293Z" fill="#26467B"/>
<path id="Vector_5" d="M23.0137 18.125H13.2637V19.3333H23.0137V18.125Z" fill="#26467B"/>
<path id="Vector_6" d="M12.1797 22.9609H2.42969V24.1693H12.1797V22.9609Z" fill="#26467B"/>
<path id="Vector_7" d="M23.0137 20.543H13.2637V21.7513H23.0137V20.543Z" fill="#26467B"/>
<path id="Vector_8" d="M23.0137 15.7109H13.2637V16.9193H23.0137V15.7109Z" fill="#26467B"/>
<path id="Vector_9" d="M23.0137 13.293H13.2637V14.5013H23.0137V13.293Z" fill="#26467B"/>
<path id="Vector_10" d="M0.263672 24.168V25.3763C0.263672 26.7115 1.23372 27.793 2.43034 27.793H23.0137C24.2108 27.793 26.2637 26.7115 26.2637 25.3763V24.168C26.2637 25.5032 24.2108 26.5846 23.0137 26.5846H2.43034C1.23369 26.5846 0.263672 25.5032 0.263672 24.168Z" fill="#26467B"/>
<path id="Vector_11" d="M23.0137 22.9609H13.2637V24.1693H23.0137V22.9609Z" fill="#26467B"/>
</g>
</g>
<defs>
<clipPath id="clip0_2_7719">
<rect width="26" height="29" fill="white" transform="translate(0.263672)"/>
</clipPath>
</defs>
</svg>
