<svg width="31" height="30" viewBox="0 0 31 30" fill="none" xmlns="http://www.w3.org/2000/svg">
<g id="Group">
<path id="Vector" d="M29.9788 20.8169L15.6758 5.63034C15.0889 5.00709 14.2802 4.6753 13.4591 4.69581C12.7528 4.72199 12.0823 5.03397 11.5567 5.54049C11.3616 4.34988 10.8445 3.21019 9.99794 2.29194C8.93293 1.13669 7.51639 0.5 6.01116 0.5C4.50462 0.5 3.08873 1.13669 2.02372 2.29194C0.957405 3.44789 0.371094 4.98374 0.371094 6.61863C0.370442 8.25281 0.956753 9.78795 2.02242 10.9439C2.66938 11.6457 3.44743 12.1529 4.29396 12.4458C4.29201 12.4826 4.28418 12.5194 4.28418 12.5569V18.8941C4.28418 19.2945 4.43157 19.6553 4.67027 19.9199C4.86984 20.1406 4.86984 20.4943 4.67027 20.7165C4.43157 20.9817 4.28418 21.3425 4.28418 21.7437V28.0809C4.28418 28.8973 4.89462 29.5 5.64724 29.5H11.4895C12.2421 29.5 12.7625 28.8973 12.7625 28.0809V21.7437C12.7625 21.3432 12.6151 20.9817 12.3764 20.7172C12.1762 20.4957 12.1769 20.142 12.3764 19.9206C12.6151 19.656 12.7625 19.2952 12.7625 18.8941V14.641L25.7618 28.736C26.0175 29.0133 26.3736 29.1519 26.7081 29.1519C27.042 29.1519 27.3851 29.0147 27.6407 28.7395C28.1501 28.1884 28.1579 27.2921 27.6492 26.7389L23.7772 22.5232L25.8218 20.362L28.1553 22.8381C28.6699 23.3835 29.4968 23.3757 29.9997 22.8168C30.5025 22.258 30.494 21.3631 29.9788 20.8169ZM20.4126 14.619L18.4365 16.7095L15.8565 13.9024L17.8013 11.8466L20.4126 14.619ZM12.0536 9.16187L13.3332 7.75831C13.4088 7.66635 13.5171 7.61117 13.6293 7.60763C13.7441 7.59985 13.8536 7.65007 13.9345 7.73567L16.403 10.3617L14.4758 12.3991L12.0699 9.78017C11.914 9.61109 11.9069 9.34014 12.0536 9.16187ZM2.32764 6.61863C2.32764 5.91756 2.50764 5.25115 2.81938 4.65761L4.62658 6.61863L2.81873 8.57894C2.50764 7.9854 2.32699 7.3197 2.32764 6.61863ZM6.00985 8.1184L7.81835 10.0794C7.27052 10.4176 6.65682 10.6128 6.0105 10.6128C5.36354 10.6128 4.74919 10.4176 4.20201 10.0794L6.00985 8.1184ZM9.20097 4.65761C9.83489 5.8737 9.83489 7.36285 9.20097 8.57823L7.39378 6.61792L9.20097 4.65761ZM7.81835 3.15572L6.0105 5.11815L4.20201 3.15714C4.74984 2.81969 5.36354 2.62373 6.0105 2.62373C6.65747 2.62373 7.27117 2.81898 7.81835 3.15572ZM22.3972 21.0199L19.8178 18.2121L21.8115 16.104L24.4235 18.8771L22.3972 21.0199Z" fill="#436BAB"/>
</g>
</svg>
