<svg width="86" height="99" viewBox="0 0 86 99" fill="none" xmlns="http://www.w3.org/2000/svg">
<g id="Isolation_Mode" clip-path="url(#clip0_1_261)">
<path id="Vector" d="M59.3883 59.3954H26.6149C11.9123 59.3954 0 71.336 0 86.0557V99H86V86.0557C86 71.3327 74.0812 59.3922 59.3883 59.3922V59.3954ZM53.5432 94.4193H32.4536L26.3506 62.3086C26.9478 62.2596 27.5483 62.2171 28.1554 62.2171H57.8446C58.4517 62.2171 59.0522 62.2596 59.6429 62.3086L53.5399 94.4193H53.5432Z" fill="#2A62A4"/>
<path id="Vector_2" d="M39.6629 72.8334L36.3862 94.4193L39.6629 72.8334Z" fill="#616E7D"/>
<path id="Vector_3" d="M46.3306 72.8334H46.3371L49.6138 94.4193H53.5399L59.6429 62.3086C59.0522 62.2596 58.4517 62.2171 57.8446 62.2171H28.1554C27.5483 62.2171 26.9478 62.2596 26.3506 62.3086L32.4536 94.4193H36.3895L39.6662 72.8334H39.7837L36.5592 66.9057H49.4441L46.2131 72.8334H46.3306Z" fill="white"/>
<path id="Vector_4" d="M36.3862 94.4193H49.6137L46.337 72.8334H46.3305H46.2098L49.444 66.9057H36.5559L39.7804 72.8334H39.6629L36.3862 94.4193Z" fill="#AAD4C8"/>
<path id="Vector_5" d="M71.3104 28.3572C71.3104 12.6991 58.6312 0 42.9984 0C27.3656 0 14.6864 12.6991 14.6864 28.3572C14.6864 44.0153 27.3558 56.7274 42.9984 56.7274C58.641 56.7274 71.3104 44.0283 71.3104 28.3572Z" fill="#2A62A4"/>
</g>
<defs>
<clipPath id="clip0_1_261">
<rect width="86" height="99" fill="white"/>
</clipPath>
</defs>
</svg>
