<svg width="43" height="43" viewBox="0 0 43 43" fill="none" xmlns="http://www.w3.org/2000/svg">
<path d="M36.6538 33.7204C36.3913 33.9829 36.0588 34.1054 35.7263 34.1054C35.3938 34.1054 35.0613 33.9829 34.7988 33.7204L26.1363 25.0579L27.0638 24.1304L27.9913 23.2029L36.6538 31.8654C37.1613 32.3729 37.1613 33.2129 36.6538 33.7204Z" fill="#BFD6FF"/>
<path d="M12.0313 16.6404L22.1813 26.7904C22.8638 27.4729 22.8638 28.5754 22.1813 29.2579L20.6063 30.8504C19.1888 32.2504 16.9488 32.2504 15.5488 30.8504L7.95381 23.2554C6.57131 21.8729 6.57131 19.6154 7.95381 18.2154L9.54631 16.6229C10.2288 15.9579 11.3488 15.9579 12.0313 16.6404Z" fill="#BFD6FF"/>
<path d="M33.2413 18.2328L26.5738 24.8828C25.8738 25.5828 24.7538 25.5828 24.0538 24.8828L13.9388 14.7678C13.2388 14.0678 13.2388 12.9478 13.9388 12.2478L20.6063 5.58033C21.9888 4.19783 24.2463 4.19783 25.6463 5.58033L33.2413 13.1753C34.6238 14.5753 34.6238 16.8153 33.2413 18.2328Z" fill="#BFD6FF"/>
<path d="M14.7088 38.4629H4.2088C3.4913 38.4629 2.8963 37.8679 2.8963 37.1504C2.8963 36.4329 3.4913 35.8379 4.2088 35.8379H14.7088C15.4263 35.8379 16.0213 36.4329 16.0213 37.1504C16.0213 37.8679 15.4263 38.4629 14.7088 38.4629Z" fill="#BFD6FF"/>
</svg>
