<svg width="24" height="21" viewBox="0 0 24 21" fill="none" xmlns="http://www.w3.org/2000/svg">
<g id="Group 260">
<path id="Vector" fill-rule="evenodd" clip-rule="evenodd" d="M2.61334 0.5C2.3759 0.5 2.16373 0.64384 2.08215 0.860119L0.631368 4.70631C0.58581 4.82712 0.5625 4.95467 0.5625 5.08332V6.61312C0.5625 7.47877 1.28604 8.18056 2.17857 8.18056C3.0711 8.18056 3.79467 7.47877 3.79467 6.61312C3.79467 7.47877 4.51817 8.18056 5.41072 8.18056C6.30322 8.18056 7.02678 7.47877 7.02678 6.61312C7.02678 7.47877 7.75034 8.18056 8.64283 8.18056C9.53495 8.18056 10.2582 7.47949 10.2589 6.61438C10.2596 7.47949 10.9829 8.18056 11.875 8.18056C12.7676 8.18056 13.4911 7.47877 13.4911 6.61312C13.4911 7.47877 14.2146 8.18056 15.1072 8.18056C15.9992 8.18056 16.7225 7.47949 16.7232 6.61438C16.7239 7.47949 17.4472 8.18056 18.3393 8.18056C19.2318 8.18056 19.9553 7.47877 19.9553 6.61312C19.9553 7.47877 20.6789 8.18056 21.5714 8.18056C22.4639 8.18056 23.1875 7.47877 23.1875 6.61312V5.08332C23.1875 4.95467 23.1642 4.82712 23.1186 4.70631L21.6679 0.860119C21.5863 0.643835 21.3741 0.5 21.1367 0.5H2.61334Z" fill="#436BAB"/>
<path id="Vector_2" fill-rule="evenodd" clip-rule="evenodd" d="M2.44835 8.99178V12.5703H1.50564C1.3321 12.5703 1.19141 12.6931 1.19141 12.8446V13.3932C1.19141 13.5447 1.3321 13.6675 1.50564 13.6675H22.2452C22.4187 13.6675 22.5595 13.5447 22.5595 13.3932V12.8446C22.5595 12.6931 22.4187 12.5703 22.2452 12.5703H21.3025V8.99178C20.8227 8.94657 20.3964 8.78166 20.0456 8.53616V12.5703H3.70529V8.53616C3.35448 8.78166 2.92813 8.94657 2.44835 8.99178ZM20.3437 7.63281C20.4048 7.70199 20.472 7.76596 20.5445 7.82395C20.7581 7.99473 21.0176 8.1134 21.3025 8.15975V7.63281H20.3437ZM2.44835 8.15975V7.63281H3.40715C3.34606 7.70199 3.27888 7.76596 3.20641 7.82395C2.99282 7.99473 2.73322 8.1134 2.44835 8.15975ZM2.13411 14.2161C1.96057 14.2161 1.81988 14.339 1.81988 14.4905V19.7023C1.81988 20.0053 2.10126 20.2509 2.44835 20.2509H21.3025C21.6496 20.2509 21.931 20.0053 21.931 19.7023V14.4905C21.931 14.339 21.7903 14.2161 21.6168 14.2161H2.13411Z" fill="#436BAB"/>
<path id="Vector_3" d="M4.33398 11.1962C4.33398 11.0447 4.4747 10.9219 4.64822 10.9219H6.53364C6.70716 10.9219 6.84787 11.0447 6.84787 11.1962V12.2934C6.84787 12.4449 6.70716 12.5677 6.53364 12.5677H4.64822C4.4747 12.5677 4.33398 12.4449 4.33398 12.2934V11.1962Z" fill="#436BAB"/>
<path id="Vector_4" d="M5.58984 11.747C5.58984 11.5955 5.73056 11.4727 5.90408 11.4727H7.7895C7.96302 11.4727 8.10373 11.5955 8.10373 11.747V12.2956C8.10373 12.447 7.96302 12.5699 7.7895 12.5699H5.90408C5.73056 12.5699 5.58984 12.447 5.58984 12.2956V11.747Z" fill="#436BAB"/>
<path id="Vector_5" d="M10.6178 11.7448C10.6178 12.1993 10.1958 12.5677 9.67513 12.5677C9.1545 12.5677 8.73242 12.1993 8.73242 11.7448C8.73242 11.2903 9.1545 10.9219 9.67513 10.9219C10.1958 10.9219 10.6178 11.2903 10.6178 11.7448Z" fill="#436BAB"/>
</g>
</svg>
