<svg width="31" height="29" viewBox="0 0 31 29" fill="none" xmlns="http://www.w3.org/2000/svg">
<g id="government-14_svgrepo.com" clip-path="url(#clip0_2_7706)">
<path id="government" d="M15.6875 0.00010032C15.1518 0.00672889 14.6161 0.340693 14.6161 1.03581V9.38626C9.05781 9.7258 7.11607 12.5542 7.11607 14.5001H24.2589C24.2589 12.5542 22.3172 9.7258 16.7589 9.38626V1.03581C16.7589 0.314214 16.2232 -0.00651934 15.6875 0.00010032ZM17.8304 0.00010032V6.21439H26.4018L22.1161 3.10724L26.4018 0.00010032H17.8304ZM2.83036 16.5715V18.643H4.97321V26.9287H2.83036L0.6875 29.0001H30.6875L28.5446 26.9287H26.4018V18.643H28.5446V16.5715H2.83036ZM9.25893 18.643H11.4018V26.9287H9.25893V18.643ZM13.5446 18.643H17.8304V26.9287H13.5446V18.643ZM19.9732 18.643H22.1161V26.9287H19.9732V18.643Z" fill="#436BAB"/>
</g>
<defs>
<clipPath id="clip0_2_7706">
<rect width="30" height="29" fill="white" transform="translate(0.6875)"/>
</clipPath>
</defs>
</svg>
