<svg width="31" height="20" viewBox="0 0 31 20" fill="none" xmlns="http://www.w3.org/2000/svg">
<g id="Group">
<path id="Vector" d="M29.8482 18.7784V8.35155H27.4347V6.88153H27.9207V6.02626H26.1437V5.33449H25.8428C25.8849 5.10494 25.903 4.72604 25.6382 4.45091C25.2274 4.02327 25.0514 4.05314 25.0243 3.77329C24.9942 3.5013 25.1401 3.22773 25.1401 3.22773L25.0875 2.83154C25.0875 2.83154 25.7525 1.76087 25.6096 1.72942C25.4636 1.69955 24.8828 2.67903 24.8828 2.67903L24.5006 2.58627C24.5006 2.58627 24.12 1.57535 23.9424 1.63666C23.7709 1.69798 24.2704 2.76865 24.2704 2.76865C24.2704 2.76865 24.0944 3.13655 24.1786 3.38024C24.2704 3.62707 24.5006 3.74971 24.4119 3.84089C24.3216 3.93208 24.2674 4.20722 24.1501 4.1176C24.0327 4.0217 23.8567 3.99497 23.8235 4.1176C23.7965 4.23866 23.5632 4.32985 23.5948 4.6946C23.6084 4.90842 23.6866 5.15997 23.7468 5.33449H23.497V6.02783H22.838L15.9707 2.97146V1.58478L15.411 0.613159V0.0833267L15.3297 0H15.3222L15.2409 0.0833267V0.613159L14.6842 1.58478V2.97146L7.78533 6.02626H6.73507V5.33449H6.48079C6.54248 5.1584 6.61922 4.90685 6.63577 4.6946C6.66435 4.32985 6.43113 4.23709 6.40254 4.1176C6.37095 3.99497 6.1949 4.0217 6.08055 4.1176C5.96469 4.20564 5.90149 3.93051 5.81873 3.83932C5.73146 3.74813 5.96469 3.62707 6.05346 3.37866C6.13772 3.13655 5.96469 2.77022 5.96469 2.77022C5.96469 2.77022 6.45822 1.69955 6.28367 1.63824C6.11064 1.57535 5.73146 2.58785 5.73146 2.58785L5.34928 2.67746C5.34928 2.67746 4.76547 1.69955 4.61801 1.72785C4.47356 1.76087 5.14615 2.83154 5.14615 2.83154L5.08446 3.22773C5.08446 3.22773 5.23492 3.5013 5.20182 3.77329C5.17173 4.05157 4.99568 4.0217 4.59093 4.44934C4.3231 4.72447 4.34115 5.1018 4.38479 5.33449H4.08386V6.02783H2.69806V6.88311H3.10582V8.35155H0.690837V18.7784H0.269531V20H30.2695V18.7784H29.8482ZM6.38298 14.4438H4.79105V11.5824H6.38449L6.38298 14.4438ZM22.5235 14.4438H20.9346V11.5824H22.5235V14.4438ZM21.7351 15.5365C22.4272 15.5365 22.5235 16.3085 22.5235 16.3085V18.7768H20.9346V16.3085C20.9361 16.3085 21.0384 15.5365 21.7351 15.5365ZM19.296 14.4438H17.7101V11.5824H19.296V14.4438ZM18.5046 15.5365C19.1967 15.5365 19.293 16.3085 19.293 16.3085V18.7768H17.7086V16.3085C17.7101 16.3085 17.8079 15.5365 18.5046 15.5365ZM16.0655 14.4438H14.4766V11.5824H16.067L16.0655 14.4438ZM15.2725 15.5365C15.9677 15.5365 16.0655 16.3085 16.0655 16.3085V18.7768H14.4766V16.3085C14.4766 16.3085 14.5804 15.5365 15.2725 15.5365ZM12.838 14.4438H11.2506V11.5824H12.838V14.4438ZM12.045 15.5365C12.7402 15.5365 12.835 16.3085 12.835 16.3085V18.7768H11.2506V16.3085C11.2506 16.3085 11.3529 15.5365 12.045 15.5365ZM9.61049 14.4438H8.02006V11.5824H9.61199L9.61049 14.4438ZM8.81602 15.5365C9.51118 15.5365 9.61049 16.3085 9.61049 16.3085V18.7768H8.02006V16.3085C8.02006 16.3085 8.12388 15.5365 8.81602 15.5365ZM24.1636 18.7784V16.31C24.1636 16.31 24.2674 15.5381 24.9611 15.5381C25.6562 15.5381 25.7525 16.31 25.7525 16.31V18.7784H24.1636ZM24.1636 14.4438V11.5824H25.7555V14.4438H24.1636ZM27.4739 11.5698H28.9499V14.5429H27.4739V11.5698ZM22.5115 9.1235C22.8591 8.22262 23.813 7.57645 24.937 7.57645C26.061 7.57645 27.0149 8.2242 27.358 9.1235H22.5115ZM3.47748 6.43346H27.0646V7.06077H3.47748V6.43346ZM5.60507 7.57645C6.72605 7.57645 7.68 8.2242 8.02457 9.1235H3.17805C3.52412 8.22262 4.47808 7.57645 5.60507 7.57645ZM1.58611 11.5698H3.06821V14.5429H1.58611V11.5698ZM4.79105 16.3085C4.79105 16.3085 4.89336 15.5365 5.58702 15.5365C6.28067 15.5365 6.38148 16.3085 6.38148 16.3085V18.7768H4.79105V16.3085Z" fill="#436BAB"/>
</g>
</svg>
