<svg width="30" height="29" viewBox="0 0 30 29" fill="none" xmlns="http://www.w3.org/2000/svg">
<g id="parliament_svgrepo.com" clip-path="url(#clip0_2_7742)">
<path id="Vector" d="M15 0V2.61C17.4 2.61 16.3805 3.48 18.6 3.48H19.8V1.16H18.6C16.3805 1.16 17.4 0 15 0ZM15 4.06C10.9172 4.06 7.55156 7.14578 7.2375 11.02H7.2C7.18125 11.02 7.1625 11.02 7.14375 11.02C7.125 11.02 7.10625 11.02 7.0875 11.02C6.75703 11.0495 6.51328 11.3349 6.54375 11.6544C6.57422 11.9738 6.86953 12.2095 7.2 12.18V15.08H8.4V12.18H9.6V15.08H10.8V12.18H12V15.08H13.2V12.18H14.4V15.08H15.6V12.18H16.8V15.08H18V12.18H19.2V15.08H20.4V12.18H21.6V15.08H22.8V12.18C23.0156 12.1823 23.2172 12.0735 23.3273 11.8923C23.4352 11.711 23.4352 11.489 23.3273 11.3077C23.2172 11.1265 23.0156 11.0177 22.8 11.02H22.7625C22.4484 7.14578 19.0828 4.06 15 4.06ZM15 5.22C18.4195 5.22 21.15 7.79149 21.4688 11.02H8.53125C8.85 7.79149 11.5805 5.22 15 5.22ZM0 15.66V29H30V15.66H0ZM1.2 16.82H28.8V27.84H1.2V16.82ZM3 18.56V20.3H5.4V18.56H3ZM7.2 18.56V20.3H9.6V18.56H7.2ZM11.4 18.56V20.3H13.8V18.56H11.4ZM15.6 18.56V20.3H18V18.56H15.6ZM19.8 18.56V20.3H22.2V18.56H19.8ZM24 18.56V20.3H26.4V18.56H24ZM3 21.46V23.2H5.4V21.46H3ZM7.2 21.46V23.2H9.6V21.46H7.2ZM11.4 21.46V23.2H13.8V21.46H11.4ZM15.6 21.46V23.2H18V21.46H15.6ZM19.8 21.46V23.2H22.2V21.46H19.8ZM24 21.46V23.2H26.4V21.46H24ZM3 24.36V26.1H5.4V24.36H3ZM7.2 24.36V26.1H9.6V24.36H7.2ZM11.4 24.36V26.1H13.8V24.36H11.4ZM15.6 24.36V26.1H18V24.36H15.6ZM19.8 24.36V26.1H22.2V24.36H19.8ZM24 24.36V26.1H26.4V24.36H24Z" fill="#436BAB"/>
</g>
<defs>
<clipPath id="clip0_2_7742">
<rect width="30" height="29" fill="white"/>
</clipPath>
</defs>
</svg>
