<svg width="24" height="15" viewBox="0 0 24 15" fill="none" xmlns="http://www.w3.org/2000/svg">
<path d="M4.77055 7.2487C5.7732 7.2487 6.58602 5.89622 6.58602 4.22786C6.58602 2.5595 5.7732 1.20703 4.77055 1.20703C3.76789 1.20703 2.95508 2.5595 2.95508 4.22786C2.95508 5.89622 3.76789 7.2487 4.77055 7.2487Z" fill="#436BAB"/>
<path d="M4.77123 8.76172C2.95213 8.76172 1.4707 10.7917 1.4707 13.293C1.4707 13.4621 1.55058 13.5951 1.65225 13.5951H7.8902C7.99187 13.5951 8.07175 13.4621 8.07175 13.293C8.07175 10.7917 6.59033 8.76172 4.77123 8.76172Z" fill="#436BAB"/>
<path d="M11.8506 7.2487C12.8533 7.2487 13.6661 5.89622 13.6661 4.22786C13.6661 2.5595 12.8533 1.20703 11.8506 1.20703C10.848 1.20703 10.0352 2.5595 10.0352 4.22786C10.0352 5.89622 10.848 7.2487 11.8506 7.2487Z" fill="#436BAB"/>
<path d="M11.8513 8.76172C10.0322 8.76172 8.55078 10.7917 8.55078 13.293C8.55078 13.4621 8.63066 13.5951 8.73233 13.5951H14.9703C15.0719 13.5951 15.1518 13.4621 15.1518 13.293C15.1518 10.7917 13.6704 8.76172 11.8513 8.76172Z" fill="#436BAB"/>
<path d="M18.9307 7.2487C19.9334 7.2487 20.7462 5.89622 20.7462 4.22786C20.7462 2.5595 19.9334 1.20703 18.9307 1.20703C17.928 1.20703 17.1152 2.5595 17.1152 4.22786C17.1152 5.89622 17.928 7.2487 18.9307 7.2487Z" fill="#436BAB"/>
<path d="M18.9314 8.76172C17.1123 8.76172 15.6309 10.7917 15.6309 13.293C15.6309 13.4621 15.7107 13.5951 15.8124 13.5951H22.0504C22.152 13.5951 22.2319 13.4621 22.2319 13.293C22.2319 10.7917 20.7505 8.76172 18.9314 8.76172Z" fill="#436BAB"/>
</svg>
