<svg width="85" height="32" viewBox="0 0 85 32" fill="none" xmlns="http://www.w3.org/2000/svg">
<path d="M16.4999 15.5941C20.1818 15.5941 23.1666 12.7026 23.1666 9.13579C23.1666 5.56895 20.1818 2.67746 16.4999 2.67746C12.818 2.67746 9.83325 5.56895 9.83325 9.13579C9.83325 12.7026 12.818 15.5941 16.4999 15.5941Z" fill="#B10101" fill-opacity="0.72"/>
<path d="M16.4999 18.8233C9.81988 18.8233 4.37988 23.1633 4.37988 28.5108C4.37988 28.8724 4.67322 29.1566 5.04655 29.1566H27.9532C28.3266 29.1566 28.6199 28.8724 28.6199 28.5108C28.6199 23.1633 23.1799 18.8233 16.4999 18.8233Z" fill="#B10101" fill-opacity="0.72"/>
<path d="M42.4999 15.5941C46.1818 15.5941 49.1666 12.7026 49.1666 9.13579C49.1666 5.56895 46.1818 2.67746 42.4999 2.67746C38.818 2.67746 35.8333 5.56895 35.8333 9.13579C35.8333 12.7026 38.818 15.5941 42.4999 15.5941Z" fill="#D6DA11"/>
<path d="M42.4999 18.8233C35.8199 18.8233 30.3799 23.1633 30.3799 28.5108C30.3799 28.8724 30.6732 29.1566 31.0465 29.1566H53.9532C54.3266 29.1566 54.6199 28.8724 54.6199 28.5108C54.6199 23.1633 49.1799 18.8233 42.4999 18.8233Z" fill="#D6DA11"/>
<path d="M68.4999 15.5941C72.1818 15.5941 75.1666 12.7026 75.1666 9.13579C75.1666 5.56895 72.1818 2.67746 68.4999 2.67746C64.818 2.67746 61.8333 5.56895 61.8333 9.13579C61.8333 12.7026 64.818 15.5941 68.4999 15.5941Z" fill="#4074B1"/>
<path d="M68.4999 18.8233C61.8199 18.8233 56.3799 23.1633 56.3799 28.5108C56.3799 28.8724 56.6732 29.1566 57.0465 29.1566H79.9532C80.3266 29.1566 80.6199 28.8724 80.6199 28.5108C80.6199 23.1633 75.1799 18.8233 68.4999 18.8233Z" fill="#4074B1"/>
</svg>
