<svg width="40" height="37" viewBox="0 0 40 37" fill="none" xmlns="http://www.w3.org/2000/svg">
<path d="M38.6016 25.587L26.6016 4.46702C24.9891 1.62535 22.7578 0.0670166 20.3016 0.0670166C17.8453 0.0670166 15.6141 1.62535 14.0016 4.46702L2.00156 25.587C0.482813 28.282 0.314063 30.867 1.53281 32.902C2.75156 34.937 5.15156 36.0553 8.30156 36.0553H32.3016C35.4516 36.0553 37.8516 34.937 39.0703 32.902C40.2891 30.867 40.1203 28.2637 38.6016 25.587ZM18.8953 12.9003C18.8953 12.1487 19.5328 11.5253 20.3016 11.5253C21.0703 11.5253 21.7078 12.1487 21.7078 12.9003V22.067C21.7078 22.8187 21.0703 23.442 20.3016 23.442C19.5328 23.442 18.8953 22.8187 18.8953 22.067V12.9003ZM21.6328 28.8687C21.5391 28.942 21.4453 29.0153 21.3516 29.0887C21.2391 29.162 21.1266 29.217 21.0141 29.2537C20.9016 29.3087 20.7891 29.3453 20.6578 29.3637C20.5453 29.382 20.4141 29.4003 20.3016 29.4003C20.1891 29.4003 20.0578 29.382 19.9266 29.3637C19.8141 29.3453 19.7016 29.3087 19.5891 29.2537C19.4766 29.217 19.3641 29.162 19.2516 29.0887C19.1578 29.0153 19.0641 28.942 18.9703 28.8687C18.6328 28.5203 18.4266 28.0437 18.4266 27.567C18.4266 27.0903 18.6328 26.6137 18.9703 26.2654C19.0641 26.192 19.1578 26.1187 19.2516 26.0453C19.3641 25.972 19.4766 25.917 19.5891 25.8803C19.7016 25.8253 19.8141 25.7887 19.9266 25.7703C20.1703 25.7153 20.4328 25.7153 20.6578 25.7703C20.7891 25.7887 20.9016 25.8253 21.0141 25.8803C21.1266 25.917 21.2391 25.972 21.3516 26.0453C21.4453 26.1187 21.5391 26.192 21.6328 26.2654C21.9703 26.6137 22.1766 27.0903 22.1766 27.567C22.1766 28.0437 21.9703 28.5203 21.6328 28.8687Z" fill="#BFD6FF"/>
</svg>
