<svg width="45" height="31" viewBox="0 0 45 31" fill="none" xmlns="http://www.w3.org/2000/svg">
<path d="M43.7364 17.0563C43.1694 15.4894 42.2317 14.1228 40.9887 13.0113C39.3967 11.499 37.2814 10.4604 34.9044 10.0049C33.705 5.44967 30.3467 2.16993 25.5709 0.94914C20.3808 -0.399198 14.362 0.912698 10.5893 4.21066C7.27464 7.10776 6.18427 11.0981 7.4709 15.3436C3.10945 16.2364 0.95053 19.2793 0.71065 22.1764C0.688843 22.3768 0.688843 22.559 0.688843 22.7412C0.688843 26.1667 3.37114 30.0113 9.34633 30.3757H31.9823C35.0789 30.3757 38.0447 29.41 40.3126 27.6791C43.8672 25.0735 45.1757 21.0103 43.7364 17.0563Z" fill="#BFD6FF"/>
</svg>
