<svg width="44" height="44" viewBox="0 0 44 44" fill="none" xmlns="http://www.w3.org/2000/svg">
<path d="M16.7565 3.96301C12.0895 3.96301 8.29535 7.75719 8.29535 12.4242C8.29535 17.0022 11.8758 20.7073 16.5428 20.8676C16.6853 20.8498 16.8278 20.8498 16.9347 20.8676C16.9703 20.8676 16.9881 20.8676 17.0237 20.8676C17.0415 20.8676 17.0415 20.8676 17.0594 20.8676C21.6195 20.7073 25.1999 17.0022 25.2177 12.4242C25.2177 7.75719 21.4236 3.96301 16.7565 3.96301Z" fill="#BFD6FF"/>
<path d="M25.8056 25.6059C20.8358 22.2927 12.7309 22.2927 7.72542 25.6059C5.46316 27.12 4.21625 29.1685 4.21625 31.3595C4.21625 33.5505 5.46316 35.5812 7.7076 37.0775C10.2014 38.7519 13.479 39.5891 16.7566 39.5891C20.0342 39.5891 23.3118 38.7519 25.8056 37.0775C28.0501 35.5634 29.297 33.5327 29.297 31.3239C29.2792 29.1329 28.0501 27.1022 25.8056 25.6059Z" fill="#BFD6FF"/>
<path d="M36.3331 13.4751C36.6181 16.9308 34.1599 19.959 30.7576 20.3687C30.7398 20.3687 30.7398 20.3687 30.722 20.3687H30.6685C30.5616 20.3687 30.4548 20.3687 30.3657 20.4043C28.6378 20.4934 27.0525 19.9412 25.859 18.9258C27.6938 17.287 28.7447 14.8288 28.531 12.1569C28.4063 10.714 27.9075 9.39587 27.1594 8.27365C27.8363 7.9352 28.62 7.72145 29.4216 7.6502C32.913 7.34737 36.0303 9.94808 36.3331 13.4751Z" fill="#BFD6FF"/>
<path d="M39.8956 29.9523C39.7531 31.6801 38.6487 33.1764 36.7962 34.1918C35.0149 35.1715 32.7704 35.6346 30.5438 35.5812C31.8263 34.4233 32.5745 32.9805 32.717 31.4485C32.8951 29.2397 31.8441 27.12 29.7422 25.4277C28.5487 24.4837 27.1593 23.7355 25.6452 23.1833C29.5819 22.0433 34.5339 22.8092 37.5799 25.2674C39.2187 26.5856 40.0559 28.2422 39.8956 29.9523Z" fill="#BFD6FF"/>
</svg>
