<svg width="31" height="30" viewBox="0 0 31 30" fill="none" xmlns="http://www.w3.org/2000/svg">
<g id="natural_svgrepo.com">
<path id="Vector" d="M18.3817 12.6376C18.2273 12.7261 18.0512 12.7728 17.8717 12.7728C17.6922 12.7728 17.5161 12.7261 17.3617 12.6376C16.4303 12.0217 15.6401 11.227 15.0404 10.303C14.4406 9.37896 14.0442 8.34543 13.8757 7.26681C13.7897 6.20465 13.379 5.19118 12.6957 4.35521L12.6577 4.30301C12.5917 4.22352 12.5526 4.12632 12.5457 4.02461C12.5419 3.96019 12.5523 3.89572 12.5761 3.83543C12.5999 3.77514 12.6366 3.72038 12.6838 3.67475C12.731 3.62912 12.7876 3.59365 12.85 3.57065C12.9123 3.54764 12.979 3.53764 13.0457 3.54128C13.0844 3.5443 13.1226 3.55143 13.1597 3.56255C14.1964 3.93838 15.1269 4.54509 15.8757 5.33348L17.4357 2.31748C17.4766 2.23851 17.5394 2.1721 17.6171 2.12568C17.6948 2.07927 17.7843 2.05469 17.8757 2.05469C17.967 2.05469 18.0566 2.07927 18.1343 2.12568C18.212 2.1721 18.2748 2.23851 18.3157 2.31748L19.8757 5.33348C20.6095 4.54926 21.5281 3.94773 22.5537 3.57995C22.6173 3.5548 22.685 3.54104 22.7537 3.53935C23.1037 3.55675 23.1777 3.76941 23.1957 4.02075C23.1874 4.11648 23.158 4.20941 23.1097 4.29335C22.5366 5.21437 22.1199 6.21827 21.8757 7.26681C21.7058 8.34592 21.3079 9.37966 20.7068 10.3037C20.1057 11.2277 19.3142 12.0221 18.3817 12.6376ZM10.8757 15.9668H13.4537C13.5863 15.9668 13.7135 15.9159 13.8072 15.8252C13.901 15.7346 13.9537 15.6117 13.9537 15.4835C13.9488 15.3761 13.9057 15.2737 13.8317 15.1935L10.2757 10.6211C10.2278 10.5659 10.168 10.5215 10.1004 10.491C10.0329 10.4605 9.95924 10.4447 9.88469 10.4447C9.81013 10.4447 9.73648 10.4605 9.66893 10.491C9.60137 10.5215 9.54156 10.5659 9.49369 10.6211L5.91169 15.1722C5.83676 15.2604 5.79327 15.3695 5.78769 15.4835C5.78769 15.6117 5.84037 15.7346 5.93413 15.8252C6.0279 15.9159 6.15508 15.9668 6.28769 15.9668H8.87569L3.54569 20.9935C3.47702 21.0778 3.43656 21.1803 3.42969 21.2873C3.43021 21.3508 3.44366 21.4136 3.46927 21.472C3.49489 21.5305 3.53216 21.5835 3.57896 21.628C3.62576 21.6725 3.68117 21.7077 3.74204 21.7315C3.8029 21.7553 3.86803 21.7673 3.93369 21.7668H6.87569L3.74569 24.7925C3.67461 24.8614 3.62624 24.9492 3.60667 25.0446C3.58709 25.1401 3.59719 25.239 3.63569 25.329C3.67418 25.4189 3.73936 25.4958 3.823 25.55C3.90664 25.6042 4.005 25.6332 4.10569 25.6335H8.87569V27.5668H10.8757V25.6335H15.6457C15.7464 25.6332 15.8447 25.6042 15.9284 25.55C16.012 25.4958 16.0772 25.4189 16.1157 25.329C16.1542 25.239 16.1643 25.1401 16.1447 25.0446C16.1251 24.9492 16.0768 24.8614 16.0057 24.7925L12.8757 21.7668H15.8177C15.9503 21.7668 16.0775 21.7159 16.1712 21.6252C16.265 21.5346 16.3177 21.4117 16.3177 21.2835C16.3154 21.1772 16.2743 21.0752 16.2017 20.9954L10.8757 15.9668ZM29.5657 23.2129C29.5657 23.3422 29.5126 23.4661 29.4181 23.5575C29.3235 23.6488 29.1954 23.7001 29.0617 23.7001H18.6917C18.6056 23.7004 18.5209 23.6793 18.4456 23.6389C18.3703 23.5985 18.307 23.5402 18.2617 23.4694C18.2163 23.3987 18.1905 23.3179 18.1867 23.2347C18.1828 23.1516 18.2011 23.0689 18.2397 22.9945L23.4157 12.9721C23.4575 12.891 23.5219 12.8229 23.6015 12.7752C23.6812 12.7276 23.773 12.7024 23.8667 12.7024C23.9604 12.7024 24.0522 12.7276 24.1319 12.7752C24.2115 12.8229 24.2759 12.891 24.3177 12.9721L29.5177 22.9945C29.551 23.0627 29.5675 23.1375 29.5657 23.2129ZM26.3757 19.8335L23.8757 15.0001L21.3757 19.8335H26.3757Z" fill="#436BAB"/>
</g>
</svg>
