<svg width="44" height="45" viewBox="0 0 44 45" fill="none" xmlns="http://www.w3.org/2000/svg">
<path d="M34.6892 8.90706L10.448 33.7121L8.47714 32.2087C7.31256 31.3104 6.36298 29.3671 6.36298 27.8637V13.0321C6.36298 10.9604 7.90381 8.68706 9.78506 7.95372L19.6392 4.17706C20.6605 3.79206 22.3446 3.79206 23.3659 4.17706L33.2201 7.95372C33.7396 8.15539 34.2413 8.48539 34.6892 8.90706Z" fill="#BFD6FF"/>
<path d="M36.6421 27.8638C36.6421 29.3671 35.6926 31.3104 34.528 32.2088L24.6738 39.7438C22.918 41.0638 20.0871 41.0638 18.3313 39.7438L15.178 37.3421C14.3001 36.6821 14.2105 35.3621 14.9809 34.5738L33.5784 15.5438C34.7071 14.3888 36.6421 15.2138 36.6421 16.8454V27.8638Z" fill="#BFD6FF"/>
<path d="M39.0071 4.48867C38.4696 3.93867 37.5917 3.93867 37.0542 4.48867L3.99797 38.332C3.46047 38.882 3.46047 39.7803 3.99797 40.3303C4.26672 40.587 4.60714 40.7337 4.96547 40.7337C5.32381 40.7337 5.66422 40.587 5.93297 40.312L39.0071 6.46867C39.5626 5.91867 39.5626 5.03867 39.0071 4.48867Z" fill="#BFD6FF"/>
</svg>
