<svg width="53" height="52" viewBox="0 0 53 52" fill="none" xmlns="http://www.w3.org/2000/svg">
<g id="vuesax/bold/courthouse">
<g id="vuesax/bold/profile-2user">
<g id="profile-2user">
<path id="Vector" d="M21.2566 14.963C16.5896 14.963 12.7954 18.7572 12.7954 23.4242C12.7954 28.0022 16.3758 31.7073 21.0428 31.8676C21.1853 31.8498 21.3279 31.8498 21.4347 31.8676C21.4704 31.8676 21.4882 31.8676 21.5238 31.8676C21.5416 31.8676 21.5416 31.8676 21.5594 31.8676C26.1196 31.7073 29.7 28.0022 29.7178 23.4242C29.7178 18.7572 25.9236 14.963 21.2566 14.963Z" fill="#BFD6FF"/>
<path id="Vector_2" d="M30.3057 36.6059C25.3359 33.2927 17.2309 33.2927 12.2255 36.6059C9.96322 38.12 8.71631 40.1685 8.71631 42.3595C8.71631 44.5505 9.96322 46.5812 12.2077 48.0775C14.7015 49.7519 17.9791 50.5891 21.2567 50.5891C24.5343 50.5891 27.8119 49.7519 30.3057 48.0775C32.5501 46.5634 33.7971 44.5327 33.7971 42.3239C33.7792 40.1329 32.5501 38.1022 30.3057 36.6059Z" fill="#BFD6FF"/>
<path id="Vector_3" d="M40.833 24.4751C41.118 27.9308 38.6598 30.959 35.2575 31.3687C35.2397 31.3687 35.2397 31.3687 35.2218 31.3687H35.1684C35.0615 31.3687 34.9546 31.3687 34.8656 31.4043C33.1377 31.4934 31.5524 30.9412 30.3589 29.9258C32.1936 28.287 33.2446 25.8288 33.0308 23.1569C32.9062 21.714 32.4074 20.3959 31.6592 19.2737C32.3361 18.9352 33.1199 18.7214 33.9215 18.6502C37.4128 18.3474 40.5301 20.9481 40.833 24.4751Z" fill="#BFD6FF"/>
<path id="Vector_4" d="M44.3957 40.9523C44.2532 42.6801 43.1488 44.1764 41.2962 45.1918C39.5149 46.1715 37.2705 46.6346 35.0438 46.5812C36.3264 45.4233 37.0745 43.9805 37.217 42.4485C37.3952 40.2397 36.3442 38.12 34.2423 36.4277C33.0488 35.4837 31.6594 34.7355 30.1453 34.1833C34.0819 33.0433 39.034 33.8092 42.08 36.2674C43.7188 37.5856 44.556 39.2422 44.3957 40.9523Z" fill="#BFD6FF"/>
</g>
</g>
</g>
</svg>
