<svg width="23" height="21" viewBox="0 0 23 21" fill="none" xmlns="http://www.w3.org/2000/svg">
<g id="&#240;&#159;&#166;&#134; icon &#34;chart 1&#34;">
<g id="Group">
<path id="Vector" d="M21.7326 20.2011H1.26744C0.847907 20.2011 0.5 19.8943 0.5 19.5244C0.5 19.1544 0.847907 18.8477 1.26744 18.8477H21.7326C22.1521 18.8477 22.5 19.1544 22.5 19.5244C22.5 19.8943 22.1521 20.2011 21.7326 20.2011Z" fill="#BFD6FF"/>
<path id="Vector_2" d="M13.8018 20.2001H9.19713C8.77759 20.2001 8.42969 19.8934 8.42969 19.5234V3.2821C8.42969 1.73015 9.40178 0.800781 11.039 0.800781H11.9599C13.5971 0.800781 14.5692 1.73015 14.5692 3.2821V19.5234C14.5692 19.8934 14.2213 20.2001 13.8018 20.2001ZM9.96457 18.8467H13.0343V3.2821C13.0343 2.24445 12.4818 2.15423 11.9599 2.15423H11.039C10.5171 2.15423 9.96457 2.24445 9.96457 3.2821V18.8467Z" fill="#BFD6FF"/>
<path id="Vector_3" d="M6.3839 20.2004H2.29088C1.87134 20.2004 1.52344 19.8937 1.52344 19.5237V8.69616C1.52344 7.14421 2.4239 6.21484 3.92809 6.21484H4.74669C6.25088 6.21484 7.15134 7.14421 7.15134 8.69616V19.5237C7.15134 19.8937 6.80344 20.2004 6.3839 20.2004ZM3.05832 18.847H5.61646V8.69616C5.61646 7.56829 5.05367 7.56829 4.74669 7.56829H3.92809C3.62111 7.56829 3.05832 7.56829 3.05832 8.69616V18.847Z" fill="#BFD6FF"/>
<path id="Vector_4" d="M20.7101 20.2007H16.6171C16.1975 20.2007 15.8496 19.8939 15.8496 19.5239V13.2079C15.8496 11.6559 16.7501 10.7266 18.2543 10.7266H19.0729C20.5771 10.7266 21.4775 11.6559 21.4775 13.2079V19.5239C21.4775 19.8939 21.1296 20.2007 20.7101 20.2007ZM17.3845 18.8472H19.9426V13.2079C19.9426 12.08 19.3798 12.08 19.0729 12.08H18.2543C17.9473 12.08 17.3845 12.08 17.3845 13.2079V18.8472Z" fill="#BFD6FF"/>
</g>
</g>
</svg>
