<svg width="25" height="19" viewBox="0 0 25 19" fill="none" xmlns="http://www.w3.org/2000/svg">
<g id="&#240;&#159;&#166;&#134; icon &#34;favorite chart&#34;">
<g id="Group">
<path id="Vector" d="M21.0443 12.2725L21.4283 12.8853C21.6203 13.187 22.1123 13.4698 22.5203 13.5264L23.0363 13.5924C24.6083 13.7998 24.9683 14.7048 23.8523 15.591L23.3723 15.9681C23.0483 16.2227 22.8803 16.7129 22.9763 17.0711L23.0363 17.2974C23.4683 18.787 22.4603 19.3621 20.8163 18.5796L20.4683 18.4099C20.0483 18.2119 19.3523 18.2119 18.9323 18.4099L18.5843 18.5796C16.9283 19.3621 15.9323 18.787 16.3643 17.2974L16.4243 17.0711C16.5203 16.7223 16.3523 16.2227 16.0283 15.9681L15.5483 15.591C14.4323 14.6954 14.7923 13.7998 16.3643 13.5924L16.8803 13.5264C17.3003 13.4698 17.7803 13.187 17.9723 12.8853L18.3563 12.2725C19.1003 11.0941 20.3003 11.0941 21.0443 12.2725Z" fill="#BFD6FF"/>
<path id="Vector_2" d="M17.528 0.0722656H7.472C3.104 0.0722656 0.5 2.11805 0.5 5.54969V13.45C0.5 16.8816 3.104 18.9274 7.472 18.9274H13.808C14.228 18.9274 14.528 18.588 14.48 18.2581C14.432 17.8998 14.456 17.4756 14.6 16.9854C14.624 16.9194 14.6 16.8439 14.528 16.7874L14.264 16.58C13.244 15.7692 12.872 14.7887 13.232 13.8931C13.604 13.0069 14.636 12.3847 16.064 12.1961L16.424 12.149L16.748 11.6399C17.408 10.584 18.488 9.97123 19.7 9.97123C20.912 9.97123 21.992 10.584 22.652 11.6399L22.832 11.9322C22.916 12.0736 23.084 12.1679 23.276 12.1961C23.384 12.215 23.492 12.2338 23.6 12.2527C24.02 12.3376 24.5 12.0736 24.5 11.7248V5.54969C24.5 2.11805 21.896 0.0722656 17.528 0.0722656ZM17.612 6.63386L14.84 9.44328C14.492 9.7921 14 10.0184 13.436 10.0655C12.884 10.1221 12.32 9.99951 11.888 9.72611L9.692 8.38739C9.608 8.33083 9.512 8.33083 9.464 8.34026C9.416 8.34026 9.332 8.35911 9.26 8.43453L6.404 11.3477C6.224 11.5268 5.96 11.6211 5.684 11.6211C5.492 11.6211 5.3 11.5739 5.132 11.4702C4.736 11.2345 4.664 10.7914 4.964 10.4803L7.82 7.56719C8.168 7.21837 8.66 6.99211 9.224 6.93555C9.788 6.87898 10.34 7.00154 10.784 7.27494L12.98 8.63251C13.064 8.68908 13.148 8.67965 13.208 8.67965C13.256 8.67965 13.34 8.66079 13.412 8.58537L16.184 5.77595C16.484 5.46484 17.048 5.40828 17.444 5.6534C17.852 5.88908 17.912 6.33218 17.612 6.63386Z" fill="#BFD6FF"/>
</g>
</g>
</svg>
