<svg width="50" height="50" viewBox="0 0 50 50" fill="none" xmlns="http://www.w3.org/2000/svg">
<path d="M25 0C11.2151 0 0 11.2151 0 25C0 38.7849 11.2151 50 25 50C38.7849 50 50 38.7849 50 25C50 11.2151 38.7849 0 25 0ZM34.0517 31.3329C34.2378 31.5097 34.3866 31.722 34.4894 31.9572C34.5921 32.1924 34.6468 32.4458 34.65 32.7025C34.6533 32.9592 34.6052 33.2139 34.5085 33.4517C34.4118 33.6894 34.2684 33.9054 34.0869 34.0869C33.9054 34.2684 33.6894 34.4118 33.4517 34.5085C33.2139 34.6052 32.9592 34.6533 32.7025 34.65C32.4458 34.6468 32.1924 34.5921 31.9572 34.4894C31.722 34.3866 31.5097 34.2378 31.3329 34.0517L25 27.72L18.6671 34.0517C18.3035 34.3971 17.8194 34.5868 17.3179 34.5804C16.8164 34.574 16.3373 34.3719 15.9827 34.0173C15.6281 33.6627 15.426 33.1836 15.4196 32.6821C15.4132 32.1806 15.6029 31.6965 15.9483 31.3329L22.28 25L15.9483 18.6671C15.6029 18.3035 15.4132 17.8194 15.4196 17.3179C15.426 16.8164 15.6281 16.3373 15.9827 15.9827C16.3373 15.6281 16.8164 15.426 17.3179 15.4196C17.8194 15.4132 18.3035 15.6029 18.6671 15.9483L25 22.28L31.3329 15.9483C31.6965 15.6029 32.1806 15.4132 32.6821 15.4196C33.1836 15.426 33.6627 15.6281 34.0173 15.9827C34.3719 16.3373 34.574 16.8164 34.5804 17.3179C34.5868 17.8194 34.3971 18.3035 34.0517 18.6671L27.72 25L34.0517 31.3329Z" fill="white"/>
</svg>
